<svg width="395" height="301" viewBox="0 0 395 301" fill="none" xmlns="http://www.w3.org/2000/svg"><g clip-path="url(#clip0_29805_33562)"><rect width="393.617" height="300" transform="translate(0.691406 0.5)"/><path fill-rule="evenodd" clip-rule="evenodd" d="M306.751 251.307L314.057 240.787C315.07 239.406 317.358 238.092 320.335 237.182L342.763 230.041C352.531 226.935 357.835 221.89 355.462 217.964L349.84 208.906C349.146 207.722 349.814 206.296 351.68 204.98L365.957 194.941C372.2 190.565 371.446 185.834 364.153 183.615L347.419 178.501C345.232 177.832 344.153 176.683 344.45 175.341L346.978 164.984C348.014 160.515 341.404 157.368 331.155 157.452L307.619 157.635C304.544 157.658 302.023 157.095 300.687 156.085L290.47 148.34C286.006 144.985 275.334 144.264 264.874 146.612L240.684 152.125C237.541 152.833 234.244 153.009 231.61 152.609L211.556 149.467C202.811 148.124 190.928 150.017 183.033 154.011L164.907 163.237C162.531 164.438 159.341 165.296 156.133 165.597L131.427 167.875C120.755 168.894 110.836 172.896 107.636 177.472L100.332 188.009C99.362 189.383 97.145 190.699 94.2247 191.637L71.7567 198.783C62.0118 201.896 56.717 206.932 59.0573 210.86L64.6788 219.919C65.3947 221.097 64.7407 222.523 62.88 223.839L48.5236 233.907C42.3294 238.281 43.0812 242.999 50.3282 245.232L67.2554 250.249C69.4283 250.924 70.4921 252.074 70.1833 253.416L67.6553 263.773C66.6519 268.234 73.2495 271.375 83.4792 271.305L106.903 271.206C109.978 271.183 112.499 271.746 113.835 272.756L124.05 280.485C128.49 283.852 139.181 284.574 149.645 282.213L173.836 276.7C176.985 275.995 180.283 275.825 182.911 276.232L202.871 279.306C211.603 280.67 223.519 278.772 231.395 274.762L249.482 265.559C251.857 264.356 255.042 263.493 258.254 263.182L282.96 260.905C293.64 259.897 303.577 255.888 306.751 251.307ZM297.409 241.464L304.181 232.269C305.119 231.061 307.224 229.902 309.957 229.089L330.55 222.714C339.519 219.94 343.251 217.061 341.108 213.669L336.188 206.754C334.407 203.701 337.573 201.585 339.355 200.394C339.436 200.34 339.514 200.288 339.589 200.238L352.06 192.045C355.071 189.866 356.268 188.27 351.215 186.408L339.589 182.153C337.591 181.588 336.912 179.864 337.194 178.695L339.589 166.691C341.206 161.126 332.916 161.46 324.651 161.792C323.111 161.854 321.572 161.916 320.097 161.94L298.555 161.94C296.335 161.975 294.662 160.539 293.458 159.505C293.135 159.228 292.846 158.98 292.589 158.796L283.292 152.147C279.231 149.267 269.464 148.724 259.867 150.843L237.673 155.819C234.789 156.458 231.769 156.636 229.36 156.308L211.02 153.734C203.022 152.635 192.126 154.371 184.865 157.901L168.196 166.054C166.01 167.115 163.083 167.885 160.143 168.172L137.501 170.341C127.721 171.308 118.607 174.861 115.641 178.86L108.871 188.069C107.973 189.27 105.932 190.431 103.251 191.267L82.6212 197.648C73.6735 200.427 63.0396 206.439 65.1524 209.833L71.5603 220.717C72.2067 221.735 72.3581 223.908 69.5656 225.504L61.8528 231.089C56.1469 234.937 56.0216 236.277 62.6408 238.161L78.103 242.388C80.0876 242.957 81.0529 243.949 80.7598 245.117L78.3651 254.132C77.4119 258.016 83.4293 260.693 92.7975 260.553L114.248 260.287C117.064 260.243 119.369 260.713 120.584 261.58L129.879 268.215C133.918 271.106 143.703 271.651 153.304 269.519L175.498 264.544C178.388 263.907 181.409 263.734 183.813 264.068L202.068 266.584C210.053 267.702 220.98 265.961 228.222 262.417L244.856 254.284C247.04 253.221 249.964 252.447 252.907 252.152L275.549 249.983C285.336 249.026 294.468 245.467 297.409 241.464Z" fill="url(#paint0_radial_29805_33562)"/><path d="M259.69 91.5669C247.029 96.5561 236.123 98.7423 231.134 86.0816L215.709 73.6424C210.124 68.0579 208.794 58.2167 216.773 50.7704C216.773 50.7704 226.081 39.0686 233.528 32.9513C247.89 21.1537 258.794 39.8662 271.969 50.7709L308.111 78.6956C313.1 91.3563 284.63 81.7385 271.969 86.7278L259.69 91.5669Z" fill="#3D3D3D"/><path d="M292.567 102.105C302.809 116.253 322.073 119.789 335.593 110.001L347.579 101.681C361.099 91.8931 362.94 77.1488 353.937 61.5512L339.828 42.0917C329.586 27.9432 310.323 24.408 296.802 34.1956L285.075 42.6853C271.554 52.473 272.391 74.2337 282.633 88.3822L292.567 102.105Z" fill="#3D3D3D"/><path d="M274.015 81.8636C260.787 81.5989 247.68 66.1064 247.946 52.7977L247.545 32.9882C247.812 19.6795 259.372 13.3393 272.6 13.604L286.923 13.8907C303.476 13.8907 310.392 19.1211 310.392 38.4675L310.044 55.8834C309.778 69.1921 298.838 79.7663 285.61 79.5016L274.015 81.8636Z" fill="#3D3D3D"/><path d="M311.6 93.4222C321.944 94.7093 331.186 104.766 329.899 115.11L324.875 150.228C323.363 162.383 312.283 171.01 300.128 169.498L245.81 162.739C233.655 161.227 225.91 148.022 226.752 141.254L233.776 90.942C239.794 84.0882 257.189 83.5135 268.368 82.9511L311.6 93.4222Z" fill="#A46648"/><path d="M314.08 95.0736C322.885 96.1692 332.166 104.748 330.878 115.093L325.162 161.034C323.65 173.189 313.822 179.983 303.476 178.695L257.866 175.002C243.635 175.002 225.205 154.02 226.721 141.83L247.175 104.678C248.463 94.3338 256.644 86.836 265.449 87.9316L314.08 95.0736Z" fill="#A46648"/><path fill-rule="evenodd" clip-rule="evenodd" d="M305.303 178.84C304.696 178.82 304.087 178.772 303.476 178.696L257.866 175.003C253.686 175.003 249.143 173.192 244.85 170.326C244.134 169.286 243.278 168.048 242.39 166.765C240.439 163.946 238.338 160.909 237.252 159.28C234.592 155.291 233.528 147.976 248.422 148.909C260.39 149.175 278.741 150.504 288.582 151.302C298.422 152.1 303.741 153.429 307.199 157.685C309.843 160.94 310.621 162.483 311.435 164.1C311.686 164.597 311.939 165.101 312.252 165.663C313.582 168.057 314.912 177.632 307.199 178.695C306.709 178.763 306.071 178.81 305.303 178.84Z" fill="#80482D"/><path d="M241.513 108.748C242.239 102.91 247.103 97.5083 252.377 96.6818C257.65 95.8553 261.337 99.9173 260.61 105.754L259.791 112.339C259.065 118.176 254.201 123.578 248.927 124.404C243.654 125.231 239.968 121.169 240.694 115.332L241.513 108.748Z" fill="white"/><path fill-rule="evenodd" clip-rule="evenodd" d="M244.94 105.295C246.842 104.997 248.596 103.049 248.858 100.944C248.968 100.06 248.798 99.2887 248.422 98.7136C248.686 98.6194 248.954 98.5495 249.225 98.5071C251.56 98.1412 253.191 99.9391 252.87 102.523L252.137 108.414C251.815 110.998 249.663 113.389 247.328 113.755C244.994 114.12 243.363 112.322 243.684 109.739L244.233 105.325C244.458 105.343 244.694 105.334 244.94 105.295Z" fill="#3D3D3D"/><path d="M269.172 106.62C269.899 100.783 274.762 95.3807 280.036 94.5542C285.309 93.7277 288.996 97.7897 288.27 103.627L287.45 110.211C286.724 116.048 281.86 121.45 276.587 122.277C271.313 123.103 267.627 119.041 268.353 113.204L269.172 106.62Z" fill="white"/><path fill-rule="evenodd" clip-rule="evenodd" d="M270.818 103.813C272.719 103.514 274.471 101.566 274.733 99.4623C274.833 98.6575 274.701 97.9463 274.393 97.3913C274.851 97.1536 275.332 96.988 275.821 96.9113C278.155 96.5455 279.787 98.3434 279.466 100.927L278.733 106.818C278.411 109.402 276.258 111.793 273.924 112.159C271.59 112.525 269.958 110.727 270.28 108.143L270.818 103.813Z" fill="#3D3D3D"/><path d="M268.099 123.139C272.594 115.982 283.251 113.513 293.255 116.398L290.934 123.599C281.289 125.373 264.519 128.838 268.099 123.139Z" fill="#A46648"/><path d="M254.225 128.457C250.139 121.292 240.48 118.803 231.421 121.669L233.538 128.874C242.279 130.666 257.48 134.162 254.225 128.457Z" fill="#A46648"/><path d="M258.064 119.605C257.393 121.557 258.431 123.684 260.383 124.355C262.335 125.026 264.462 123.987 265.133 122.035C265.804 120.083 263.973 114.39 263.826 114.34C263.679 114.289 258.735 117.653 258.064 119.605Z" fill="#86401F"/><path d="M254.376 119.166C254.944 117.118 257.065 115.918 259.113 116.486L262.409 117.4C264.457 117.968 265.657 120.089 265.089 122.137C264.521 124.185 262.4 125.385 260.352 124.817L257.056 123.902C255.008 123.334 253.808 121.214 254.376 119.166Z" fill="#86401F"/><path d="M262.49 75.0411C264.241 65.8962 273.458 60.1097 283.077 62.1166L282.183 66.787C280.432 75.9319 271.214 81.7184 261.595 79.7115L262.49 75.0411Z" fill="#FDB02A"/><path d="M266.618 75.9976C264.192 67.7726 255.002 63.3654 246.091 66.1538L247.33 70.3543C249.756 78.5793 258.946 82.9866 267.857 80.1982L266.618 75.9976Z" fill="#FDB02A"/><path fill-rule="evenodd" clip-rule="evenodd" d="M307.7 77.6934C311.208 77.6485 314.517 79.3506 316.527 82.2256L336.188 110.345L329.854 131.052C329.621 131.814 328.608 131.965 328.162 131.305L307.678 100.939C307.02 99.964 306.076 99.217 304.976 98.8009L267.305 84.5469L232.465 100.77L231.104 87.791C230.965 86.4569 231.841 85.2259 233.15 84.9304C257.079 79.527 275.15 78.1105 307.7 77.6934Z" fill="#FDB02A"/><path fill-rule="evenodd" clip-rule="evenodd" d="M240.676 90.1118C244.695 83.1347 251.87 82.7756 255.065 83.4923C255.976 83.6967 256.703 84.6937 256.689 85.719C256.674 86.7443 255.923 87.4098 255.012 87.2053C252.608 86.6662 246.771 86.9462 243.531 92.5709C243.073 93.3659 242.063 93.4599 241.275 92.7808C240.486 92.1018 240.218 90.9068 240.676 90.1118Z" fill="#884727"/><path fill-rule="evenodd" clip-rule="evenodd" d="M295.398 84.6264C289.522 78.5265 281.936 79.5566 278.768 80.879C277.864 81.2563 277.344 82.3788 277.605 83.3863C277.867 84.3938 278.812 84.9047 279.715 84.5274C282.098 83.5326 288.267 82.6826 293.004 87.6C293.674 88.295 294.752 88.1928 295.413 87.3717C296.074 86.5505 296.068 85.3214 295.398 84.6264Z" fill="#884727"/><path d="M333.896 131.113C333.145 137.155 327.637 141.443 321.595 140.691C315.554 139.94 311.265 134.432 312.017 128.39C312.769 122.348 318.276 118.06 324.318 118.812C330.36 119.563 334.648 125.071 333.896 131.113Z" fill="#A46648"/><path fill-rule="evenodd" clip-rule="evenodd" d="M260.501 132.725C261.199 129.211 265.089 127.135 269.05 127.032C270.286 126.999 271.474 126.438 272.318 125.532C275.056 122.594 279.436 122.158 282.375 124.225C285.795 126.63 286.519 131.408 284.109 134.833C280.241 140.331 273.184 142.981 266.562 141.676C262.459 140.867 259.685 136.831 260.501 132.725Z" fill="#A41414"/><path fill-rule="evenodd" clip-rule="evenodd" d="M285.442 129.205C282.93 131.178 279.816 131.167 277.639 128.723C275.689 130.911 272.427 131.526 269.807 130.027C268.67 129.377 268.026 128.391 267.738 127.136C268.173 127.077 268.613 127.041 269.054 127.029C270.29 126.997 271.478 126.435 272.322 125.529C275.06 122.592 279.44 122.155 282.38 124.223C284.107 125.438 285.147 127.259 285.442 129.205Z" fill="white"/><path fill-rule="evenodd" clip-rule="evenodd" d="M284.521 134.179C284.395 134.401 284.257 134.619 284.108 134.832C280.836 139.483 275.282 142.096 269.64 142.001C270.16 135.284 277.885 131.09 284.2 134.024C284.308 134.074 284.415 134.126 284.521 134.179Z" fill="#FF4B4B"/><ellipse cx="273.713" cy="167.895" rx="19.0103" ry="11.9681" transform="rotate(6.51631 273.713 167.895)" fill="#FDB02A"/><path d="M254.805 165.664L254.007 172.578L291.507 176.302L292.571 170.717L254.805 165.664Z" fill="#F9B133"/><path d="M242.038 172.578C247.091 170.451 249.75 172.844 252.942 174.706L245.229 195.717C240.176 197.312 228.58 200.663 222.623 201.302C215.176 202.1 210.123 195.983 207.729 191.993C205.335 188.004 193.367 165.663 192.038 162.472C190.708 159.28 188.048 155.557 186.452 154.493C184.857 153.429 182.729 151.302 179.272 148.376C175.814 145.451 196.559 131.355 201.878 131.355C207.197 131.355 214.677 139.5 212.55 142.425C210.422 145.351 210.123 150.504 211.186 152.1C212.25 153.695 217.569 163.802 221.559 170.983C225.548 178.163 230.069 176.302 231.665 176.036C233.261 175.77 236.984 174.706 242.038 172.578Z" fill="#A1674A"/><rect x="211.059" y="119.716" width="13.2979" height="24.2504" rx="6.64894" transform="rotate(31.7364 211.059 119.716)" fill="#A1674A"/><rect x="194.165" y="103.008" width="14.427" height="34.7187" rx="7.21348" transform="rotate(-1.4953 194.165 103.008)" fill="#A1674A"/><path d="M184.247 109.155C184.143 105.173 187.288 101.86 191.27 101.756C195.253 101.652 198.565 104.796 198.669 108.779L199.199 129.064C199.303 133.046 196.159 136.359 192.176 136.463C188.194 136.567 184.881 133.423 184.777 129.44L184.247 109.155Z" fill="#A1674A"/><path fill-rule="evenodd" clip-rule="evenodd" d="M209.012 118.906L209.16 124.555C209.131 124.578 209.101 124.6 209.072 124.623C207.809 125.602 206.426 126.849 205.262 128.158C202.81 130.916 201.411 133.114 201.105 133.659C200.457 134.811 198.997 135.219 197.845 134.571C196.693 133.923 196.284 132.464 196.932 131.312C197.424 130.438 199.03 127.964 201.684 124.977C203.074 123.414 204.683 121.968 206.139 120.839C207.108 120.088 208.117 119.394 209.012 118.906Z" fill="#854F34"/><path d="M240.443 181.09C245.974 169.6 260.123 165.437 275.283 166.727C290.443 168.018 305.329 181.887 302.677 197.046C301.187 205.557 293.545 211.586 289.911 213.536L243.9 209.015C240.443 204.494 234.911 192.579 240.443 181.09Z" fill="#F9B133"/><path fill-rule="evenodd" clip-rule="evenodd" d="M331.332 222.467C323.184 209.128 310.387 188.125 307.198 182.685C302.677 174.972 297.092 175.504 293.9 177.099C290.709 178.695 286.719 183.216 290.709 191.461C293.83 197.912 305.178 218.627 310.817 228.823L330.55 222.714C330.815 222.632 331.076 222.55 331.332 222.467Z" fill="#A1674A"/><ellipse cx="268.797" cy="207.297" rx="24.3853" ry="14.6277" transform="rotate(8.21914 268.797 207.297)" fill="#FF4B4B"/><path fill-rule="evenodd" clip-rule="evenodd" d="M254.037 194.266L253.47 205.426L248.158 205.156L248.555 197.345C250.047 196.106 251.905 195.067 254.037 194.266ZM270.291 192.738L269.178 206.317L276.6 206.925L277.627 194.392C275.519 193.698 273.258 193.162 270.888 192.82C270.689 192.791 270.49 192.764 270.291 192.738Z" fill="#2DAFF4"/><path fill-rule="evenodd" clip-rule="evenodd" d="M301.668 235.681L297.409 241.464C294.468 245.467 285.337 249.026 275.549 249.983L252.907 252.152C249.964 252.447 247.04 253.221 244.857 254.284L228.222 262.417C225.59 263.705 222.472 264.755 219.186 265.516C222.843 254.979 229.601 234.285 231.134 229.493C235.219 216.727 241.772 201.302 258.262 199.44C274.751 197.578 284.06 202.365 289.645 206.887C295.23 211.408 299.751 216.993 301.081 224.174C301.53 226.597 301.679 231.093 301.668 235.681Z" fill="#1CB0F6"/><path fill-rule="evenodd" clip-rule="evenodd" d="M172.734 203.245C169.231 201.599 167.662 197.383 169.229 193.828L173.637 183.836C175.205 180.281 179.316 178.733 182.819 180.379C186.323 182.025 187.892 186.241 186.324 189.796L181.917 199.789C180.349 203.344 176.238 204.891 172.734 203.245Z" fill="#F49000"/><path d="M43.2516 132.985C41.1789 117.559 51.4387 106.459 63.7303 107.186C73.4738 107.762 80.3412 110.259 85.6764 109.337C87.4808 109.025 89.1199 108.09 90.3361 106.696C92.5546 104.152 94.5767 100.624 100.994 94.3028C105.134 90.2244 111.99 88.5956 119.434 88.8176C135.78 89.3051 147 104.465 152.93 120.397L163.882 149.823C174.466 178.262 161.291 209.504 134.455 219.606C107.618 229.707 78.7042 215.98 64.56 187.208C50.4157 158.435 45.3242 148.411 43.2516 132.985Z" fill="#58CC02"/><path d="M117.025 155.039C146.72 133.803 165.053 121.846 177.732 101.132C180.986 98.2426 186.24 99.6819 188.109 103.974C197.085 124.599 192.573 148.352 176.535 162.594C160.496 176.836 136.92 178.025 118.289 165.974C114.411 163.466 113.771 157.929 117.025 155.039Z" fill="#58CC02"/><path d="M117.18 182.675L129.58 177.329C130.245 177.043 130.985 177.471 131.042 178.175C131.315 181.558 129.317 184.838 126.041 186.25C122.764 187.662 119.026 186.856 116.78 184.323C116.313 183.796 116.515 182.961 117.18 182.675Z" fill="#8EE000"/><path d="M139.29 173.153L150.373 168.374C150.967 168.118 151.658 168.568 151.736 169.263C152.115 172.601 150.421 175.749 147.493 177.012C144.565 178.274 141.131 177.337 138.99 174.759C138.544 174.222 138.696 173.409 139.29 173.153Z" fill="#8EE000"/><path d="M132.91 188.609L145.015 183.39C145.664 183.11 146.393 183.544 146.455 184.246C146.752 187.619 144.821 190.869 141.623 192.248C138.425 193.626 134.754 192.791 132.532 190.248C132.07 189.719 132.261 188.889 132.91 188.609Z" fill="#8EE000"/><path d="M106.464 151.264L26.6278 163.039C22.3485 163.67 19.9843 168.37 21.9587 172.321C31.4447 191.302 52.0811 202.332 73.1737 199.221C94.2662 196.11 110.569 179.632 113.779 158.778C114.447 154.438 110.743 150.633 106.464 151.264Z" fill="#58CC02"/><path fill-rule="evenodd" clip-rule="evenodd" d="M102.951 122.109C110.84 125.535 120.591 121.565 124.391 113.382C128.191 105.198 137.203 146.818 137.161 146.718C137.142 146.671 133.844 147.997 127.268 150.698C125.506 151.421 122.332 152.729 117.746 154.622C102.624 130.663 97.6919 119.825 102.951 122.109Z" fill="#89E219"/><path d="M83.195 114.135C83.195 114.135 90.2826 116.043 94.6238 117.834C98.921 119.607 105.254 123.215 105.254 123.215C106.395 123.78 106.669 125.284 105.795 126.186C101.596 130.519 94.9417 131.653 89.3185 128.871C83.6954 126.089 79.7269 121.533 80.5408 115.525C80.7103 114.274 82.0542 113.57 83.195 114.135Z" fill="#89E219"/><path d="M76.8087 120.349L96.831 130.256C97.9042 130.787 98.1618 132.202 97.3397 133.051C93.3898 137.127 87.1296 138.194 81.8398 135.577C76.5499 132.959 73.5461 127.308 74.3118 121.656C74.4712 120.48 75.7355 119.818 76.8087 120.349Z" fill="#89E219"/><path d="M74.4626 150.632C69.7807 139.365 75.03 126.55 86.1872 122.009C97.3444 117.467 110.184 122.919 114.866 134.185L119.044 144.237C123.725 155.504 118.476 168.319 107.319 172.861C96.1617 177.402 83.3216 171.951 78.6398 160.684L74.4626 150.632Z" fill="#89E219"/><path fill-rule="evenodd" clip-rule="evenodd" d="M149.024 112.779C150.623 115.612 152.046 118.569 153.287 121.555L157.639 132.028C160.853 142.232 158.798 151.905 151.321 154.948C143.102 158.294 132.644 151.872 127.963 140.606L123.785 130.554C119.103 119.287 121.971 107.442 130.19 104.096C136.595 101.489 143.632 105.11 148.641 112.168C148.77 112.371 148.897 112.575 149.024 112.779Z" fill="#89E219"/><path d="M117.846 99.3452C118.471 100.848 125.089 118.039 115.882 121.786L124.874 131.253L128.85 107.541L135.218 107.623C136.851 107.868 139.63 107.819 138.652 105.257C136.752 100.278 131.411 97.6357 129.799 98.2918C128.96 98.6336 129.08 98.9092 131.454 103.704C126.94 97.9456 123.114 97.262 121.25 96.7438C118.912 96.0939 116.578 96.294 117.846 99.3452Z" fill="#89E219"/><path d="M115.515 122.008C106.409 125.714 96.8633 117.324 86.3745 115.059L91.7437 121.963L104.421 128.102L114.9 130.906C117.297 127.047 120.776 119.866 115.515 122.008Z" fill="#89E219"/><path d="M82.3933 147.509C79.1364 139.671 82.788 130.756 90.5496 127.597C98.3111 124.438 107.243 128.23 110.5 136.068L113.817 144.05C117.074 151.888 113.423 160.803 105.661 163.962C97.8996 167.122 88.9674 163.329 85.7105 155.491L82.3933 147.509Z" fill="white"/><path d="M129.311 128.411C126.054 120.573 127.866 112.407 133.359 110.171C138.852 107.935 145.945 112.476 149.202 120.314L152.519 128.297C155.776 136.134 153.963 144.301 148.471 146.536C142.978 148.772 135.885 144.231 132.628 136.393L129.311 128.411Z" fill="white"/><path d="M132.222 123.308C134.555 122.266 135.41 119.057 134.133 116.142C133.715 115.189 133.121 114.385 132.429 113.771C132.848 113.341 133.342 112.989 133.904 112.738C136.82 111.435 140.478 113.332 142.075 116.976L145.159 124.014C146.756 127.658 145.687 131.668 142.771 132.972C139.855 134.275 136.196 132.377 134.599 128.733L132.222 123.308Z" fill="#4B4B4B"/><path fill-rule="evenodd" clip-rule="evenodd" d="M92.6104 139.599C95.4412 138.235 96.5472 134.616 95.0807 131.515C94.6013 130.501 93.9061 129.668 93.0887 129.054C93.6031 128.541 94.2052 128.107 94.8874 127.778C98.4261 126.073 102.781 127.833 104.614 131.709L108.154 139.196C109.987 143.072 108.605 147.596 105.066 149.301C101.527 151.006 97.1726 149.246 95.3395 145.37L92.6104 139.599Z" fill="#4B4B4B"/><path d="M116.969 149.02C115.285 144.497 119.581 146.629 123.37 145.203C127.158 143.777 129.653 139.155 131.336 143.678L134.316 153.598C135.733 158.317 134.292 162.944 130.503 164.37C126.714 165.796 122.278 163.286 120.595 158.763L116.969 149.02Z" fill="#F49000"/><path d="M121.065 148.02C120.287 145.677 122.344 144.404 124.582 143.656C126.819 142.908 129.264 144.202 130.042 146.545L132.338 153.364C133.117 155.708 131.934 158.213 129.696 158.961C127.459 159.709 125.014 158.416 124.236 156.073L121.065 148.02Z" fill="#CA6B18"/><path fill-rule="evenodd" clip-rule="evenodd" d="M131.895 157.228C131.394 158.022 130.639 158.648 129.698 158.963C127.46 159.711 125.016 158.418 124.237 156.075L122.6 151.899C123.518 151.293 124.637 150.956 125.838 150.999C128.874 151.106 131.994 153.804 131.93 156.767C131.927 156.923 131.915 157.077 131.895 157.228Z" fill="#F4BEC0"/><path d="M135.539 140.165L131.55 145.484L124.901 139.633L135.539 140.165Z" fill="#E99501"/><path d="M129.421 144.953C129.634 145.378 129.953 146.549 130.219 147.347L121.974 150.006L120.112 145.484L127.559 139.633C128.534 140.165 130.315 140.437 131.017 140.963C132.08 141.761 131.017 142.559 130.485 143.091L130.484 143.091C129.89 143.686 129.155 144.421 129.421 144.953Z" fill="#C36E1D"/><path d="M135.574 139.944C135.836 140.429 135.753 140.835 135.201 141.139C135.076 141.208 134.929 141.222 134.787 141.197C133.83 141.03 129.987 140.357 129.26 140.221C128.428 140.065 127.532 140.387 126.635 141.234C125.777 142.045 118.074 149.124 117.415 149.731C117.381 149.761 117.351 149.785 117.311 149.806C116.725 150.12 116.133 149.672 116.094 149.344C115.473 145.17 116.756 138.733 122.832 136.113C128.909 133.493 134.12 136.583 135.574 139.944Z" fill="#FFC200"/><path fill-rule="evenodd" clip-rule="evenodd" d="M101.421 206.049C105.199 203.739 110.073 204.992 112.308 208.847L118.592 219.684C120.827 223.539 119.577 228.536 115.8 230.845C112.022 233.154 107.148 231.901 104.913 228.046L98.629 217.21C96.3936 213.355 97.6437 208.358 101.421 206.049Z" fill="#F49000"/><rect x="328.208" y="249.107" width="17.0213" height="17.0213" rx="4.25532" transform="rotate(45 328.208 249.107)" fill="#BBEC8A"/><rect x="357.996" y="229.426" width="13.5881" height="13.5881" rx="3.19149" transform="rotate(45 357.996 229.426)" fill="#D3F3B2"/><rect x="366.24" y="117.192" width="13.5881" height="13.5881" rx="3.19149" transform="rotate(45 366.24 117.192)" fill="#E9FAD9"/><rect x="37.5176" y="258.415" width="13.5881" height="13.5881" rx="3.19149" transform="rotate(45 37.5176 258.415)" fill="#DDFCBE"/><rect x="76.6128" y="82.3513" width="10.5791" height="10.5791" rx="2.48476" transform="rotate(45 76.6128 82.3513)" fill="#CFF2AC"/><rect x="198.687" y="38.2024" width="8.79255" height="8.79255" rx="2.06514" transform="rotate(45 198.687 38.2024)" fill="#EAFAD9"/></g><defs><radialGradient id="paint0_radial_29805_33562" cx="0" cy="0" r="1" gradientUnits="userSpaceOnUse" gradientTransform="translate(207.253 184.547) rotate(79.884) scale(122.341 264.671)"><stop stop-color="#FCFFF9"/><stop offset="0.509312" stop-color="#D3F3B3"/><stop offset="0.909806" stop-color="#9CE355"/></radialGradient><clipPath id="clip0_29805_33562"><rect width="393.617" height="300" fill="white" transform="translate(0.691406 0.5)"/></clipPath></defs></svg>