<svg width="330" height="221" viewBox="0 0 330 221" fill="none" xmlns="http://www.w3.org/2000/svg"><rect y="0.355469" width="330" height="220" rx="24" fill="#D7FFB8"/><path d="M210.026 157.947L206.08 168.309C205.247 170.494 203.686 172.325 201.661 173.494C199.635 174.663 197.269 175.097 194.96 174.725L184.014 172.972C183.306 172.861 182.583 172.899 181.891 173.084C181.199 173.269 180.553 173.598 179.996 174.048L171.397 181.038C169.585 182.515 167.319 183.321 164.981 183.321C162.643 183.321 160.377 182.515 158.565 181.038L149.966 174.048C149.408 173.596 148.76 173.267 148.066 173.082C147.373 172.897 146.647 172.859 145.938 172.972L134.992 174.725C132.683 175.097 130.317 174.663 128.291 173.494C126.265 172.325 124.705 170.494 123.872 168.309L119.926 157.947C119.669 157.279 119.276 156.672 118.771 156.166C118.267 155.659 117.661 155.264 116.994 155.005L106.633 151.059C104.446 150.228 102.614 148.667 101.445 146.641C100.276 144.615 99.842 142.248 100.217 139.939L101.969 128.993C102.088 128.289 102.058 127.568 101.881 126.876C101.705 126.184 101.386 125.536 100.944 124.975L93.9031 116.376C92.4265 114.564 91.6201 112.298 91.6201 109.96C91.6201 107.622 92.4265 105.356 93.9031 103.544L100.893 94.9451C101.334 94.3838 101.654 93.7364 101.83 93.0445C102.007 92.3527 102.036 91.6315 101.918 90.9274L100.217 79.9813C99.842 77.6724 100.276 75.3049 101.445 73.2789C102.614 71.2528 104.446 69.6923 106.633 68.861L116.994 64.9048C117.663 64.6518 118.27 64.2597 118.775 63.7543C119.281 63.2489 119.673 62.6419 119.926 61.9735L123.882 51.6116C124.713 49.4252 126.274 47.5928 128.3 46.4238C130.326 45.2549 132.693 44.8211 135.002 45.1957L145.938 46.9483C146.642 47.0667 147.363 47.0368 148.055 46.8603C148.747 46.6838 149.394 46.3647 149.956 45.9233L158.555 38.9334C160.367 37.4567 162.633 36.6504 164.971 36.6504C167.308 36.6504 169.575 37.4567 171.387 38.9334L179.986 45.9233C180.547 46.3647 181.195 46.6838 181.886 46.8603C182.578 47.0368 183.299 47.0667 184.004 46.9483L194.95 45.1957C197.259 44.8211 199.626 45.2549 201.652 46.4238C203.678 47.5928 205.239 49.4252 206.07 51.6116L210.016 61.9735C210.274 62.6403 210.67 63.2456 211.176 63.7505C211.683 64.2553 212.29 64.6485 212.957 64.9048L223.319 68.861C225.505 69.6939 227.336 71.2547 228.504 73.2804C229.673 75.306 230.108 77.6726 229.735 79.9813L227.993 90.9172C227.881 91.6249 227.92 92.3481 228.105 93.0401C228.29 93.7321 228.619 94.3776 229.069 94.9348L236.059 103.534C237.536 105.346 238.342 107.612 238.342 109.95C238.342 112.288 237.536 114.554 236.059 116.366L229.069 124.965C228.619 125.522 228.29 126.168 228.105 126.86C227.92 127.552 227.881 128.275 227.993 128.983L229.746 139.929C230.118 142.237 229.683 144.604 228.515 146.63C227.346 148.655 225.515 150.216 223.33 151.049L212.968 154.995C212.298 155.253 211.69 155.65 211.183 156.158C210.677 156.667 210.282 157.276 210.026 157.947Z" fill="#58CC02"/><path d="M193.373 100.137C196.06 106.105 196.582 112.824 194.85 119.135C193.118 125.447 189.24 130.958 183.884 134.72C178.528 138.481 172.028 140.259 165.503 139.746C158.978 139.233 152.836 136.462 148.134 131.909C143.167 133.725 137.758 133.95 132.658 132.552C127.558 131.154 123.019 128.204 119.672 124.11C119.341 123.701 119.111 123.22 119.002 122.706C118.892 122.192 118.906 121.659 119.042 121.151C119.178 120.644 119.432 120.175 119.784 119.784C120.136 119.394 120.575 119.092 121.066 118.903L134.687 113.635L127.768 103.765C126.872 102.481 126.306 100.995 126.123 99.4393C125.939 97.8837 126.143 96.3068 126.716 94.849C127.289 93.3912 128.214 92.0978 129.408 91.0838C130.602 90.0698 132.028 89.3667 133.559 89.0372C141.349 87.3768 146.357 85.7677 148.585 84.2098C150.812 82.652 153.982 78.5523 158.096 71.9109C158.926 70.5785 160.073 69.4727 161.435 68.6925C162.797 67.9124 164.331 67.4822 165.9 67.4406C167.469 67.399 169.024 67.7471 170.426 68.4539C171.827 69.1608 173.031 70.2041 173.931 71.4906L180.808 81.2888L190.258 70.4145C190.602 70.0171 191.035 69.7068 191.522 69.509C192.01 69.3112 192.537 69.2316 193.06 69.2766C193.584 69.3215 194.09 69.4899 194.536 69.7678C194.983 70.0458 195.357 70.4254 195.628 70.8757C198.318 75.3895 199.545 80.625 199.141 85.864C198.738 91.1029 196.723 96.0886 193.373 100.137ZM168.96 146.791L161.652 145.766C160.422 145.588 159.172 145.906 158.176 146.65C157.181 147.394 156.521 148.503 156.343 149.733C156.165 150.963 156.483 152.213 157.227 153.209C157.971 154.204 159.08 154.864 160.31 155.042L167.617 156.067C168.849 156.238 170.098 155.913 171.089 155.163C172.081 154.414 172.735 153.301 172.906 152.07C173.077 150.838 172.752 149.589 172.002 148.597C171.253 147.606 170.14 146.952 168.909 146.781L168.96 146.791ZM207.363 113.994C206.15 113.735 204.883 113.969 203.842 114.644C202.8 115.318 202.069 116.378 201.808 117.591L200.281 124.858C200.133 125.468 200.109 126.101 200.21 126.72C200.311 127.339 200.536 127.932 200.87 128.463C201.205 128.993 201.643 129.451 202.158 129.81C202.673 130.168 203.255 130.419 203.869 130.548C204.483 130.677 205.116 130.682 205.732 130.561C206.348 130.441 206.933 130.198 207.453 129.847C207.973 129.496 208.417 129.044 208.759 128.518C209.101 127.992 209.334 127.403 209.444 126.785L210.971 119.61C211.233 118.391 211 117.118 210.323 116.071C209.647 115.024 208.582 114.288 207.363 114.025V113.994Z" fill="white"/></svg>