<svg width="180" height="121" viewBox="0 0 180 121" fill="none" xmlns="http://www.w3.org/2000/svg"><rect width="180" height="120" transform="translate(0 0.5)" fill="none"/><path d="M18.9233 68.0526L32.628 81.9989" stroke="#AFAFAF" stroke-width="2" stroke-linecap="round" stroke-linejoin="round"/><path d="M64.4058 39.5194L86.9634 70.3089" stroke="#AFAFAF" stroke-width="2" stroke-linejoin="round"/><path d="M120.328 41.4645L139.322 50.0572" stroke="#AFAFAF" stroke-width="2" stroke-linejoin="round"/><path d="M92.832 70.3503L114.46 42.6469" stroke="#AFAFAF" stroke-width="2" stroke-linejoin="round"/><path d="M160.234 73.1086L144.787 53.9429" stroke="#AFAFAF" stroke-width="2" stroke-linecap="round" stroke-linejoin="round"/><path d="M38.7202 81.3402L61.1128 40.0128" stroke="#AFAFAF" stroke-width="2" stroke-linejoin="round"/><circle cx="36.4409" cy="85.0117" r="4.50191" fill="#E5E5E5" stroke="#AFAFAF" stroke-width="2"/><circle cx="62.6435" cy="37.0518" r="4.50191" fill="#E5E5E5" stroke="#AFAFAF" stroke-width="2"/><circle cx="89.6084" cy="73.5556" r="4.50191" fill="#E5E5E5" stroke="#AFAFAF" stroke-width="2"/><circle cx="116.655" cy="39.937" r="4.50191" fill="#E5E5E5" stroke="#AFAFAF" stroke-width="2"/><circle cx="142.775" cy="51.3411" r="4.50191" fill="#E5E5E5" stroke="#AFAFAF" stroke-width="2"/><path d="M18.769 79.1194L32.4608 70.3492" stroke="#1CB0F6" stroke-width="2" stroke-linecap="round" stroke-linejoin="round"/><path d="M66.4238 75.8703L86.1145 61.2849" stroke="#1CB0F6" stroke-width="2" stroke-linejoin="round"/><path d="M93.3018 60.4531L112.68 69.2042" stroke="#1CB0F6" stroke-width="2.3536" stroke-linejoin="round"/><path d="M119.763 67.2245L140.08 40.6586" stroke="#1CB0F6" stroke-width="2" stroke-linejoin="round"/><path d="M161.018 47.8469L146.433 38.9915" stroke="#1CB0F6" stroke-width="2" stroke-linecap="round" stroke-linejoin="round"/><circle cx="36.4409" cy="68.0526" r="5.50191" fill="#1CB0F6"/><circle cx="62.644" cy="78.6378" r="5.50191" fill="#1CB0F6"/><circle cx="89.6074" cy="58.9428" r="5.50191" fill="#1CB0F6"/><circle cx="116.656" cy="70.862" r="5.50191" fill="#1CB0F6"/><circle cx="142.775" cy="37.0518" r="5.50191" fill="#1CB0F6"/><path d="M40.0659 69.5162L57.8803 76.7053" stroke="#1CB0F6" stroke-width="2" stroke-linejoin="round"/></svg>