<svg width="180" height="121" viewBox="0 0 180 121" fill="none" xmlns="http://www.w3.org/2000/svg"><rect width="180" height="120" transform="translate(0 0.5)" fill="none"/><rect x="142" y="31.0107" width="2" height="14" rx="1" fill="#1CB0F6"/><rect x="83" y="35.0107" width="60" height="6" fill="white" stroke="#1CB0F6" stroke-width="2"/><rect x="92" y="36.0107" width="2" height="4" fill="#1CB0F6"/><rect x="102" y="36.0107" width="2" height="4" fill="#1CB0F6"/><rect x="112" y="36.0107" width="2" height="4" fill="#1CB0F6"/><rect x="122" y="36.0107" width="2" height="4" fill="#1CB0F6"/><rect x="132" y="36.0107" width="2" height="4" fill="#1CB0F6"/><rect x="82" y="31.0107" width="2" height="14" rx="1" fill="#1CB0F6"/><path d="M76.6055 21.6348L72.2316 26.0086" stroke="#84D8FF" stroke-width="2" stroke-linecap="round"/><path d="M68.0508 17.8252L68.0508 24.0107" stroke="#84D8FF" stroke-width="2" stroke-linecap="round"/><path d="M63.7656 26.1953L59.3918 21.8215" stroke="#84D8FF" stroke-width="2" stroke-linecap="round"/><rect x="63" y="34.8218" width="10" height="6" fill="white" stroke="#1CB0F6" stroke-width="2"/><rect x="62" y="30.8218" width="2" height="14" rx="1" fill="#1CB0F6"/><rect x="72" y="30.8218" width="2" height="14" rx="1" fill="#1CB0F6"/><rect x="33" y="34.8218" width="20" height="6" fill="white" stroke="#1CB0F6" stroke-width="2"/><rect x="42" y="35.8218" width="2" height="4" fill="#1CB0F6"/><rect x="32" y="30.8218" width="2" height="14" rx="1" fill="#1CB0F6"/><rect x="52" y="30.8218" width="2" height="14" rx="1" fill="#1CB0F6"/><rect x="124.996" y="77.0107" width="2" height="14" rx="1" fill="#1CB0F6"/><rect x="45.9961" y="81.0107" width="80" height="6" fill="white" stroke="#1CB0F6" stroke-width="2"/><rect x="54.9961" y="82.0107" width="2" height="4" fill="#1CB0F6"/><rect x="64.9961" y="82.0107" width="2" height="4" fill="#1CB0F6"/><rect x="74.9961" y="82.0107" width="2" height="4" fill="#1CB0F6"/><rect x="84.9961" y="82.0107" width="2" height="4" fill="#1CB0F6"/><rect x="94.9961" y="82.0107" width="2" height="4" fill="#1CB0F6"/><rect x="104.996" y="82.0107" width="2" height="4" fill="#1CB0F6"/><rect x="114.996" y="82.0107" width="2" height="4" fill="#1CB0F6"/><rect x="44.9961" y="77.0107" width="2" height="14" rx="1" fill="#1CB0F6"/><path d="M154.605 99.3647L150.232 94.9909" stroke="#84D8FF" stroke-width="2" stroke-linecap="round"/><path d="M146.051 103.174L146.051 96.9888" stroke="#84D8FF" stroke-width="2" stroke-linecap="round"/><path d="M141.766 94.8042L137.392 99.178" stroke="#84D8FF" stroke-width="2" stroke-linecap="round"/><rect x="135.996" y="81.0107" width="20" height="6" fill="white" stroke="#1CB0F6" stroke-width="2"/><rect x="144.996" y="82.0107" width="2" height="4" fill="#1CB0F6"/><rect x="134.996" y="77.0107" width="2" height="14" rx="1" fill="#1CB0F6"/><rect x="154.996" y="77.0107" width="2" height="14" rx="1" fill="#1CB0F6"/><rect x="25.9961" y="81.0107" width="10" height="6" fill="white" stroke="#1CB0F6" stroke-width="2"/><rect x="24.9961" y="77.0107" width="2" height="14" rx="1" fill="#1CB0F6"/><rect x="34.9961" y="77.0107" width="2" height="14" rx="1" fill="#1CB0F6"/><rect x="10" y="58.011" width="120" height="6" fill="white" stroke="#1CB0F6" stroke-width="2"/><rect x="9" y="54.011" width="2" height="14" rx="1" fill="#1CB0F6"/><rect x="129" y="54.011" width="2" height="14" rx="1" fill="#1CB0F6"/><rect x="19" y="59.011" width="2" height="4" fill="#1CB0F6"/><rect x="29" y="59.011" width="2" height="4" fill="#1CB0F6"/><rect x="39" y="59.011" width="2" height="4" fill="#1CB0F6"/><rect x="49" y="59.011" width="2" height="4" fill="#1CB0F6"/><rect x="69" y="59.011" width="2" height="4" fill="#1CB0F6"/><rect x="59" y="59.011" width="2" height="4" fill="#1CB0F6"/><rect x="79" y="59.011" width="2" height="4" fill="#1CB0F6"/><rect x="89" y="59.011" width="2" height="4" fill="#1CB0F6"/><rect x="99" y="59.011" width="2" height="4" fill="#1CB0F6"/><rect x="109" y="59.011" width="2" height="4" fill="#1CB0F6"/><rect x="119" y="59.011" width="2" height="4" fill="#1CB0F6"/><rect x="140" y="58.011" width="30" height="6" fill="white" stroke="#1CB0F6" stroke-width="2"/><rect x="139" y="54.011" width="2" height="14" rx="1" fill="#1CB0F6"/><rect x="149" y="57.011" width="2" height="8.00049" fill="#1CB0F6"/><rect x="159" y="57.011" width="2" height="8.00049" fill="#1CB0F6"/><rect x="169" y="54.011" width="2" height="14" rx="1" fill="#1CB0F6"/></svg>