<svg width="151" height="100" viewBox="0 0 151 100" fill="none" xmlns="http://www.w3.org/2000/svg"><rect width="150" height="100" transform="translate(0.5)" fill="none"/><path d="M10.7412 56.8663C10.741 68.6252 15.0658 80.407 24.6395 79.6714C38.18 77.5334 33.1914 53.6975 33.1914 44.7511C33.1914 24.4399 34.9716 18.0255 42.8109 16.6007C52.5076 14.8383 58.8459 30.497 61.6966 60.4287C64.5472 90.3604 72.3309 92.6356 78.0876 90.7168C88.7776 87.1535 88.7774 69.337 88.7774 53.6585C88.7774 37.98 91.6385 22.8933 97.6859 20.877C101.991 19.4415 105.297 20.4323 107.924 23.3704" stroke="#1CB0F6" stroke-width="1.25" stroke-linecap="round" stroke-dasharray="2.5 3.75"/><path d="M107.924 23.3705C108.872 24.4309 109.732 25.7449 110.518 27.2901" stroke="#1CB0F6" stroke-width="1.25" stroke-linecap="round"/><path d="M11.877 42.9685C13.4837 33.0891 16.7427 24.8902 22.5014 25.152C30.3406 25.5083 31.0533 36.9108 33.1913 46.1754C35.3292 55.44 42.0995 80.3831 49.5824 80.3831C57.0654 80.3831 59.916 69.3368 61.3413 62.5666C62.7666 55.7963 68.1116 33.7039 75.5945 33.3475C83.0774 32.9912 86.6407 46.1754 88.4224 54.0147C90.204 61.8539 93.0547 78.9577 101.607 77.5324C110.159 76.1071 112.332 52.906 115.503 42.9685C120.848 26.2223 126.905 15.9994 133.32 17.6689C138.665 19.06 144.367 24.4381 141.516 44.3938C139.021 61.4976 134.745 68.6242 129.757 69.3368C127.186 69.704 124.773 66.2477 123.032 62.5666" stroke="#58CC02" stroke-width="1.25" stroke-linecap="round" stroke-dasharray="2.5 4.17"/><path d="M11.8754 42.9688C11.5736 44.8248 11.33 46.7403 11.1392 48.67" stroke="#58CC02" stroke-width="1.25" stroke-linecap="round"/><path d="M13.9471 47.6004C13.1634 48.14 11.8255 49.1121 11.1786 50.0882C11.0761 50.2429 10.8152 50.2355 10.7374 50.067C10.0937 48.6724 9.18221 47.4641 8.60316 46.8894" stroke="#58CC02" stroke-width="1.25" stroke-linecap="round" stroke-linejoin="round"/><g filter="url(#filter0_d_31058_81225)"><rect x="50.958" y="53.1655" width="19.9545" height="18.6242" rx="5" fill="white"/><rect x="51.7913" y="53.9989" width="18.2878" height="16.9575" rx="4.16667" stroke="#E5E5E5" stroke-width="1.66667"/></g><path opacity="0.9" d="M58.0536 57.9739C57.6368 57.5572 56.9612 57.5572 56.5445 57.9739C56.1278 58.3906 56.1278 59.0663 56.5445 59.483L59.1854 62.1239L56.5445 64.7647C56.1278 65.1815 56.1278 65.8571 56.5445 66.2738C56.9612 66.6905 57.6368 66.6905 58.0536 66.2738L60.6944 63.6329L63.3353 66.2738C63.752 66.6905 64.4277 66.6905 64.8444 66.2738C65.2611 65.8571 65.2611 65.1815 64.8444 64.7647L62.2035 62.1239L64.8444 59.483C65.2611 59.0663 65.2611 58.3906 64.8444 57.9739C64.4277 57.5572 63.752 57.5572 63.3353 57.9739L60.6944 60.6148L58.0536 57.9739Z" fill="#1CB0F6"/><g filter="url(#filter1_d_31058_81225)"><path d="M105.567 38.1879C105.567 35.4264 107.806 33.1879 110.567 33.1879H120.522C123.283 33.1879 125.522 35.4264 125.522 38.1879V46.812C125.522 49.5735 123.283 51.812 120.522 51.812H110.567C107.806 51.812 105.567 49.5735 105.567 46.812V38.1879Z" fill="#DDF4FF"/><path d="M106.401 38.1879C106.401 35.8867 108.266 34.0212 110.567 34.0212H120.522C122.823 34.0212 124.689 35.8867 124.689 38.1879V46.812C124.689 49.1132 122.823 50.9787 120.522 50.9787H110.567C108.266 50.9787 106.401 49.1132 106.401 46.812V38.1879Z" stroke="#84D8FF" stroke-width="1.66667"/></g><path d="M115.544 38.073C114.365 38.073 113.507 38.6906 113.226 39.5688C113.189 39.6796 113.161 39.8103 113.161 39.9256C113.161 40.1767 113.251 40.3988 113.419 40.5574C113.585 40.7149 113.813 40.7943 114.062 40.7943C114.43 40.7943 114.76 40.5907 114.944 40.1975C115.008 40.0589 115.075 39.9601 115.157 39.8946C115.235 39.8331 115.341 39.7887 115.511 39.7887C115.679 39.7887 115.801 39.8443 115.881 39.9253C115.962 40.0067 116.016 40.1297 116.016 40.2932C116.016 40.4903 115.944 40.6907 115.637 41.0283L115.052 41.6893C114.615 42.1753 114.523 42.7847 114.523 43.1574C114.523 43.4366 114.624 43.6765 114.801 43.8462C114.977 44.0146 115.215 44.1018 115.468 44.1018C115.969 44.1018 116.423 43.7409 116.423 43.1574C116.423 42.8835 116.48 42.6956 116.618 42.5411L117.288 41.7953L117.29 41.7938C117.716 41.3101 117.926 40.8519 117.926 40.2391C117.926 38.9929 116.928 38.073 115.544 38.073Z" fill="#33B8F7"/><path d="M115.481 44.8329C114.965 44.8329 114.542 45.256 114.542 45.7721C114.542 46.2883 114.965 46.7114 115.481 46.7114C115.997 46.7114 116.42 46.2883 116.42 45.7721C116.42 45.256 115.997 44.8329 115.481 44.8329Z" fill="#33B8F7"/><g filter="url(#filter2_d_31058_81225)"><rect x="24.1021" y="36.7744" width="19.9545" height="18.6242" rx="5" fill="#1CB0F6"/></g><path opacity="0.9" fill-rule="evenodd" clip-rule="evenodd" d="M38.3046 43.2625C38.6602 43.615 38.6602 44.1866 38.3046 44.5391L33.9992 48.8064C33.478 49.3229 32.6331 49.3229 32.112 48.8064L29.8586 46.573C29.5029 46.2204 29.5029 45.6488 29.8586 45.2963C30.2143 44.9437 30.791 44.9437 31.1466 45.2963L33.0556 47.1883L37.0165 43.2625C37.3722 42.9099 37.9489 42.9099 38.3046 43.2625Z" fill="white"/><g filter="url(#filter3_d_31058_81225)"><path d="M78.2661 49.6139C78.2661 46.8525 80.5047 44.6139 83.2661 44.6139H93.2206C95.982 44.6139 98.2206 46.8525 98.2206 49.6139V58.2381C98.2206 60.9995 95.982 63.2381 93.2206 63.2381H83.2661C80.5047 63.2381 78.2661 60.9995 78.2661 58.2381V49.6139Z" fill="#1CB0F6"/></g><path opacity="0.9" fill-rule="evenodd" clip-rule="evenodd" d="M92.4686 51.1021C92.8243 51.4546 92.8243 52.0262 92.4686 52.3787L88.1632 56.646C87.6421 57.1625 86.7972 57.1625 86.276 56.646L84.0226 54.4126C83.6669 54.06 83.6669 53.4884 84.0226 53.1359C84.3783 52.7833 84.955 52.7833 85.3107 53.1359L87.2196 55.0279L91.1805 51.1021C91.5362 50.7495 92.1129 50.7495 92.4686 51.1021Z" fill="white"/><path d="M106.95 26.9338C107.884 27.1413 109.796 27.6933 110.835 28.3996C110.989 28.504 111.231 28.3981 111.244 28.213C111.359 26.6147 111.973 24.8346 112.295 24.0831" stroke="#1CB0F6" stroke-width="1.25" stroke-linecap="round" stroke-linejoin="round"/><g opacity="0.3"><path d="M69.459 77.5327L69.459 73.1245" stroke="#58CC02" stroke-width="1.25" stroke-linecap="round"/><path d="M74.8037 75.3217L71.6867 72.2046" stroke="#58CC02" stroke-width="1.25" stroke-linecap="round"/><path d="M72.7437 68.9446L77.1518 68.9446" stroke="#58CC02" stroke-width="1.25" stroke-linecap="round"/></g><g opacity="0.3"><path d="M52.7842 47.6008L52.7842 50.9272" stroke="#58CC02" stroke-width="0.943251" stroke-linecap="round"/><path d="M48.7505 49.269L51.1026 51.6212" stroke="#58CC02" stroke-width="0.943251" stroke-linecap="round"/><path d="M50.4092 53.3021L47.0828 53.3021" stroke="#58CC02" stroke-width="0.943251" stroke-linecap="round"/></g><defs><filter id="filter0_d_31058_81225" x="50.958" y="53.1655" width="19.9546" height="19.4575" filterUnits="userSpaceOnUse" color-interpolation-filters="sRGB"><feFlood flood-opacity="0" result="BackgroundImageFix"/><feColorMatrix in="SourceAlpha" type="matrix" values="0 0 0 0 0 0 0 0 0 0 0 0 0 0 0 0 0 0 127 0" result="hardAlpha"/><feOffset dy="0.833333"/><feColorMatrix type="matrix" values="0 0 0 0 0.898039 0 0 0 0 0.898039 0 0 0 0 0.898039 0 0 0 1 0"/><feBlend mode="normal" in2="BackgroundImageFix" result="effect1_dropShadow_31058_81225"/><feBlend mode="normal" in="SourceGraphic" in2="effect1_dropShadow_31058_81225" result="shape"/></filter><filter id="filter1_d_31058_81225" x="105.567" y="33.1879" width="19.9546" height="19.4575" filterUnits="userSpaceOnUse" color-interpolation-filters="sRGB"><feFlood flood-opacity="0" result="BackgroundImageFix"/><feColorMatrix in="SourceAlpha" type="matrix" values="0 0 0 0 0 0 0 0 0 0 0 0 0 0 0 0 0 0 127 0" result="hardAlpha"/><feOffset dy="0.833333"/><feColorMatrix type="matrix" values="0 0 0 0 0.517795 0 0 0 0 0.845164 0 0 0 0 1 0 0 0 1 0"/><feBlend mode="normal" in2="BackgroundImageFix" result="effect1_dropShadow_31058_81225"/><feBlend mode="normal" in="SourceGraphic" in2="effect1_dropShadow_31058_81225" result="shape"/></filter><filter id="filter2_d_31058_81225" x="24.1021" y="36.7744" width="19.9546" height="21.1241" filterUnits="userSpaceOnUse" color-interpolation-filters="sRGB"><feFlood flood-opacity="0" result="BackgroundImageFix"/><feColorMatrix in="SourceAlpha" type="matrix" values="0 0 0 0 0 0 0 0 0 0 0 0 0 0 0 0 0 0 127 0" result="hardAlpha"/><feOffset dy="2.5"/><feColorMatrix type="matrix" values="0 0 0 0 0.0941176 0 0 0 0 0.6 0 0 0 0 0.839216 0 0 0 1 0"/><feBlend mode="normal" in2="BackgroundImageFix" result="effect1_dropShadow_31058_81225"/><feBlend mode="normal" in="SourceGraphic" in2="effect1_dropShadow_31058_81225" result="shape"/></filter><filter id="filter3_d_31058_81225" x="78.2661" y="44.6139" width="19.9546" height="21.1241" filterUnits="userSpaceOnUse" color-interpolation-filters="sRGB"><feFlood flood-opacity="0" result="BackgroundImageFix"/><feColorMatrix in="SourceAlpha" type="matrix" values="0 0 0 0 0 0 0 0 0 0 0 0 0 0 0 0 0 0 127 0" result="hardAlpha"/><feOffset dy="2.5"/><feColorMatrix type="matrix" values="0 0 0 0 0.0941176 0 0 0 0 0.6 0 0 0 0 0.839216 0 0 0 1 0"/><feBlend mode="normal" in2="BackgroundImageFix" result="effect1_dropShadow_31058_81225"/><feBlend mode="normal" in="SourceGraphic" in2="effect1_dropShadow_31058_81225" result="shape"/></filter></defs></svg>