<svg width="151" height="100" viewBox="0 0 151 100" fill="none" xmlns="http://www.w3.org/2000/svg"><g clip-path="url(#clip0_31058_81243)"><rect width="150" height="100" transform="translate(0.5)" fill="none"/><path d="M87.021 40.5232C87.6604 36.8972 91.1181 34.4761 94.7441 35.1154L135.778 42.3508C139.404 42.9901 141.825 46.4478 141.185 50.0738L135.397 82.9007C134.758 86.5267 131.3 88.9478 127.674 88.3084L86.6404 81.0731C83.0145 80.4337 80.5933 76.976 81.2327 73.3501L87.021 40.5232Z" fill="#84D8FF"/><path d="M89.242 37.5297C89.7215 34.8103 92.3148 32.9944 95.0343 33.4739L136.068 40.7093C138.787 41.1888 140.603 43.7821 140.124 46.5015L134.335 79.3284C133.856 82.0479 131.263 83.8638 128.543 83.3843L87.5094 76.1489C84.79 75.6694 82.9741 73.0761 83.4536 70.3566L89.242 37.5297Z" fill="white" stroke="#C1EBFF" stroke-width="3.33333"/><path d="M107.146 52.8685C107.275 52.1378 107.972 51.6499 108.703 51.7788L130.751 55.6665C131.482 55.7954 131.97 56.4921 131.841 57.2228L129.975 67.8064C129.846 68.5371 129.149 69.025 128.419 68.8961L106.37 65.0084C105.639 64.8795 105.151 64.1828 105.28 63.4521L107.146 52.8685Z" fill="#DDF4FF" stroke="#84D8FF" stroke-width="2.68675"/><rect width="10.747" height="10.747" rx="1.34337" transform="matrix(0.984808 0.173648 -0.17365 0.984807 92.1484 50.2224)" fill="#84D8FF"/><path d="M119.316 74.1113C119.445 73.3806 120.142 72.8928 120.872 73.0216L128.81 74.4213C129.541 74.5501 130.029 75.2468 129.9 75.9775C129.822 76.4185 129.744 76.8595 129.667 77.3004C129.538 78.0311 128.841 78.519 128.11 78.3901L120.172 76.9905C119.442 76.8617 118.954 76.1649 119.083 75.4342C119.161 74.9933 119.238 74.5523 119.316 74.1113Z" fill="#1CB0F6"/><path d="M104.225 43.6123C104.33 43.0145 104.906 42.6163 105.511 42.723L130.564 47.1404C131.169 47.2471 131.574 47.8183 131.469 48.4162L131.278 49.4987C131.172 50.0965 130.596 50.4947 129.991 50.388L104.939 45.9706C104.334 45.8639 103.928 45.2927 104.034 44.6948L104.225 43.6123Z" fill="#58CC02"/><path fill-rule="evenodd" clip-rule="evenodd" d="M124.455 49.4117L125.028 46.1642L133.752 47.7025C134.357 47.8092 134.763 48.3804 134.657 48.9783L134.466 50.0608C134.361 50.6586 133.785 51.0568 133.18 50.9501L124.455 49.4117Z" fill="#DFDFE0"/><path fill-rule="evenodd" clip-rule="evenodd" d="M101.613 43.028L101.114 42.3251L101.289 41.3343C101.331 41.0856 101.272 40.8299 101.124 40.6237C100.975 40.4176 100.75 40.2779 100.498 40.2358L99.4995 40.0596L98.9978 39.3563C98.8523 39.1476 98.6283 39.0051 98.3762 38.9606C98.1241 38.9161 97.8648 38.9735 97.6567 39.1199L96.9479 39.6097L95.9449 39.4329C95.4227 39.3408 94.9244 39.6804 94.8266 40.1949L94.6519 41.1857L93.9431 41.6756C93.7336 41.8186 93.591 42.0389 93.5472 42.2872C93.5034 42.5355 93.5621 42.7912 93.7101 42.9973L94.2086 43.7L94.0339 44.6908C93.9914 44.9395 94.0509 45.1951 94.1991 45.4011C94.3474 45.6072 94.5722 45.7469 94.8241 45.7894L95.8271 45.9662L96.3256 46.669C96.4711 46.8777 96.6951 47.0202 96.9472 47.0647C97.1993 47.1092 97.4586 47.0518 97.6667 46.9054L98.3781 46.4192L99.38 46.5959C99.9022 46.688 100.401 46.3484 100.498 45.8338L100.673 44.843L101.38 44.3497C101.59 44.2067 101.732 43.9864 101.776 43.7381C101.82 43.4898 101.761 43.2341 101.613 43.028Z" fill="#58CC02"/><path d="M47.9214 31.7371C47.9214 28.0552 50.9062 25.0704 54.5881 25.0704H96.2547C99.9366 25.0704 102.921 28.0552 102.921 31.7371L102.921 65.0704C102.921 68.7523 99.9365 71.7371 96.2546 71.7371H54.588C50.9061 71.7371 47.9213 68.7523 47.9213 65.0704L47.9214 31.7371Z" fill="#84D8FF"/><path d="M49.588 28.4039C49.588 25.6424 51.8266 23.4038 54.588 23.4038H96.2547C99.0161 23.4038 101.255 25.6424 101.255 28.4038L101.255 61.7372C101.255 64.4986 99.0161 66.7372 96.2546 66.7372H54.588C51.8265 66.7372 49.588 64.4986 49.588 61.7372L49.588 28.4039Z" fill="white" stroke="#C1EBFF" stroke-width="3.33333"/><path d="M60.8384 42.0092C60.8384 41.4021 61.3366 40.9099 61.9512 40.9099H89.5919C90.2065 40.9099 90.7047 41.4021 90.7047 42.0092V43.1084C90.7047 43.7155 90.2065 44.2077 89.5919 44.2077H61.9512C61.3366 44.2077 60.8384 43.7155 60.8384 43.1084V42.0092Z" fill="#AFAFAF"/><path d="M60.8384 48.4401C60.8384 47.833 61.3366 47.3408 61.9512 47.3408H67.1178C67.7324 47.3408 68.2306 47.833 68.2306 48.4401V49.5393C68.2306 50.1464 67.7324 50.6386 67.1178 50.6386H61.9512C61.3366 50.6386 60.8384 50.1464 60.8384 49.5393V48.4401Z" fill="#DFDFE0"/><path d="M69.9756 48.4398C69.9756 47.8327 70.4738 47.3406 71.0884 47.3406H76.255C76.8696 47.3406 77.3678 47.8327 77.3678 48.4398V49.5391C77.3678 50.1462 76.8696 50.6383 76.255 50.6383H71.0884C70.4738 50.6383 69.9756 50.1462 69.9756 49.5391V48.4398Z" fill="#DFDFE0"/><path d="M85.4966 59.2175C85.4966 58.4756 86.098 57.8741 86.84 57.8741H94.9002C95.6421 57.8741 96.2436 58.4756 96.2436 59.2175C96.2436 59.6653 96.2436 60.1131 96.2436 60.5609C96.2436 61.3028 95.6421 61.9043 94.9002 61.9043H86.84C86.098 61.9043 85.4966 61.3028 85.4966 60.5609C85.4966 60.1131 85.4966 59.6653 85.4966 59.2175Z" fill="#1CB0F6"/><path d="M65.3433 31.8029C65.3433 31.1958 65.8415 30.7036 66.4561 30.7036H91.8947C92.5093 30.7036 93.0075 31.1958 93.0075 31.8029V32.9021C93.0075 33.5092 92.5093 34.0013 91.8947 34.0013H66.4561C65.8415 34.0013 65.3433 33.5092 65.3433 32.9021V31.8029Z" fill="#58CC02"/><path fill-rule="evenodd" clip-rule="evenodd" d="M86.2744 34.0012V30.7036H95.1334C95.748 30.7036 96.2462 31.1958 96.2462 31.8028V32.902C96.2462 33.5091 95.748 34.0012 95.1334 34.0012H86.2744Z" fill="#DFDFE0"/><path fill-rule="evenodd" clip-rule="evenodd" d="M62.667 31.6801L62.0529 31.0746V30.0685C62.0518 29.8162 61.949 29.5746 61.7671 29.3973C61.5853 29.2201 61.3395 29.1216 61.084 29.1239H60.0697L59.4536 28.5184C59.274 28.3381 59.0287 28.2366 58.7727 28.2366C58.5167 28.2366 58.2713 28.3381 58.0918 28.5184L57.4788 29.1239H56.4603C55.9301 29.1238 55.4983 29.5448 55.4914 30.0685V31.0746L54.8784 31.6801C54.6969 31.8573 54.5947 32.099 54.5947 32.3511C54.5947 32.6033 54.6969 32.8449 54.8784 33.0222L55.4914 33.6277V34.6337C55.4928 34.886 55.5957 35.1274 55.7775 35.3046C55.9593 35.4818 56.2049 35.5803 56.4603 35.5784H57.4788L58.0918 36.1839C58.2713 36.3642 58.5167 36.4657 58.7727 36.4657C59.0287 36.4657 59.274 36.3642 59.4536 36.1839L60.0697 35.5815H61.0871C61.6174 35.5816 62.0492 35.1606 62.0561 34.6369V33.6308L62.667 33.0222C62.8485 32.8449 62.9506 32.6033 62.9506 32.3511C62.9506 32.099 62.8485 31.8573 62.667 31.6801Z" fill="#58CC02"/><path d="M9.65862 50.0738C9.01927 46.4479 11.4404 42.9901 15.0664 42.3508L56.1 35.1154C59.726 34.4761 63.1837 36.8972 63.823 40.5232L69.6112 73.3501C70.2506 76.976 67.8295 80.4338 64.2035 81.0731L23.1698 88.3085C19.5439 88.9478 16.0862 86.5267 15.4468 82.9007L9.65862 50.0738Z" fill="#84D8FF"/><path d="M10.7204 46.5014C10.2409 43.782 12.0567 41.1887 14.7762 40.7092L55.8098 33.4738C58.5293 32.9943 61.1226 34.8101 61.6021 37.5296L67.3903 70.3565C67.8698 73.076 66.054 75.6693 63.3345 76.1488L22.3008 83.3842C19.5814 83.8637 16.9881 82.0478 16.5086 79.3284L10.7204 46.5014Z" fill="white" stroke="#C1EBFF" stroke-width="3.33333"/><path d="M20.3882 56.9914C20.2593 56.2607 20.7472 55.564 21.4778 55.4352L55.875 49.37C56.6057 49.2412 57.3024 49.729 57.4313 50.4597L59.2975 61.0434C59.4263 61.774 58.9384 62.4708 58.2078 62.5996L23.8106 68.6647C23.0799 68.7936 22.3832 68.3057 22.2544 67.5751L20.3882 56.9914Z" fill="#DDF4FF" stroke="#84D8FF" stroke-width="2.68675"/><rect x="0.594457" y="0.416243" width="1.66046" height="15.0941" transform="matrix(0.984808 -0.173648 0.17365 0.984807 30.8855 52.5103)" fill="#84D8FF" stroke="#84D8FF" stroke-width="1.02629"/><rect x="-0.544842" y="0.778117" width="1.34337" height="38.9579" transform="matrix(0.17365 0.984807 -0.984808 0.173648 59.7707 55.3748)" fill="#84D8FF" stroke="#84D8FF" stroke-width="1.34337"/><rect x="0.594457" y="0.416243" width="1.66046" height="15.0941" transform="matrix(0.984808 -0.173648 0.17365 0.984807 43.2326 50.3326)" fill="#84D8FF" stroke="#84D8FF" stroke-width="1.02629"/><rect width="2.68675" height="1.34337" rx="0.671685" transform="matrix(0.984808 -0.173648 0.17365 0.984807 25.4736 57.4532)" fill="#84D8FF"/><rect width="2.68675" height="1.34337" rx="0.671685" transform="matrix(0.984808 -0.173648 0.17365 0.984807 26.6392 64.0732)" fill="#84D8FF"/><rect width="2.68675" height="1.34337" rx="0.671685" transform="matrix(0.984808 -0.173648 0.17365 0.984807 37.8208 55.2755)" fill="#84D8FF"/><rect width="2.68675" height="1.34337" rx="0.671685" transform="matrix(0.984808 -0.173648 0.17365 0.984807 38.9893 61.8954)" fill="#84D8FF"/><rect width="2.68675" height="1.34337" rx="0.671685" transform="matrix(0.984808 -0.173648 0.17365 0.984807 50.1675 53.0983)" fill="#84D8FF"/><rect width="2.68675" height="1.34337" rx="0.671685" transform="matrix(0.984808 -0.173648 0.17365 0.984807 51.3364 59.7177)" fill="#84D8FF"/><path d="M51.4359 70.6109C51.3071 69.8803 51.7949 69.1835 52.5256 69.0547L60.4634 67.655C61.1941 67.5262 61.8908 68.0141 62.0197 68.7447C62.0974 69.1857 62.1752 69.6267 62.2529 70.0677C62.3818 70.7983 61.8939 71.4951 61.1632 71.6239L53.2254 73.0236C52.4948 73.1524 51.798 72.6645 51.6692 71.9339C51.5914 71.4929 51.5137 71.0519 51.4359 70.6109Z" fill="#1CB0F6"/><path d="M26.8266 47.1112C26.7212 46.5134 27.1264 45.9422 27.7317 45.8354L52.7838 41.4181C53.389 41.3114 53.9651 41.7095 54.0706 42.3074L54.2614 43.3899C54.3669 43.9878 53.9617 44.559 53.3564 44.6657L28.3043 49.083C27.699 49.1898 27.1229 48.7916 27.0175 48.1937L26.8266 47.1112Z" fill="#58CC02"/><path fill-rule="evenodd" clip-rule="evenodd" d="M47.8202 45.6422L47.2476 42.3947L55.9719 40.8563C56.5772 40.7496 57.1533 41.1477 57.2587 41.7456L57.4496 42.8281C57.555 43.4259 57.1498 43.9971 56.5446 44.1038L47.8202 45.6422Z" fill="#DFDFE0"/><path fill-rule="evenodd" clip-rule="evenodd" d="M24.1711 47.4571L23.4613 46.9674L23.2866 45.9767C23.2416 45.7283 23.0984 45.5083 22.8886 45.3653C22.6787 45.2223 22.4195 45.1681 22.1683 45.2146L21.1694 45.3907L20.4575 44.9014C20.2494 44.7551 19.9902 44.6977 19.738 44.7422C19.4859 44.7866 19.2619 44.9292 19.1164 45.1379L18.6179 45.8406L17.6149 46.0175C17.0927 46.1095 16.7405 46.5991 16.8247 47.1161L16.9994 48.1068L16.5009 48.8096C16.3529 49.0157 16.2942 49.2714 16.338 49.5197C16.3818 49.768 16.5244 49.9882 16.7339 50.1313L17.4427 50.6212L17.6174 51.6119C17.6626 51.8601 17.8059 52.08 18.0157 52.2229C18.2255 52.3659 18.4845 52.4202 18.7357 52.374L19.7387 52.1971L20.4475 52.687C20.6557 52.8333 20.9149 52.8907 21.167 52.8463C21.4191 52.8018 21.6431 52.6592 21.7886 52.4505L22.2908 51.7503L23.2928 51.5736C23.815 51.4816 24.1671 50.992 24.083 50.475L23.9083 49.4843L24.4042 48.7788C24.5521 48.5727 24.6108 48.317 24.567 48.0687C24.5232 47.8204 24.3806 47.6002 24.1711 47.4571Z" fill="#58CC02"/><g opacity="0.3"><path d="M82.5215 15.4165L78.8766 19.0614" stroke="#A5ED6E" stroke-width="1.25" stroke-linecap="round"/><path d="M75.3916 12.2419L75.3916 17.3965" stroke="#A5ED6E" stroke-width="1.25" stroke-linecap="round"/><path d="M71.8218 19.217L68.1769 15.5722" stroke="#A5ED6E" stroke-width="1.25" stroke-linecap="round"/></g></g><defs><clipPath id="clip0_31058_81243"><rect width="150" height="100" fill="white" transform="translate(0.5)"/></clipPath></defs></svg>