<svg width="151" height="100" viewBox="0 0 151 100" fill="none" xmlns="http://www.w3.org/2000/svg"><rect width="150" height="100" transform="translate(0.5)" fill="none"/><path fill-rule="evenodd" clip-rule="evenodd" d="M40.2423 18.1277C36.5286 18.1277 33.5181 21.1382 33.5181 24.8519V77.3496C33.5181 81.0633 36.5286 84.0738 40.2422 84.0738H71.8443C72.4577 84.8908 73.4345 85.4193 74.5347 85.4193H81.259C82.3592 85.4193 83.336 84.8908 83.9493 84.0738H115.554C119.267 84.0738 122.278 81.0633 122.278 77.3497V24.8519C122.278 21.1382 119.267 18.1277 115.554 18.1277H40.2423Z" fill="#FDB02A"/><path d="M33.5176 24.8519C33.5176 21.1382 36.5281 18.1277 40.2418 18.1277H115.553C119.267 18.1277 122.277 21.1382 122.277 24.8519V72.9853C122.277 76.6989 119.267 79.7095 115.553 79.7095H40.2418C36.5281 79.7095 33.5176 76.6989 33.5176 72.9853V24.8519Z" fill="#FFC800"/><path d="M80.1577 26.0514C80.1577 24.2973 81.5797 22.8752 83.3339 22.8752H113.825C115.579 22.8752 117.001 24.2973 117.001 26.0514V72.4525C117.001 74.2066 115.579 75.6286 113.825 75.6286H83.3339C81.5797 75.6286 80.1577 74.2066 80.1577 72.4525V26.0514Z" fill="white"/><rect x="38.7959" y="22.8749" width="36.8436" height="52.7534" rx="3.17616" fill="white"/><rect x="80.1577" y="22.8013" width="36.8436" height="49.5478" rx="3.17616" fill="white"/><path d="M90.6733 31.4365H110.516" stroke="#84D8FF" stroke-width="5.02413" stroke-linecap="round"/><path d="M90.6733 42.1952H110.516" stroke="#84D8FF" stroke-width="5.02413" stroke-linecap="round"/><path d="M90.6733 52.9537H110.516" stroke="#84D8FF" stroke-width="5.02413" stroke-linecap="round"/><path d="M90.6733 63.7124H110.516" stroke="#84D8FF" stroke-width="5.02413" stroke-linecap="round"/><rect x="38.7959" y="22.8007" width="36.8436" height="49.5478" rx="3.17616" fill="white"/><path d="M46.1289 31.4357H65.9717" stroke="#84D8FF" stroke-width="5.02413" stroke-linecap="round"/><path d="M46.1289 42.1943H65.9717" stroke="#84D8FF" stroke-width="5.02413" stroke-linecap="round"/><path d="M46.1289 52.9529H65.9717" stroke="#84D8FF" stroke-width="5.02413" stroke-linecap="round"/><path d="M46.1289 63.7115H65.9717" stroke="#84D8FF" stroke-width="5.02413" stroke-linecap="round"/><path d="M73.8628 28.7468H81.9319" stroke="#AFAFAF" stroke-width="4.03451" stroke-linecap="round"/><path d="M73.8628 41.2986H81.9319" stroke="#AFAFAF" stroke-width="4.03451" stroke-linecap="round"/><path d="M73.8628 53.8503H81.9319" stroke="#AFAFAF" stroke-width="4.03451" stroke-linecap="round"/><path d="M73.8628 66.4021H81.9319" stroke="#AFAFAF" stroke-width="4.03451" stroke-linecap="round"/><path d="M109.529 29.256C109.529 28.4971 110.145 27.8818 110.903 27.8818H123.076C123.835 27.8818 124.45 28.4971 124.45 29.256V52.1953C124.45 53.3222 123.168 53.97 122.261 53.3016L118.122 50.2528C117.656 49.9092 117.024 49.895 116.543 50.2174L111.668 53.482C110.755 54.0934 109.529 53.4391 109.529 52.3402V29.256Z" fill="#58CC02"/><path fill-rule="evenodd" clip-rule="evenodd" d="M109.531 34.6187V37.3182H111.585L112.818 38.5512C113.92 39.6657 115.421 40.2932 116.989 40.2932C118.553 40.2932 120.053 39.6679 121.154 38.557L122.395 37.3287H124.452V34.6291H121.285L119.244 36.6489C118.649 37.2533 117.837 37.5937 116.989 37.5937C116.141 37.5937 115.328 37.2533 114.734 36.6489L112.703 34.6187H109.531Z" fill="#00BC35"/><path fill-rule="evenodd" clip-rule="evenodd" d="M129.885 21.5458L127.851 19.5156V16.1424C127.848 15.2962 127.507 14.4864 126.905 13.892C126.303 13.2976 125.488 12.9676 124.642 12.975H121.283L119.242 10.9448C118.648 10.3404 117.835 10 116.987 10C116.139 10 115.327 10.3404 114.732 10.9448L112.702 12.975H109.329C107.573 12.9749 106.142 14.3864 106.12 16.1424V19.5156L104.089 21.5458C103.488 22.1402 103.15 22.9504 103.15 23.7958C103.15 24.6412 103.488 25.4514 104.089 26.0458L106.12 28.076V31.4492C106.124 32.2951 106.465 33.1044 107.067 33.6986C107.669 34.2928 108.483 34.6231 109.329 34.6166H112.702L114.732 36.6468C115.327 37.2512 116.139 37.5916 116.987 37.5916C117.835 37.5916 118.648 37.2512 119.242 36.6468L121.283 34.6271H124.653C126.409 34.6272 127.839 33.2157 127.862 31.4597V28.0864L129.885 26.0458C130.486 25.4514 130.825 24.6412 130.825 23.7958C130.825 22.9504 130.486 22.1402 129.885 21.5458Z" fill="#58CC02"/><path fill-rule="evenodd" clip-rule="evenodd" d="M123.626 19.1818C124.403 19.9457 124.413 21.1947 123.649 21.9716L117.843 27.8767C116.796 28.941 115.081 28.941 114.034 27.8767L111.037 24.8285C110.273 24.0516 110.283 22.8026 111.06 22.0388C111.837 21.2749 113.086 21.2854 113.85 22.0622L115.939 24.1862L120.836 19.2053C121.6 18.4285 122.849 18.418 123.626 19.1818Z" fill="white"/></svg>