<svg width="56" height="56" viewBox="0 0 56 56" fill="none" xmlns="http://www.w3.org/2000/svg"><rect width="56" height="56" fill="none"/><rect x="12.8335" y="26.8333" width="30.3333" height="3.5" fill="#FDB02A"/><path fill-rule="evenodd" clip-rule="evenodd" d="M10.5 26.8333H14V50.7489C14 51.7154 13.2165 52.4989 12.25 52.4989C11.2835 52.4989 10.5 51.7154 10.5 50.7489V26.8333Z" fill="#FFD300"/><path fill-rule="evenodd" clip-rule="evenodd" d="M42 26.8333H45.5V50.7489C45.5 51.7154 44.7165 52.4989 43.75 52.4989C42.7835 52.4989 42 51.7154 42 50.7489V26.8333Z" fill="#FFD300"/><rect x="7" y="23.3333" width="42" height="3.5" rx="1.75" fill="#FFD300"/><path fill-rule="evenodd" clip-rule="evenodd" d="M29.75 43.1664V50.1661H26.25V43.1664H29.75Z" fill="#DBE0DE"/><path fill-rule="evenodd" clip-rule="evenodd" d="M29.75 40.8331V43.1665H26.25V40.8331H29.75Z" fill="#AFBFC3"/><rect x="23.3335" y="50.1665" width="9.33333" height="2.33333" rx="1.16667" fill="#DBE0DE"/><path d="M17.5 38.4999C17.5 35.9226 19.5893 33.8333 22.1667 33.8333H33.8333C36.4107 33.8333 38.5 35.9226 38.5 38.4999C38.5 39.7886 37.4553 40.8333 36.1667 40.8333H19.8333C18.5447 40.8333 17.5 39.7886 17.5 38.4999Z" fill="#58CC02"/><path d="M39.667 4.66654C39.667 4.02221 39.1447 3.49988 38.5003 3.49988H17.5003C16.856 3.49988 16.3337 4.02221 16.3337 4.66654V22.1665H39.667V4.66654Z" fill="#DBE0DE"/><path fill-rule="evenodd" clip-rule="evenodd" d="M37.3332 6.41646C37.3332 6.0943 37.072 5.83313 36.7498 5.83313H19.2498C18.9277 5.83313 18.6665 6.0943 18.6665 6.41646V19.2498C18.6665 19.572 18.9277 19.8331 19.2498 19.8331H36.7498C37.072 19.8331 37.3332 19.572 37.3332 19.2498V6.41646Z" fill="#75D3FF"/><rect x="21" y="9.33313" width="14" height="7" rx="0.583333" fill="white"/><rect x="22.7124" y="11.1787" width="10.5778" height="1.32222" rx="0.66111" fill="#AFAFAF"/><rect x="22.7129" y="13.1611" width="2.64444" height="1.32222" rx="0.66111" fill="#AFAFAF"/><rect x="26.0181" y="13.1611" width="2.64444" height="1.32222" rx="0.66111" fill="#AFAFAF"/><path d="M12.832 22.1665C12.832 21.5222 13.3544 20.9999 13.9987 20.9999H42.0001C42.6445 20.9999 43.1668 21.5222 43.1668 22.1665C43.1668 22.8109 42.6445 23.3332 42.0001 23.3332H13.9987C13.3544 23.3332 12.832 22.8109 12.832 22.1665Z" fill="#AFBFC3"/></svg>