<svg width="80" height="81" viewBox="0 0 80 81" fill="none" xmlns="http://www.w3.org/2000/svg"><rect width="80" height="80" transform="translate(0 0.5)" fill="none"/><path d="M71.252 18.8336V62.1666C71.252 64.0076 69.7596 65.4999 67.9186 65.4999H12.0853C10.2443 65.4999 8.75195 64.0076 8.75195 62.1666V18.8336C8.75195 16.9926 10.2443 15.5002 12.0853 15.5002H67.9186C69.7596 15.5002 71.252 16.9926 71.252 18.8336Z" fill="#DBE0DE"/><path d="M64.7849 20.5001H15.2193C14.4092 20.5001 13.7524 21.0998 13.7524 21.8395V52.5283C13.7524 53.268 14.4092 53.8676 15.2193 53.8676H64.7849C65.595 53.8676 66.2518 53.268 66.2518 52.5283V21.8395C66.2518 21.0998 65.595 20.5001 64.7849 20.5001Z" fill="#1CB0F6"/><path d="M4.99805 60.4998C4.99805 59.5793 5.74424 58.8331 6.66471 58.8331H73.3314C74.2519 58.8331 74.998 59.5793 74.998 60.4998V62.1665C74.998 64.0074 73.5057 65.4998 71.6647 65.4998H8.33138C6.49044 65.4998 4.99805 64.0074 4.99805 62.1665V60.4998Z" fill="#AFAFAF"/><path d="M54.8681 42.9284V31.2824C54.8681 30.3949 53.9399 29.8128 53.1409 30.1994L45.7816 33.7607C45.3663 33.9617 45.1025 34.3824 45.1025 34.8437V38.7123C45.1025 39.1435 45.3334 39.5418 45.7076 39.7562L53.0669 43.9723C53.869 44.4318 54.8681 43.8527 54.8681 42.9284Z" fill="#84D8FF"/><path d="M25.1416 31.9963C25.1416 29.3385 27.2962 27.1838 29.9541 27.1838H43.8014C46.4592 27.1838 48.6138 29.3385 48.6138 31.9963V42.3714C48.6138 45.0292 46.4592 47.1838 43.8014 47.1838H29.9541C27.2962 47.1838 25.1416 45.0292 25.1416 42.3714V31.9963Z" fill="white"/><rect x="28.8916" y="30.9338" width="7.5" height="2.5" rx="1.25" fill="#DDF4FF"/><rect x="37.6416" y="30.9338" width="3.75" height="2.5" rx="1.25" fill="#DDF4FF"/></svg>