<svg width="81" height="81" viewBox="0 0 81 81" fill="none" xmlns="http://www.w3.org/2000/svg"><rect width="80" height="80" transform="translate(0.666992 0.5)" fill="none"/><path d="M20.667 14.2498C20.667 12.1787 22.3459 10.4998 24.417 10.4998H61.917C63.9881 10.4998 65.667 12.1787 65.667 14.2498V66.7504C65.667 68.8214 63.9881 70.5004 61.917 70.5004H24.417C22.3459 70.5004 20.667 68.8214 20.667 66.7504V14.2498Z" fill="#1365B6"/><path d="M16.292 15.4999C16.292 14.1192 17.4113 12.9999 18.792 12.9999H60.4587C61.8394 12.9999 62.9587 14.1192 62.9587 15.4999V65.5002C62.9587 66.8809 61.8394 68.0002 60.4587 68.0002H18.792C17.4113 68.0002 16.292 66.8809 16.292 65.5002V15.4999Z" fill="white"/><path d="M15.667 14.2498C15.667 12.1787 17.3459 10.4998 19.417 10.4998H56.917C58.9881 10.4998 60.667 12.1787 60.667 14.2498V66.7504C60.667 68.8214 58.9881 70.5004 56.917 70.5004H19.417C17.3459 70.5004 15.667 68.8214 15.667 66.7504V14.2498Z" fill="#1799E5"/><path d="M38.1665 54.2498C45.7603 54.2499 51.9164 48.094 51.9165 40.5002C51.9166 32.9063 45.7607 26.7503 38.1668 26.7502C30.573 26.7501 24.4169 32.906 24.4168 40.4998C24.4167 48.0937 30.5727 54.2497 38.1665 54.2498Z" stroke="#FFC807" stroke-width="1.875"/><path d="M38.1658 54.2498C41.8911 54.2498 44.9111 48.0938 44.9112 40.5C44.9113 32.9062 41.8914 26.7501 38.1661 26.7501C34.4408 26.75 31.4208 32.906 31.4207 40.4998C31.4206 48.0937 34.4405 54.2497 38.1658 54.2498Z" stroke="#FFC807" stroke-width="1.875"/><path d="M38.1667 47.245C45.7605 47.2451 51.9165 44.2252 51.9166 40.4999C51.9166 36.7747 45.7607 33.7546 38.1668 33.7546C30.573 33.7545 24.417 36.7743 24.4169 40.4996C24.4169 44.2249 30.5728 47.2449 38.1667 47.245Z" stroke="#FFC807" stroke-width="1.875"/><rect x="23.4404" y="60.5002" width="30" height="5" rx="1.25" fill="#1F6DB5"/><rect x="23.4404" y="15.4998" width="30" height="5" rx="1.25" fill="#FFC807"/></svg>