<svg width="39" height="39" viewBox="0 0 39 39" fill="none" xmlns="http://www.w3.org/2000/svg"><path d="M30.7497 32.0074L29.7305 34.6838C29.5153 35.2482 29.1122 35.7212 28.589 36.023C28.0658 36.3249 27.4546 36.4372 26.8583 36.3409L24.031 35.8882C23.8482 35.8595 23.6614 35.8693 23.4827 35.9172C23.304 35.9651 23.1372 36.0499 22.9933 36.1662L20.7723 37.9716C20.3042 38.353 19.7189 38.5613 19.1151 38.5613C18.5114 38.5613 17.926 38.353 17.458 37.9716L15.237 36.1662C15.0927 36.0496 14.9256 35.9645 14.7463 35.9166C14.5671 35.8688 14.3798 35.8591 14.1966 35.8882L11.3694 36.3409C10.7731 36.4372 10.1618 36.3249 9.63861 36.023C9.11541 35.7212 8.71228 35.2482 8.49714 34.6838L7.47796 32.0074C7.41176 31.835 7.3102 31.6783 7.17981 31.5474C7.04942 31.4166 6.89308 31.3145 6.72085 31.2477L4.04451 30.2285C3.4798 30.0138 3.0065 29.6107 2.70458 29.0874C2.40265 28.5641 2.2906 27.9526 2.38735 27.3563L2.84003 24.529C2.87063 24.3472 2.86289 24.1609 2.81731 23.9822C2.77172 23.8035 2.68929 23.6363 2.57531 23.4913L0.756666 21.2703C0.375263 20.8022 0.166992 20.2169 0.166992 19.6131C0.166992 19.0093 0.375263 18.424 0.756666 17.956L2.56207 15.735C2.67605 15.59 2.75848 15.4228 2.80407 15.2441C2.84966 15.0654 2.8574 14.8791 2.82679 14.6972L2.38735 11.87C2.2906 11.2737 2.40265 10.6622 2.70458 10.1389C3.0065 9.61556 3.4798 9.2125 4.04451 8.99778L6.72085 7.97595C6.89349 7.91061 7.05028 7.80932 7.1808 7.6788C7.31133 7.54827 7.41262 7.39149 7.47796 7.21885L8.49978 4.54251C8.71451 3.97779 9.11756 3.5045 9.64087 3.20257C10.1642 2.90065 10.7757 2.7886 11.372 2.88535L14.1966 3.33802C14.3785 3.36863 14.5647 3.36089 14.7434 3.3153C14.9221 3.26971 15.0893 3.18729 15.2343 3.0733L17.4553 1.2679C17.9234 0.886494 18.5087 0.678223 19.1125 0.678223C19.7163 0.678223 20.3016 0.886494 20.7696 1.2679L22.9907 3.0733C23.1356 3.18729 23.3029 3.26971 23.4816 3.3153C23.6603 3.36089 23.8465 3.36863 24.0284 3.33802L26.8556 2.88535C27.452 2.7886 28.0634 2.90065 28.5868 3.20257C29.1101 3.5045 29.5131 3.97779 29.7278 4.54251L30.747 7.21885C30.8138 7.39107 30.9159 7.54741 31.0468 7.67781C31.1776 7.8082 31.3343 7.90976 31.5068 7.97595L34.1831 8.99778C34.7475 9.21292 35.2205 9.61606 35.5224 10.1393C35.8242 10.6624 35.9365 11.2737 35.8403 11.87L35.3902 14.6946C35.3615 14.8774 35.3713 15.0642 35.4192 15.2429C35.4671 15.4217 35.5519 15.5884 35.6682 15.7323L37.4736 17.9533C37.855 18.4214 38.0633 19.0067 38.0633 19.6105C38.0633 20.2143 37.855 20.7996 37.4736 21.2676L35.6682 23.4887C35.5519 23.6326 35.4671 23.7993 35.4192 23.9781C35.3713 24.1568 35.3615 24.3436 35.3902 24.5264L35.8429 27.3536C35.9392 27.9499 35.8269 28.5612 35.525 29.0844C35.2232 29.6076 34.7502 30.0107 34.1858 30.2258L31.5094 31.245C31.3364 31.3118 31.1794 31.4142 31.0485 31.5455C30.9177 31.6768 30.8158 31.8342 30.7497 32.0074Z" fill="#58CC02"/><path d="M26.4483 17.0758C27.1421 18.6174 27.2769 20.3525 26.8296 21.9828C26.3823 23.613 25.3807 25.0364 23.9973 26.008C22.6139 26.9796 20.9351 27.4386 19.2498 27.3062C17.5645 27.1737 15.9781 26.458 14.7634 25.2822C13.4806 25.7511 12.0836 25.8091 10.7663 25.4481C9.44895 25.0872 8.27667 24.3251 7.4121 23.2676C7.32662 23.1621 7.26733 23.0379 7.23906 22.9051C7.2108 22.7723 7.21437 22.6347 7.24948 22.5035C7.2846 22.3724 7.35026 22.2514 7.4411 22.1504C7.53193 22.0495 7.64537 21.9715 7.77213 21.9229L11.2903 20.5622L9.50341 18.0129C9.27177 17.6812 9.12573 17.2974 9.07831 16.8956C9.03088 16.4938 9.08353 16.0865 9.23157 15.71C9.37961 15.3334 9.61846 14.9994 9.92683 14.7375C10.2352 14.4756 10.6036 14.294 10.9991 14.2089C13.011 13.78 14.3046 13.3644 14.8799 12.962C15.4552 12.5596 16.2741 11.5008 17.3365 9.78535C17.5508 9.44122 17.8472 9.15561 18.199 8.95411C18.5508 8.7526 18.947 8.6415 19.3523 8.63075C19.7576 8.61999 20.1592 8.70992 20.5212 8.89248C20.8832 9.07504 21.1942 9.34453 21.4265 9.67682L23.2028 12.2076L25.6435 9.39886C25.7324 9.29621 25.8444 9.21607 25.9702 9.16499C26.096 9.1139 26.2321 9.09333 26.3674 9.10495C26.5027 9.11657 26.6334 9.16005 26.7486 9.23184C26.8639 9.30363 26.9605 9.40168 27.0307 9.51798C27.7254 10.6838 28.0423 12.0361 27.9381 13.3893C27.8338 14.7424 27.3134 16.0301 26.4483 17.0758ZM20.1426 29.1259L18.2551 28.8612C17.9374 28.8152 17.6145 28.8973 17.3573 29.0895C17.1002 29.2816 16.9298 29.568 16.8839 29.8857C16.8379 30.2034 16.92 30.5263 17.1121 30.7835C17.3042 31.0407 17.5906 31.211 17.9083 31.257L19.7958 31.5217C20.1138 31.5659 20.4364 31.482 20.6926 31.2884C20.9488 31.0948 21.1175 30.8073 21.1618 30.4893C21.206 30.1712 21.1221 29.8486 20.9285 29.5925C20.7348 29.3363 20.4474 29.1675 20.1294 29.1233L20.1426 29.1259ZM30.0617 20.6548C29.7483 20.5881 29.4211 20.6484 29.1521 20.8226C28.8831 20.9968 28.6942 21.2707 28.6269 21.584L28.2325 23.4609C28.1942 23.6184 28.1879 23.7819 28.2141 23.9418C28.2402 24.1018 28.2982 24.2548 28.3846 24.3919C28.4711 24.529 28.5841 24.6473 28.7172 24.7399C28.8502 24.8324 29.0005 24.8973 29.1591 24.9306C29.3176 24.964 29.4813 24.9651 29.6403 24.934C29.7994 24.9029 29.9506 24.8401 30.0849 24.7495C30.2192 24.6588 30.3339 24.5421 30.4223 24.4062C30.5106 24.2703 30.5707 24.1181 30.5991 23.9586L30.9935 22.1055C31.0611 21.7906 31.0009 21.4618 30.8262 21.1913C30.6515 20.9208 30.3765 20.7307 30.0617 20.6628V20.6548Z" fill="white"/></svg>