<svg width="608" height="413" viewBox="0 0 608 413" fill="none" xmlns="http://www.w3.org/2000/svg"><path fill-rule="evenodd" clip-rule="evenodd" d="M508.982 405.039H40.1089C39.7121 402.256 39.6609 399.391 39.9891 396.492L44.6274 357.476C45.1689 352.404 43.4109 347.366 39.7868 343.605L12.0709 314.95C-0.0400391 302.475 -1.11383 283.647 9.50055 269.883L33.8444 238.211C37.0255 234.068 38.2002 228.861 37.0768 223.883L28.0322 185.643C24.2177 169.102 33.2905 152.238 49.7522 145.27L87.5486 129.24C92.4861 127.144 96.2539 123.171 97.9075 118.319L110.542 81.1099C116.076 64.9653 132.826 54.5902 150.716 56.2257L192.132 60.3359C197.509 60.8389 202.875 59.1735 206.902 55.7522L237.518 29.3433C250.881 17.9326 270.833 16.8012 285.408 26.6275L318.897 49.4012C323.283 52.3528 328.808 53.4015 334.093 52.2856L374.775 43.5198C392.364 39.8723 410.185 48.2869 417.519 63.7018L434.303 99.2425C436.519 103.862 440.706 107.376 445.837 108.923L485.28 120.572C502.394 125.676 513.306 141.376 511.451 158.229L506.812 197.245C506.234 202.311 507.969 207.355 511.585 211.119L539.441 239.832C551.475 252.337 552.545 271.112 542.011 284.898L517.311 316.332C514.154 320.484 513.005 325.689 514.147 330.656L523.191 368.897C526.33 382.7 520.537 396.711 508.982 405.039Z" fill="#D7FFB8"/><path d="M280.409 182.866C269.537 192.8 257.492 204.816 247.558 193.944L233.197 172.166C224.003 158.237 224.946 143.995 235.819 134.061L248.022 122.719C258.895 112.785 274.104 115.253 284.038 126.126L292.655 135.557C302.589 146.43 301.828 163.297 290.955 173.231L280.409 182.866Z" fill="#3D3D3D"/><path d="M341.515 200.687C365.537 213.911 378.98 214.136 394.557 199.049C405.136 188.802 403.145 171.961 396.143 158.985C389.141 146.009 378.481 128.91 368.234 118.331C357.988 107.752 341.106 107.482 330.527 117.729L321.351 126.616C310.772 136.863 310.502 153.745 320.749 164.324L341.515 200.687Z" fill="#3D3D3D"/><path d="M268.753 119.698C269.272 102.113 278.169 96.2646 294.559 94.1611C310.948 92.0576 349.415 94.6601 341.964 121.859L340.556 169.569C340.117 184.428 327.716 196.118 312.858 195.679L293.455 195.106C278.597 194.668 266.907 182.267 267.345 167.409L268.753 119.698Z" fill="#3D3D3D"/><path fill-rule="evenodd" clip-rule="evenodd" d="M356.131 111.157C360.593 112.373 364.797 114.767 368.248 118.329C378.494 128.908 389.154 146.007 396.156 158.983C403.159 171.96 405.15 188.801 394.571 199.047C387.049 206.332 380.026 210.047 372.068 210.452L348.461 165.257C355.553 169.549 364.485 167.717 372.722 161.711C381.68 155.179 380.83 145.085 372.722 129.265C367.259 118.606 362.748 113.831 356.131 111.157Z" fill="#2C3038"/><path d="M293.101 167.008L344.663 165.978L360.75 194.653L368.22 251.736C369.749 263.42 361.119 273.979 349.364 274.806L291.486 278.88C285.302 279.316 279.161 277.571 274.129 273.95L249.098 255.939C241.831 250.711 238.308 241.704 240.099 232.933L251.002 179.536L293.101 167.008Z" fill="#A46648"/><path fill-rule="evenodd" clip-rule="evenodd" d="M349.22 274.82L311.737 277.458C302.713 272.053 322.14 251.501 334.626 249.799C346.643 248.161 346.643 243.956 346.643 235.82C346.643 223.905 345.501 211.498 344.412 199.669C343.719 192.13 343.046 184.827 342.705 178.037C342.535 174.65 344.39 171.574 347.161 170.409L360.762 194.655L368.232 251.738C369.638 262.484 362.453 272.277 352.146 274.425L349.22 274.82Z" fill="#8D504C"/><path fill-rule="evenodd" clip-rule="evenodd" d="M284.663 278.482C280.879 277.766 277.268 276.23 274.098 273.948L254.967 260.183C251.691 256.188 255.898 254.302 261.466 254.302C287.122 254.301 325.942 250.934 337.255 249.901C339.33 249.711 341.401 250.23 343.14 251.38L356.756 260.389C361.229 263.349 361.059 269.346 357.614 272.408C355.911 273.328 354.056 274.015 352.088 274.424L349.193 274.814L297.091 278.482H284.663Z" fill="#8D504C"/><path d="M340.213 161.806C319.816 163.456 277.551 167.54 250.865 171.426C247.74 171.881 245.53 174.688 245.769 177.838L246.899 192.658C246.982 193.75 248.16 194.396 249.126 193.879L293.151 170.314L336.065 184.43C339.761 185.646 342.849 188.236 344.688 191.665L362.589 225.045L373.764 212.685C375.669 210.578 376.187 207.613 374.862 205.101C370.617 197.046 360.926 180.736 352.202 167.589C349.562 163.611 344.971 161.421 340.213 161.806Z" fill="#FDB02A"/><path fill-rule="evenodd" clip-rule="evenodd" d="M364.322 223.132L373.765 212.687C375.67 210.581 376.187 207.616 374.863 205.103C370.617 197.049 360.926 180.739 352.202 167.591C351.599 166.682 350.894 165.866 350.108 165.154C349.864 166.315 349.62 167.49 349.377 168.662C348.215 174.258 347.065 179.8 345.978 183.552C345.894 183.839 345.813 184.176 345.724 184.541C345.292 186.327 344.7 188.77 343.002 189.161C343.642 189.933 344.208 190.772 344.688 191.668L360.419 220.999L364.322 223.132Z" fill="#F49000"/><path d="M297.098 165.821C298.385 152.374 292.066 148.304 277.19 149.973C277.19 163.18 283.269 167.447 297.098 165.821Z" fill="#FDB02A"/><path d="M293.539 166.651C293.539 152.838 304.2 146.891 317.102 148.409C317.102 162.715 307.049 165.437 293.539 166.651Z" fill="#FDB02A"/><ellipse cx="361.315" cy="218.247" rx="13.115" ry="13.1149" fill="#8D504C"/><path fill-rule="evenodd" clip-rule="evenodd" d="M312.322 217.078C308.758 215.189 301.299 216.455 298.321 220.856C296.601 223.399 293.524 223.904 290.505 223.892C288.298 223.884 286.122 223.598 284.53 223.63C280.218 223.715 278.203 225.627 277.73 229.741C277.258 233.855 280.505 238.488 284.53 239.748C290.413 241.589 296.643 241.376 302.074 239.427C307.124 237.614 311.224 234.3 313.973 229.741C316.447 226.085 315.886 218.967 312.322 217.078Z" fill="white"/><path d="M306.038 183.068C313.138 182.744 319.928 187.855 319.323 194.878L318.777 202.826C318.495 206.096 318.074 208.279 315.831 210.626C310.41 210.616 303.707 210.905 299.106 214.699C294.809 212.911 292.483 209.139 292.928 203.976L293.611 196.054C294.216 189.03 298.938 183.393 306.038 183.068Z" fill="white"/><path d="M286.342 196.055C286.932 189.216 281.446 184.052 274.915 184.351L274.276 184.38C267.745 184.679 262.643 190.327 262.054 197.165L261.313 205.756C260.724 212.595 265.54 217.897 272.071 217.598L272.71 217.569C279.241 217.27 285.013 211.485 285.602 204.646L286.342 196.055Z" fill="white"/><path fill-rule="evenodd" clip-rule="evenodd" d="M269.06 194.245C271.621 194.128 273.873 191.98 274.092 189.447C274.183 188.384 273.902 187.422 273.356 186.673C273.71 186.591 274.072 186.54 274.44 186.523C277.583 186.379 279.913 188.783 279.645 191.892L279.034 198.98C278.766 202.088 276.001 204.725 272.859 204.869C269.716 205.012 267.386 202.609 267.653 199.5L268.111 194.191C268.414 194.241 268.732 194.26 269.06 194.245Z" fill="#3D3D3D"/><path fill-rule="evenodd" clip-rule="evenodd" d="M295.998 193.01C298.556 192.89 300.805 190.743 301.024 188.212C301.107 187.244 300.881 186.36 300.428 185.644C301.034 185.413 301.676 185.274 302.335 185.244C305.478 185.1 307.808 187.504 307.54 190.612L306.929 197.701C306.661 200.809 303.896 203.446 300.754 203.589C297.611 203.733 295.281 201.329 295.549 198.221L295.998 193.01Z" fill="#3D3D3D"/><path d="M292.467 215.502C292.258 217.955 289.815 219.75 287.009 219.512C284.203 219.274 282.097 217.093 282.306 214.64C282.514 212.187 287.865 206.911 288.077 206.929C288.288 206.947 292.675 213.049 292.467 215.502Z" fill="#86401F"/><path d="M292.884 214.918C292.89 212.155 290.637 209.909 287.851 209.903L283.603 209.893C280.817 209.886 278.63 212.121 278.623 214.885C278.617 217.648 280.793 219.894 283.579 219.9C286.365 219.907 287.827 219.91 287.827 219.91C290.613 219.917 292.877 217.682 292.884 214.918Z" fill="#86401F"/><path d="M202.586 314.486L285.283 280.593L256.321 344.682L206.08 339.22C192.794 337.775 190.22 319.554 202.586 314.486Z" fill="#A46648"/><path d="M284.806 266.792L278.688 289.684L335.721 287.711L328.617 265.805C313.46 253.491 292.107 260.082 284.806 266.792Z" fill="#FDB02A"/><path fill-rule="evenodd" clip-rule="evenodd" d="M317.042 259.972L319.495 282.284C324.121 280.601 336.962 282.244 347.607 284.736C343.33 282.422 338.451 280.506 332.92 279.099L328.605 265.795C325.009 262.873 321.065 261.016 317.042 259.972Z" fill="#FF9C0D"/><path d="M370.45 346.955C379.759 322.129 370.45 278.933 314.605 276.526C276.377 274.878 256.254 297.031 249.003 315.817C241.285 335.814 248.07 347.952 264.965 360.02C281.86 372.088 363.436 365.658 370.45 346.955Z" fill="#FDB02A"/><path d="M255.541 342.861C255.541 334.25 264.273 325.657 272.662 323.713C284.106 321.06 297.338 318.268 309.634 317.535C321.726 316.814 337.425 318.354 349.17 319.898C358.908 321.178 365.923 329.596 365.923 339.418C365.923 350.465 357.104 359.492 346.06 359.749L275.105 361.406C264.392 361.656 255.541 353.577 255.541 342.861Z" fill="#FF9C0D"/><path d="M264.601 348.133C290.326 328.532 329.399 330.799 360.109 336.738L369.75 369.602L258.68 374.539L264.601 348.133Z" fill="#FF4B4B"/><path fill-rule="evenodd" clip-rule="evenodd" d="M281.049 339.011C275.164 341.307 269.628 344.302 264.601 348.132L258.894 373.585H277.803L281.049 339.011Z" fill="#1CB0F6"/><path d="M254.719 364.698C284.835 346.054 338.137 341.274 372.316 364.698C393.378 379.132 386.481 396.759 386.481 396.759C356.138 396.759 236.763 396.759 236.763 396.759C239.603 383.946 245.392 370.471 254.719 364.698Z" fill="#1CB0F6"/><path d="M364.001 390.159L336.14 297.721C335.313 294.972 335.402 292.027 336.395 289.333C339.692 280.384 349.633 282.519 358.991 287.779C368.348 293.04 412.705 332.523 425.973 348.04C439.241 363.556 435.336 390.159 412.056 390.159H364.001Z" fill="#A46648"/><path fill-rule="evenodd" clip-rule="evenodd" d="M348.072 283.497C342.277 286.81 343.111 291.253 350.575 299.595C357.297 307.108 376.773 332.383 385.67 344.082L379.764 390.154H412.039C435.32 390.154 439.224 363.551 425.956 348.035C412.689 332.518 368.332 293.035 358.974 287.775C355.283 285.699 351.501 284.111 348.072 283.497Z" fill="#8D504C"/><ellipse cx="349.603" cy="366.163" rx="41.9444" ry="41.9443" fill="#A46648"/><path d="M329.452 346.083C321.38 342.047 312.652 333.818 307.94 325.491" stroke="#A46648" stroke-width="34.1091" stroke-linecap="round"/><path d="M319.396 372.169C309.574 370.532 301.593 370.942 290.339 363.166" stroke="#A46648" stroke-width="34.1091" stroke-linecap="round"/><ellipse cx="349.603" cy="366.163" rx="41.9444" ry="41.9443" fill="#A46648"/><path d="M329.452 346.083C321.38 342.047 312.652 333.818 307.94 325.491" stroke="#A46648" stroke-width="34.1091" stroke-linecap="round"/><path d="M319.396 372.169C309.574 370.532 301.593 370.942 290.339 363.166" stroke="#A46648" stroke-width="34.1091" stroke-linecap="round"/><path fill-rule="evenodd" clip-rule="evenodd" d="M328.825 324.573C330.322 325.944 330.924 326.526 332.438 327.698C324.968 333.117 319.931 339.049 318.23 350.742C318.02 352.192 316.921 353.789 315.471 353.579C314.656 353.46 313.434 353.68 313.038 353.027C312.729 352.518 312.888 350.612 312.98 349.978C315.232 334.493 323.916 327.024 328.825 324.573Z" fill="#8D504C"/><path d="M282.798 380.312C282.798 364.4 295.697 351.501 311.609 351.501H355.846C371.646 351.501 384.453 364.309 384.453 380.108V394.457C384.453 401.992 378.345 408.101 370.81 408.101H296.442C288.906 408.101 282.798 401.992 282.798 394.457V380.312Z" fill="#DBD5DC"/><path fill-rule="evenodd" clip-rule="evenodd" d="M312.212 351.501C327.991 351.524 340.776 364.323 340.776 380.108V394.458C340.776 401.993 334.667 408.101 327.132 408.101H296.414C288.892 408.086 282.799 401.983 282.799 394.458V380.313C282.799 364.401 295.699 351.501 311.611 351.501H312.212Z" fill="#E6EAE8"/><path d="M333.483 359.28C333.483 345.161 344.124 337.589 358.039 343.319" stroke="#A46648" stroke-width="32.5932" stroke-linecap="round"/><path d="M361.902 366.85C363.539 356.005 365.79 353.345 369.064 349.457" stroke="#A46648" stroke-width="32.5932" stroke-linecap="round"/><path fill-rule="evenodd" clip-rule="evenodd" d="M362.605 326.262L351.733 324.997C372.202 336.805 374.206 346.218 372.238 357.633C370.986 364.898 368.164 378.089 362.555 383.179C368.673 382.907 377.708 380.762 379.333 363.89C383.723 369.589 384.878 376.519 384.262 390.919C405.669 370.205 381.267 338.534 380.631 337.904C375.789 332.595 369.6 328.535 362.605 326.262Z" fill="#8D504C"/><path d="M232.105 305.012C242.235 300.775 253.039 305.728 256.236 316.076C259.433 326.424 253.812 338.248 243.682 342.485L241.451 343.418C231.321 347.655 220.517 342.701 217.32 332.353C214.124 322.005 219.744 310.182 229.875 305.945L232.105 305.012Z" fill="#A46648"/><path d="M273.103 313.302C277.13 318.807 280.203 322.931 277.885 330.559C276.616 334.737 272.269 337.125 268.035 336.054C267.884 337.078 267.654 338.099 267.337 339.112C265.989 343.422 261.365 345.79 257.01 344.402C256.247 344.158 255.543 343.816 254.907 343.394C254.332 347.601 250.569 350.68 246.225 350.367C241.674 350.04 238.211 346.114 238.488 341.599C238.888 335.106 235.924 329.072 228.547 325.196C224.499 323.068 222.932 325.957 225.029 321.961C226.787 318.611 230.574 317.005 234.137 317.828C234.019 316.304 234.327 314.734 235.116 313.302C236.889 310.08 240.546 308.544 244.006 309.279C245.28 305.258 250.682 301.838 254.907 302.839C262.892 304.732 268.834 307.466 273.103 313.302Z" fill="#A46648"/><path d="M255.507 302.425C242.014 299.25 232.467 307.276 229.381 311.685L217.806 313.339" stroke="#8D504C" stroke-width="3.78989" stroke-linecap="round"/><path d="M257.716 344.882C257.008 344.876 256.29 344.768 255.582 344.549C254.887 344.333 254.247 344.023 253.671 343.638C253.645 343.808 253.615 343.976 253.579 344.142C254.51 338.619 252.321 333.161 248.383 328.733C247.614 327.869 247.696 326.522 248.566 325.724C249.435 324.926 250.763 324.98 251.532 325.845C256.094 330.975 258.95 337.808 257.716 344.882Z" fill="#8D504C"/><path d="M271.377 336.889C270.022 337.324 268.529 337.393 267.05 337.017C267.039 337.09 267.028 337.163 267.017 337.236C267.126 335.792 267.018 334.374 266.727 332.989C265.97 329.398 263.949 325.895 261.023 322.693C260.214 321.808 260.272 320.454 261.153 319.667C262.034 318.881 263.404 318.961 264.212 319.846C267.514 323.457 270.009 327.639 270.965 332.181C271.291 333.727 271.435 335.301 271.377 336.889Z" fill="#8D504C"/><path d="M346.568 370.847C346.568 363.747 349.844 357.254 352.626 355.214" stroke="#8D504C" stroke-width="5.30587" stroke-linecap="round"/><path d="M344.452 324.604C370.236 322.935 393.238 340.928 393.238 376.544" stroke="#7B4642" stroke-width="5.30587" stroke-linecap="round"/><path d="M386.943 346.869C392.927 346.869 399.928 346.909 412.171 351.692" stroke="#7B4642" stroke-width="5.30587" stroke-linecap="round"/><path d="M95.7771 361.758C95.9658 361.173 96.4891 360.759 97.1021 360.711L196.876 352.926C197.057 352.911 197.24 352.93 197.414 352.98L245.927 366.963C246.467 367.119 246.876 367.56 246.991 368.11L249.053 377.993C249.249 378.934 248.53 379.818 247.569 379.818H199.125L92.0365 379.818C91.0081 379.818 90.2782 378.816 90.5937 377.837L95.7771 361.758Z" fill="#B2BCD0"/><path d="M197.287 355.074C197.209 354.022 198.204 353.214 199.218 353.507L245.904 366.963C246.444 367.119 246.854 367.56 246.968 368.11L249.03 377.993C249.226 378.934 248.508 379.818 247.546 379.818H200.511C199.717 379.818 199.057 379.205 198.999 378.413L197.287 355.074Z" fill="#C7C9D6"/><path d="M84.8635 372.625C85.4572 370.879 87.0469 369.664 88.8879 369.55L198.322 362.763C198.693 362.74 199.066 362.772 199.428 362.857L249.775 374.752C251.198 375.088 252.372 376.088 252.931 377.44L259.343 392.938L203.263 392.938L77.9585 392.938L84.8635 372.625Z" fill="#DBD5DC"/><path fill-rule="evenodd" clip-rule="evenodd" d="M198.63 362.757C200.406 363.346 202.021 365.357 202.6 372.299C203.126 378.62 203.963 387.157 204.616 392.938L259.328 392.938L252.917 377.44C252.358 376.089 251.183 375.089 249.76 374.752L199.413 362.857C199.156 362.796 198.893 362.763 198.63 362.757Z" fill="#E6EAE8"/><path d="M11.5292 220.886C11.0791 211.551 17.5021 203.282 26.6582 201.408L178.14 170.414C190.403 167.905 202.026 176.895 202.68 189.395L209.416 318.152C210.005 329.407 201.382 339.021 190.129 339.654L32.9817 348.502C24.5748 348.975 17.393 342.507 16.9875 334.096L11.5292 220.886Z" fill="#E6EAE8"/><path d="M168.477 160.11C168.477 160.11 173.803 159.512 177.129 160.11C186.169 161.735 195.419 174.896 195.419 174.896L169.462 169.966L168.477 160.11Z" fill="#E6EAE8"/><path d="M10.7743 328.308C10.7743 328.308 16.1011 327.71 19.4267 328.308C28.4665 329.934 26.179 347.322 26.179 347.322L8.96282 338.313L10.7743 328.308Z" fill="#E6EAE8"/><path fill-rule="evenodd" clip-rule="evenodd" d="M203.67 333.469L179.338 315.164L16.2144 318.095L16.6949 328.061C13.7779 327.972 10.7461 328.312 10.7461 328.312L8.93457 338.317L24.3687 346.393C24.8543 346.683 25.3571 346.947 25.875 347.182L26.1508 347.326L26.1535 347.305C28.239 348.201 30.5588 348.64 32.9802 348.504L190.127 339.656C195.469 339.356 200.218 337.031 203.67 333.469Z" fill="#C7C9D6"/><path d="M1.70459 215.003C1.70459 206.219 7.74146 198.586 16.2894 196.563L166.204 161.078C175.498 158.878 184.487 165.718 184.845 175.263L190.052 314.177C190.359 322.368 184.1 329.319 175.922 329.87L17.8835 340.521C9.12976 341.111 1.70459 334.169 1.70459 325.396V215.003Z" fill="white"/><path fill-rule="evenodd" clip-rule="evenodd" d="M188.273 321.895C185.884 326.354 181.321 329.509 175.921 329.873L17.8826 340.523C9.12878 341.113 1.70361 334.172 1.70361 325.398V318.356L179.326 315.164L188.273 321.895Z" fill="#E6EAE8"/><path d="M1.70459 214.893C1.70459 206.159 7.67484 198.556 16.1602 196.484L157.279 162.035C166.627 159.753 175.709 166.645 176.026 176.262L180.611 315.278C180.881 323.457 174.609 330.374 166.443 330.905L17.8472 340.561C9.10644 341.129 1.70459 334.192 1.70459 325.433V214.893Z" fill="#DBD5DC"/><path d="M81.8794 301.114L109.094 297.068C110.868 296.804 112.483 298.131 112.568 299.923L113.811 326.024L106.975 365.288C106.975 365.288 105.222 376.681 113.811 376.681C118.79 376.681 127.714 376.681 134.337 376.681C139.081 376.681 143.023 380.327 143.399 385.056L143.96 392.106H81.8794V301.114Z" fill="#E6EAE8"/><path d="M63.9119 300.75L108.812 296.798C108.812 296.798 94.4439 349.96 91.8606 373.731C90.0099 390.762 110.967 392.166 110.967 392.166H65.7594C54.6479 392.166 46.3721 381.911 48.7192 371.05L63.9119 300.75Z" fill="#DBD5DC"/><path fill-rule="evenodd" clip-rule="evenodd" d="M105.918 392.167H65.7585C58.1 392.167 51.7885 387.296 49.374 380.711H92.5251C94.7506 387.174 101.264 390.024 105.918 391.258V392.167Z" fill="#C7C9D6"/><path fill-rule="evenodd" clip-rule="evenodd" d="M106.834 303.724L65.4064 307.504C63.532 307.692 61.8606 306.324 61.6734 304.449C61.4862 302.575 62.8539 300.904 64.7284 300.716L108.518 296.919C107.979 300.423 107.305 301.77 106.834 303.724Z" fill="#C7C9D6"/><path fill-rule="evenodd" clip-rule="evenodd" d="M112.783 245.499L109.005 241.969L108.849 235.102C108.803 233.381 108.148 231.833 107.03 230.802C105.911 229.771 104.421 229.341 102.888 229.607L96.8026 230.603L93.0118 227.076C91.9064 226.022 90.4188 225.57 88.8826 225.822C87.3464 226.073 85.8902 227.007 84.8406 228.414L81.2565 233.149L75.1455 234.15C71.9639 234.671 69.4382 237.968 69.4778 241.55L69.6337 248.417L66.0495 253.152C64.9879 254.54 64.4124 256.29 64.4515 258.011C64.4905 259.732 65.1409 261.281 66.2575 262.312L70.0293 265.843L70.1851 272.71C70.2326 274.43 70.8876 275.977 72.0058 277.008C73.124 278.039 74.6134 278.47 76.1455 278.205L82.2565 277.205L86.0283 280.735C87.1337 281.789 88.6214 282.241 90.1576 281.99C91.6938 281.738 93.15 280.804 94.1995 279.397L97.8031 274.68L103.908 273.68C107.089 273.16 109.615 269.862 109.575 266.28L109.42 259.414L112.991 254.659C114.052 253.271 114.628 251.521 114.589 249.8C114.55 248.079 113.899 246.53 112.783 245.499Z" fill="white"/><path fill-rule="evenodd" clip-rule="evenodd" d="M475.991 381.347C475.991 375.972 471.634 371.615 466.259 371.615H451.151C445.776 371.615 441.419 375.972 441.419 381.347C441.419 386.722 445.776 391.079 451.151 391.079H466.259C471.634 391.079 475.991 386.722 475.991 381.347Z" fill="#F49000"/><path d="M588.79 241.711C588.79 223.997 570.663 203.879 541.989 200.034C528.051 198.165 522.21 199.764 514.597 201.155C512.022 201.626 499.699 206.762 494.093 205.48C488.486 204.199 488.39 203.599 476.632 198.592C469.046 195.362 464.597 198.298 455.007 204.199C448.76 208.043 434.099 226.431 428.453 241.711C422.894 260.084 420.086 270.273 420.086 292.302C420.086 333.865 453.569 367.482 494.591 367.482C535.613 367.482 564.815 348.82 564.815 307.257C568.179 271.695 588.79 259.424 588.79 241.711Z" fill="#58CC02"/><path fill-rule="evenodd" clip-rule="evenodd" d="M555.24 265.793C554.548 267.6 553.916 269.251 553.389 270.718C553.231 272.191 553.076 273.708 552.917 275.264C550.225 301.625 546.406 339.016 508.484 358.551C494.64 365.683 479.434 364.571 467.489 362.334C475.896 365.655 485.039 367.477 494.59 367.477C535.612 367.477 564.814 348.815 564.814 307.252C566.714 287.17 574.113 274.516 580.195 264.114C584.884 256.096 588.79 249.416 588.79 241.706C588.79 227.542 577.199 211.841 557.895 204.151C571.246 223.974 561.105 250.467 555.24 265.793Z" fill="#00BC35"/><path d="M515.345 234.388L604.368 318.252C609.139 322.747 607.618 329.748 602.385 333.677C582.177 348.848 544.344 350.341 520.825 328.184C497.305 306.027 486.527 265.548 499.999 237.224C502.803 231.329 510.574 229.893 515.345 234.388Z" fill="#58CC02"/><path fill-rule="evenodd" clip-rule="evenodd" d="M533.984 337.524L538.487 330.341C567.94 340.622 598.003 332.468 606.88 322.229C608.083 326.226 606.242 330.785 602.388 333.678C596.783 337.887 589.821 341.043 582.184 342.933L555.289 344.273C547.969 343.241 540.711 341.04 533.984 337.524Z" fill="#00BC35"/><path d="M425.456 274.521C420.338 271.705 424.119 255.941 427.091 245.721C430.063 235.501 435.622 225.594 441.403 217.548C448.17 208.128 461.626 197.832 470.469 199.137C462.206 204.863 463.149 214.721 465.975 216.678L466.059 216.723C469.225 218.44 472.027 219.959 494.825 212.531C494.89 212.483 494.96 212.44 495.034 212.401C495.034 212.401 504.302 208.104 510.119 205.511C515.995 202.891 526.58 199.986 526.58 199.986C528.457 199.426 529.955 199.994 530.197 201.601C530.609 204.33 530.085 206.859 528.901 209.164L537.859 207.666C539.693 207.666 541.311 208.771 541.215 210.493C540.975 214.81 539.229 218.761 536.441 221.859C542.828 230.189 542.534 237.033 538.76 246.905L530.927 265.902C524.284 283.321 507.386 290.01 490.217 283.446C469.246 275.429 463.645 260.962 466.541 250.231L454.702 245.721C453.385 246.788 452.55 247.552 452.348 247.919L449.611 254.691C441.572 269.299 430.892 276.913 425.456 274.521Z" fill="#89E219"/><path d="M527.22 243.601C532.058 231.662 528.907 223.77 516.968 218.932C505.03 214.094 495.023 216.529 487.739 222.616C480.455 228.703 478.005 232.178 474.999 239.596C470.161 251.535 475.8 265.329 487.739 270.167C499.677 275.005 512.483 271.634 519.051 259.139C521.491 254.497 524.68 249.869 527.22 243.601Z" fill="white"/><path d="M455.046 236.294C459.366 225.533 460.519 216.793 455.046 214.416C451.428 212.845 442.831 219.891 438.152 230.666L433.386 241.641C429.165 252.761 426.545 261.086 432.019 263.462C436.572 265.44 443.017 258.171 448.784 247.708C449.901 245.68 453.27 240.716 455.046 236.294Z" fill="white"/><path d="M443.391 228.808C445.385 229.616 448.481 226.574 450.185 222.368C450.743 220.992 450.973 219.79 451.122 218.554C451.675 218.436 452.322 218.307 452.802 218.502C455.295 219.512 454.779 225.518 453.011 230.902C451.242 236.286 448.82 240.342 448.82 240.342C446.69 245.6 442.922 248.181 440.596 247.823C438.269 247.466 437.775 243.744 439.598 238.481C441.42 233.218 443.391 228.808 443.391 228.808Z" fill="#4B4B4B"/><path fill-rule="evenodd" clip-rule="evenodd" d="M480.229 234.19C484.273 235.828 488.692 233.557 490.421 229.29C490.987 227.894 491.167 226.443 491.012 225.065C492.013 225.124 494.081 225.472 495.055 225.867C500.11 227.915 502.248 233.076 500.086 238.411C497.924 243.746 495.055 249.411 495.055 249.411C492.714 254.522 487.091 257.249 481.834 255.473C476.578 253.698 474.587 247.328 476.749 241.993C478.911 236.658 480.229 234.19 480.229 234.19Z" fill="#4B4B4B"/><path d="M467.438 257.437C469.298 252.072 465.259 253.843 459.893 251.983C454.528 250.123 451.19 246.274 449.33 251.639C447.47 257.005 447.044 258.537 446.364 261.541C445.419 268.908 445.918 274.195 451.811 275.256C457.704 276.317 460.691 274.102 462.911 269.306C465.131 264.511 467.438 257.437 467.438 257.437Z" fill="#F49000"/><path d="M463.349 256.166C462.049 255.098 461.632 254.307 458.08 253.076C454.529 251.845 453.101 251.354 451.342 251.915C451.342 251.915 449.677 257.652 448.983 260.526C447.669 265.967 447.966 270.344 451.905 270.939C454.639 271.351 456.038 270.001 457.743 267.938C460.434 264.684 462.233 259.384 463.349 256.166Z" fill="#DC6A01"/><path d="M444.575 247.872C443.559 249.454 446.821 253.487 448.439 254.141C448.72 253.607 448.899 252.25 449.89 252.425C452.729 252.927 458.362 255.887 461.756 256.627C465.029 257.339 466.402 257.91 467.908 258.13C468.688 258.245 469.357 257.622 469.355 256.834C469.337 250.758 465.818 245.794 459.636 243.651C452.919 241.323 448.111 243.04 444.575 247.872Z" fill="#FFC200"/><path fill-rule="evenodd" clip-rule="evenodd" d="M454.808 270.576C455.882 270.057 456.753 269.114 457.723 267.941C459.741 265.5 461.258 261.909 462.36 258.909C461.323 258.83 459.889 259.005 457.91 259.617C451.35 261.546 452.081 268.035 453.793 269.842C454.088 270.153 454.432 270.394 454.808 270.576Z" fill="#FFB8D1"/><path d="M451.084 249.793C448.06 249.054 444.973 249.064 448.822 253.395L464.938 257.613L466.586 258.139C467.443 258.307 467.833 257.357 467.067 256.936C462.005 254.157 453.531 250.392 451.084 249.793Z" fill="#F49000"/><path fill-rule="evenodd" clip-rule="evenodd" d="M554.044 356.905C548.647 351.852 539.643 351.596 534.189 356.268C528.735 360.94 524.865 366.494 519.411 371.166C513.957 375.838 512.701 382.37 517.373 387.824C522.045 393.278 532.473 391.899 539.184 390.82C545.895 389.741 552.247 383.989 556.082 376.799C559.916 369.608 559.677 362.178 554.044 356.905Z" fill="#F49000"/><path fill-rule="evenodd" clip-rule="evenodd" d="M552.664 363.292C548.605 359.617 541.38 359.915 536.736 363.894C532.091 367.873 528.671 372.457 524.026 376.436C519.382 380.414 518.01 385.623 521.463 389.654C524.916 393.685 533.377 392.021 538.832 390.8C544.288 389.578 549.714 384.7 553.197 378.83C556.679 372.96 556.899 367.128 552.664 363.292Z" fill="#FF7A00"/><path d="M437.99 297.432C438.792 297.607 439.317 298.391 439.117 299.188C438.308 302.423 436.774 305.457 433.467 306.477C432.369 306.816 431.248 306.885 430.169 306.68C429.089 306.474 428.071 305.999 427.174 305.281C426.277 304.563 425.518 303.616 424.94 302.495C424.362 301.373 423.976 300.099 423.805 298.745C423.696 297.879 423.676 296.992 423.744 296.104C423.809 295.269 424.611 294.728 425.434 294.885L432.167 296.164L437.99 297.432Z" fill="#8EE000"/><path d="M475.714 302.911C476.547 303.002 477.157 303.754 476.964 304.569C476.71 305.639 476.313 306.673 475.781 307.642C475.006 309.054 473.96 310.3 472.703 311.308C471.446 312.316 470.003 313.067 468.456 313.518C466.909 313.969 465.289 314.11 463.687 313.934C462.086 313.759 460.534 313.269 459.122 312.494C457.709 311.719 456.463 310.673 455.455 309.416C454.447 308.159 453.696 306.716 453.245 305.169C452.936 304.109 452.773 303.013 452.757 301.913C452.745 301.076 453.504 300.474 454.336 300.565L465.025 301.738L475.714 302.911Z" fill="#8EE000"/><path d="M454.164 317.388C454.971 317.514 455.538 318.257 455.419 319.065C454.863 322.834 453.827 325.882 450.011 326.92C448.584 327.309 447.091 327.418 445.618 327.241C444.145 327.064 442.72 326.605 441.425 325.889C440.131 325.174 438.991 324.217 438.072 323.072C437.153 321.927 436.472 320.617 436.068 319.217C435.805 318.306 435.663 317.367 435.644 316.425C435.627 315.588 436.393 314.993 437.224 315.093L446.937 316.26L454.164 317.388Z" fill="#8EE000"/><path d="M1.1709 401.542C1.1709 395.263 6.26129 390.172 12.5406 390.172H550.368C556.647 390.172 561.738 395.263 561.738 401.542V412.366H1.1709V401.542Z" fill="#FFAD00"/><path d="M212.84 81.8015C219.343 113.316 203.044 129.532 194.082 133.7" stroke="#FFC600" stroke-width="4.54789"/><path d="M191.147 127.654C191.996 127.282 192.986 127.463 193.649 128.111L200.167 134.484C201.166 135.461 201.056 137.101 199.934 137.935L188.696 146.29C187.754 146.991 186.432 146.858 185.647 145.984L177.489 136.898C176.454 135.745 176.849 133.918 178.268 133.296L191.147 127.654Z" fill="#FFC600"/><path d="M133.067 31.2569C128.119 24.6433 132.291 15.1616 140.51 14.3408L224.348 5.96828C228.048 5.59876 231.672 7.19305 233.899 10.1706L278.582 69.8963C283.53 76.5099 279.358 85.9916 271.14 86.8123L187.301 95.1849C183.601 95.5544 179.977 93.9601 177.75 90.9825L133.067 31.2569Z" fill="#3D3D3D"/><path d="M133.433 31.7168C130.635 27.9404 133.011 22.5546 137.686 22.075L219.323 13.6991C223.05 13.3167 226.703 14.9281 228.933 17.9386L272.846 77.2152C275.644 80.9915 273.268 86.3773 268.593 86.857L184.379 95.4972C182.25 95.7157 180.162 94.7949 178.888 93.0746L133.433 31.7168Z" fill="#4B4B4B"/><path d="M168.21 41.1833C176.2 28.0616 196.689 25.9563 213.972 36.4809L218.105 38.9978C235.389 49.5224 242.922 68.6915 234.931 81.8132L225.486 97.0923C217.495 110.214 197.007 112.319 179.724 101.795L175.59 99.2778C158.307 88.7532 150.774 69.5841 158.764 56.4624L168.21 41.1833Z" fill="#3D3D3D"/><ellipse cx="37.3544" cy="24.3698" rx="37.3544" ry="24.3698" transform="matrix(0.84619 0.532881 -0.532883 0.846189 171.042 39.8591)" fill="#4B4B4B"/><ellipse cx="29.7361" cy="18.441" rx="29.7361" ry="18.441" transform="matrix(0.84619 0.532881 -0.532883 0.846189 173.996 50.5816)" fill="#3D3D3D"/><path d="M116.524 141.281C106.996 132.41 90.0974 115.929 93.6586 105.053L82.4197 117.945C80.6328 131.5 93.251 148.021 99.9944 153.855C100.477 154.272 101.19 153.902 101.164 153.265L100.65 140.663C100.63 140.176 101.069 139.797 101.548 139.887L115.865 142.581C116.612 142.721 117.081 141.799 116.524 141.281Z" fill="#FFC600"/><path fill-rule="evenodd" clip-rule="evenodd" d="M130.369 60.7134L100.551 40.313L62.7878 104.531L32.6266 145.336L32.71 145.394C32.4384 145.675 32.1893 145.979 31.9649 146.307C28.8114 150.916 31.7285 158.398 38.4804 163.017C45.2323 167.637 53.2622 167.645 56.4157 163.036C56.6401 162.708 56.8337 162.366 56.9975 162.011L57.0774 162.065L84.1097 119.285L130.369 60.7134Z" fill="#E6EAE8"/><ellipse cx="18.0642" cy="12.7141" rx="18.0642" ry="12.7141" transform="matrix(0.825319 0.564667 -0.564668 0.825318 104.27 34.9372)" fill="#C7C9D6"/><path fill-rule="evenodd" clip-rule="evenodd" d="M102.275 64.1422L110.263 52.4668C112.798 52.6366 115.86 53.0794 118.354 54.7862C123.469 58.2856 125.915 63.8604 124.209 68.4179C119.408 71.4813 111.555 70.734 104.812 66.1205C103.908 65.5018 103.061 64.8392 102.275 64.1422Z" fill="#B2BCD0"/><path fill-rule="evenodd" clip-rule="evenodd" d="M89.4811 112.394C88.8331 112.559 88.1255 112.678 87.3558 112.743C83.7751 113.044 79.3919 112.033 75.3172 109.246C71.2426 106.458 68.7131 102.738 67.6959 99.2921C67.4772 98.5512 67.3325 97.8482 67.2515 97.1843L57.9196 111.132C59.3905 116.176 62.5941 119.52 66.4723 122.173C70.3505 124.827 74.6276 126.601 79.8623 126.145L89.4811 112.394Z" fill="#FFC600"/><path d="M418.71 114.642C419.677 114.103 419.582 112.474 418.566 112.034C417.19 111.437 415.654 110.629 414.628 109.663C413.472 108.575 412.462 106.795 411.714 105.209C411.228 104.178 409.498 104.185 409.021 105.221C408.292 106.803 407.308 108.576 406.181 109.663C405.133 110.674 403.601 111.491 402.242 112.082C401.239 112.518 401.116 114.117 402.057 114.674C403.46 115.504 405.086 116.598 406.181 117.753C407.307 118.941 408.421 120.651 409.214 121.987C409.708 122.818 410.986 122.813 411.472 121.977C412.287 120.576 413.45 118.762 414.628 117.549C415.692 116.455 417.299 115.427 418.71 114.642Z" fill="white"/><path d="M152.954 119.477C153.919 118.94 153.824 117.314 152.811 116.874C151.438 116.279 149.905 115.472 148.881 114.509C147.727 113.423 146.718 111.647 145.972 110.064C145.487 109.035 143.761 109.042 143.285 110.075C142.557 111.654 141.575 113.424 140.451 114.509C139.404 115.518 137.875 116.333 136.519 116.922C135.518 117.357 135.395 118.954 136.335 119.51C137.735 120.338 139.358 121.43 140.451 122.582C141.574 123.768 142.686 125.475 143.477 126.807C143.97 127.637 145.246 127.632 145.731 126.797C146.544 125.399 147.705 123.589 148.881 122.379C149.942 121.287 151.546 120.26 152.954 119.477Z" fill="white"/><path d="M395.3 85.5212C396.203 85.0598 396.116 83.6029 395.168 83.2421C392.805 82.3428 389.529 80.8663 387.54 78.9944C385.33 76.9155 383.478 73.1414 382.35 70.4549C381.946 69.4919 380.407 69.4982 380.011 70.4646C378.911 73.1492 377.106 76.9148 374.95 78.9945C372.926 80.9461 369.692 82.4131 367.379 83.2884C366.441 83.6431 366.328 85.0742 367.207 85.5555C369.531 86.8272 372.878 88.867 374.95 91.0522C376.979 93.1929 378.982 96.4725 380.145 98.5257C380.582 99.2967 381.744 99.2896 382.173 98.5145C383.358 96.3778 385.432 92.9175 387.54 90.7483C389.57 88.6593 392.929 86.7319 395.3 85.5212Z" fill="white"/></svg>