<svg width="240" height="36" viewBox="0 0 240 36" fill="none" xmlns="http://www.w3.org/2000/svg"><path fill-rule="evenodd" clip-rule="evenodd" d="M27.8618 32.0477L28.8223 29.5254C28.8847 29.3621 28.9807 29.2138 29.104 29.0901C29.2273 28.9663 29.3753 28.8698 29.5383 28.8069L32.0606 27.8464C32.5926 27.6436 33.0383 27.2637 33.3228 26.7706C33.6073 26.2775 33.7131 25.7014 33.6224 25.1394L33.1958 22.475C33.1687 22.3027 33.178 22.1266 33.2231 21.9582C33.2682 21.7897 33.3481 21.6326 33.4577 21.497L35.1592 19.4038C35.5187 18.9627 35.715 18.4111 35.715 17.842C35.715 17.273 35.5187 16.7214 35.1592 16.2803L33.4577 14.1871C33.3481 14.0514 33.2682 13.8943 33.2231 13.7259C33.178 13.5574 33.1687 13.3814 33.1958 13.2091L33.6199 10.5471C33.7106 9.98511 33.6048 9.40904 33.3203 8.91596C33.0358 8.42288 32.5901 8.04295 32.0581 7.84019L29.5358 6.87718C29.3733 6.8148 29.2256 6.71908 29.1023 6.5962C28.979 6.47331 28.8828 6.32597 28.8198 6.16366L27.8593 3.64137C27.6569 3.10916 27.2771 2.66311 26.7839 2.37856C26.2907 2.09401 25.7144 1.98841 25.1524 2.07959L22.4879 2.50621C22.3165 2.53506 22.141 2.52776 21.9726 2.4848C21.8041 2.44184 21.6466 2.36415 21.5099 2.25673L19.4168 0.555243C18.9756 0.195795 18.424 -0.000488281 17.855 -0.000488281C17.286 -0.000488281 16.7343 0.195795 16.2932 0.555243L14.2 2.25673C14.0634 2.36415 13.9058 2.44184 13.7374 2.4848C13.569 2.52776 13.3935 2.53506 13.2221 2.50621L10.5601 2.07959C9.99802 1.98841 9.42174 2.09401 8.92856 2.37856C8.43537 2.66311 8.05552 3.10916 7.85315 3.64137L6.89014 6.16366C6.82856 6.32636 6.7331 6.47412 6.61009 6.59713C6.48708 6.72014 6.33932 6.8156 6.17662 6.87718L3.65433 7.84019C3.12212 8.04255 2.67607 8.42241 2.39152 8.9156C2.10697 9.40878 2.00137 9.98506 2.09256 10.5471L2.5067 13.2116C2.53554 13.383 2.52825 13.5585 2.48529 13.7269C2.44232 13.8954 2.36464 14.0529 2.25722 14.1896L0.555732 16.2827C0.196283 16.7239 0 17.2755 0 17.8445C0 18.4135 0.196283 18.9652 0.555732 19.4063L2.26969 21.4995C2.37711 21.6361 2.4548 21.7937 2.49776 21.9621C2.54072 22.1305 2.54802 22.306 2.51917 22.4774L2.09256 25.1419C2.00137 25.704 2.10697 26.2803 2.39152 26.7734C2.67607 27.2666 3.12212 27.6465 3.65433 27.8488L6.17662 28.8094C6.33893 28.8723 6.48627 28.9685 6.60916 29.0919C6.73204 29.2152 6.82776 29.3629 6.89014 29.5254L7.85066 32.0477C8.05341 32.5796 8.43335 33.0254 8.92642 33.3099C9.4195 33.5943 9.99558 33.7001 10.5576 33.6095L13.2221 33.1828C13.3947 33.1553 13.5712 33.1645 13.7401 33.2096C13.909 33.2547 14.0666 33.3349 14.2025 33.4448L16.2957 35.1463C16.7368 35.5057 17.2884 35.702 17.8575 35.702C18.4265 35.702 18.9781 35.5057 19.4193 35.1463L21.5124 33.4448C21.6481 33.3352 21.8052 33.2552 21.9736 33.2101C22.1421 33.165 22.3181 33.1557 22.4904 33.1828L25.1549 33.6095C25.7169 33.7001 26.293 33.5943 26.786 33.3099C27.2791 33.0254 27.659 32.5796 27.8618 32.0477ZM25.1278 20.0776C25.5493 18.5412 25.4223 16.9059 24.7684 15.4531C25.5837 14.4676 26.0742 13.254 26.1724 11.9787C26.2707 10.7034 25.972 9.42902 25.3172 8.33027C25.2512 8.22066 25.1601 8.12825 25.0515 8.0606C24.9428 7.99294 24.8197 7.95196 24.6922 7.94101C24.5647 7.93006 24.4364 7.94945 24.3178 7.99759C24.1992 8.04573 24.0937 8.12126 24.0099 8.218L21.7097 10.865L20.0357 8.47996C19.8168 8.1668 19.5236 7.91282 19.1825 7.74077C18.8413 7.56872 18.4628 7.48397 18.0809 7.4941C17.6989 7.50424 17.3255 7.60895 16.9939 7.79885C16.6624 7.98875 16.3831 8.25792 16.1811 8.58225C15.1799 10.1989 14.4081 11.1968 13.8659 11.5761C13.3237 11.9553 12.1045 12.347 10.2085 12.7511C9.8357 12.8314 9.48855 13.0025 9.19793 13.2493C8.9073 13.4961 8.68221 13.811 8.54269 14.1658C8.40316 14.5207 8.35354 14.9045 8.39824 15.2832C8.44294 15.6619 8.58057 16.0236 8.79887 16.3362L10.4829 18.7388L7.16725 20.0211C7.04778 20.067 6.94088 20.1405 6.85527 20.2356C6.76966 20.3307 6.70778 20.4447 6.67469 20.5684C6.64159 20.692 6.63823 20.8217 6.66486 20.9468C6.6915 21.072 6.74739 21.1891 6.82795 21.2885C7.64275 22.2851 8.74755 23.0033 9.98904 23.3435C11.2305 23.6837 12.5471 23.629 13.7561 23.1871C14.9008 24.2952 16.396 24.9697 17.9843 25.0946C19.5726 25.2194 21.1547 24.7868 22.4585 23.8711C23.7623 22.9555 24.7062 21.614 25.1278 20.0776ZM17.0468 26.5601L18.8257 26.8096L18.8132 26.8071C19.1129 26.8488 19.3838 27.0078 19.5663 27.2492C19.7488 27.4907 19.8279 27.7947 19.7862 28.0944C19.7445 28.3942 19.5854 28.6651 19.344 28.8475C19.1026 29.03 18.7986 29.1091 18.4988 29.0674L16.72 28.8179C16.4206 28.7746 16.1507 28.6141 15.9696 28.3717C15.7885 28.1294 15.7112 27.825 15.7545 27.5256C15.7978 27.2262 15.9583 26.9563 16.2007 26.7752C16.4431 26.5941 16.7474 26.5168 17.0468 26.5601ZM27.3166 18.9842C27.5701 18.82 27.8784 18.7632 28.1738 18.8261V18.8336C28.4705 18.8976 28.7297 19.0767 28.8943 19.3317C29.059 19.5866 29.1157 19.8965 29.052 20.1933L28.6803 21.9396C28.6535 22.09 28.5969 22.2335 28.5136 22.3615C28.4304 22.4896 28.3222 22.5996 28.1957 22.685C28.0691 22.7705 27.9266 22.8296 27.7767 22.8589C27.6268 22.8883 27.4726 22.8872 27.3231 22.8557C27.1737 22.8243 27.0321 22.7632 26.9067 22.676C26.7813 22.5888 26.6747 22.4772 26.5933 22.348C26.5118 22.2188 26.4572 22.0746 26.4325 21.9239C26.4079 21.7732 26.4138 21.619 26.4499 21.4706L26.8216 19.7018C26.8851 19.4065 27.0631 19.1484 27.3166 18.9842Z" fill="white"/><path d="M85.0695 9.76166C86.0194 9.76166 86.8335 10.4983 86.8335 11.4482C86.8335 12.3787 86.0194 13.1347 85.0695 13.1347C84.0809 13.1347 83.3054 12.3787 83.3054 11.4482C83.3054 10.4983 84.0809 9.76166 85.0695 9.76166ZM50.7384 9.85858C51.1067 9.85858 51.3199 10.0912 51.3199 10.5564V24.0873C51.3199 24.5525 51.0873 24.7852 50.719 24.7852C50.1956 24.7852 49.4589 24.3393 48.9162 23.5251C48.2571 24.3005 46.9389 24.979 45.3881 24.979C42.3252 24.979 40.251 22.7109 40.251 19.6481C40.251 16.624 42.364 14.3172 45.3881 14.3172C46.5124 14.3172 47.501 14.6661 48.2183 15.1701V13.7356C48.2183 11.2737 49.5946 9.85858 50.7384 9.85858ZM80.5721 9.85858C80.9405 9.85858 81.1537 10.0912 81.1537 10.5564V23.5639C81.1537 24.2811 80.8823 24.5913 80.1263 24.5913H79.0795C78.3235 24.5913 78.0521 24.2811 78.0521 23.5639V13.7356C78.0521 11.2737 79.4284 9.85858 80.5721 9.85858ZM111.86 13.9876C112.286 13.9876 112.461 14.3559 112.461 14.86C112.461 15.9068 111.976 16.7791 110.891 17.1668C111.084 17.5739 111.181 18.0197 111.181 18.5044C111.181 19.6481 110.6 20.6755 109.65 21.4897C110.949 22.1294 111.724 23.6221 111.724 25.0759C111.724 27.7705 109.572 29.5345 106.296 29.5345C103.059 29.5345 100.868 27.7705 100.868 25.0759C100.868 23.6221 101.644 22.1488 102.943 21.4897C101.954 20.6755 101.411 19.6481 101.411 18.5044C101.411 16.1588 103.253 14.4141 106.141 14.4141C107.847 14.4141 108.351 14.7049 109.34 14.7049C109.999 14.7049 110.445 14.6079 111.239 14.1815C111.491 14.0458 111.685 13.9876 111.86 13.9876ZM70.7826 14.3172C73.923 14.3172 76.288 16.5271 76.288 19.6481C76.288 22.7303 73.923 24.979 70.7826 24.979C67.6422 24.979 65.2772 22.7303 65.2772 19.6481C65.2772 16.5271 67.6422 14.3172 70.7826 14.3172ZM94.7233 14.3172C96.2354 14.3172 97.4372 14.8406 98.232 15.7517C99.0268 16.6822 99.4145 17.884 99.4145 19.8419V23.5639C99.4145 24.3199 99.1044 24.5913 98.3871 24.5913H97.3403C96.6231 24.5913 96.3129 24.3199 96.3129 23.5639V19.9389C96.3129 19.0084 96.1578 18.3687 95.8283 17.9422C95.4793 17.4963 94.9559 17.2637 94.2581 17.2637C93.599 17.2637 93.0174 17.4963 92.6297 17.9422C92.2614 18.3687 92.0482 19.0278 92.0482 19.9195V23.5639C92.0482 24.2811 91.7768 24.5913 91.0207 24.5913H89.9739C89.2179 24.5913 88.9465 24.2811 88.9465 23.5639V15.2089C88.9465 14.7436 89.1792 14.511 89.5475 14.511C90.0903 14.511 90.8269 14.9569 91.3697 15.8098C92.1839 14.8406 93.4827 14.3172 94.7233 14.3172ZM118.451 14.3172C121.591 14.3172 123.956 16.5271 123.956 19.6481C123.956 22.7303 121.591 24.979 118.451 24.979C115.31 24.979 112.945 22.7303 112.945 19.6481C112.945 16.5271 115.31 14.3172 118.451 14.3172ZM62.6796 14.7049C63.4356 14.7049 63.707 15.015 63.707 15.7323V24.0873C63.707 24.5525 63.4744 24.7852 63.1061 24.7852C62.5827 24.7852 61.8461 24.3393 61.3033 23.5057C60.5279 24.4168 59.3648 24.979 58.0272 24.979C56.6896 24.979 55.6234 24.5138 54.848 23.7771C53.9175 22.8854 53.4329 21.5091 53.4329 19.5318V15.7323C53.4329 14.9763 53.7431 14.7049 54.4603 14.7049H55.5071C56.2244 14.7049 56.5345 14.9763 56.5345 15.7323V19.241C56.5345 20.4235 56.7284 21.0632 57.1355 21.4897C57.465 21.8386 57.9303 22.0325 58.5312 22.0325C59.1321 22.0325 59.6749 21.7998 60.0239 21.4121C60.4116 20.9857 60.6054 20.3266 60.6054 19.3379V15.7323C60.6054 15.015 60.8768 14.7049 61.6328 14.7049H62.6796ZM85.5929 14.7049C86.3101 14.7049 86.6203 14.9763 86.6203 15.7323V23.5639C86.6203 24.3199 86.3101 24.5913 85.5929 24.5913H84.5461C83.8288 24.5913 83.5187 24.3199 83.5187 23.5639V15.7323C83.5187 14.9763 83.8288 14.7049 84.5461 14.7049H85.5929ZM106.296 16.8566C105.172 16.8566 104.397 17.5933 104.397 18.6788C104.397 19.6869 105.249 20.501 106.296 20.501C107.362 20.501 108.196 19.6869 108.196 18.6788C108.196 17.5933 107.44 16.8566 106.296 16.8566ZM45.8145 22.1875C47.1521 22.1875 48.2183 21.1795 48.2183 19.6481C48.2183 18.1167 47.1521 17.1086 45.8145 17.1086C44.4576 17.1086 43.3914 18.1167 43.3914 19.6481C43.3914 21.1795 44.4576 22.1875 45.8145 22.1875ZM70.7826 22.1875C72.2365 22.1875 73.1476 21.1214 73.1476 19.6481C73.1476 18.1748 72.2365 17.1086 70.7826 17.1086C69.3287 17.1086 68.4176 18.1748 68.4176 19.6481C68.4176 21.1214 69.3287 22.1875 70.7826 22.1875ZM118.451 22.1875C119.905 22.1875 120.816 21.1214 120.816 19.6481C120.816 18.1748 119.905 17.1086 118.451 17.1086C116.997 17.1086 116.086 18.1748 116.086 19.6481C116.086 21.1214 116.997 22.1875 118.451 22.1875ZM106.296 27.0145C107.634 27.0145 108.661 26.1034 108.661 24.979C108.661 23.7771 107.731 22.9436 106.296 22.9436C104.862 22.9436 103.931 23.7577 103.931 24.979C103.931 26.1227 104.939 27.0145 106.296 27.0145ZM139.438 19.6093C139.438 20.2684 139.225 20.5786 138.45 20.5786H132.44C132.712 21.5091 133.661 22.2651 135.309 22.2651C137.054 22.2651 137.79 21.7611 138.159 21.7611C138.391 21.7611 138.682 21.858 138.682 22.3232V23.4476C138.682 23.8353 138.624 24.1261 138.275 24.3393C137.868 24.5913 136.744 24.979 134.999 24.979C131.878 24.979 129.377 23.0405 129.377 19.6481C129.377 16.7015 131.529 14.3172 134.437 14.3172C137.694 14.3172 139.438 16.4302 139.438 19.6093ZM134.476 16.9148C133.313 16.9148 132.595 17.5933 132.421 18.5819H136.434C136.317 17.632 135.697 16.9148 134.476 16.9148ZM150.354 15.7517C151.149 16.6822 151.537 17.884 151.537 19.8419V23.5639C151.537 24.3199 151.226 24.5913 150.509 24.5913H149.462C148.745 24.5913 148.435 24.3199 148.435 23.5639V19.9389C148.435 19.0084 148.28 18.3687 147.95 17.9422C147.601 17.4963 147.078 17.2637 146.38 17.2637C145.721 17.2637 145.139 17.4963 144.752 17.9422C144.383 18.3687 144.17 19.0278 144.17 19.9195V23.5639C144.17 24.2811 143.899 24.5913 143.143 24.5913H142.096C141.34 24.5913 141.069 24.2811 141.069 23.5639V15.2089C141.069 14.7436 141.301 14.511 141.669 14.511C142.212 14.511 142.949 14.9569 143.492 15.8098C144.306 14.8406 145.605 14.3172 146.845 14.3172C148.357 14.3172 149.559 14.8406 150.354 15.7517ZM158.133 29.5345C154.896 29.5345 152.705 27.7705 152.705 25.0759C152.705 23.6221 153.481 22.1488 154.78 21.4897C153.791 20.6755 153.248 19.6481 153.248 18.5044C153.248 16.1588 155.09 14.4141 157.978 14.4141C159.684 14.4141 160.188 14.7049 161.177 14.7049C161.836 14.7049 162.282 14.6079 163.076 14.1815C163.328 14.0458 163.522 13.9876 163.697 13.9876C164.123 13.9876 164.298 14.3559 164.298 14.86C164.298 15.9068 163.813 16.7791 162.728 17.1668C162.921 17.5739 163.018 18.0197 163.018 18.5044C163.018 19.6481 162.437 20.6755 161.487 21.4897C162.786 22.1294 163.561 23.6221 163.561 25.0759C163.561 27.7705 161.409 29.5345 158.133 29.5345ZM158.133 20.501C159.199 20.501 160.033 19.6869 160.033 18.6788C160.033 17.5933 159.277 16.8566 158.133 16.8566C157.009 16.8566 156.233 17.5933 156.233 18.6788C156.233 19.6869 157.086 20.501 158.133 20.501ZM158.133 27.0145C159.471 27.0145 160.498 26.1034 160.498 24.979C160.498 23.7771 159.568 22.9436 158.133 22.9436C156.699 22.9436 155.768 23.7577 155.768 24.979C155.768 26.1227 156.776 27.0145 158.133 27.0145ZM166.47 24.5913C165.714 24.5913 165.442 24.2811 165.442 23.5639V13.7356C165.442 11.2737 166.819 9.85858 167.962 9.85858C168.331 9.85858 168.544 10.0912 168.544 10.5564V23.5639C168.544 24.2811 168.273 24.5913 167.517 24.5913H166.47ZM172.384 13.1347C171.395 13.1347 170.62 12.3787 170.62 11.4482C170.62 10.4983 171.395 9.76166 172.384 9.76166C173.334 9.76166 174.148 10.4983 174.148 11.4482C174.148 12.3787 173.334 13.1347 172.384 13.1347ZM171.861 24.5913C171.143 24.5913 170.833 24.3199 170.833 23.5639V15.7323C170.833 14.9763 171.143 14.7049 171.861 14.7049H172.907C173.625 14.7049 173.935 14.9763 173.935 15.7323V23.5639C173.935 24.3199 173.625 24.5913 172.907 24.5913H171.861ZM179.888 24.9209C178.414 24.9209 176.922 24.5719 176.418 24.3005C175.952 24.0485 175.894 23.7384 175.894 23.4282V22.4783C175.894 22.0712 176.069 21.7611 176.515 21.7611C177.154 21.7611 177.91 22.4396 180.159 22.4396C180.818 22.4396 181.303 22.2069 181.303 21.6835C181.303 21.1601 180.915 21.0438 179.771 20.8306L179.151 20.7143C177.29 20.3653 175.875 19.7062 175.875 17.7483C175.875 15.1507 177.969 14.3753 180.198 14.3753C181.826 14.3753 183.047 14.7243 183.532 14.9569C183.978 15.1701 184.055 15.4415 184.055 15.8292V16.7791C184.055 17.2831 183.823 17.4576 183.435 17.4576C182.795 17.4576 181.69 16.8566 180.159 16.8566C179.364 16.8566 179.015 17.128 179.015 17.5157C179.015 17.981 179.384 18.0973 180.469 18.2911L181.012 18.3881C182.873 18.7176 184.443 19.2992 184.443 21.606C184.443 24.0679 182.35 24.9209 179.888 24.9209ZM195.481 15.7517C196.276 16.6822 196.664 17.884 196.664 19.8419V23.5639C196.664 24.3199 196.354 24.5913 195.636 24.5913H194.59C193.872 24.5913 193.562 24.3199 193.562 23.5639V19.9389C193.562 19.0084 193.407 18.3687 193.078 17.9422C192.729 17.4963 192.205 17.2637 191.507 17.2637C190.848 17.2637 190.267 17.4963 189.879 17.9422C189.511 18.3687 189.297 19.0278 189.297 19.9195V23.5639C189.297 24.2811 189.026 24.5913 188.27 24.5913H187.223C186.467 24.5913 186.196 24.2811 186.196 23.5639V13.7356C186.196 11.2737 187.572 9.85858 188.716 9.85858C189.084 9.85858 189.297 10.0912 189.297 10.5564V15.3446C190.053 14.6273 191.081 14.3172 192.166 14.3172C193.485 14.3172 194.687 14.8406 195.481 15.7517ZM209.211 21.858C209.521 21.858 209.676 22.0519 209.676 22.4008V23.5445C209.676 24.1454 209.599 24.3587 208.978 24.6107C208.494 24.8045 207.912 24.8821 207.195 24.8821C204.617 24.8821 203.357 23.5251 203.357 20.7143V17.38H202.543C201.825 17.38 201.515 17.1086 201.515 16.3526V15.7323C201.515 14.9763 201.825 14.7049 202.543 14.7049H203.357V13.2122C203.357 12.495 203.628 12.1848 204.384 12.1848H205.431C206.187 12.1848 206.458 12.495 206.458 13.2122V14.7049H208.436C209.153 14.7049 209.463 14.9763 209.463 15.7323V16.3526C209.463 17.1086 209.153 17.38 208.436 17.38H206.458V20.346C206.458 21.6448 206.904 22.0519 207.912 22.0519C208.591 22.0519 208.881 21.858 209.211 21.858ZM220.421 19.6093C220.421 20.2684 220.208 20.5786 219.433 20.5786H213.423C213.695 21.5091 214.644 22.2651 216.292 22.2651C218.037 22.2651 218.774 21.7611 219.142 21.7611C219.374 21.7611 219.665 21.858 219.665 22.3232V23.4476C219.665 23.8353 219.607 24.1261 219.258 24.3393C218.851 24.5913 217.727 24.979 215.982 24.979C212.861 24.979 210.36 23.0405 210.36 19.6481C210.36 16.7015 212.512 14.3172 215.42 14.3172C218.677 14.3172 220.421 16.4302 220.421 19.6093ZM215.459 16.9148C214.296 16.9148 213.578 17.5933 213.404 18.5819H217.417C217.3 17.632 216.68 16.9148 215.459 16.9148ZM225.715 24.9209C224.242 24.9209 222.749 24.5719 222.245 24.3005C221.78 24.0485 221.722 23.7384 221.722 23.4282V22.4783C221.722 22.0712 221.897 21.7611 222.342 21.7611C222.982 21.7611 223.738 22.4396 225.987 22.4396C226.646 22.4396 227.131 22.2069 227.131 21.6835C227.131 21.1601 226.743 21.0438 225.599 20.8306L224.979 20.7143C223.118 20.3653 221.703 19.7062 221.703 17.7483C221.703 15.1507 223.796 14.3753 226.026 14.3753C227.654 14.3753 228.875 14.7243 229.36 14.9569C229.806 15.1701 229.883 15.4415 229.883 15.8292V16.7791C229.883 17.2831 229.651 17.4576 229.263 17.4576C228.623 17.4576 227.518 16.8566 225.987 16.8566C225.192 16.8566 224.843 17.128 224.843 17.5157C224.843 17.981 225.211 18.0973 226.297 18.2911L226.84 18.3881C228.701 18.7176 230.271 19.2992 230.271 21.606C230.271 24.0679 228.177 24.9209 225.715 24.9209ZM238.483 21.858C238.794 21.858 238.949 22.0519 238.949 22.4008V23.5445C238.949 24.1454 238.871 24.3587 238.251 24.6107C237.766 24.8045 237.185 24.8821 236.467 24.8821C233.889 24.8821 232.629 23.5251 232.629 20.7143V17.38H231.815C231.098 17.38 230.787 17.1086 230.787 16.3526V15.7323C230.787 14.9763 231.098 14.7049 231.815 14.7049H232.629V13.2122C232.629 12.495 232.9 12.1848 233.656 12.1848H234.703C235.459 12.1848 235.731 12.495 235.731 13.2122V14.7049H237.708C238.425 14.7049 238.735 14.9763 238.735 15.7323V16.3526C238.735 17.1086 238.425 17.38 237.708 17.38H235.731V20.346C235.731 21.6448 236.177 22.0519 237.185 22.0519C237.863 22.0519 238.154 21.858 238.483 21.858Z" fill="white"/></svg>