<svg width="349" height="263" viewBox="0 0 349 263" fill="none" xmlns="http://www.w3.org/2000/svg"><path d="M147.253 62.4205C139.638 67.8735 129.045 66.1213 123.592 58.5068L118.862 51.902C113.409 44.2875 115.161 33.6941 122.776 28.241L134.046 20.0108C141.66 14.5577 152.253 16.3099 157.707 23.9245L162.436 30.5293C167.89 38.1438 162.253 51.6785 154.638 57.1315L147.253 62.4205Z" fill="#3D3D3D"/><path fill-rule="evenodd" clip-rule="evenodd" d="M130.516 64.1422C127.833 62.9581 125.423 61.0624 123.592 58.5059L118.862 51.9011C117.875 50.5219 117.123 49.045 116.6 47.5185C120.379 52.7306 128.533 58.489 132.718 61.0408L130.516 64.1422Z" fill="#2C3038"/><path d="M208.252 77.2653C216.95 71.0525 218.793 61.5308 215.97 52.6005L212.415 37.0554C209.592 28.1251 200.064 23.174 191.134 25.9969L162.459 35.0611C153.529 37.884 148.578 47.4118 151.401 56.3421L155.087 68.0034C157.91 76.9337 179.355 96.1949 188.285 93.3721L208.252 77.2653Z" fill="#2C3038"/><path fill-rule="evenodd" clip-rule="evenodd" d="M215.083 48.727C215.122 56.05 209.82 64.3602 200.717 65.7093L183.033 65.7852L177.749 30.2271L191.133 25.9965C200.063 23.1736 209.591 28.1246 212.414 37.0549L215.083 48.727Z" fill="#3D3D3D"/><path d="M197.126 29.5877C198.049 19.5705 190.676 10.7019 180.659 9.77914L167.579 8.57419C157.561 7.65142 148.693 15.0239 147.77 25.0411L143.348 58.5055L192.764 63.9268L197.126 29.5877Z" fill="#3D3D3D"/><path d="M154.268 53.2391C155.574 53.2391 156.872 53.4309 158.122 53.8082L170.535 57.5555C173.839 58.5531 176.628 60.7933 178.315 63.8049L187.874 80.8706C190.36 85.3089 190.105 90.775 187.215 94.9619L168.146 122.593C164.615 127.71 158.017 129.708 152.24 127.409L129.209 118.245C126.576 117.198 124.346 115.339 122.841 112.939L111.9 95.49C109.092 91.0118 109.194 85.298 112.16 80.9229L126.961 59.0916C129.442 55.4313 133.576 53.2392 137.999 53.2392L154.268 53.2391Z" fill="#A46648"/><path fill-rule="evenodd" clip-rule="evenodd" d="M175.95 71.7741C172.437 81.8267 165.221 100.441 162.176 105.828C159.131 111.216 147.534 108.073 144.021 105.828L152.689 125.458L168.672 120.989L170.716 118.869L187.215 94.9619C190.105 90.775 190.36 85.3089 187.874 80.8705L185.564 76.746L175.95 71.7741Z" fill="#8D504C"/><path d="M113.807 98.4757C112.706 96.6667 114.519 94.4897 116.498 95.2441L146.078 106.523C149.303 107.753 151.925 110.185 153.394 113.308L157.671 122.401L156.115 130.321L128.192 122.129L113.807 98.4757Z" fill="#8D504C"/><path fill-rule="evenodd" clip-rule="evenodd" d="M178.638 58.4383C183.425 59.7145 187.197 63.3984 188.587 68.1536L194.829 89.5139L180.064 100.923L173.781 74.9227L156.078 54.1079L127.546 57.6344L128.63 50.1647C128.862 48.5665 130.381 47.4851 131.967 47.7886L154.345 52.0708L154.225 51.9294L155.798 52.3488L156.238 52.433L156.27 52.4747L178.638 58.4383Z" fill="#FDB02A"/><path fill-rule="evenodd" clip-rule="evenodd" d="M182.37 99.1406L194.829 89.5137L188.586 68.1533C188.107 66.5131 187.344 65.0004 186.354 63.6699C186.27 64.2929 185.916 64.9476 185.226 65.6381C184.288 66.5758 183.229 67.812 182.14 69.0837C180.087 71.4809 177.927 74.0036 176.267 74.8881C175.067 75.5278 173.96 75.0063 173.766 74.9045L173.781 74.9225L179.899 100.244L182.37 99.1406Z" fill="#F49001"/><path d="M173.323 47.4185C169.947 53.37 162.003 55.659 155.58 52.5311L157.304 49.4917C160.68 43.5402 168.623 41.2512 175.047 44.379L173.323 47.4185Z" fill="#FDB02A"/><path d="M158.07 34.1785C159.187 38.9529 160.154 47.9317 155.577 52.5235L153.046 50.3577C148.09 46.1169 148.115 37.125 158.07 34.1785Z" fill="#FDB02A"/><path d="M171.527 86.519C170.033 88.707 170.41 89.8387 170.033 91.5845C169.572 93.7159 168.612 95.4965 170.033 97.3706C172.617 100.78 177.475 101.449 180.884 98.8648C184.293 96.2808 184.962 91.4224 182.378 88.0132C179.794 84.604 174.936 83.935 171.527 86.519Z" fill="#8D504C"/><path d="M146.13 67.0666C147.984 64.3594 147.262 59.9109 143.153 58.4406C139.647 57.1861 134.89 58.2943 132.053 62.7705L128.951 67.7463C126.414 71.6331 127.57 75.7761 131.188 77.1716C136.612 79.2635 140.149 75.9828 142.381 72.62L146.13 67.0666Z" fill="white"/><path fill-rule="evenodd" clip-rule="evenodd" d="M144.619 59.8396C146.491 60.5606 146.593 62.9463 145.583 64.4045L143.738 67.1957C142.688 68.9039 140.603 70.8481 138.138 69.817C136.495 69.1292 136.135 66.9691 137.505 64.898L138.769 62.9107C139.499 63.1962 140.58 63.0033 141.533 62.3465C142.628 61.5917 143.199 60.4691 142.974 59.6441C143.561 59.5786 144.123 59.6486 144.619 59.8396Z" fill="#3D3D3D"/><path d="M163.879 72.769C165.776 70.0418 165.004 65.4122 160.708 63.8369C157.042 62.4928 152.128 63.5132 149.279 67.9829L146.166 72.9525C143.616 76.8321 144.905 81.0495 148.69 82.5386C154.364 84.7709 158.521 81.2052 160.446 77.9977L163.879 72.769Z" fill="white"/><path fill-rule="evenodd" clip-rule="evenodd" d="M159.734 64.6819C161.936 65.5243 162.203 68.0677 161.13 69.5794L159.178 72.4766C158.076 74.2528 155.794 76.2389 152.89 75.0428C150.953 74.2449 150.403 71.9313 151.852 69.7816L153.062 67.9067C153.914 68.6642 155.373 68.6675 156.548 67.8488C157.795 66.9808 158.281 65.4957 157.717 64.4168C158.427 64.3517 159.119 64.4468 159.734 64.6819Z" fill="#3D3D3D"/><path d="M161.896 82.5857C161.977 85.3893 156.734 88.775 150.86 88.9721C144.987 89.1691 140.959 82.1751 140.959 82.1751C140.959 82.1751 145.059 78.7722 152.525 79.1701C159.406 79.5369 161.896 82.5857 161.896 82.5857Z" fill="#A46648"/><path fill-rule="evenodd" clip-rule="evenodd" d="M136.577 88.0184C137.483 85.7495 140.032 84.6359 142.698 85.052C143.531 85.1819 144.396 84.9513 145.075 84.4479C147.275 82.8153 150.024 82.9992 151.735 84.7445C153.726 86.7748 153.686 90.0413 151.645 92.0405L151.402 92.2787C148.24 95.3757 143.557 96.3287 139.456 94.7101C136.808 93.6652 135.519 90.6692 136.577 88.0184Z" fill="#A41414"/><path d="M142.472 85.0179C142.547 85.0272 142.621 85.0376 142.696 85.0492C143.528 85.1791 144.394 84.9485 145.072 84.4451C147.272 82.8125 150.021 82.9964 151.733 84.7417C152.99 86.0235 153.437 87.7982 153.082 89.4355C151.983 89.5647 150.837 89.2567 149.929 88.4874C149.582 88.1934 149.295 87.8542 149.071 87.4856C147.553 88.6642 145.372 88.6668 143.854 87.3813C143.108 86.7496 142.643 85.9094 142.472 85.0179Z" fill="white"/><path d="M148.868 94.1453C146.142 95.6152 142.888 95.9128 139.897 94.8769C140.174 94.091 140.655 93.3639 141.332 92.78C143.394 91.0025 146.5 91.2252 148.269 93.2774C148.504 93.55 148.703 93.8411 148.868 94.1453Z" fill="#FF4B4B"/><path d="M142.64 80.0931C143.145 78.6549 142.323 77.0619 140.803 76.5351L138.486 75.7319C136.966 75.205 135.325 75.9438 134.82 77.382C134.314 78.8202 135.137 80.4131 136.656 80.94L138.974 81.7432C140.493 82.27 142.135 81.5312 142.64 80.0931Z" fill="#86401F"/><path d="M142.639 80.5074C141.886 81.8813 140.163 82.39 138.792 81.6436C137.42 80.8971 136.92 79.1782 137.673 77.8043C138.426 76.4303 142.554 74.5387 142.657 74.595C142.76 74.6513 143.393 79.1334 142.639 80.5074Z" fill="#86401F"/><path d="M65.5887 118.892C80.2962 123.858 104.626 120.639 120.178 120.639" stroke="#A46648" stroke-width="18.5467" stroke-linecap="round"/><path d="M60.8767 124.889L50.1968 121.456" stroke="#A46648" stroke-width="9.06727" stroke-linecap="round"/><path d="M62.3259 116.68L51.646 113.247" stroke="#A46648" stroke-width="9.06727" stroke-linecap="round"/><path d="M67.6658 114.964L56.9858 111.531" stroke="#A46648" stroke-width="9.06727" stroke-linecap="round"/><path d="M146.534 134.997C143.372 142.505 135.312 146.277 128.532 143.421C121.753 140.566 118.82 132.164 121.982 124.656L127.439 111.701L127.448 111.705C129.504 107.527 136.342 106.377 142.961 109.165C149.58 111.953 153.534 117.648 151.981 122.038L151.99 122.042L146.534 134.997Z" fill="#F49001"/><path fill-rule="evenodd" clip-rule="evenodd" d="M144.089 109.68C144.233 111.227 144.016 112.888 143.393 114.509L143.399 114.511L137.521 128.468C134.114 136.557 128.152 141.766 124.205 140.104C124.084 140.053 123.967 139.996 123.853 139.934C122.377 138.151 121.383 135.96 120.952 133.589C120.795 130.41 121.539 126.451 123.226 122.447L128.274 110.461C130.977 107.325 137.056 106.678 142.961 109.165C143.346 109.327 143.722 109.499 144.089 109.68Z" fill="#FDB02A"/><path d="M144.038 116.012C154.368 120.363 162.438 136.182 157.56 146.699C153.492 157.424 135.163 152.09 127.333 148.793C114.734 143.486 107.085 133.093 110.25 125.58C110.292 125.48 110.336 125.381 110.381 125.283C110.42 125.181 110.46 125.08 110.503 124.979C115.065 114.147 129.079 109.711 139.115 113.938L144.038 116.012Z" fill="#F49001"/><path fill-rule="evenodd" clip-rule="evenodd" d="M111.432 135.77C109.737 132.05 109.397 128.045 110.763 124.389C115.577 113.987 129.262 109.788 139.115 113.937L144.037 116.011C146.669 117.119 149.154 118.972 151.316 121.292C153.741 127.693 154.133 135.605 151.164 142.153C146.829 153.288 132.907 150.682 125.576 148.004C119.023 144.883 113.999 140.385 111.432 135.77Z" fill="#FDB02A"/><path fill-rule="evenodd" clip-rule="evenodd" d="M126.852 148.586C117.807 144.644 111.405 138.08 109.884 131.934C109.939 131.658 110.02 131.389 110.13 131.13C110.157 131.065 110.186 131 110.217 130.937C110.241 130.871 110.267 130.805 110.294 130.739C113.261 123.694 125.168 121.986 134.413 125.879L138.947 127.789C148.463 131.797 157.099 143.512 153.824 150.308C153.639 150.817 153.381 151.26 153.057 151.643C145.923 155.172 133.437 151.363 127.333 148.792C127.311 148.783 127.288 148.773 127.265 148.763C127.127 148.705 126.989 148.645 126.852 148.586Z" fill="#F49001"/><path d="M114.149 131.14C118.242 129.165 124.494 128.397 131.408 129.892C140.178 131.788 149.789 139.164 147.523 149.646C146.888 152.584 144.41 153.284 138.64 152.397C131.84 151.352 122.954 149.796 119.384 149.025C112.748 147.59 107.08 143.982 108.151 139.025C108.686 136.553 111.634 132.295 114.149 131.14Z" fill="#FF4B4B"/><path fill-rule="evenodd" clip-rule="evenodd" d="M142.478 135.457L135.876 149.161L128.667 145.688L135.638 131.218C138.112 132.238 140.489 133.669 142.478 135.457Z" fill="#1CB0F6"/><path fill-rule="evenodd" clip-rule="evenodd" d="M114.498 130.977C116.613 130.02 119.261 129.374 122.254 129.174L114.607 144.19L109.177 141.425L114.498 130.977Z" fill="#1CB0F6"/><path d="M147.533 256.001C146.391 260.778 141.398 263.546 136.741 261.984L135.342 261.514C130.892 260.021 128.542 255.159 130.138 250.745L135.732 235.275C137.18 231.268 141.464 229.046 145.574 230.17C149.829 231.333 152.393 235.663 151.368 239.954L147.533 256.001Z" fill="#FF4B4B"/><path d="M125.898 137.378C115.768 135.582 107.283 140.3 100.967 146.075C98.5578 148.195 96.513 150.98 95.053 154.238L117.689 169.443L137.662 182.585C147.385 184.309 149.493 183.18 151.644 171.049C152.448 166.511 152.913 160.868 151.644 157.032C148.637 147.771 137.59 139.451 125.898 137.378Z" fill="#1CB0F6"/><path fill-rule="evenodd" clip-rule="evenodd" d="M85.8227 100.64C91.043 100.366 93.4977 101.188 96.9314 105.129L121.681 138.961C127.848 146.04 137.203 161.279 130.123 167.447C123.044 173.614 121.945 181.007 115.777 173.928L90.8008 151.449L71.5011 180.739C66.1085 188.426 53.0759 179.32 45.3895 173.927C37.703 168.534 31.5959 155.957 36.9885 148.27L71.5011 108.535C74.5034 104.256 80.6025 100.914 85.8227 100.64Z" fill="#1CB0F6"/><path fill-rule="evenodd" clip-rule="evenodd" d="M140.072 146.681C149.228 148.759 154.676 157.807 152.86 170.068L147.638 194.136L157.555 216.16C160.934 224.921 156.398 223.907 147.637 227.286C138.877 230.665 131.19 236.046 127.811 227.286L116.609 202.361C114.18 196.062 114.641 189.141 114.641 183.237L116.609 158.488C118.687 149.331 130.915 144.603 140.072 146.681Z" fill="#1CB0F6"/><path fill-rule="evenodd" clip-rule="evenodd" d="M144.105 182.183C143.6 183.206 143.137 184.144 142.751 184.998C142.233 186.145 142.272 187.438 142.585 188.657C146.805 205.036 129.581 212.049 118.284 206.091L127.808 227.285C130.622 234.58 136.423 232.069 143.343 229.074C144.734 228.472 146.169 227.851 147.635 227.285C149.381 226.612 150.96 226.113 152.342 225.676L152.342 225.676C157.89 223.922 160.258 223.173 157.553 216.16L147.635 194.136L152.857 170.068C153.621 164.912 153.1 160.324 151.56 156.583C150.854 157.769 150.42 159.102 150.39 160.464C150.182 169.876 146.624 177.083 144.105 182.183Z" fill="#0E92FC"/><path d="M127.083 234.495L120.816 216.883C120.439 215.824 121.876 214.587 122.964 214.869C131.25 217.014 146.595 213.18 155.206 209.374C155.854 209.087 156.609 209.438 156.794 210.123L160.651 224.426C160.698 224.602 160.704 224.789 160.658 224.966C158.302 233.922 138.836 235.722 128.082 235.242C127.626 235.221 127.236 234.925 127.083 234.495Z" fill="#1CB0F6"/><path fill-rule="evenodd" clip-rule="evenodd" d="M90.9506 151.587L90.7972 151.449L78.9728 169.395C79.2659 172.472 78.7147 175.34 77.2142 177.733L77.2362 177.749L69.1903 188.812L69.1126 188.755C64.8309 193.272 57.0111 194.089 48.7615 191.398L93.0447 139.004C93.6967 138.233 94.7561 137.943 95.7103 138.274C97.1895 138.787 97.8108 140.539 96.9849 141.869L90.9506 151.587Z" fill="#0E92FC"/><ellipse cx="54.6085" cy="162.25" rx="27.4159" ry="17.464" transform="rotate(36.0272 54.6085 162.25)" fill="#4CC5FF"/><rect x="32.8936" y="145.497" width="54.8317" height="13.6795" transform="rotate(36.0272 32.8936 145.497)" fill="#4CC5FF"/><ellipse cx="47.8829" cy="171.498" rx="27.4159" ry="17.464" transform="rotate(36.0272 47.8829 171.498)" fill="#4CC5FF"/><path opacity="0.5" fill-rule="evenodd" clip-rule="evenodd" d="M70.4572 174.911C69.1604 176.674 66.9947 175.113 65.7123 173.929L38.8788 185.373L39.3769 186.84C50.5845 194.176 63.2132 194.982 69.1164 188.754L69.1936 188.81L77.2394 177.747L77.2179 177.731C79.6918 173.787 79.5853 168.549 77.3693 163.214C77.3077 163.432 77.19 163.663 77.0361 163.964C76.902 164.226 76.7404 164.543 76.5644 164.952C74.9072 168.806 72.0982 172.68 70.4572 174.911Z" fill="#1CB0F6"/><ellipse cx="46.8781" cy="172.923" rx="25.1716" ry="15.213" transform="rotate(36.0272 46.8781 172.923)" fill="#1CB0F6"/><path fill-rule="evenodd" clip-rule="evenodd" d="M256.009 60.2112C258.28 63.5877 259.386 74.5603 256.009 76.8305L161.695 132.503C158.318 134.773 153.741 133.877 151.47 130.5C149.2 127.124 150.097 122.546 153.473 120.276L241.881 43.8781C245.258 41.6078 253.739 56.8347 256.009 60.2112Z" fill="#A46648"/><path fill-rule="evenodd" clip-rule="evenodd" d="M258.131 70.7458C255.424 72.9403 251.168 77.0386 247.172 80.8873C246.097 81.9223 245.041 82.9392 244.039 83.8962L256.008 76.8307C257.397 75.8968 258.028 73.4903 258.131 70.7458ZM222.873 96.3902L161.694 132.503C158.868 134.403 155.202 134.085 152.75 131.952C152.866 130.264 154.116 128.049 156.548 126.591L222.873 96.3902Z" fill="#8D504C"/><path d="M4.59859 169.54C-0.355746 163.162 1.22813 153.908 8.02148 149.541L10.0639 148.228C16.5562 144.055 25.2112 146.042 29.2329 152.629L43.3287 175.718C46.9796 181.698 45.4243 189.479 39.7554 193.596C33.886 197.859 25.6928 196.695 21.2427 190.967L4.59859 169.54Z" fill="#FF4B4B"/><path d="M223.227 17.9836C223.092 16.7389 223.992 15.6259 225.237 15.491L307.192 6.60479C308.476 6.46563 309.617 7.41785 309.708 8.70568C310.294 17.0476 312.468 45.698 315.877 64.7266C318.486 79.2908 332.121 97.2411 332.121 97.2411C332.121 97.2411 276.91 103.388 252.959 105.824C237.416 107.405 231.427 93.606 228.915 70.4388C227.099 53.6942 224.236 27.2902 223.227 17.9836Z" fill="#F2F2F2"/><path d="M345.478 78.0689C347.097 77.8934 348.36 79.4356 347.793 80.9617C343.712 91.9376 337.656 96.6595 326.641 97.8539C302.408 100.481 287.102 102.223 254.916 105.656C252.833 105.878 250.507 106.097 248.376 105.803C263.129 102.081 263.306 95.3244 264.105 88.5975C264.227 87.5762 265.043 86.791 266.066 86.6801C285.117 84.6145 319.004 80.9394 345.478 78.0689Z" fill="#E5E5E5"/><g opacity="0.25"><path d="M248.746 45.8494L283.333 42.0992" stroke="#AFAFAF" stroke-width="5.10034" stroke-linecap="round"/><path d="M255.094 80.8696L274.375 78.779" stroke="#AFAFAF" stroke-width="5.10034" stroke-linecap="round"/><path d="M293.471 41L303.409 39.9224" stroke="#AFAFAF" stroke-width="5.10034" stroke-linecap="round"/><path d="M251.321 69.0977L285.907 65.3475" stroke="#AFAFAF" stroke-width="5.10034" stroke-linecap="round"/><path d="M285.905 77.5288L303.994 75.5675" stroke="#AFAFAF" stroke-width="5.10034" stroke-linecap="round"/><path d="M249.971 57.1433L272.432 54.7079" stroke="#AFAFAF" stroke-width="5.10034" stroke-linecap="round"/><path d="M283.157 53.5449L297.475 51.9925" stroke="#AFAFAF" stroke-width="5.10034" stroke-linecap="round"/></g><path fill-rule="evenodd" clip-rule="evenodd" d="M287.434 220.259C290.297 218.521 294.026 219.434 295.763 222.296L300.647 230.344C302.384 233.207 301.472 236.936 298.609 238.673C295.747 240.41 292.017 239.498 290.28 236.635L285.397 228.588C283.659 225.725 284.572 221.996 287.434 220.259Z" fill="#F49000"/><path fill-rule="evenodd" clip-rule="evenodd" d="M299.908 229.126L300.648 230.344C302.385 233.206 301.472 236.935 298.61 238.673C295.747 240.41 292.018 239.498 290.281 236.635L285.397 228.588C284.67 227.39 284.407 226.041 284.557 224.749C290.456 226.239 295.832 227.762 299.908 229.126Z" fill="#F67600"/><path d="M313.919 147.118L343.032 202.464C344.593 205.431 342.568 209.168 339.034 209.844C322.055 213.093 305.193 205.572 297.502 190.95C289.81 176.328 293.201 158.241 305.551 146.19C308.121 143.682 312.358 144.152 313.919 147.118Z" fill="#58CC02"/><path fill-rule="evenodd" clip-rule="evenodd" d="M341.849 208.423C341.102 209.119 340.142 209.632 339.034 209.844C328.468 211.866 317.946 209.717 309.653 204.281L322.671 190.731C329.251 201.699 337.462 206.796 341.849 208.423Z" fill="#00BC35"/><path fill-rule="evenodd" clip-rule="evenodd" d="M311.963 205.679C311.059 205.176 310.177 204.636 309.32 204.06C309.41 203.976 309.513 203.902 309.628 203.843C313.938 201.63 317.128 199.247 320.007 195.903C322.907 192.532 325.534 188.137 328.65 181.826C328.982 181.154 329.796 180.878 330.468 181.21C331.14 181.542 331.415 182.356 331.083 183.028C327.934 189.405 325.188 194.043 322.064 197.673C319.175 201.03 315.998 203.485 311.963 205.679Z" fill="#00BC35"/><path d="M283.37 134.563L222.316 114.571C219.043 113.499 215.551 116.358 215.419 120.216C214.786 138.755 225.12 155.085 241.25 160.367C257.381 165.649 275.295 158.57 285.639 143.21C287.791 140.013 286.643 135.635 283.37 134.563Z" fill="#58CC02"/><path d="M261.548 104.392C266.013 94.7815 283.095 92.7165 290.116 100.507C295.682 106.682 301.926 110.401 305.709 113.077C312.761 118.066 319.221 117.698 324.678 117.876C329.612 118.038 333.044 120.597 337.426 125.19C347.048 135.277 342.154 154.153 336.283 166.786L327.37 184.842C316.891 207.392 287.648 217.785 265.374 207.434C243.1 197.083 236.635 173.31 243.263 148.274C249.892 123.237 261.548 104.392 261.548 104.392Z" fill="#58CC02"/><path fill-rule="evenodd" clip-rule="evenodd" d="M301.371 208.262C268.197 209.95 246.178 177.916 249.775 155.461C248.283 155.536 230.377 151.945 216.876 133.406C220.224 146.084 229.019 156.293 241.082 160.311C239.149 180.672 246.714 198.763 265.373 207.433C276.698 212.696 289.825 212.596 301.371 208.262Z" fill="#00BC35"/><path d="M273.312 178.435L284.671 183.146C285.28 183.399 285.478 184.141 285.061 184.613C283.06 186.879 279.675 187.612 276.673 186.367C273.672 185.122 271.802 182.209 271.996 179.194C272.037 178.567 272.703 178.182 273.312 178.435Z" fill="#8EE000"/><path d="M293.133 186.664L304.493 191.375C305.101 191.628 305.299 192.37 304.882 192.842C302.882 195.108 299.496 195.841 296.495 194.596C293.494 193.351 291.623 190.438 291.818 187.423C291.858 186.796 292.524 186.411 293.133 186.664Z" fill="#8EE000"/><path d="M278.911 192.183L290.27 196.895C290.879 197.148 291.099 197.836 290.705 198.254C288.811 200.262 285.499 200.818 282.498 199.573C279.497 198.328 277.553 195.592 277.641 192.834C277.659 192.261 278.302 191.931 278.911 192.183Z" fill="#8EE000"/><path fill-rule="evenodd" clip-rule="evenodd" d="M296.744 122.676C299.599 129.164 308.628 138.675 317.542 133.875C324.51 131.114 310.041 167.133 310.072 167.05C310.087 167.011 307.325 165.95 301.785 163.868C300.299 163.31 297.623 162.308 293.754 160.862C298.17 138.015 294.23 129.304 296.744 122.676Z" fill="#89E219"/><path d="M292.381 113.756C292.381 113.756 295.612 118.884 297.237 122.398C298.846 125.876 300.651 131.597 300.651 131.597C301.024 132.577 300.336 133.631 299.291 133.68C294.269 133.912 289.571 130.849 287.729 126.021C285.887 121.193 286.061 116.234 289.974 113.095C290.788 112.442 292.007 112.776 292.381 113.756Z" fill="#89E219"/><path d="M284.698 116.682L291.257 133.874C291.609 134.795 290.961 135.787 289.978 135.833C285.254 136.051 280.835 133.169 279.102 128.628C277.369 124.086 278.753 119.013 282.434 116.061C283.2 115.446 284.346 115.761 284.698 116.682Z" fill="#89E219"/><path d="M270.55 135.604C274.053 126.368 284.47 121.755 293.818 125.299C303.166 128.844 307.904 139.205 304.402 148.441L300.383 158.029C296.881 167.265 286.463 171.878 277.116 168.333C267.768 164.788 263.029 154.427 266.532 145.191L270.55 135.604Z" fill="#89E219"/><path fill-rule="evenodd" clip-rule="evenodd" d="M339.776 153.677C338.784 159.107 336.622 164.102 334.342 169.155C329.97 178.843 322.378 184.83 314.724 181.927C307.069 179.024 303.885 168.706 307.611 158.88L310.935 150.113C314.661 140.288 323.887 134.676 331.542 137.578C337.507 139.841 340.695 146.264 339.776 153.677Z" fill="#89E219"/><path d="M323.568 126.095C323.094 127.347 317.317 141.347 308.932 138.167L309.327 149.007L326.065 137.363L330.277 141.138C331.224 142.238 332.83 143.694 333.979 141.754C336.103 138.167 336.925 130.061 332.906 127.777C332.195 127.373 329.232 130.323 327.973 134.537C328.613 130.244 328.33 127.951 327.39 126.555C326.212 124.804 324.531 123.556 323.568 126.095Z" fill="#89E219"/><path d="M315.208 151.131C318.317 144.439 324.424 140.364 329.44 142.695C334.455 145.025 334.97 151.867 332.655 159.224C330.339 166.581 329.911 166.438 329.911 166.438C326.784 173.856 320.215 176.605 315.199 174.274C310.183 171.943 308.638 164.689 311.747 157.998L315.208 151.131Z" fill="white"/><path fill-rule="evenodd" clip-rule="evenodd" d="M324.938 142.184C321.159 142.925 317.423 146.364 315.208 151.131L312.986 155.54C313.419 156.331 314.055 156.965 314.871 157.344C317.331 158.487 320.496 156.892 321.942 153.781L324.734 147.773C325.639 145.826 325.655 143.747 324.938 142.184Z" fill="#4B4B4B"/><path d="M277.563 137.303C280.732 130.482 288.229 127.243 294.308 130.067C300.386 132.892 302.744 140.711 299.574 147.532L296.346 154.479C293.177 161.299 285.68 164.539 279.601 161.714C273.523 158.89 271.165 151.071 274.335 144.25L277.563 137.303Z" fill="white"/><path fill-rule="evenodd" clip-rule="evenodd" d="M289.264 130.654C288.101 133.157 285.13 134.243 282.627 133.08L280.463 137.737C279.01 140.865 280.367 144.58 283.495 146.033C286.623 147.487 290.338 146.129 291.791 143.001L294.599 136.96C295.815 134.342 295.063 131.314 292.952 129.544C291.889 129.212 290.798 129.051 289.706 129.047C289.651 129.589 289.507 130.132 289.264 130.654Z" fill="#4B4B4B"/><path d="M296.682 158.61C299.911 158.61 301.606 159.12 304.774 160.836C307.942 162.552 311.053 162.524 309.337 165.692L303.956 174.139C302.24 177.307 298.918 179.071 295.058 176.98C291.89 175.264 290.155 171.654 291.549 168.431C292.942 165.207 296.682 158.61 296.682 158.61Z" fill="#F49000"/><path d="M299.383 159.332C300.482 157.49 302.688 160.883 304.77 162.126C306.853 163.369 308.472 163.496 307.373 165.338L302.262 172.521C300.862 174.397 298.907 175.248 296.824 174.005C294.742 172.762 293.976 170.639 295.135 168.074L299.383 159.332Z" fill="#DC6A01"/><path fill-rule="evenodd" clip-rule="evenodd" d="M298.169 174.532C297.729 174.449 297.28 174.278 296.824 174.006C294.741 172.763 293.976 170.639 295.135 168.074L297.045 164.143C299.418 165.803 302.015 169.283 300.144 172.646C299.674 173.49 298.977 174.13 298.169 174.532Z" fill="#FFB8D1"/><path d="M311.64 166.38C311.613 166.535 311.504 166.663 311.354 166.71C309.549 167.278 306.153 167.618 304.922 167.618C302.818 167.618 297.373 161.812 295.748 159.742C295.59 159.541 295.6 159.258 295.77 159.067C298.47 156.043 302.389 155.343 306.3 157.161C310.309 159.024 312.359 162.263 311.64 166.38Z" fill="#FFC200"/><path fill-rule="evenodd" clip-rule="evenodd" d="M304.412 160.244C304.102 160.098 303.8 159.991 303.553 159.925C303.449 159.897 303.361 159.878 303.292 159.866C303.258 159.86 303.23 159.856 303.21 159.854C303.2 159.853 303.192 159.852 303.187 159.852C303.181 159.851 303.179 159.851 303.179 159.851C302.413 159.83 301.809 159.192 301.829 158.426C301.85 157.66 302.488 157.056 303.255 157.076C303.582 157.085 303.94 157.154 304.273 157.244C304.682 157.354 305.138 157.518 305.592 157.731C305.945 157.897 306.309 158.098 306.656 158.336C306.935 158.527 307.211 158.746 307.465 158.998C308.01 159.537 308.015 160.415 307.476 160.961C306.937 161.506 306.059 161.511 305.513 160.972C305.397 160.857 305.254 160.74 305.088 160.627C304.881 160.485 304.65 160.356 304.412 160.244Z" fill="#FFDE00"/><path fill-rule="evenodd" clip-rule="evenodd" d="M264.202 171.918C268.196 171.238 271.984 173.924 272.664 177.918L274.575 189.145C275.255 193.138 272.568 196.927 268.574 197.606C264.581 198.286 260.792 195.6 260.113 191.606L258.202 180.38C257.522 176.386 260.209 172.597 264.202 171.918Z" fill="#F49000"/><path d="M246.089 2.39143C252.578 -0.184738 298.879 -2.75133 300.585 9.78666C301.076 13.389 301.14 17.2697 300.468 21.1609C299.686 25.6934 293.78 31.521 289.151 30.7549C285.627 30.1717 282.53 27.803 281.558 24.2378C280.776 28.8669 275.718 34.6008 269.603 33.5673C265.739 32.9143 261.943 29.4515 261.943 25.107C260.8 29.7944 255.534 33.4114 251.163 32.5449C246.558 31.6319 241.906 26.5144 242.819 21.9093C242.82 14.5206 241.736 13.9535 241.17 13.4407C240.947 13.2386 235.438 13.445 235.438 12.9925C237.222 9.37624 239.087 5.17129 246.089 2.39143Z" fill="#A46648"/><path d="M227.731 43.6788L244.057 41.2234C244.057 41.2234 243.221 49.099 244.057 54.0297C244.423 56.1857 245.842 58.9521 247.32 61.3793C248.362 63.0898 246.619 65.4131 244.731 64.7432L240.934 63.3955C240.161 63.1214 239.3 63.3455 238.759 63.9611L235.44 67.7395C234.514 68.7946 232.83 68.5893 232.226 67.3213C230.876 64.4856 228.882 59.9389 228.353 56.8088C227.531 51.9535 227.731 43.6788 227.731 43.6788Z" fill="#58CC02"/><path fill-rule="evenodd" clip-rule="evenodd" d="M231.852 46.6622C230.82 45.9636 230.304 45.6143 229.756 45.4888C229.208 45.3633 228.591 45.4533 227.359 45.6334C224.584 46.0386 222.927 46.0492 221.639 45.134C220.351 44.2189 219.816 42.6501 219.285 39.8966C219.05 38.6732 218.932 38.0615 218.633 37.5852C218.335 37.109 217.835 36.7366 216.836 35.9919C214.591 34.3185 213.413 33.1547 213.149 31.598C212.886 30.0414 213.616 28.5548 215.185 26.236C215.884 25.204 216.233 24.688 216.359 24.1399C216.484 23.5919 216.394 22.9755 216.214 21.7428C215.808 18.9666 215.797 17.3086 216.713 16.0203C217.628 14.732 219.198 14.1969 221.953 13.6666C223.176 13.4312 223.788 13.3135 224.264 13.0147C224.741 12.7159 225.113 12.2163 225.858 11.2171C227.532 8.97057 228.696 7.79196 230.253 7.52851C231.81 7.26507 233.297 7.99514 235.617 9.56594C236.649 10.2645 237.165 10.6137 237.713 10.7392C238.261 10.8647 238.877 10.7747 240.11 10.5948C242.883 10.1901 244.539 10.1799 245.827 11.0946C247.114 12.0094 247.649 13.5771 248.179 16.3283C248.415 17.5519 248.533 18.1637 248.831 18.64C249.13 19.1163 249.63 19.4885 250.629 20.2328C252.879 21.9091 254.059 23.0738 254.323 24.6321C254.586 26.1904 253.855 27.6785 252.282 30.0016C251.583 31.0331 251.234 31.5489 251.108 32.0969C250.983 32.645 251.073 33.2615 251.253 34.4946C251.657 37.2655 251.667 38.9214 250.752 40.2084C249.838 41.4953 248.271 42.0307 245.521 42.5604C244.298 42.7961 243.686 42.9139 243.209 43.2127C242.733 43.5115 242.361 44.011 241.617 45.0101C239.941 47.2585 238.777 48.438 237.219 48.7016C235.661 48.9651 234.174 48.2343 231.852 46.6622Z" fill="#58CC02"/><circle cx="233.733" cy="28.1144" r="13.2731" transform="rotate(-9.60273 233.733 28.1144)" stroke="#D7FFB8" stroke-width="2.42835"/><path d="M239.396 22.0546C238.675 21.5789 237.703 21.7948 237.251 22.5313L232.073 30.9632L229.638 29.0957C228.954 28.5713 227.969 28.7372 227.495 29.4567C227.022 30.1738 227.254 31.1413 228.001 31.5653L231.452 33.5242C232.17 33.9321 233.081 33.7287 233.558 33.054L239.804 24.2147C240.302 23.5088 240.118 22.5303 239.396 22.0546Z" fill="white" stroke="white" stroke-width="0.566704"/></svg>