<svg width="516" height="243" viewBox="0 0 516 243" fill="none" xmlns="http://www.w3.org/2000/svg"><path d="M101.803 240H396.363" stroke="#FFF5D3" stroke-width="4.98726" stroke-linecap="round"/><rect x="257.342" y="153.033" width="62.6524" height="84.4717" fill="#F3A86B"/><path d="M319.996 174.541H267.006V237.505H257.344V153.033H319.996V174.541Z" fill="#DC8F5B"/><rect x="164.455" y="153.033" width="62.6524" height="84.4717" fill="#DC8F5B"/><rect x="184.404" y="153.033" width="143.695" height="13.0915" rx="3.74044" fill="#C7764C"/><path d="M168.334 233.13C168.334 230.772 166.422 228.859 164.063 228.859H142.708C140.349 228.859 138.437 230.772 138.437 233.13C138.437 235.489 140.349 237.401 142.708 237.401H164.063C166.422 237.401 168.334 235.489 168.334 233.13Z" fill="#FFB100"/><path d="M204.559 233.13C204.559 230.772 202.646 228.859 200.288 228.859H178.933C176.574 228.859 174.662 230.772 174.662 233.13C174.662 235.489 176.574 237.401 178.933 237.401H200.288C202.646 237.401 204.559 235.489 204.559 233.13Z" fill="#FFB100"/><path d="M168.271 96.8396L159.361 95.583L156.848 101.294L167.586 111.004L168.842 149.045H189.747V133.966L181.751 106.435L175.696 101.066L168.271 96.8396Z" fill="white"/><path d="M161.295 95.9041C168.644 95.4215 176.107 98.4012 181.085 104.567L183.602 107.684L181.503 108.901L178.004 104.567C173.721 99.263 167.601 96.3169 161.295 95.9041Z" fill="#C86902"/><path d="M164.901 104.55C163.574 103.701 159.818 100.895 156.848 99.3525L166.072 96.4395C167.614 97.2581 170.413 97.8961 173.183 100.209C178.423 104.585 172.041 109.12 164.901 104.55Z" fill="#FFCAA1"/><rect x="120.471" y="9.22656" width="74.5018" height="50.9054" rx="25.4527" transform="rotate(12.2003 120.471 9.22656)" fill="#3D3D3D"/><path d="M115.934 49.7475C120.732 39.0617 132.494 32.8086 144.402 35.3833L179.158 42.8979C192.838 45.8558 201.53 59.3439 198.572 73.0239C195.779 85.9407 183.6 94.4085 170.733 92.8237L169.466 102.318L141.967 98.645L143.516 87.0483L133.69 84.9243C124.68 82.9761 117.835 76.4597 115.056 68.3296C109.947 68.2911 105.816 64.1392 105.816 59.021C105.817 53.8792 109.985 49.7105 115.127 49.7104C115.399 49.7104 115.668 49.7247 115.934 49.7475Z" fill="#FFCBA3"/><path d="M138.131 13.9599C152.199 14.7013 162.179 27.9752 158.985 41.6953L157.74 47.0406C154.902 59.2318 142.718 66.8137 130.527 63.9753C118.241 61.1148 110.655 48.7738 113.65 36.5201L114.953 31.1888C117.536 20.6225 127.269 13.3874 138.131 13.9599Z" fill="#3D3D3D"/><circle cx="117.979" cy="67.576" r="4.02617" fill="#CC6701"/><path d="M163.525 50.4669C163.525 46.5293 166.659 43.946 170.524 44.6973C174.389 45.4489 177.522 49.2501 177.522 53.1876V62.0782C177.522 62.2693 177.513 62.4572 177.498 62.6417L163.525 58.8008V50.4669Z" fill="#E99B5F"/><path d="M163.525 52.4229C163.525 48.4853 166.659 45.9021 170.524 46.6534C174.39 47.4047 177.523 51.206 177.523 55.1436V62.0792C177.523 65.2439 175.499 67.5312 172.697 67.918C171.647 66.713 170.214 65.603 168.5 64.753C167.215 64.1156 165.909 63.6916 164.663 63.4747C163.945 62.2151 163.525 60.7962 163.525 59.3585V52.4229Z" fill="white"/><path d="M173.062 51.9053C175.033 52.3521 176.611 54.3045 176.611 56.3271V61.4805C176.611 63.5435 174.969 64.8974 172.944 64.5039C170.919 64.1102 169.277 62.1179 169.277 60.0547V56.6016C169.613 56.7552 169.979 56.8408 170.361 56.8408C172.006 56.8406 173.339 55.2817 173.339 53.3594C173.339 52.8397 173.237 52.3482 173.062 51.9053Z" fill="#3D3D3D"/><rect width="11.8668" height="20.4313" rx="5.93339" transform="matrix(0.981627 0.190809 0 1 180.555 48.1533)" fill="#E99B5F"/><rect width="11.8668" height="19.0054" rx="5.93339" transform="matrix(0.981627 0.190809 0 1 180.555 49.5791)" fill="white"/><path d="M187.823 56.1807C189.531 56.5679 190.898 58.26 190.898 60.0127V64.4775C190.898 66.2653 189.476 67.4387 187.721 67.0977C185.966 66.7566 184.543 65.0308 184.543 63.2432V60.25C184.835 60.3836 185.151 60.459 185.483 60.459C186.908 60.4588 188.063 59.109 188.063 57.4434C188.063 56.9921 187.975 56.5651 187.823 56.1807Z" fill="#3D3D3D"/><path d="M183.42 65.5732L183.415 65.5762C184.437 65.9632 185.163 66.9372 185.163 68.0801C185.163 69.5625 183.943 70.7646 182.438 70.7646C181.102 70.7646 179.992 69.8155 179.761 68.5645L178.812 63.9902L183.42 65.5732Z" fill="#E99B5F"/><path d="M166.211 74.2871C168.447 77.0365 169.913 78.1102 172.921 79.1521" stroke="#A41414" stroke-width="9.39439" stroke-linecap="round"/><path d="M165.206 73.8662C168.68 73.8662 171.497 76.777 171.497 80.3672C171.497 81.4522 171.237 82.4738 170.782 83.373L170.731 83.3555C169.227 82.7949 167.849 82.1274 166.516 81.1592C165.208 80.2091 164.109 79.0883 163.029 77.8086L162.566 77.25L162.419 77.0586C161.972 76.4484 161.695 75.7618 161.578 75.0576C162.603 74.3081 163.855 73.8662 165.206 73.8662Z" fill="#E64340"/><path d="M189.959 48.1445C195.775 52.9655 199.263 60.2567 199.144 68.0342C196.928 66.9226 195.286 63.2338 195.147 62.2119C194.938 60.6604 194.812 59.7795 194.393 55.6699C194.106 52.8662 191.792 49.9655 189.959 48.1445Z" fill="#D9D9D9"/><rect x="136.514" y="146.759" width="58.4882" height="75.6234" rx="3.74044" fill="#744007"/><path d="M128.19 105.481C136.321 95.4113 151.075 93.8391 161.146 101.97C171.216 110.1 172.788 124.855 164.657 134.925L164.614 134.979H168.043C171.486 134.979 174.276 137.77 174.276 141.213V206.047C174.276 209.49 171.485 212.281 168.042 212.281H131.73C128.287 212.281 125.495 209.49 125.495 206.047V148.369C125.115 148.098 124.739 147.815 124.37 147.518C114.3 139.387 112.728 124.632 120.858 114.562L128.19 105.481Z" fill="#C86902"/><path opacity="0.7" d="M126.508 150.369C130.327 152.491 135.267 154.147 140.279 153.764C146.837 153.262 151.525 150.837 154.975 147.938C157.637 145.702 162.112 139.645 164.658 136.481" stroke="#744007" stroke-width="1.87022" stroke-linecap="round"/><rect x="185.965" y="134.981" width="12.9357" height="77.3025" rx="2.49363" fill="#C86902"/><path d="M148.011 103.634C148.73 102.41 150.305 102.001 151.529 102.72L155.619 105.122L153.016 109.554L148.926 107.152C147.702 106.434 147.292 104.859 148.011 103.634Z" fill="#FFB2B2"/><rect x="153.275" y="103.744" width="13.8221" height="5.14067" transform="rotate(30.4223 153.275 103.744)" fill="#FDB02A"/><rect x="153.631" y="103.134" width="1.41824" height="6.41354" rx="0.709119" transform="rotate(30.4223 153.631 103.134)" fill="#C4C4C4"/><rect x="154.848" y="103.847" width="1.42137" height="6.41354" rx="0.710684" transform="rotate(30.4223 154.848 103.847)" fill="#C4C4C4"/><rect x="155.988" y="104.647" width="1.42137" height="6.41354" rx="0.710684" transform="rotate(30.4223 155.988 104.647)" fill="#C4C4C4"/><path d="M161.271 112.473C164.225 108.406 169.916 107.503 173.982 110.456C178.049 113.409 178.952 119.1 175.999 123.167L167.197 135.287C161.619 133.608 154.603 128.356 153.373 123.349L161.271 112.473Z" fill="#FFCBA3"/><rect x="178.992" y="123.16" width="22.2206" height="30.8155" rx="11.1103" transform="rotate(-26.5233 178.992 123.16)" fill="#C86902"/><path d="M202.432 91.2854C204.266 91.5206 205.115 92.9807 204.46 94.6315L205.737 94.7952C207.435 95.013 208.172 96.4207 207.381 97.9395C206.589 99.4581 204.57 100.513 202.872 100.295L192.785 99.0015C191.087 98.7837 190.351 97.3761 191.143 95.8574C191.934 94.3387 193.952 93.2841 195.65 93.5019L197.389 93.7248C198.428 92.1233 200.597 91.0503 202.432 91.2854Z" fill="#D9D9D9"/><rect width="30.4034" height="48.108" rx="1.24681" transform="matrix(0.99188 0.12718 -0.462019 0.88687 184.1 95.4307)" fill="#FF8500"/><path d="M206.089 123.765C203.548 129.609 198.112 132.878 193.946 131.067C189.78 129.256 190.064 122.674 192.605 116.83C195.145 110.986 198.98 108.094 203.146 109.905C207.312 111.716 208.63 117.921 206.089 123.765Z" fill="#FFCBA3"/><path opacity="0.7" d="M153.123 121.555C152.608 121.35 151.27 121.093 150.036 121.71C148.802 122.327 143.067 125.104 139.158 126.956" stroke="#744007" stroke-width="1.87022" stroke-linecap="round"/><path d="M358.128 117.814L313.348 91.3105" stroke="#A46648" stroke-width="12.4681" stroke-linecap="round" stroke-linejoin="round"/><ellipse cx="10.7497" cy="9.99241" rx="10.7497" ry="9.99241" transform="matrix(-1 0 0 1 323.416 81.0898)" fill="#A46648"/><path d="M329.367 94.7334C329.135 97.2018 329.29 102.217 331.064 104.917C333.598 108.773 338.162 111.474 342.058 111.744C345.877 112.009 350.698 112.413 352.55 112.516" stroke="#884727" stroke-width="1.87022" stroke-linecap="round"/><rect x="354.395" y="104.535" width="19.4194" height="11.1945" transform="rotate(5.73032 354.395 104.535)" fill="#FDB02A"/><path d="M380.517 129.921C381.243 121.962 373.778 114.843 366.19 114.087L358.828 113.415C350.702 114.043 344.574 118.992 343.847 126.951C343.562 130.078 345.061 134.662 348.188 134.948L373.491 137.175C376.618 137.461 380.231 133.048 380.517 129.921Z" fill="#FDB02A"/><path d="M386.462 83.7766C386.154 87.6397 389.036 91.0212 392.899 91.3293C396.762 91.6374 400.144 88.7554 400.452 84.8923C400.76 81.0292 397.878 77.6477 394.015 77.3396C390.152 77.0315 386.77 79.9135 386.462 83.7766Z" fill="#A46648"/><path d="M324.525 78.8352C324.217 82.6983 327.099 86.0798 330.962 86.3879C334.825 86.696 338.206 83.814 338.514 79.9509C338.823 76.0877 335.941 72.7063 332.077 72.3982C328.214 72.0901 324.833 74.9721 324.525 78.8352Z" fill="#A46648"/><path d="M379.415 54.5878C385.07 60.9137 394.782 61.4581 401.108 55.8036L406.595 50.8989C412.921 45.2444 413.465 35.5323 407.811 29.2064L402.326 23.0708C396.672 16.7448 386.96 16.2005 380.634 21.855L375.147 26.7597C368.821 32.4141 368.276 42.1262 373.931 48.4522L379.415 54.5878Z" fill="#3D3D3D"/><path d="M350.078 52.2472C343.493 57.597 333.817 56.5951 328.467 50.0095L323.827 44.2971C318.477 37.7115 319.479 28.0359 326.065 22.6861L332.452 17.4973C339.038 12.1475 348.713 13.1493 354.063 19.735L358.704 25.4473C364.053 32.033 363.051 41.7086 356.466 47.0584L350.078 52.2472Z" fill="#3D3D3D"/><path d="M388.335 20.6153C389.01 12.1573 382.7 4.75397 374.242 4.07944L363.198 3.19863C354.74 2.5241 347.336 8.83383 346.662 17.2918L344.496 44.4502C343.821 52.9082 350.131 60.3115 358.589 60.9861L369.634 61.8669C378.092 62.5414 385.495 56.2317 386.169 47.7737L388.335 20.6153Z" fill="#3D3D3D"/><path d="M345.332 55.798C338.853 55.2813 333.181 60.1147 332.665 66.5937L330.335 95.8097C329.728 103.422 335.407 110.086 343.02 110.693L377.128 113.413C384.741 114.02 391.405 108.341 392.012 100.728L394.342 71.5125C394.858 65.0335 390.025 59.3624 383.546 58.8457L345.332 55.798Z" fill="#A46648"/><path d="M354.627 51.8787C354.589 45.305 349.23 40.0063 342.657 40.0436L342.676 43.4007C342.713 49.9743 348.072 55.2731 354.646 55.2358L354.627 51.8787Z" fill="#FDB02A"/><path d="M364.252 45.0068C363.174 51.4915 357.042 55.8738 350.558 54.7951L351.109 51.4835C352.187 44.9988 358.319 40.6165 364.803 41.6951L364.252 45.0068Z" fill="#FDB02A"/><path d="M399.33 57.3096L350.404 53.4077L350.126 56.7465L393.864 77.3651L399.33 57.3096Z" fill="#FDB02A"/><path d="M329.98 51.7787L354.074 53.7002L353.82 57.041L332.199 72.4471L329.98 51.7787Z" fill="#FDB02A"/><path d="M354.362 75.9571C354.699 71.7254 351.542 68.0213 347.31 67.6839L346.897 67.6508C342.665 67.3134 338.961 70.4703 338.623 74.702L338.199 80.018C337.862 84.2497 341.019 87.9538 345.25 88.2912L345.664 88.3243C349.896 88.6617 353.6 85.5048 353.938 81.2731L354.362 75.9571Z" fill="white"/><path d="M343.37 73.6734C343.145 73.6555 342.924 73.6594 342.707 73.6832C343.044 74.1944 343.219 74.8178 343.167 75.4754C343.042 77.0427 341.67 78.2118 340.103 78.0868C339.902 78.0708 339.708 78.0344 339.522 77.9797L339.26 81.2652C339.107 83.1886 340.542 84.8725 342.465 85.026C344.389 85.1794 346.072 83.7441 346.226 81.8207L346.576 77.4343C346.729 75.5106 345.294 73.8268 343.37 73.6734Z" fill="#3D3D3D"/><path d="M367.301 69.2777C371.647 69.6243 374.889 73.4284 374.542 77.7744L374.151 82.6765C373.99 84.6996 373.079 86.4835 371.714 87.7776C368.373 87.2342 365.074 87.6397 362.479 88.9689C359.843 87.518 358.158 84.6161 358.413 81.4214L358.804 76.5193C359.151 72.1733 362.955 68.9311 367.301 69.2777Z" fill="white"/><path fill-rule="evenodd" clip-rule="evenodd" d="M359.569 78.5636C361.135 78.6865 362.505 77.5178 362.63 75.9516C362.678 75.3529 362.536 74.7826 362.256 74.2995C362.627 74.2022 363.019 74.1646 363.423 74.1967C365.346 74.3501 366.781 76.0339 366.628 77.9576L366.278 82.3437C366.125 84.2673 364.441 85.7023 362.517 85.5489C360.594 85.3955 359.158 83.7117 359.312 81.7881L359.569 78.5636Z" fill="#3D3D3D"/><path d="M355.092 100.059C360.492 101.911 366.509 98.6709 367.744 93.1162" stroke="#884727" stroke-width="2.49363" stroke-linecap="round"/><path d="M358.196 89.9593C358.312 88.5018 357.225 87.2261 355.767 87.1098L353.545 86.9326C352.087 86.8164 350.812 87.9037 350.695 89.3612C350.579 90.8186 351.667 92.0944 353.124 92.2106L355.346 92.3879C356.804 92.5041 358.08 91.4168 358.196 89.9593Z" fill="#86401F"/><path d="M357.895 89.4915C357.782 90.9073 356.543 91.9634 355.127 91.8505C353.711 91.7376 352.655 90.4984 352.768 89.0827C352.881 87.667 355.599 84.579 355.706 84.5876C355.813 84.5961 358.008 88.0758 357.895 89.4915Z" fill="#86401F"/><path fill-rule="evenodd" clip-rule="evenodd" d="M376.852 63.3225C373.326 58.1655 367.646 57.3084 365.161 57.5318C364.452 57.5955 363.929 58.2219 363.993 58.9308C364.056 59.6398 364.683 60.1629 365.392 60.0991C367.261 59.9311 371.882 60.62 374.724 64.7773C375.126 65.3649 375.928 65.5156 376.515 65.1139C377.103 64.7121 377.254 63.9101 376.852 63.3225Z" fill="#884727"/><path fill-rule="evenodd" clip-rule="evenodd" d="M338.666 60.2775C342.522 56.2113 347.406 55.7635 349.824 56.3778C350.514 56.5531 350.932 57.2545 350.756 57.9444C350.581 58.6343 349.88 59.0514 349.19 58.8762C347.371 58.414 343.763 58.6494 340.537 62.0512C340.047 62.5677 339.231 62.5893 338.715 62.0995C338.198 61.6097 338.177 60.794 338.666 60.2775Z" fill="#884727"/><path d="M328.498 232.841C328.498 230.863 330.102 229.259 332.08 229.259H347.236C349.214 229.259 350.818 230.863 350.818 232.841C350.818 234.819 349.214 236.423 347.236 236.423H332.08C330.102 236.423 328.498 234.819 328.498 232.841Z" fill="#FF4B4B"/><path d="M367.566 232.841C367.566 230.863 369.17 229.259 371.149 229.259H386.304C388.282 229.259 389.886 230.863 389.886 232.841C389.886 234.819 388.282 236.423 386.304 236.423H371.149C369.17 236.423 367.566 234.819 367.566 232.841Z" fill="#FF4B4B"/><path d="M361.672 216.924C361.675 219.939 364.045 222.382 366.967 222.382H379.854C382.832 222.382 385.224 219.85 385.148 216.779L383.201 152.245C383.03 145.468 378.417 139.567 372.37 139.567H366.897C363.97 139.567 361.599 142.017 361.602 145.036L361.672 216.924Z" fill="#1CB0F6"/><path d="M361.215 217.69C360.958 220.693 358.381 223.127 355.459 223.127H342.572C339.594 223.127 337.416 220.605 337.751 217.545L343.962 155.131C344.647 149.062 348.703 140.635 357.051 140.627H362.525C365.451 140.627 367.616 143.067 367.358 146.075L361.215 217.69Z" fill="#1CB0F6"/><path d="M352.506 136.211H376.52V141.118H352.506V136.211Z" fill="#FF4B4B"/><path d="M359.963 213.802C359.94 212.833 360.696 212.034 361.635 212.034H385.046C385.954 212.034 386.696 212.781 386.718 213.717L386.915 222.056C386.938 223.025 386.183 223.824 385.243 223.824H361.832C360.925 223.824 360.183 223.077 360.161 222.141L359.963 213.802Z" fill="#4CC5FF"/><path d="M342.194 213.802C342.176 212.833 342.754 212.034 343.473 212.034H361.383C362.077 212.034 362.645 212.781 362.662 213.717L362.813 222.056C362.83 223.025 362.253 223.824 361.534 223.824H343.624C342.929 223.824 342.361 223.077 342.345 222.141L342.194 213.802Z" fill="#4CC5FF"/><path d="M355.147 163.35C354.808 163.293 354.487 163.523 354.43 163.862C354.373 164.202 354.603 164.523 354.942 164.58L355.147 163.35ZM359.157 164.65L359.781 164.641L359.773 164.121L359.26 164.035L359.157 164.65ZM355.045 163.965L354.942 164.58L359.055 165.265L359.157 164.65L359.26 164.035L355.147 163.35L355.045 163.965ZM359.157 164.65L358.534 164.66L359.22 211.495L359.843 211.486L360.466 211.477L359.781 164.641L359.157 164.65Z" fill="#0395DB"/><rect x="367.951" y="136.262" width="3.59798" height="4.79731" fill="#1CB0F6"/><path d="M335.224 213.121C335.288 212.484 335.824 212 336.464 212H359.737C360.426 212 360.984 212.558 360.984 213.247V222.577C360.984 223.266 360.426 223.824 359.737 223.824H335.518C334.78 223.824 334.203 223.186 334.278 222.451L335.224 213.121Z" fill="#4CC5FF"/><path opacity="0.71" d="M266.224 140.48C265.553 128.916 266.769 123.691 272.55 117.182L274.247 109.312C255.52 112.55 245.42 119.606 239.148 139.4L266.224 140.48Z" fill="#8DD7FB"/><path d="M261.516 52.9688C258.119 59.4065 250.93 76.8959 249.356 95.3514C247.782 113.807 248.223 132.847 248.641 140.06" stroke="url(#paint0_linear_34912_46008)" stroke-width="3.81764"/><path d="M227.361 64.5918C232.965 71.6259 243.098 90.5227 246.317 105.545C249.128 118.662 248.553 139.165 248.553 139.165" stroke="url(#paint1_linear_34912_46008)" stroke-width="3.81764"/><path d="M270.1 81.0449C264.378 88.1981 253.811 99.1519 250.787 114.487C248.902 124.041 248.551 133.219 248.551 137.467" stroke="url(#paint2_linear_34912_46008)" stroke-width="3.81764"/><path d="M230.936 112.699C233.976 114.219 239.022 117.167 242.202 120.925C245.153 124.412 248.461 130.135 248.461 135.411" stroke="url(#paint3_linear_34912_46008)" stroke-width="3.81764"/><path d="M271.687 64.6572C274.915 61.7329 280.097 63.3383 281.104 67.5752L281.727 70.1982L282.832 70.5488C286.973 71.8639 288.198 77.1306 285.063 80.1387L284.272 80.8975L284.367 81.2959C285.314 85.2765 281.901 88.9364 277.864 88.2705L276.775 88.0908L276.061 88.7764C273.276 91.4484 268.699 90.6559 266.975 87.2031L266.577 86.4082L262.294 85.7022C257.566 84.922 255.83 79.0263 259.381 75.8086L260.689 74.6221L260.149 73.54C257.888 69.0121 262.182 63.9904 267.006 65.5225L269.765 66.3984L271.687 64.6572Z" fill="url(#paint4_linear_34912_46008)"/><path d="M282.834 70.5488C286.974 71.8642 288.2 77.1307 285.065 80.1387L284.273 80.8975L284.369 81.2959C285.316 85.2764 281.902 88.9363 277.865 88.2705L276.776 88.0908L276.063 88.7754C274.855 89.9352 273.308 90.4411 271.804 90.3613L270.266 75.9014C270.286 75.8923 277.298 72.7507 282.166 70.3369L282.834 70.5488Z" fill="#53B908"/><path d="M272.408 32.9823C277.773 35.8436 266.507 47.8258 259.712 61.5957C252.917 75.3655 249.698 54.2634 254.348 43.8914C258.997 33.5195 267.043 30.121 272.408 32.9823Z" fill="url(#paint5_linear_34912_46008)"/><path fill-rule="evenodd" clip-rule="evenodd" d="M244.73 45.7829L240.268 43.7132L238.286 38.29C237.784 36.9317 236.76 35.8298 235.443 35.2278C234.126 34.6259 232.623 34.5735 231.267 35.0824L225.866 37.0553L221.393 34.9897C220.082 34.3673 218.575 34.2972 217.212 34.7952C215.849 35.2932 214.742 36.3176 214.141 37.6387L212.069 42.095L206.646 44.0761C203.823 45.1072 202.352 48.2164 203.347 51.0532L205.328 56.4764L203.256 60.9328C202.639 62.2414 202.571 63.7427 203.067 65.1019C203.563 66.461 204.583 67.565 205.899 68.1675L210.355 70.2392L212.336 75.6624C212.84 77.0197 213.864 78.1206 215.181 78.7224C216.498 79.3241 218 79.3772 219.356 78.87L224.779 76.8889L229.236 78.9606C230.547 79.5831 232.053 79.6532 233.416 79.1552C234.78 78.6572 235.886 77.6328 236.487 76.3117L238.582 71.866L244 69.887C246.823 68.8559 248.293 65.7467 247.299 62.9099L245.318 57.4867L247.372 53.0176C247.99 51.709 248.058 50.2077 247.561 48.8485C247.065 47.4893 246.045 46.3854 244.73 45.7829Z" fill="#58CC02"/><path fill-rule="evenodd" clip-rule="evenodd" d="M244.73 45.7819L240.268 43.7123L238.286 38.289C237.784 36.9308 236.76 35.8288 235.443 35.2268C234.126 34.6249 232.623 34.5726 231.267 35.0815L225.866 37.0543L221.393 34.9888C220.082 34.3663 218.575 34.2962 217.212 34.7942C215.849 35.2922 214.742 36.3166 214.141 37.6377L212.069 42.094L206.646 44.0751C203.823 45.1063 202.352 48.2155 203.347 51.0522L205.328 56.4754L203.256 60.9318C202.639 62.2404 202.571 63.7417 203.067 65.1009C203.563 66.4601 204.583 67.564 205.899 68.1665L210.355 70.2382L212.336 75.6614C212.84 77.0187 213.864 78.1196 215.181 78.7214C216.498 79.3231 218 79.3762 219.356 78.869L224.779 76.888L229.236 78.9597C230.547 79.5821 232.053 79.6522 233.416 79.1542C234.78 78.6562 235.886 77.6318 236.487 76.3107L238.582 71.8651L244 69.8861C246.823 68.8549 248.293 65.7457 247.299 62.909L245.318 57.4857L247.372 53.0166C247.99 51.708 248.058 50.2067 247.561 48.8475C247.065 47.4884 246.045 46.3844 244.73 45.7819Z" fill="url(#paint6_linear_34912_46008)"/><path d="M233.34 34.7373C234.059 34.7586 234.775 34.9225 235.442 35.2275C236.76 35.8295 237.783 36.931 238.286 38.2891L240.267 43.7129L244.729 45.7822C246.044 46.3847 247.064 47.4886 247.561 48.8477C248.057 50.2067 247.988 51.708 247.371 53.0166L245.317 57.4863L247.298 62.9092C248.292 65.7458 246.822 68.8555 243.999 69.8867L238.581 71.8652L236.486 76.3115C235.885 77.6324 234.778 78.6563 233.415 79.1543C232.052 79.6522 230.545 79.5824 229.234 78.96L224.778 76.8887L219.355 78.8691C218.177 79.3099 216.889 79.3273 215.707 78.9297L228.417 60.5225L233.34 34.7373Z" fill="#53B908"/><path d="M223.053 142.076C222.486 139.723 224.269 137.46 226.689 137.46H273.11C275.53 137.46 277.313 139.723 276.747 142.076L274.807 150.131C274.403 151.812 272.899 152.996 271.171 152.996H228.629C226.9 152.996 225.397 151.812 224.992 150.131L223.053 142.076Z" fill="#FFC800"/><path d="M274.773 150.26C274.325 151.872 272.858 152.997 271.174 152.997H228.632C226.948 152.997 225.48 151.872 225.031 150.26C225.568 150.554 226.181 150.719 226.826 150.719H272.979C273.624 150.719 274.237 150.553 274.773 150.26Z" fill="#FF9600"/><path d="M308.134 87.4824C307.553 89.0925 306.97 91.2832 309.251 93.5185C310.996 95.2296 314.169 95.1724 315.644 93.7417" stroke="#884727" stroke-width="1.90882" stroke-linecap="round"/><path d="M317.945 91.8635L320.001 90.2539" stroke="#884727" stroke-width="1.90882" stroke-linecap="round"/><path d="M287.88 94.5902C289.982 97.5753 290.554 97.9469 291.784 99.3221C299.987 103.73 312.647 108.126 315.835 104.584C319.82 100.156 318.933 93.177 314.818 90.1211C310.703 87.0652 310.861 87.4619 303.706 83.3247C296.552 79.1875 291.635 80.1958 288.595 83.5042C285.46 86.9172 286.276 92.312 287.88 94.5902Z" stroke="#FF7A00" stroke-width="3.87447" stroke-linecap="round"/><path d="M285.21 102.128C284.397 100.963 284.583 99.3742 285.642 98.4271L297.815 87.5401C298.874 86.593 300.473 86.5853 301.541 87.5221L323.513 106.792C324.781 107.904 324.79 109.875 323.533 110.999L306.096 126.594C304.838 127.719 302.881 127.49 301.916 126.106L285.21 102.128Z" fill="#FF7A00"/><rect x="275.084" y="111.913" width="29.9859" height="4.28826" transform="rotate(14.56 275.084 111.913)" fill="#FF7A00"/><rect x="276.635" y="108.892" width="11.1199" height="3.02144" rx="1.51072" transform="rotate(100.044 276.635 108.892)" fill="#FF7A00"/><path d="M322.492 120.325L344.653 134.719L366.815 127.637" stroke="#A46648" stroke-width="13.715" stroke-linecap="round" stroke-linejoin="round"/><path d="M326.415 117.052C327.679 121.284 323.901 126.149 317.977 127.918C312.053 129.688 306.226 127.692 304.962 123.46C303.698 119.229 308.129 116.329 314.054 114.56C319.978 112.79 325.151 112.821 326.415 117.052Z" fill="#A46648"/><rect x="317.119" y="80.875" width="8.10186" height="12.9747" rx="4.05093" transform="rotate(50.8985 317.119 80.875)" fill="#A46648"/><rect x="314.406" y="109.586" width="6.46909" height="12.3021" rx="3.23454" transform="rotate(-33.5541 314.406 109.586)" fill="#A46648"/><path d="M238.254 118.912C237.181 118.554 234.409 116.14 224.931 112.205C222.069 110.954 216.258 109.076 216.258 104.248C216.258 99.4191 227.37 100.763 232.532 106.662C238.165 113.1 239.327 119.27 238.254 118.912Z" fill="#54BC07"/><defs><linearGradient id="paint0_linear_34912_46008" x1="254.882" y1="52.9687" x2="254.882" y2="140.06" gradientUnits="userSpaceOnUse"><stop stop-color="#52B509"/><stop offset="1" stop-color="#58CC02"/></linearGradient><linearGradient id="paint1_linear_34912_46008" x1="237.981" y1="64.5918" x2="237.981" y2="139.165" gradientUnits="userSpaceOnUse"><stop stop-color="#429A00"/><stop offset="1" stop-color="#58CC02"/></linearGradient><linearGradient id="paint2_linear_34912_46008" x1="259.326" y1="81.0449" x2="259.326" y2="137.467" gradientUnits="userSpaceOnUse"><stop stop-color="#44A000"/><stop offset="1" stop-color="#58CC02"/></linearGradient><linearGradient id="paint3_linear_34912_46008" x1="239.698" y1="112.699" x2="246.3" y2="128.481" gradientUnits="userSpaceOnUse"><stop stop-color="#52B509"/><stop offset="0.789357" stop-color="#58CC02"/></linearGradient><linearGradient id="paint4_linear_34912_46008" x1="272.161" y1="63.1699" x2="272.161" y2="90.3716" gradientUnits="userSpaceOnUse"><stop stop-color="#56C604"/><stop offset="1" stop-color="#52B509"/></linearGradient><linearGradient id="paint5_linear_34912_46008" x1="262.986" y1="32.0098" x2="262.986" y2="66.1181" gradientUnits="userSpaceOnUse"><stop stop-color="#58CC02"/><stop offset="1" stop-color="#52B509"/></linearGradient><linearGradient id="paint6_linear_34912_46008" x1="209.819" y1="38.5271" x2="246.301" y2="81.4468" gradientUnits="userSpaceOnUse"><stop offset="0.396281" stop-color="#58CC02"/><stop offset="0.757967" stop-color="#52B509"/></linearGradient></defs></svg>