<svg width="49" height="48" viewBox="0 0 49 48" fill="none" xmlns="http://www.w3.org/2000/svg"><path d="M11.5684 38H16.5684L13.1859 43.0737C12.8001 43.6524 12.1506 44 11.4551 44C9.79372 44 8.80277 42.1484 9.72434 40.766L11.5684 38Z" fill="#84D8FF"/><path d="M37.5684 38H32.5684L35.9508 43.0737C36.3366 43.6524 36.9861 44 37.6816 44C39.343 44 40.334 42.1484 39.4124 40.766L37.5684 38Z" fill="#84D8FF"/><path d="M21.5664 8.5C21.5664 7.67157 22.238 7 23.0664 7H26.0664C26.8948 7 27.5664 7.67157 27.5664 8.5C27.5664 8.77614 27.3425 9 27.0664 9H22.0664C21.7903 9 21.5664 8.77614 21.5664 8.5Z" fill="#4B4B4B"/><path d="M24.5684 8V10.5" stroke="#4B4B4B" stroke-width="1.3" stroke-linecap="round"/><path d="M39.4644 6.48363C37.2048 4.71824 33.9419 5.11887 32.1765 7.37847C31.7459 7.92959 31.8437 8.72542 32.3948 9.156L39.8505 14.981C40.4016 15.4116 41.1974 15.3139 41.628 14.7628C43.3934 12.5032 42.9928 9.24028 40.7332 7.47489L39.4644 6.48363Z" fill="#84D8FF"/><path d="M9.92817 6.48363C12.1878 4.71824 15.4507 5.11887 17.2161 7.37847C17.6466 7.92959 17.5489 8.72542 16.9978 9.156L9.54211 14.981C8.99099 15.4116 8.19516 15.3139 7.76458 14.7628C5.99919 12.5032 6.39982 9.24028 8.65942 7.47489L9.92817 6.48363Z" fill="#84D8FF"/><circle cx="24.5664" cy="27" r="15.5" fill="white" stroke="#1CB0F6" stroke-width="3" stroke-linecap="round" stroke-linejoin="round"/><circle cx="24.5664" cy="26.7197" r="11" stroke="#4B4B4B" stroke-width="1.5" stroke-linecap="round" stroke-linejoin="round" stroke-dasharray="0.03 6.67"/><path d="M24.5694 26.2422L20.248 37.0455" stroke="#84D8FF" stroke-width="1.2" stroke-linecap="round"/><circle cx="24.5664" cy="27" r="2" fill="#4B4B4B"/><path d="M16.1719 18.4346L24.569 26.8317" stroke="#4B4B4B" stroke-width="1.5" stroke-linecap="round"/><path d="M30.8662 22.6328L24.5684 26.8314" stroke="#4B4B4B" stroke-width="1.5" stroke-linecap="round"/></svg>