<svg width="55" height="54" viewBox="0 0 55 54" fill="none" xmlns="http://www.w3.org/2000/svg"><rect x="2.06836" y="1.5" width="51" height="51" stroke="white" stroke-width="3"/><path d="M31.0833 39.0431C31.3006 39.8545 30.6881 40.6508 29.8482 40.6487L22.3607 40.6307C21.7846 40.6293 21.2809 40.2418 21.1318 39.6853L19.5868 33.9191C19.2647 32.7168 20.0398 31.4962 21.2649 31.2765L26.7245 30.2973C27.8118 30.1023 28.8672 30.7726 29.1531 31.8395L31.0833 39.0431Z" stroke="#1CB0F6" stroke-width="2.49761"/><path d="M37.6266 14.9879C37.2721 13.665 35.7776 13.0176 34.5701 13.6638L8.77873 27.4685C7.90798 27.9345 7.47291 28.9389 7.72852 29.8929L9.38655 36.0809C9.64216 37.0349 10.5211 37.6872 11.5082 37.6554L40.7465 36.7149C42.1153 36.6709 43.0859 35.3629 42.7315 34.0401L37.6266 14.9879Z" fill="#84D8FF"/><path fill-rule="evenodd" clip-rule="evenodd" d="M31.927 15.0707L34.5682 13.657C35.7756 13.0107 37.2702 13.6581 37.6246 14.981L42.7295 34.0332C43.084 35.3561 42.1133 36.6641 40.7445 36.7081L37.7504 36.8044L31.927 15.0707ZM14.1853 37.5624L11.5063 37.6486C10.5192 37.6804 9.64022 37.0281 9.38461 36.0741L7.72657 29.8861C7.47096 28.9321 7.90604 27.9277 8.77678 27.4617L11.1399 26.1968L14.1853 37.5624Z" fill="#1CB0F6"/><path fill-rule="evenodd" clip-rule="evenodd" d="M43.6275 15.1139C43.9724 14.5166 44.7361 14.3119 45.3334 14.6568C45.9307 15.0016 46.1354 15.7654 45.7905 16.3627L44.3561 18.8472C43.9863 19.4876 43.0831 19.5619 42.5095 19.0951C42.0639 18.7324 41.9012 18.104 42.1885 17.6064L43.6275 15.1139ZM44.8955 28.1134C44.6863 28.6521 44.8585 29.2829 45.359 29.5718L47.8945 31.0357C48.4918 31.3805 49.2555 31.1759 49.6004 30.5786C49.9452 29.9813 49.7406 29.2175 49.1433 28.8727L46.6155 27.4133C45.9778 27.0451 45.162 27.427 44.8955 28.1134ZM45.1603 23.1927C45.3362 23.8492 45.9899 24.3073 46.6463 24.1314L49.8032 23.2855C50.4694 23.107 50.8648 22.4222 50.6863 21.756C50.5078 21.0898 49.823 20.6945 49.1568 20.873L45.9298 21.7377C45.3145 21.9025 44.9955 22.5774 45.1603 23.1927Z" fill="#1CB0F6"/></svg>