<svg width="150" height="80" viewBox="0 0 150 80" xmlns="http://www.w3.org/2000/svg"><g transform="translate(0, 12.5)"><svg width="150" height="55" viewBox="0 0 150 55" fill="none" xmlns="http://www.w3.org/2000/svg"><g id="accepting_institution_ut"><g id="Group"><path id="Vector" d="M4.78032 7.35089L4.66072 7.30305C4.46937 7.20738 4.34978 7.1117 4.27802 6.99211L4.23019 6.75292L4.30194 6.41806V6.4659C4.39762 6.27455 4.54113 6.17887 4.7564 6.17887H4.87599L4.89991 6.05928C4.94775 5.86793 5.06734 5.79617 5.11518 5.77225L5.54572 5.7005L5.35437 5.50915L5.16302 5.15037L5.18693 5.00686L5.42612 4.79159L5.49788 4.74375L5.45004 4.36105C5.45004 4.12186 5.54572 3.95443 5.76098 3.85876C5.92841 3.787 6.07193 3.83484 6.21544 3.97835L6.33503 4.07403L6.43071 3.95443L6.69381 3.787C6.83733 3.787 7.02868 3.83484 7.12435 4.28929L7.17219 4.38497L7.36354 4.33713L7.55489 4.43281L7.62664 4.33713L7.57881 4.12186L7.6984 3.83484C7.84191 3.69133 7.98542 3.61957 8.17677 3.64349H8.36812L8.29637 3.45214L8.24853 3.21295V3.11728L8.43988 2.83025L8.53555 2.7585L8.48772 2.66282C8.41596 2.51931 8.3442 2.35188 8.3442 2.18445C8.3442 2.01702 8.41596 1.8735 8.55947 1.77783C8.67907 1.68215 8.89433 1.6104 9.15744 1.70607L9.27703 1.75391L9.30095 1.68215L9.4923 1.49081L9.58798 1.44297L9.56406 1.32337L9.4923 0.940675C9.4923 0.821081 9.54014 0.629731 9.73149 0.557975C9.97068 0.438382 10.2338 0.534057 10.4969 0.868919L10.5686 0.940675L10.6643 0.916756H10.9753C11.1427 0.964593 11.2623 1.17986 11.3101 1.49081V1.56256L11.4058 1.6104L11.4776 1.65824L11.5971 1.77783L11.6689 1.80175L11.7646 1.68215L11.9081 1.53864L12.1712 1.44297L12.2908 1.46689L12.3147 1.34729C12.4343 0.964593 12.5778 0.701488 12.8888 0.749325L13.2475 0.940675L13.2954 0.988512H13.3432L13.5585 1.06027L13.6542 1.13202L13.7259 1.03635C13.9412 0.797162 14.1325 0.701488 14.3717 0.749325C14.5392 0.797162 14.7305 0.916756 14.7305 1.27554V1.44297L14.8262 1.49081C14.9219 1.53864 15.0414 1.58648 15.1371 1.75391L15.185 1.96918C15.185 2.06485 15.0893 2.20837 14.9218 2.3758L14.874 2.42364L14.8979 2.49539L14.9697 2.85417L15.1371 2.71066L15.5437 2.54323C15.7112 2.54323 15.8547 2.61498 15.9743 2.73458L16.1417 3.09336L16.0939 3.33255L16.3091 3.35646L16.4526 3.33255L16.644 3.45214L16.7397 3.49998L16.8114 3.42822C17.0028 3.26079 17.218 3.09336 17.4333 3.16511C17.5768 3.21295 17.6486 3.28471 17.6964 3.35646L17.7443 3.42822L17.8399 3.4043C18.1509 3.30863 18.3901 3.35646 18.5575 3.57173L18.6532 3.83484V3.93051C18.6292 4.02619 18.5336 4.14578 18.3901 4.26538L18.3183 4.31321L18.414 4.71983L18.5575 4.67199C18.7488 4.60024 18.9163 4.60024 19.0598 4.64807L19.299 4.88726L19.3468 5.15037L19.2751 5.36564L19.2033 5.48523L19.2751 5.55699L19.3468 5.60482L19.3707 5.79617L19.3946 5.93969L19.5382 5.91577C19.8491 5.84401 20.0405 5.91577 20.1361 6.15495L20.2079 6.4659C20.2079 6.63333 20.0883 6.82468 19.873 6.96819L19.8013 7.01603L19.8491 7.13562L19.8969 7.32697L19.8491 7.4944C19.7056 7.78143 19.299 7.70967 18.9402 7.63791L18.8206 7.614L18.7728 7.75751L18.5097 7.9967L18.3901 8.04453L18.4379 8.18804L18.4618 8.28372L18.4379 8.35548V8.61858L18.6771 8.47507C19.0598 8.2598 19.299 8.23588 19.4903 8.42723L19.6338 8.76209V8.85777L19.7295 8.88169C20.1122 8.97736 20.3036 9.16871 20.3036 9.43182V9.55141L20.1122 9.88627L19.6817 9.95803L19.5621 9.93411L19.5382 10.0537L19.3229 10.3407L18.8684 10.2929L18.7967 10.269L18.7249 10.3407L18.6053 10.4364L18.5575 10.5321L18.5336 10.6517C18.4618 10.7952 18.3422 10.8669 18.127 10.8669H18.0313L18.0074 10.9626L17.8639 11.13L17.6964 11.1779L17.6247 11.2018L17.5768 11.3932L17.6247 11.4649L17.7682 11.728L17.6725 11.9672C17.6247 12.039 17.4812 12.1825 17.1224 12.1107L17.0506 12.0868L17.0028 12.1346C16.931 12.2064 16.8593 12.2781 16.6918 12.2781C16.5244 12.2781 16.4048 12.1825 16.2852 12.0868L16.2135 12.015L16.0939 12.0868L15.7829 12.1586C15.5198 12.1346 15.4002 11.8715 15.2806 11.6084L15.2567 11.5606H15.185L14.8979 11.3932C14.874 11.3692 14.7783 11.2257 14.7066 10.8669L14.6587 10.6995L14.5152 10.7713C14.2043 10.9387 13.9412 11.2018 13.7498 11.4888C13.4628 11.9433 13.3911 12.4934 13.3911 12.9C13.3911 13.4502 13.5106 13.9285 13.5824 14.0481L13.6063 14.096C13.7498 14.3591 13.9412 14.6939 14.7544 15.0288L14.8501 15.0766C15.5677 15.3876 15.8308 15.5072 15.9743 15.7464L15.9982 15.7942L16.3331 15.8899L16.3809 15.866C16.5244 15.7942 16.6679 15.7703 16.8114 15.7703C17.1702 15.7703 17.4572 15.8899 17.6725 16.1769C17.816 16.3682 17.8878 16.7988 17.7203 17.1097C17.5529 17.4207 17.242 17.5881 16.8353 17.5881C16.6918 17.5881 16.5005 17.5403 16.3331 17.4685L16.2852 17.4446L16.2135 17.4685C16.1178 17.5163 15.9743 17.5642 15.759 17.5642L15.3763 17.4924L15.3285 17.4685L15.2806 17.4924L14.874 17.5881L14.4913 17.4685H14.4196L14.3717 17.4924C14.276 17.5403 14.1565 17.5881 13.9173 17.5881L13.5346 17.4924L13.4628 17.4685L13.415 17.4924L13.0084 17.5881L12.6257 17.4685H12.5539L12.5061 17.4924C12.4104 17.5403 12.2908 17.5881 12.0516 17.5881L11.6689 17.4924L11.5971 17.4685L11.5493 17.4924L11.1427 17.5881L10.76 17.4685H10.6882L10.6404 17.4924C10.5686 17.5403 10.4251 17.5881 10.1859 17.5881L9.80325 17.4924L9.75541 17.4685L9.70757 17.4924L9.30095 17.5881L8.91825 17.4685L8.87042 17.4446L8.82258 17.4685C8.67907 17.5403 8.51164 17.5642 8.3442 17.5642C8.20069 17.5642 8.05718 17.5163 7.91367 17.4685H7.81799L7.77016 17.4924C7.62664 17.5642 7.48313 17.612 7.3157 17.612C6.95692 17.612 6.64598 17.4685 6.45463 17.2054C6.31111 16.9901 6.26328 16.5835 6.43071 16.2487C6.52638 16.0812 6.76557 15.7942 7.29178 15.7942C7.43529 15.7942 7.60272 15.842 7.79407 15.9138L7.84191 15.9377L7.88975 15.9138C7.98542 15.866 8.10502 15.8181 8.3442 15.8181H8.43988L8.48772 15.7942C8.8465 15.5072 9.51622 15.1723 9.89892 15.0049L10.0903 14.9092C10.5447 14.67 10.8557 14.1916 10.9753 13.5219V13.4741L10.5926 12.8522C10.2816 12.3499 10.1381 12.1107 10.0903 11.9911C10.0424 11.8476 9.68365 11.3214 9.27703 11.0344L9.15744 10.8909L9.1096 11.0583C8.94217 11.5127 8.79866 11.6802 8.70298 11.7519L8.48772 11.7998L8.36812 11.6563L8.29637 11.8476C8.20069 12.0868 8.05718 12.326 7.6984 12.3977C7.55489 12.4217 7.36354 12.4217 7.26786 12.2303L7.19611 12.1107L7.07651 12.1586C6.74165 12.326 6.40679 12.4456 6.23936 12.2064L6.14368 11.8954C6.14368 11.728 6.21544 11.5606 6.38287 11.3932L6.21544 11.2018C5.88058 11.441 5.61747 11.4888 5.4022 11.2975L5.25869 11.0344L5.23477 10.9387H5.11518C4.80424 10.9387 4.61289 10.8191 4.51721 10.5799L4.49329 10.4125L4.54113 10.2451L4.80423 10.0537L4.49329 10.0059L4.18235 9.86235L4.03884 9.59925L4.08667 9.38398L3.96708 9.33614C3.68006 9.21655 3.56046 9.04912 3.56046 8.83385L3.58438 8.69034L3.77573 8.40331L4.15843 8.35548L4.30194 8.37939V8.23588C4.30194 8.09237 4.3737 7.92494 4.58897 7.8771L4.82815 7.85318L4.89991 7.82926L4.82815 7.75751L4.73248 7.51832L4.78032 7.35089ZM4.46937 7.63791C4.2541 7.70967 4.11059 7.85318 4.06276 8.06845C3.91924 8.06845 3.75181 8.06845 3.6083 8.18804C3.44087 8.28372 3.34519 8.45115 3.29736 8.66642L3.27344 8.80993C3.27344 9.04912 3.36911 9.31222 3.75181 9.50357L3.72789 9.59925C3.72789 9.71884 3.77573 9.91019 3.94316 10.0776L4.23019 10.2451L4.18235 10.4603L4.23019 10.6995C4.30194 10.9387 4.51721 11.2018 4.97167 11.2257L5.16302 11.5367C5.30653 11.6802 5.54572 11.7759 5.88058 11.6802L5.80882 11.9433C5.80882 12.1107 5.85666 12.2542 5.95233 12.3977C6.23936 12.8283 6.74165 12.613 7.05259 12.4695C7.19611 12.6369 7.41137 12.7326 7.67448 12.6848C8.10502 12.5891 8.29637 12.326 8.41596 12.0868L8.7269 12.039L8.77474 12.015C8.94217 11.9194 9.08568 11.6802 9.2292 11.3692C9.54014 11.6323 9.77933 12.015 9.82716 12.1107C9.875 12.2303 10.0185 12.4695 10.3534 12.9957L10.6643 13.5219C10.5686 14.072 10.3055 14.4787 9.94676 14.67L9.75541 14.7657C9.25312 15.0049 8.70299 15.2919 8.36812 15.555H8.3442C8.0811 15.555 7.93759 15.6028 7.81799 15.6746C7.67448 15.6268 7.48313 15.555 7.26786 15.555C6.57422 15.555 6.2872 15.9377 6.1676 16.153C5.95233 16.5835 6.02409 17.1097 6.21544 17.3728C6.45463 17.7077 6.83733 17.899 7.29178 17.899C7.45921 17.899 7.62664 17.8512 7.79407 17.7794C7.93759 17.8273 8.10502 17.899 8.27245 17.899C8.4638 17.899 8.63123 17.8512 8.79866 17.7794C8.94217 17.8512 9.1096 17.899 9.27703 17.899C9.44447 17.899 9.58798 17.8512 9.73149 17.7794C9.85108 17.8273 10.0185 17.8751 10.1859 17.8751C10.4251 17.8751 10.5926 17.8273 10.6882 17.7794C10.8318 17.8512 10.9753 17.899 11.1427 17.899C11.3101 17.899 11.4536 17.8512 11.5971 17.7794C11.7167 17.8273 11.8603 17.8751 12.0516 17.8751C12.2908 17.8751 12.4343 17.8273 12.5539 17.7794C12.6974 17.8512 12.8409 17.899 13.0084 17.899C13.1758 17.899 13.3193 17.8512 13.4628 17.7794C13.5824 17.8273 13.7498 17.8751 13.9173 17.8751C14.1565 17.8751 14.3 17.8273 14.4196 17.7794C14.5631 17.8512 14.7066 17.899 14.874 17.899C15.0414 17.899 15.185 17.8512 15.3285 17.7794C15.4481 17.8273 15.6155 17.8751 15.7829 17.8751C16.046 17.8751 16.1895 17.8273 16.3091 17.7555C16.4526 17.8273 16.644 17.8751 16.8593 17.8751C17.3855 17.8751 17.7682 17.6599 17.9834 17.2532C18.1987 16.8227 18.103 16.2965 17.9117 16.0334C17.6486 15.6985 17.3137 15.5072 16.8593 15.5072C16.6918 15.5072 16.5244 15.555 16.3809 15.6268L16.2135 15.5789C15.9982 15.268 15.7112 15.1245 14.9936 14.8374L14.8979 14.7896C14.1565 14.4787 14.0129 14.2156 13.8694 13.9764L13.8455 13.9285C13.7977 13.8568 13.702 13.4262 13.702 12.9C13.702 12.5413 13.7498 12.015 14.0129 11.6323C14.1565 11.4171 14.3478 11.2496 14.5392 11.1061C14.6109 11.3214 14.6827 11.4888 14.7544 11.5606L14.7783 11.5845L14.8262 11.6084L15.1371 11.7759L15.1132 11.7041C15.2567 12.039 15.4481 12.3738 15.8308 12.4217L16.2135 12.3499C16.357 12.4695 16.5244 12.5652 16.7636 12.5652C16.9789 12.5652 17.0985 12.4695 17.1941 12.3738C17.6247 12.4456 17.8639 12.2781 17.9834 12.0868L18.103 11.728V11.7041L17.9834 11.3692L18.0313 11.3453L18.2705 11.1061C18.6053 11.0822 18.7728 10.8909 18.8445 10.7234L18.8684 10.6278L18.8924 10.6038C19.0598 10.6517 19.2751 10.7234 19.4903 10.6278C19.6338 10.556 19.7295 10.4364 19.8013 10.269C19.9687 10.269 20.1361 10.269 20.3036 10.1494C20.471 10.0298 20.5906 9.83844 20.6145 9.62317V9.50357C20.6145 9.28831 20.4949 8.90561 19.9209 8.71426C19.8969 8.54683 19.8491 8.40331 19.7056 8.28372C19.4186 7.99669 19.0837 8.04453 18.8206 8.14021L19.0119 7.92494C19.3468 7.99669 19.8969 8.06845 20.1361 7.59008L20.2079 7.35089L20.16 7.13562C20.471 6.89643 20.5427 6.63333 20.5427 6.44198L20.3992 6.05928C20.2557 5.72442 19.9926 5.5809 19.6099 5.62874L19.5142 5.41347L19.4903 5.38955L19.5621 5.15037L19.4903 4.83942C19.4186 4.62416 19.2751 4.48064 19.0837 4.40889C18.9402 4.33713 18.7488 4.36105 18.5575 4.38497C18.7249 4.24146 18.8206 4.09794 18.8445 3.93051L18.8684 3.81092C18.8684 3.64349 18.8206 3.49998 18.701 3.35646C18.4857 3.09336 18.1748 3.0216 17.7921 3.09336C17.7203 2.99768 17.6247 2.92593 17.4333 2.87809C17.0985 2.80633 16.8353 2.99768 16.6679 3.1412L16.5005 3.0216H16.4526L16.357 3.04552C16.357 2.85417 16.2852 2.68674 16.1417 2.54323C15.9504 2.35188 15.7351 2.2562 15.4959 2.2562L15.2567 2.30404L15.4241 1.89742L15.3524 1.6104C15.2328 1.39513 15.1132 1.29946 14.9936 1.25162C14.9936 0.65365 14.6109 0.486219 14.4196 0.438382C14.1086 0.366626 13.8455 0.486219 13.5824 0.749325L13.3911 0.701488C13.2475 0.557975 13.0801 0.4623 12.9127 0.438382C12.4104 0.366626 12.1951 0.845 12.0994 1.13202L11.7407 1.20378L11.5732 1.37121L11.5015 1.32337C11.4297 0.821081 11.1666 0.65365 10.9992 0.605813H10.6165C10.2099 0.175276 9.82716 0.175276 9.58798 0.29487C9.34879 0.414463 9.20528 0.65365 9.20528 0.940675L9.27703 1.29946L9.1096 1.46689C8.8465 1.39513 8.60731 1.44297 8.36812 1.58648C8.15285 1.72999 8.03326 1.94526 8.03326 2.20837C8.03326 2.39972 8.10502 2.56715 8.17677 2.71066L7.93759 3.11728V3.21295L7.98542 3.4043C7.79407 3.42822 7.60272 3.49998 7.45921 3.66741L7.29178 4.02619C7.17219 3.69133 6.95692 3.5239 6.66989 3.49998C6.50246 3.49998 6.38287 3.57173 6.26328 3.69133C6.00017 3.49998 5.7849 3.5239 5.61747 3.59565C5.45004 3.66741 5.16302 3.85876 5.16302 4.36105L5.18693 4.60024L4.92383 4.88726V4.91118L4.89991 4.9351H4.92383L4.87599 5.15037L5.0195 5.53307C4.92383 5.55699 4.7564 5.67658 4.66072 5.91577C4.39762 5.93969 4.18235 6.0832 4.06276 6.32238L3.96708 6.70508V6.729L4.03884 7.06386C4.11059 7.2313 4.2541 7.35089 4.44545 7.44656L4.49329 7.54224L4.46937 7.63791Z" fill="#777777"/><path id="Vector_2" d="M10.6028 17.0092C10.7224 17.1767 10.9377 17.2963 11.153 17.2963C11.3922 17.2963 11.4878 17.2006 11.4878 17.2006L11.6792 17.1767C11.6792 17.1767 11.8227 17.2963 12.0619 17.2963L12.325 17.2484L12.2293 17.1528L11.6792 16.3634C11.5596 16.196 11.3443 16.0764 11.129 16.0764C10.8899 16.0764 10.7942 16.1721 10.7942 16.1721L10.6028 16.196C10.6028 16.196 10.4593 16.0764 10.2201 16.0764L9.95703 16.1243L10.0288 16.2199L10.6028 17.0092Z" fill="#777777"/><path id="Vector_3" d="M6.71347 17.0153C6.64171 16.8957 6.59388 16.6087 6.71347 16.3695C6.80914 16.1782 7.02441 16.0586 7.31144 16.0586C7.55062 16.0586 7.86157 16.1782 7.98116 16.3456L8.53129 17.1349L8.62697 17.2067L8.31602 17.2545C8.05292 17.2545 7.88549 17.1349 7.88549 17.1349L7.71806 17.1589C7.71806 17.1589 7.62238 17.2784 7.33536 17.2784C7.02441 17.3024 6.83306 17.2067 6.71347 17.0153Z" fill="#777777"/><path id="Vector_4" d="M9.70634 5.24966C9.82593 5.1779 9.96944 5.08223 10.1369 4.96264C10.3521 4.84304 10.5674 4.77129 10.7348 4.69953C10.5196 4.26899 10.2325 4.26899 10.089 4.24507L9.94552 4.22116L9.89769 4.19724L9.70634 4.10156V4.29291V4.43642L9.6585 4.5321C9.61066 4.62777 9.49107 4.86696 9.70634 5.24966Z" fill="#777777"/><path id="Vector_5" d="M12.5009 4.1845L12.4844 4.16797L12.5009 4.1845Z" fill="#777777"/><path id="Vector_6" d="M7.12579 6.87789L7.07796 6.99748L6.86269 7.09316H6.74309L6.50391 7.26059L6.71917 7.57153L6.86269 7.71504L6.88661 7.81072C7.03012 7.7868 7.19755 7.7868 7.3889 7.85855L7.50849 7.81072C7.72376 7.76288 7.91511 7.88247 8.05862 7.97815C8.10646 7.88247 8.17822 7.73896 8.34565 7.7868C8.56092 7.83464 8.70443 8.00207 8.8001 8.19342L8.9197 8.07382V8.02599L8.96753 7.81072L9.06321 7.71504L8.87186 7.47586C8.63267 7.57153 8.20213 7.6672 7.91511 7.54761C7.74768 7.47585 7.62809 7.33234 7.60417 7.14099C7.43674 7.04532 7.31714 6.90181 7.24539 6.73438L7.12579 6.87789Z" fill="#777777"/><path id="Vector_7" d="M6.46869 8.27925L6.27734 8.35101L6.30126 8.54236L6.32518 8.5902L6.37302 8.73371L6.49261 9.02073C6.58829 9.18816 6.77964 9.33167 6.87531 9.37951L7.35369 8.5902L7.18625 8.23141L7.23409 8.04006C6.94707 7.96831 6.77964 8.11182 6.68396 8.18358L6.58829 8.23141L6.46869 8.27925Z" fill="#777777"/><path id="Vector_8" d="M14.3789 7.30516C14.5701 7.13786 14.7852 6.92277 14.9764 6.89888C14.8808 6.75548 14.833 6.58819 14.833 6.4209C14.7613 6.58819 14.5462 6.73158 14.3789 6.80328L14.4745 6.92277V6.99447L14.3789 7.25736V7.30516Z" fill="#777777"/><path id="Vector_9" d="M16.4032 7.88762L16.3867 7.87109L16.4032 7.88762Z" fill="#777777"/><path id="Vector_10" d="M15.3482 7.77787C15.3721 7.84963 14.9655 8.04098 14.6545 8.13665L14.224 8.328L13.913 8.63894C14.0566 8.73462 14.511 8.83029 14.6067 8.80638L14.6306 8.73462L14.7502 8.51935L14.9894 8.54327C15.1568 8.59111 15.4199 8.66286 15.5874 8.54327L15.5634 8.49543L15.4917 8.30408L15.4678 8.23233L15.5395 8.20841L15.7787 8.18449L16.0418 8.20841H16.1136L16.2332 8.11273L16.2092 8.01706L16.1614 7.84963L16.3288 7.65828C16.5202 7.5626 16.5919 7.49085 16.5202 7.32342H16.1375H15.8744L15.7787 7.1799L15.683 7.08423L15.4438 7.20382L15.1807 7.27558L15.0611 7.1799L15.0372 7.13207C15.0133 7.10815 14.8937 7.15598 14.5828 7.44301L14.3436 7.61044L14.1761 7.51477C14.0326 7.53868 13.8652 7.89746 13.7695 8.18449C13.937 8.11273 14.3197 7.96922 14.5588 7.89746C14.8937 7.80179 15.3242 7.70611 15.3482 7.77787Z" fill="#777777"/><path id="Vector_11" d="M7.55607 5.94061L7.4604 5.96453H7.34081H7.29297L7.31689 6.01237L7.34081 6.1798V6.20372C7.34081 6.46682 7.43648 6.80168 7.74742 6.96911L7.89094 6.87344C8.13012 6.63425 8.34539 6.15588 8.36931 6.01237C8.01053 5.84493 7.72351 5.89277 7.55607 5.94061Z" fill="#777777"/><path id="Vector_12" d="M18.7626 5.77098L18.6669 5.84273C18.7626 5.89057 18.9061 6.01016 18.9061 6.22543V6.27327C18.8822 6.63205 18.3321 6.65597 17.9733 6.65597L18.045 6.89515L18.0211 7.01475C17.8537 7.42137 17.1361 7.39745 16.8013 7.39745V7.4692L16.7773 7.61272L16.9926 7.70839L17.0165 7.75623C17.3753 7.73231 17.6384 7.75623 17.8537 7.82798L18.0929 7.78015C18.3081 7.80407 18.4517 7.80407 18.4756 7.70839V7.63663L18.5712 7.39745C18.6669 7.32569 18.7865 7.34961 18.9779 7.39745C19.1931 7.44528 19.5041 7.51704 19.5758 7.37353L19.528 7.18218L19.4562 6.89515L19.5997 6.77556C19.8629 6.63205 19.9825 6.51246 19.8868 6.27327C19.8389 6.15367 19.7193 6.15367 19.5041 6.22543C19.3606 6.27327 19.1931 6.32111 19.1214 6.15367V5.93841L19.0975 5.77098C19.0735 5.74706 19.0257 5.72314 18.8583 5.69922L18.7626 5.77098Z" fill="#777777"/><path id="Vector_13" d="M14.7109 6.05912L14.8305 6.17871L14.9262 5.86777C15.1176 5.55682 15.4524 5.46115 15.572 5.48507C15.7873 5.36548 16.0265 5.31764 16.2657 5.34156C16.3135 5.24588 16.4331 5.03061 16.6244 4.91102L16.5048 4.69575C16.3852 4.60008 16.2417 4.67183 16.0504 4.79143L15.7394 4.8871L15.6198 4.76751L15.4524 4.52832L15.285 4.624L15.3567 4.81534L15.3328 4.93494C15.285 5.10237 15.1415 5.19804 15.0219 5.2698L15.0697 5.46115C15.0458 5.67642 14.9262 5.86777 14.7109 6.05912Z" fill="#777777"/><path id="Vector_14" d="M13.7482 4.72581C13.7961 4.39095 13.6765 4.15176 13.6286 4.05609L13.6047 3.98433L13.5329 3.84082L13.3416 3.91258L13.2459 3.96041C13.1024 4.00825 12.7915 4.15176 12.6719 4.46271C13.0785 4.48663 13.6525 4.65406 13.7482 4.72581Z" fill="#777777"/><path id="Vector_15" d="M16.7372 5.5736L16.6416 5.59752L16.4741 5.62144L16.4263 5.59752C16.3306 5.5736 16.0197 5.47793 15.6848 5.6932C15.6609 6.21941 15.9957 6.43468 16.3784 6.57819C16.6415 6.36292 16.6655 6.12373 16.6655 5.9563V5.83671V5.76495L16.6894 5.64536L16.7372 5.5736Z" fill="#777777"/><path id="Vector_16" d="M13.9715 9.1215L14.0911 9.00191L13.7802 8.8584C13.7084 9.00191 13.6127 9.16934 13.5649 9.33677C13.4692 9.59988 13.4453 9.93474 13.4453 10.2218V10.3414L13.7563 9.95866C13.6606 9.79123 13.6127 9.5042 13.7802 9.28893L13.9715 9.1215Z" fill="#777777"/><path id="Vector_17" d="M15.9423 8.70927L16.0858 8.56576V8.54184V8.47009L15.8466 8.44617L15.8944 8.51792L15.7988 8.68535C15.5117 8.92454 15.153 8.82887 14.9616 8.78103H14.9377L14.7942 9.02022C14.7224 9.04414 14.5789 9.04414 14.4115 9.02022C14.3876 9.21157 14.268 9.28332 14.1484 9.33116L14.0049 9.42683L13.957 9.7617L14.3158 9.47467C14.3158 9.47467 14.5311 9.35508 14.6985 9.2594L15.129 9.18765L14.7942 9.49859L14.5311 9.68994L14.3158 10.1444C14.4115 10.1205 14.555 10.0966 14.7224 10.1205L14.8899 10.0726L15.2486 9.97696L15.2965 9.92913L15.2486 9.85737L15.153 9.66602L15.2008 9.57035L15.4639 9.47467C15.7509 9.45075 15.8944 9.40292 15.9184 9.2594V9.23548L15.8466 9.09197L15.7749 8.92454L15.7988 8.85279L15.9423 8.70927Z" fill="#777777"/><path id="Vector_18" d="M18.0869 4.95863L17.9913 4.81512C17.8238 4.7912 17.6803 4.93471 17.5368 5.10214L17.2259 5.29349L17.0584 5.19782L16.8192 5.12606L16.5801 5.36525L16.9149 5.38917L16.9388 5.77187L16.9149 5.84362V6.15457C17.1541 5.98713 17.6086 5.67619 17.6564 5.72403C17.7281 5.77187 17.3454 6.2024 16.9627 6.41767L16.7714 6.53726L16.5322 6.80037L16.4844 7.03956L16.6518 7.11131H16.7475C16.9627 7.11131 17.6325 7.15915 17.7521 6.89604L17.6564 6.65686L17.6086 6.46551C17.6325 6.36983 17.7281 6.36983 17.8717 6.36983C18.5175 6.36983 18.6131 6.27416 18.6131 6.22632L18.4457 6.01105L18.3261 5.91538V5.8197L18.6131 5.5566L18.7088 5.48484L18.7567 5.437C18.9241 5.31741 19.0198 5.19782 18.948 5.00647L18.8762 4.91079L18.374 5.03039L18.2065 5.07822L18.0869 4.95863Z" fill="#777777"/><path id="Vector_19" d="M17.9299 8.1424C17.8103 7.97497 17.4754 7.90322 17.0209 7.97497C16.997 8.11848 16.9492 8.33375 16.997 8.62078C17.0209 8.83605 17.1166 8.97956 17.1884 9.09915L17.2123 9.14699C17.7863 9.0274 17.9059 8.71645 17.9299 8.57294L17.9777 8.47727L18.0973 8.38159L18.169 8.30983L18.0495 8.23808L17.9299 8.1424Z" fill="#777777"/><path id="Vector_20" d="M13.2387 8.43146L13.3104 8.40756L13.4777 8.33586C13.5016 8.24026 13.5494 8.04907 13.645 7.83398C13.4538 7.92958 13.2865 8.00128 13.2148 8.02518C13.2148 8.12077 13.2387 8.24027 13.2387 8.43146Z" fill="#777777"/><path id="Vector_21" d="M14.2462 6.96388L14.1983 6.93996L14.0548 6.86821L13.9831 6.82037L14.0309 6.77253L14.2223 6.6051L14.6528 6.24632L14.581 6.19848L14.4375 6.07889L14.5332 5.91146C14.7246 5.76795 14.9159 5.5766 14.8202 5.33741H14.7246L14.5332 5.28957L14.4375 5.02647L14.3658 4.76336C14.3658 4.76336 14.294 4.73944 14.0309 4.97863L13.9831 5.02647L13.8156 5.00255L13.7439 4.97863C13.5765 4.97863 13.5286 5.36133 13.5047 5.48092L13.4569 5.64835H13.2416L13.1938 5.62443L13.0263 5.76795L13.0024 5.86362C13.0024 6.03105 13.0981 6.24632 13.1459 6.36591L13.1938 6.53334L13.122 6.65294L13.0263 6.67686L12.9307 6.70077L12.8828 6.89212C12.8828 7.05956 12.9785 7.32266 13.0742 7.49009L13.1459 7.27482C13.2177 7.01172 13.6482 6.24632 13.7678 6.29416C13.8874 6.34199 13.4329 7.10739 13.3612 7.34658L13.2655 7.72928C13.5525 7.60969 14.294 7.22699 14.2462 6.96388Z" fill="#777777"/><path id="Vector_22" d="M10.068 7.80716C10.068 7.66365 10.1876 7.52014 10.2594 7.44838L10.1637 7.13744L10.3312 6.77866H10.0441H9.82886L9.78102 6.7069L9.494 6.27637H9.44616C9.23089 6.37204 9.23089 6.58731 9.23089 6.8265L9.18306 7.06568L9.06346 7.13744L9.01562 7.18528L9.20697 7.54406L9.32657 7.75933L9.13522 7.95068V8.11811L9.15914 8.16594C9.27873 8.28554 9.39832 8.52473 9.44616 8.76391L9.494 8.73999L9.68535 8.76391L9.7571 8.81175L9.68535 8.45297C9.61359 7.90284 9.66143 7.71149 9.73319 7.68757C9.80494 7.66365 9.82886 7.87892 9.92454 8.45297C9.97237 8.76391 10.068 9.02702 10.068 9.09877L10.2355 9.19445C10.3312 9.12269 10.5703 8.93134 10.5943 8.76391V8.66824L10.5703 8.47689L10.666 8.21378C10.4268 8.21378 10.068 8.14203 10.068 7.80716Z" fill="#777777"/><path id="Vector_23" d="M11.5212 12.0125L11.5451 11.7494C11.5451 11.558 11.5212 11.271 11.4494 10.8165C11.282 9.81195 10.7319 9.66844 10.4927 9.59668H10.4688C10.5405 9.76411 10.5644 9.97938 10.5644 10.2664V10.386C10.5644 11.1753 11.2581 11.8211 11.5212 12.0125Z" fill="#777777"/><path id="Vector_24" d="M8.78141 9.26771C8.94884 9.3873 9.11627 9.50689 9.23587 9.60257L9.25979 9.62649H9.2837C9.47505 9.77 9.71424 9.84175 9.73816 9.81784V9.74608C9.71424 9.21987 9.59465 9.02852 9.54681 9.0046L9.47505 9.10027L9.33154 9.17203L9.23587 9.05244C9.25979 8.69366 9.06844 8.38271 8.99668 8.33488L8.87709 8.55014L8.73358 8.6219L8.61398 8.50231C8.61398 8.35879 8.54223 8.14353 8.30304 8.04785L8.2552 8.14353L8.01601 8.28704L7.96818 8.2392L7.56156 8.07177L7.46588 8.14353C7.39413 8.28704 7.44197 8.38271 7.6094 8.50231L7.72899 8.69366L7.56156 8.88501L7.46588 8.95676C7.46588 9.07636 7.53764 9.12419 7.77683 9.14811L7.96818 9.21987L7.8725 9.50689L7.80075 9.57865C7.8725 9.74608 8.03993 9.79392 8.20736 9.81784H8.23128H8.39871L8.66182 9.93743L8.59006 10.1527L8.51831 10.2245C8.61398 10.368 8.94884 10.368 9.42722 10.2005L9.14019 9.81784H9.09236C8.94884 9.72216 8.78141 9.62649 8.61398 9.48297L8.27912 9.05244L8.78141 9.26771Z" fill="#777777"/><path id="Vector_25" d="M11.707 9.18921C11.707 9.40448 11.7549 9.71542 11.9462 10.0503L12.3528 10.7439C12.4246 10.5047 12.5203 10.146 12.5203 9.97853V9.81109C12.5203 9.64366 12.4963 9.45231 12.4485 9.23705L12.3768 9.26096C12.1615 9.28488 12.0419 9.3088 11.707 9.18921Z" fill="#777777"/><path id="Vector_26" d="M12.8634 6.42088C12.8156 6.27737 12.7199 6.08602 12.7199 5.87075L12.7677 5.63157L12.6003 5.39238L12.5046 5.48805L12.2654 5.60765L12.0741 5.44022C11.9067 5.22495 11.7392 5.00968 11.524 5.05752C11.3565 5.10535 11.3326 5.2967 11.3565 5.60765L11.2369 5.91859L11.0695 6.03818C11.0456 6.20561 11.1652 6.30129 11.2609 6.39696L11.3087 6.4448C11.5479 6.49264 11.7631 6.8275 11.8827 7.04277C12.0023 6.97101 12.1937 6.8275 12.3611 6.97101C12.5285 7.11453 12.6242 7.49722 12.6481 7.71249L12.8156 7.68857C12.7199 7.49722 12.5764 7.18628 12.5764 6.92318L12.696 6.56439L12.8634 6.42088Z" fill="#777777"/><path id="Vector_27" d="M12.6673 8.66811C12.7869 8.18973 12.8347 7.95055 12.8347 7.90271L12.7151 7.92663L12.4759 7.90271L12.4281 7.78311L12.2128 7.16123L12.0215 7.2569L11.7823 7.32866L11.6866 7.23298C11.5909 6.9938 11.3278 6.65894 11.2082 6.68285L11.0887 6.8742L10.993 6.9938L10.8734 6.94596C10.8495 6.92204 10.7299 6.80245 10.5385 6.94596C10.3472 7.08947 10.5385 7.3765 10.5624 7.3765L10.5864 7.47217L10.5385 7.56785L10.3711 7.80703C10.3711 7.92663 10.5146 7.97446 10.7538 8.0223L11.0169 8.18973L10.9212 8.38108C10.8734 8.42892 10.8016 8.50068 10.8734 8.69202L10.9691 8.81162L11.4235 8.71594L11.6627 8.66811H11.7345L11.7584 8.73986L11.7345 8.93121L11.8301 9.00297C12.0932 9.09864 12.165 9.09864 12.4042 9.05081H12.4281L12.3803 8.85946L12.3563 8.81162C12.2846 8.66811 12.165 8.47676 11.9976 8.33324C11.7584 8.11798 11.3996 7.87879 11.4474 7.80703C11.4714 7.73528 11.878 7.95055 12.165 8.18973C12.3324 8.30933 12.452 8.45284 12.4759 8.50068L12.6673 8.66811Z" fill="#777777"/><path id="Vector_28" d="M12.5115 15.9449L12.5593 15.921L12.4398 15.6103L12.2725 15.5625C12.1053 15.5625 11.9858 15.7059 11.9141 15.8493H12.0575C12.2725 15.8493 12.4159 15.8971 12.5115 15.9449Z" fill="#777777"/><path id="Vector_29" d="M15.4409 16.3632C15.3213 16.1958 15.106 16.0762 14.8908 16.0762C14.6516 16.0762 14.5559 16.1718 14.5559 16.1718L14.3885 16.1958C14.3885 16.1958 14.245 16.0762 14.0058 16.0762L13.7188 16.124L13.7905 16.1958L14.3406 16.9851C14.4602 17.1525 14.6755 17.2721 14.8908 17.2721C15.13 17.2721 15.2256 17.1764 15.2256 17.1764L15.3931 17.1525C15.3931 17.1525 15.5366 17.2721 15.7758 17.2721L16.0628 17.2243L15.991 17.1525L15.4409 16.3632Z" fill="#777777"/><path id="Vector_30" d="M10.1523 15.8413H10.224C10.4391 15.8413 10.5825 15.913 10.6781 15.9608L10.8932 15.8652V15.7218C10.7259 15.674 10.3913 15.674 10.1523 15.8413Z" fill="#777777"/><path id="Vector_31" d="M7.37226 11.3419L7.77888 10.9353C8.01806 10.7679 8.1855 10.6243 8.49644 10.5287L8.30509 10.3612L8.28117 10.2656L8.35293 10.0742H8.1855L8.01806 10.1221L8.08982 10.2656L8.13766 10.4569L8.0659 10.5287L7.89847 10.5048C7.77888 10.433 7.49185 10.2895 7.27658 10.3852L7.25267 10.4091L7.32442 10.4808L7.4201 10.6483L7.37226 10.7439L7.13307 10.7918C6.98956 10.7679 6.84605 10.7679 6.72645 10.9114V11.1745L6.77429 11.4376L6.6547 11.5572C6.43943 11.7724 6.34376 11.916 6.43943 12.0834L6.89389 11.916L7.18091 11.7964C7.37226 11.7964 7.4201 11.9638 7.44402 12.0356L7.58753 12.1073C7.85063 12.0595 7.92239 11.8681 7.99415 11.6529L8.20941 11.2941L8.37685 11.2462L8.54428 11.4137V11.4376C8.63995 11.3419 8.78346 11.0549 8.87914 10.6961L8.90306 10.6483L8.47252 10.7679C8.16158 10.9353 7.37226 11.4137 7.37226 11.3419Z" fill="#777777"/><path id="Vector_32" d="M6.98958 10.508L6.96566 10.4123V10.3884L7.08526 10.221L6.86999 10.0774L6.72648 9.64691L6.43945 9.43164H6.41553H6.00892V9.62299L5.91324 9.98177L5.55446 9.86218C5.41095 9.7665 5.29136 9.69475 5.19568 9.74258L5.2196 9.8861V10.1731L5.00433 10.2927L4.78906 10.4123V10.5319C4.8369 10.6754 4.95649 10.6993 5.17176 10.6754L5.41095 10.7233L5.48271 10.9385L5.55446 11.1299L6.12851 10.9146L6.29594 10.8189L6.39162 10.8668L6.41553 10.8907L6.48729 10.7711C6.65472 10.5558 6.84607 10.508 6.98958 10.508Z" fill="#777777"/><path id="Vector_33" d="M19.493 9.13997L19.3734 9.11605L19.3256 8.87687L19.2777 8.63768L18.6798 8.80511L18.4406 8.87687L18.3449 8.70944L18.2492 8.58984L18.2014 8.61376L18.1775 8.6616C18.1536 8.75727 18.0818 8.94862 17.8905 9.11605C18.2492 9.13997 18.7754 9.25957 18.7754 9.35524C18.7754 9.47484 17.8905 9.33132 17.6513 9.33132H17.5317L17.3164 9.37916L17.3882 9.52267L17.5556 9.49875C17.723 9.45092 17.9383 9.427 18.0818 9.52267L18.2492 9.83362L18.2014 10.025V10.0489L18.4406 10.2163L18.4645 10.1206L18.5123 10.001L18.7994 10.025L19.1581 10.1206L19.2299 9.90537L19.3256 9.6901H19.5408H19.8996L19.9714 9.54659C20.0192 9.3074 19.8757 9.21173 19.493 9.13997Z" fill="#777777"/><path id="Vector_34" d="M5.71931 9.67289L5.74323 9.69681V9.62506V9.52938L5.86282 9.21844L5.69539 9.19452C5.48012 9.1706 4.76256 9.1706 4.76256 9.07493C4.76256 8.95533 5.55188 8.93141 5.81499 8.95533L6.17377 9.05101L6.10201 8.83574L6.05417 8.69223V8.62047H6.03026C5.86282 8.38128 5.64756 8.18993 5.55188 8.21385L5.45621 8.35737L5.33661 8.5248L5.09743 8.4052L4.64297 8.16602C4.59513 8.16602 4.57121 8.18993 4.59513 8.38128L4.52338 8.66831H4.26027H3.92541L3.87757 8.7879C3.85365 8.97925 3.99717 9.05101 4.28419 9.12276L4.47554 9.21844L4.4277 9.48154L4.37986 9.67289C4.52338 9.81641 4.66689 9.74465 4.83432 9.62506L5.02567 9.52938L5.14526 9.5533C5.33661 9.40979 5.5758 9.5533 5.71931 9.67289Z" fill="#777777"/><path id="Vector_35" d="M14.6448 10.3622C14.3338 10.3383 14.1664 10.4339 14.1425 10.4339H13.999L13.9511 10.3383V10.3144L14.0707 9.97949C13.7837 10.2904 13.4488 10.6731 13.3053 10.8884L13.1379 10.9362L13.0661 10.8166V10.7688C13.114 10.6492 13.114 10.4579 13.1379 10.2187C13.1618 9.90774 13.1618 9.57287 13.2814 9.26193C13.401 8.95099 13.5206 8.7118 13.688 8.49653L13.4249 8.61613C13.1857 8.73572 13.114 8.78356 13.0183 8.68788L12.9704 8.42478V8.3291C12.9465 8.47261 12.8987 8.64004 12.8509 8.85531L12.6834 8.95099L12.6117 8.90315C12.7313 9.21409 12.7791 9.57287 12.7791 9.83598V10.0034C12.7791 10.0034 12.6117 11.1276 12.4203 11.1754L12.2768 11.1276L12.0855 10.8166L11.7267 10.2187C11.4157 9.69247 11.4157 9.21409 11.4157 8.99883V8.97491C11.2483 9.04666 11.0091 9.14234 10.8178 9.04666L10.7699 9.02274L10.4829 9.33369L10.5547 9.35761C10.8178 9.42936 11.4875 9.62071 11.7028 10.7927C11.7506 11.1037 11.7984 11.4625 11.7984 11.7734C11.7984 12.0126 11.7745 12.2039 11.6788 12.2757L11.5353 12.2996C11.4636 12.2757 10.2676 11.4625 10.2916 10.3383C10.3155 9.54896 10.0284 9.35761 9.95669 9.33369L10.0045 9.71639C10.0045 9.90774 9.93277 9.97949 9.86102 10.0273H9.62183L9.69359 10.2187V10.2665L9.55007 10.4339L9.16737 10.5535C9.78926 10.7688 10.3394 11.6299 10.4111 11.8452C10.459 11.9408 10.6982 12.3235 10.8895 12.6584C11.3201 13.352 11.3201 13.3759 11.3201 13.4477C11.2005 14.237 10.8417 14.8589 10.2676 15.1459L10.0763 15.2416C9.69359 15.433 9.14346 15.6961 8.80859 15.9352L8.85643 15.9592C8.92819 15.9113 9.0717 15.8396 9.31089 15.8396C9.47832 15.8396 9.62183 15.8874 9.76534 15.9592L9.78926 15.9113C10.0524 15.409 10.6982 15.409 10.9613 15.4569L11.057 15.1938L11.2244 14.9067C11.3918 14.6197 11.631 14.0218 11.7028 14.0218C11.7745 14.0218 11.7506 14.524 11.4636 15.0263L11.2244 15.3134L11.1526 15.6004V15.6243V15.8157C11.2961 15.8157 11.4636 15.8635 11.5832 15.9352H11.6071V15.9113C11.7506 15.5047 11.9898 15.2894 12.2768 15.2894L12.6356 15.433L12.803 15.8157H12.9704C13.1379 15.8157 13.3053 15.8635 13.4488 15.9592C13.5206 15.9113 13.688 15.8396 13.9511 15.8396C14.1185 15.8396 14.2621 15.8874 14.3577 15.9352V15.8874C14.2621 15.6482 14.0707 15.5525 13.8076 15.4569C13.4727 15.3134 13.0422 15.1459 12.803 14.5001C12.6834 14.1892 12.6356 13.7826 12.6117 13.4238C12.5877 13.1607 12.6356 12.3714 12.7073 12.3714C12.7791 12.3714 12.8509 13.1607 12.8748 13.3999C12.8987 13.7586 12.9465 14.1413 13.0422 14.4045C13.2575 14.9307 13.5923 15.0742 13.9033 15.2177C14.1664 15.3134 14.4056 15.433 14.5491 15.72L14.6208 15.8635L14.86 15.8396C15.0275 15.8396 15.171 15.8874 15.3145 15.9831C15.3862 15.9353 15.5058 15.8874 15.6733 15.8635C15.5537 15.72 15.3384 15.6243 14.7165 15.3851L14.6208 15.3134C13.7119 14.9307 13.4967 14.548 13.3292 14.2609L13.3053 14.237C13.1379 13.95 12.803 12.3953 13.4727 11.3429C13.8794 10.721 14.4056 10.4579 14.6448 10.3622Z" fill="#777777"/><path id="Vector_36" d="M18.112 10.2674L17.9446 10.1239L17.9685 9.90859L17.9207 9.71723L17.6097 9.74115L17.3227 9.76507L17.1553 9.62156L17.1074 9.64548C16.8682 9.74115 16.3899 9.76507 16.0072 9.5498L15.481 9.71723H15.457L15.5288 9.88467C15.8636 9.81291 16.1507 9.83683 16.2463 9.9325L16.342 10.1239L16.3181 10.1956L16.4855 10.2195C16.7965 10.2434 16.9878 10.2913 17.0835 10.387L17.1313 10.5544L17.0835 10.7697L17.1553 10.7936L17.3705 10.8653L17.4662 10.8893H17.7054L17.7293 10.8175L17.8011 10.6261L18.0403 10.6022L18.2555 10.5305C18.3273 10.387 18.2794 10.3391 18.112 10.2674Z" fill="#777777"/><path id="Vector_37" d="M17.3562 11.564L17.2127 11.3965V11.3487L17.3084 11.1573L17.3562 11.1095L17.0931 11.0138L16.83 10.8942V10.8225L16.8779 10.679L16.9257 10.5833L16.4952 10.5115C16.2321 10.4876 16.1125 10.4637 16.0885 10.3441L16.1125 10.2245L16.1364 10.1767C16.0885 10.1528 15.7776 10.1049 15.2753 10.2963C15.4427 10.368 15.6102 10.4876 15.7776 10.6072C15.945 10.7268 16.1842 11.0138 16.1125 11.0856L15.6341 10.8225C15.4667 10.7029 15.1796 10.5833 14.9883 10.5115C15.0361 10.7986 15.1079 11.1573 15.2035 11.253L15.4188 11.1813C15.4906 11.2052 15.5384 11.2769 15.5862 11.4444L15.8972 11.9227L16.0646 11.851L16.2321 11.7314L16.3995 11.851L16.7104 12.0663L16.8779 11.9706L17.0453 11.8749L17.1649 11.8988C17.3323 11.9467 17.428 11.9706 17.4758 11.8749L17.4997 11.8031L17.3562 11.564Z" fill="#777777"/><path id="Vector_38" d="M13.3677 1.60584L13.6786 1.70151L13.7982 2.10813C13.7982 2.37124 13.6547 2.56258 13.559 2.7061L13.8221 2.89745L13.846 3.01704L13.7025 3.42366L13.9896 3.39974L14.0135 3.37582C14.0852 3.16055 14.2048 2.82569 14.4918 2.73002H14.6593L14.6354 2.63434L14.5875 2.61042L14.4679 2.51475L14.5158 2.37124C14.6832 2.27556 14.9463 2.03637 14.8745 1.91678L14.6114 1.72543L14.4679 1.67759L14.4201 1.43841C14.444 1.19922 14.444 1.05571 14.3005 1.03179C14.1331 0.98395 14.0135 1.12746 13.8939 1.29489L13.6308 1.46232L13.4633 1.36665L13.3438 1.27097L13.3677 1.46232V1.60584Z" fill="#777777"/><path id="Vector_39" d="M12.1176 2.89592C12.3329 3.03943 12.3807 3.20686 12.3807 3.39821C12.3807 3.61348 12.285 3.80483 12.2372 3.92442H12.3568H12.4525C12.4764 3.82875 12.5721 3.46997 12.6438 3.13511C12.7156 2.80024 12.7634 2.46538 12.8113 2.46538C12.9069 2.46538 12.9069 2.72849 12.8591 3.06335C12.8113 3.39821 12.7156 3.80483 12.6917 3.97226C12.8591 3.82875 13.0504 3.73307 13.17 3.68524L13.3135 3.61348C13.481 3.35037 13.6006 3.06335 13.5767 2.99159L13.4092 2.94376L13.2179 2.84808L13.2896 2.63281C13.481 2.39363 13.6484 2.13052 13.4571 1.81958L13.3375 1.86741H13.1461L13.1222 1.69998C13.17 1.58039 13.194 1.29337 13.0983 1.12593L12.883 0.982422L12.6438 1.38904L12.5003 1.67606H12.2611H12.0937C11.9741 1.74782 12.1176 2.05876 12.2372 2.25011C12.3329 2.41754 12.3807 2.51322 12.3329 2.60889L12.2133 2.68065L11.9263 2.77632L11.9023 2.84808L12.1176 2.89592Z" fill="#777777"/><path id="Vector_40" d="M14.6867 3.09368L14.615 2.97409H14.5432C14.3758 3.04584 14.2801 3.30895 14.2323 3.45246L14.0409 3.66773L13.9692 3.64381L13.7539 3.69165L13.8496 3.883L13.8735 3.93083C13.9453 4.09826 13.9931 4.24178 14.017 4.43313L14.2562 4.1461C14.4954 3.90691 14.7824 3.71557 14.8302 3.78732C14.8781 3.83516 14.6389 4.05043 14.4475 4.28961L14.2801 4.50488L14.5193 4.5288C14.6867 4.62448 14.7107 4.83974 14.7107 4.98326V5.05501H14.7585L14.8781 5.07893L15.1173 4.83974L15.0694 4.69623L14.9977 4.55272L15.0934 4.45705L15.3804 4.31353L15.4282 4.28961C15.5956 4.19394 15.6674 4.09826 15.6674 4.02651L15.5717 3.83516L15.4521 3.64381L15.5956 3.42854L15.8348 3.1176L15.7631 2.97409L15.5478 2.85449L15.1412 3.14152L14.902 3.30895L14.6867 3.09368Z" fill="#777777"/><path id="Vector_41" d="M15.8554 4.62026L15.9511 4.57242C16.0946 4.47675 16.3099 4.35715 16.5491 4.42891L16.8122 4.26148C17.0513 4.1658 17.3384 4.04621 17.3862 4.09405C17.434 4.14188 17.1709 4.30932 16.9557 4.42891L16.7643 4.5485L16.9078 4.83553L17.2188 4.97904L17.2666 5.00296L17.3384 4.9312C17.4819 4.76377 17.6972 4.50067 18.032 4.5485L17.9603 4.30932V4.21364L18.032 4.14188L18.343 3.83094L18.319 3.73527C18.1994 3.59175 18.0081 3.63959 17.8407 3.71135L17.6254 3.73527L17.4819 3.59175L17.3145 3.44824L16.9318 3.68743L16.6686 3.83094L16.4773 3.71135L16.3816 3.61567L16.0946 3.9027L15.975 3.99837H15.9032L15.6641 4.35715L15.8554 4.62026Z" fill="#777777"/><path id="Vector_42" d="M5.97467 7.61185L5.87899 8.06631L6.04642 8.23374C6.16602 8.04239 6.38128 8.04239 6.47696 8.04239L6.62047 7.94671V7.89888V7.82712L6.59655 7.8032C6.50088 7.73145 6.26169 7.58793 6.26169 7.32483L6.28561 7.20523C6.33345 7.0378 6.42912 6.94213 6.54872 6.89429L6.47696 6.6551L6.45304 6.51159L6.28561 6.55943L5.90291 6.58335L5.83115 6.46375L5.6398 6.22457L5.20927 6.08105L5.16143 6.29632L5.08967 6.51159H4.89832C4.70697 6.46375 4.6113 6.46375 4.53954 6.60727L4.51562 6.87037C4.6113 7.0378 4.94616 7.13348 5.04184 7.1574L5.13751 7.25307L5.08967 7.39658L4.94616 7.58793L4.97008 7.65969C5.01792 7.70753 5.08967 7.68361 5.28102 7.61185C5.52021 7.49226 5.78332 7.37266 5.97467 7.61185Z" fill="#777777"/><path id="Vector_43" d="M11.0323 2.80651C10.9127 2.83043 10.9127 3.06962 10.9366 3.30881L10.9127 3.59583L10.6974 3.64367L10.5778 3.69151C10.5539 3.76326 10.6496 3.90677 10.8409 4.14596L10.9605 4.36123L10.8888 4.48082L11.0084 4.69609L11.1519 4.76785L11.2476 4.9592L11.4389 4.83961L11.3671 4.50474C11.3193 4.1938 11.3193 3.83502 11.3671 3.83502C11.4628 3.8111 11.5346 4.1938 11.6063 4.50474L11.702 4.83961L12.0369 5.03095L12.1565 4.67217L12.4196 4.52866L12.5392 4.24164L12.3957 4.21772C12.2521 4.21772 12.0369 4.21772 12.013 4.02637L12.0608 3.83502C12.2043 3.52408 12.2521 3.30881 12.013 3.14138L11.9173 3.21313L11.702 3.30881L11.5346 3.1653C11.415 3.02178 11.2236 2.75868 11.0323 2.80651Z" fill="#777777"/><path id="Vector_44" d="M9.3227 3.83188L9.17919 4.07106L9.08351 4.19066C9.08351 4.21458 9.13135 4.26241 9.44229 4.31025C9.41838 4.16674 9.39446 3.95147 9.58581 3.87971L9.92067 3.92755L9.77716 3.64053L9.53797 3.13823C9.60972 3.04256 9.92067 3.40134 10.0403 3.56877C10.1599 3.78404 10.2316 3.95147 10.2555 4.04714L10.4947 4.1189L10.3034 3.71228L10.3273 3.59269C10.423 3.40134 10.5665 3.37742 10.6861 3.40134V3.3535L10.6621 3.11432L10.6861 2.94688L10.4469 2.9708L10.2794 3.01864L10.1838 2.77945C10.1838 2.61202 10.1599 2.15757 9.94459 2.10973L9.80107 2.30108L9.58581 2.49243L9.37054 2.34892C9.10743 2.06189 8.94 1.9423 8.70081 2.10973C8.53338 2.22932 8.65298 2.51635 8.79649 2.77945L8.84433 2.9708L8.70081 3.0904L8.50946 3.25783C8.48555 3.4731 8.72473 3.56877 9.01176 3.64053C9.17919 3.64053 9.3227 3.68836 9.3227 3.83188Z" fill="#777777"/><path id="Vector_45" d="M5.98768 6.24986L5.82025 6.03459H5.79633L6.03552 5.89108L6.17903 5.7954L6.0116 5.60405C5.48539 5.36487 5.41363 5.22135 5.43755 5.1496L5.60498 5.03L5.74849 4.93433L5.77241 4.67122C5.72457 4.3842 5.70065 4.21677 5.84417 4.14501L6.08335 4.31244L6.2747 4.47987L6.56173 4.26461L6.6574 4.12109L6.82483 4.59947C6.84875 4.7669 6.87267 4.88649 6.96835 4.91041L7.25537 4.79082L7.35105 4.71906L7.47064 5.12568C7.47064 5.29311 7.49456 5.38878 7.56631 5.46054C7.61415 5.50838 7.73374 5.55622 7.90118 5.43662L8.37955 5.60405L8.49914 5.62797L8.45131 5.7954C7.99685 5.62797 7.66199 5.72365 7.49456 5.74757L7.4228 5.77148H7.32713L7.06402 5.86716L7.0401 5.89108C6.92051 5.7954 6.75308 5.65189 6.60957 5.48446C6.3943 5.22135 6.29862 4.91041 6.22687 4.95825C6.08335 5.00609 6.2747 5.43662 6.37038 5.58013C6.53781 5.7954 6.84875 6.08243 7.01618 6.20202V6.22594L7.06402 6.5608C6.89659 6.63256 6.84875 6.77607 6.82483 6.87174V6.89566H6.777H6.75308L6.68132 6.65648L6.53781 6.34553L6.15511 6.36945L6.0116 6.41729L5.98768 6.24986Z" fill="#777777"/><path id="Vector_46" d="M8.19033 4.71456L8.11857 4.95375L8.07074 5.09726C8.07074 5.26469 8.16641 5.28861 8.42952 5.31253L8.76438 5.47996V5.69522H8.81222C9.00357 5.74306 9.171 5.88657 9.26667 6.12576L9.36235 6.07792H9.62545C9.8168 6.14968 9.9364 6.38887 10.0082 6.53238C10.1277 6.48454 10.3909 6.41279 10.5822 6.67589L10.8692 6.69981L10.9888 6.53238C10.9171 6.46062 10.8214 6.34103 10.8214 6.1736C10.5583 6.29319 10.2473 6.29319 9.91248 6.14968C9.67329 6.05401 9.50586 5.86266 9.45802 5.69522L9.50586 5.45604C9.26667 5.04942 9.31451 4.7624 9.38627 4.59497C9.12316 4.54713 8.86005 4.47537 8.83614 4.2601H8.7883L8.57303 4.16443C8.33384 3.997 8.09466 3.8774 7.90331 4.09267C7.80763 4.18835 7.85547 4.30794 8.04682 4.49929L8.19033 4.71456Z" fill="#777777"/><path id="Vector_47" d="M9.98913 1.83086C10.3718 1.8787 10.4197 2.38099 10.4197 2.66802L10.7545 2.69193L10.9459 2.57234L11.2807 2.62018C11.3286 2.33315 11.3525 1.92654 11.3047 1.85478L11.1851 1.95045L11.0416 1.97437L10.9698 1.83086C10.9937 1.59167 10.9698 1.20898 10.8502 1.18506L10.7067 1.23289L10.5153 1.32857L10.3718 1.20898C10.2762 1.06546 10.013 0.778438 9.84562 0.850194C9.70211 0.921951 9.8217 1.23289 9.89345 1.40032L9.91737 1.68735L9.72602 1.75911L9.55859 1.85478L9.63035 2.04613C9.70211 1.92654 9.8217 1.80694 9.98913 1.83086Z" fill="#777777"/><path id="Vector_48" d="M12.5009 4.1845L12.4844 4.16797L12.5009 4.1845Z" fill="#777777"/><path id="Vector_49" d="M16.4032 7.88762L16.3867 7.87109L16.4032 7.88762Z" fill="#777777"/><path id="Vector_50" d="M14.1532 42.6991C14.1771 42.7947 13.8665 42.8425 13.6753 42.8425C13.4124 42.8425 13.1495 42.7947 13.1734 42.6752C13.1973 42.5557 13.4363 42.5796 13.6753 42.6035C13.8426 42.6035 14.1293 42.6035 14.1532 42.6991Z" fill="#777777"/><path id="Vector_51" d="M6.91401 32.7118H6.79441L6.69874 32.6639C6.69874 32.6639 6.38779 32.3052 5.95726 32.3052C5.64631 32.3052 5.38321 32.4248 5.14402 32.5204C4.92875 32.6161 4.71349 32.7118 4.4743 32.7118H3.82849L3.7089 32.5922V28.9805L3.42188 29.1718V32.8314H6.29212L6.38779 32.8792C6.38779 32.8792 6.57914 33.0945 6.86617 33.1184H6.98576C7.27279 33.0945 7.46414 32.8792 7.46414 32.8792L7.55981 32.8314H10.4301V29.1718L10.143 28.9805V32.5922L10.0234 32.7118H9.37763C9.16236 32.7118 8.9471 32.6161 8.70791 32.5204C8.4448 32.4008 8.1817 32.3052 7.89467 32.3052C7.46414 32.3052 7.15319 32.6639 7.15319 32.6639L7.05752 32.7118H6.91401Z" fill="#777777"/><path id="Vector_52" d="M10.6525 32.9423L10.5329 33.0618H7.59089C7.51914 33.1336 7.30387 33.301 7.01684 33.325H6.82549C6.51455 33.301 6.29928 33.1336 6.22753 33.0618H3.26161L3.14201 32.9423V29.2109H2.87891V33.3728H6.20361L6.29928 33.4206C6.29928 33.4206 6.44279 33.5881 6.72982 33.6359H7.11252C7.37562 33.5881 7.51914 33.4206 7.51914 33.4206L7.61481 33.3728H10.9395V29.2109H10.6764V32.9423H10.6525Z" fill="#777777"/><path id="Vector_53" d="M6.27715 29.0462L6.22931 29.094C6.15755 29.0701 5.91836 29.0462 5.67918 29.1179L5.27256 29.2854L5.05729 29.381C4.77027 29.5006 4.555 29.5245 4.48324 29.5245L4.43541 29.4767L4.48324 29.4289C4.53108 29.4289 4.74635 29.4049 5.00945 29.2854L5.22472 29.1897L5.63134 29.0222C5.94228 28.9505 6.22931 28.9983 6.22931 28.9983L6.27715 29.0462ZM6.27715 29.7876L6.22931 29.8355C6.15755 29.8116 5.91836 29.7876 5.67918 29.8594L5.27256 30.0268L5.05729 30.1225C4.77027 30.2421 4.555 30.266 4.48324 30.266L4.43541 30.2182L4.48324 30.1464C4.53108 30.1464 4.74635 30.1225 5.00945 30.0029L5.22472 29.9072L5.63134 29.7398C5.94228 29.6681 6.22931 29.7159 6.22931 29.7159L6.27715 29.7876ZM6.27715 30.553L6.22931 30.6009C6.15755 30.577 5.91836 30.553 5.67918 30.6248L5.27256 30.7922L5.08121 30.864C4.79419 30.9836 4.57892 31.0075 4.50716 31.0075L4.45932 30.9597L4.50716 30.9118C4.555 30.9118 4.77027 30.8879 5.03337 30.7683L5.24864 30.6726L5.65526 30.5052C5.9662 30.4335 6.25323 30.4813 6.25323 30.4813L6.27715 30.553ZM6.27715 31.3184L6.22931 31.3663C6.15755 31.3424 5.91836 31.3184 5.67918 31.3902L5.27256 31.5576L5.05729 31.6533C4.77027 31.7729 4.555 31.7968 4.48324 31.7968L4.43541 31.749L4.48324 31.7011C4.53108 31.7011 4.74635 31.6772 5.00945 31.5576L5.22472 31.462L5.63134 31.2945C5.94228 31.2228 6.22931 31.2706 6.22931 31.2706L6.27715 31.3184ZM5.87053 28.3047C5.41607 28.3047 5.17689 28.4721 4.98554 28.6395C4.8181 28.7591 4.67459 28.8787 4.45932 28.8787H3.95703V32.4665H4.48324C4.65067 32.4665 4.84202 32.3948 5.05729 32.2991C5.3204 32.1795 5.63134 32.0599 5.9662 32.0599C6.3489 32.0599 6.65984 32.2752 6.80336 32.4187C6.80336 32.0838 6.80336 28.807 6.80336 28.807C6.77944 28.7352 6.63593 28.3047 5.87053 28.3047Z" fill="#777777"/><path id="Vector_54" d="M7.0336 32.7118H6.91401H6.79441L6.69874 32.6639C6.69874 32.6639 6.38779 32.3052 5.95726 32.3052C5.67023 32.3052 5.40713 32.4248 5.14402 32.5204C4.90483 32.6161 4.68957 32.7118 4.4743 32.7118H3.82849L3.7089 32.5922V28.9805L3.42188 29.1718V32.8314H6.29212L6.38779 32.8792C6.38779 32.8792 6.57914 33.0945 6.86617 33.1184H6.98576C7.27279 33.0945 7.46414 32.8792 7.46414 32.8792L7.55981 32.8314H10.4301V29.1718L10.143 28.9805V32.5922L10.0234 32.7118H9.37763C9.16236 32.7118 8.9471 32.6161 8.70791 32.5204C8.4448 32.4008 8.1817 32.3052 7.89467 32.3052C7.46414 32.3052 7.15319 32.6639 7.15319 32.6639L7.0336 32.7118Z" fill="#777777"/><path id="Vector_55" d="M10.9156 29.2109H10.6525V32.9423L10.5329 33.0618H7.59089C7.51914 33.1336 7.30387 33.301 7.01684 33.325H6.82549C6.51455 33.301 6.29928 33.1336 6.22753 33.0618H3.26161L3.14201 32.9423V29.2109H2.87891V33.3728H6.20361L6.29928 33.4206C6.29928 33.4206 6.44279 33.5881 6.72982 33.6359H7.11252C7.37562 33.5881 7.51914 33.4206 7.51914 33.4206L7.61481 33.3728H10.9395V29.2109H10.9156Z" fill="#777777"/><path id="Vector_56" d="M9.29914 29.4962C9.22738 29.4962 9.01212 29.4723 8.72509 29.3527L8.50982 29.257L8.1032 29.0896C7.86402 29.0418 7.62483 29.0657 7.55307 29.0657L7.48132 29.0178L7.52916 28.9461C7.52916 28.9461 7.8401 28.8743 8.12712 28.97L8.55766 29.1374L8.77293 29.2331C9.03603 29.3527 9.2513 29.3766 9.29914 29.3766L9.34698 29.4245L9.29914 29.4962ZM9.29914 30.2616C9.22738 30.2616 9.01212 30.2377 8.72509 30.1181L8.50982 30.0224L8.12712 29.855C7.88794 29.7832 7.64875 29.8311 7.57699 29.8311L7.50524 29.7832L7.55307 29.7115C7.55307 29.7115 7.86402 29.6397 8.15104 29.7354L8.55766 29.9028L8.77293 29.9985C9.03603 30.1181 9.2513 30.142 9.29914 30.142L9.34698 30.1899L9.29914 30.2616ZM9.29914 31.027C9.22738 31.027 9.01212 31.0031 8.72509 30.8835L8.50982 30.7878L8.1032 30.6204C7.86402 30.5726 7.62483 30.5965 7.55307 30.5965L7.48132 30.5486L7.52916 30.4769C7.52916 30.4769 7.8401 30.4291 8.12712 30.5008L8.53374 30.6682L8.74901 30.7639C9.01212 30.8835 9.22738 30.9074 9.27522 30.9074L9.32306 30.9553L9.29914 31.027ZM9.29914 31.7685C9.22738 31.7685 9.01212 31.7446 8.72509 31.625L8.50982 31.5293L8.1032 31.3619C7.86402 31.314 7.62483 31.338 7.55307 31.338L7.48132 31.2901L7.52916 31.2184C7.52916 31.2184 7.8401 31.1705 8.12712 31.2423L8.53374 31.4097L8.74901 31.5054C9.01212 31.625 9.22738 31.6489 9.27522 31.6489L9.32306 31.6967L9.29914 31.7685ZM9.3709 28.8504C9.15563 28.8504 9.01212 28.7308 8.84468 28.6112C8.62942 28.4677 8.39023 28.2764 7.95969 28.2764C7.19429 28.2764 7.05078 28.7308 7.05078 28.7069V32.3665C7.19429 32.223 7.50524 32.0077 7.88794 32.0077C8.24672 32.0077 8.53374 32.1273 8.79685 32.2469C9.01212 32.3425 9.20347 32.4143 9.3709 32.4143H9.87319V28.8265H9.3709V28.8504Z" fill="#777777"/><path id="Vector_57" d="M17.2348 32.7118H17.3544L17.4501 32.6639C17.4501 32.6639 17.761 32.3052 18.1915 32.3052C18.5025 32.3052 18.7656 32.4248 19.0048 32.5204C19.244 32.6161 19.4592 32.7118 19.6745 32.7118H20.3203L20.4399 32.5922V28.9805L20.7269 29.1718V32.8314H17.8567L17.761 32.8792C17.761 32.8792 17.5697 33.0706 17.2826 33.1184H17.163C16.876 33.0945 16.6847 32.8792 16.6847 32.8792L16.589 32.8314H13.7188V29.1718L14.0058 28.9805V32.5922L14.1254 32.7118H14.7712C14.9864 32.7118 15.2017 32.6161 15.4409 32.5204C15.704 32.4008 15.9432 32.3052 16.2541 32.3052C16.6847 32.3052 16.9956 32.6639 16.9956 32.6639L17.0913 32.7118H17.2348Z" fill="#777777"/><path id="Vector_58" d="M20.965 32.9423L20.8454 33.0618H17.8795C17.8077 33.1336 17.5924 33.301 17.3054 33.325H17.1141C16.8031 33.301 16.5879 33.1336 16.5161 33.0618H13.5741L13.4545 32.9423V29.2109H13.1914V33.3728H16.5161L16.6118 33.4206C16.6118 33.4206 16.7553 33.5881 17.0423 33.6359H17.425C17.6881 33.5881 17.8316 33.4206 17.8316 33.4206L17.9273 33.3728H21.252V29.2109H20.9889V32.9423H20.965Z" fill="#777777"/><path id="Vector_59" d="M17.3578 32.7118H17.2382H17.1186L17.023 32.6639C17.023 32.6639 16.712 32.3052 16.2815 32.3052C15.9705 32.3052 15.7313 32.4248 15.4682 32.5204C15.2291 32.6161 15.0138 32.7118 14.7985 32.7118H14.1527L14.0331 32.5922V28.9805L13.7461 29.1718V32.8314H16.6163L16.712 32.8792C16.712 32.8792 16.9034 33.0945 17.1904 33.1184H17.31C17.597 33.0945 17.7884 32.8792 17.7884 32.8792L17.884 32.8314H20.7543V29.1718L20.4673 28.9805V32.5922L20.3477 32.7118H19.7019C19.4866 32.7118 19.2713 32.6161 19.0321 32.5204C18.769 32.4008 18.5059 32.3052 18.2189 32.3052C17.7884 32.3052 17.4774 32.6639 17.4774 32.6639L17.3578 32.7118Z" fill="#777777"/><path id="Vector_60" d="M21.2281 29.2109H20.965V32.9423L20.8454 33.0618H17.8795C17.8077 33.1336 17.5924 33.301 17.3054 33.325H17.1141C16.8031 33.301 16.5879 33.1336 16.5161 33.0618H13.5741L13.4545 32.9423V29.2109H13.1914V33.3728H16.5161L16.6118 33.4206C16.6118 33.4206 16.7553 33.5881 17.0423 33.6359H17.425C17.6881 33.5881 17.8316 33.4206 17.8316 33.4206L17.9273 33.3728H21.252V29.2109H21.2281Z" fill="#777777"/><path id="Vector_61" d="M16.5145 30.6009C16.4427 30.577 16.2035 30.553 15.9643 30.6248L15.5577 30.7922L15.3664 30.864C15.0793 30.9836 14.8641 31.0075 14.7923 31.0075L14.7445 30.9597L14.7923 30.9118C14.8402 30.9118 15.0554 30.8879 15.3185 30.7683L15.5338 30.6726L15.9643 30.5052C16.2753 30.4335 16.5623 30.4813 16.5623 30.4813L16.6101 30.553L16.5145 30.6009ZM16.5145 31.3663C16.4427 31.3424 16.2035 31.3184 15.9643 31.3902L15.5577 31.5576L15.3424 31.6533C15.0554 31.7729 14.8402 31.7968 14.7684 31.7968L14.7206 31.749L14.7684 31.7011C14.8162 31.7011 15.0315 31.6772 15.2946 31.5576L15.5099 31.462L15.9165 31.2945C16.2274 31.2228 16.5145 31.2706 16.5145 31.2706L16.5384 31.3424L16.5145 31.3663ZM14.7923 30.1464C14.8402 30.1464 15.0554 30.1225 15.3185 30.0029L15.5338 29.9072L15.9404 29.7398C16.2514 29.6681 16.5384 29.7159 16.5384 29.7159L16.5862 29.7876L16.5145 29.8355C16.4427 29.8116 16.2035 29.7876 15.9643 29.8594L15.5577 30.0268L15.3424 30.1225C15.0554 30.2421 14.8402 30.266 14.7684 30.266L14.7206 30.2182L14.7923 30.1464ZM14.7923 29.381C14.8402 29.381 15.0554 29.3571 15.3185 29.2375L15.5338 29.1418L15.9643 28.9744C16.2753 28.9027 16.5623 28.9505 16.5623 28.9505L16.6101 29.0222L16.5384 29.0701C16.4666 29.0462 16.2274 29.0222 15.9883 29.094L15.5816 29.2614L15.3664 29.3571C15.0793 29.4767 14.8641 29.5006 14.7923 29.5006L14.7445 29.4528L14.7923 29.381ZM16.1557 28.3047C15.7012 28.3047 15.462 28.4721 15.2707 28.6395C15.1033 28.7591 14.9597 28.8787 14.7445 28.8787H14.2422V32.4665H14.7684C14.9358 32.4665 15.1272 32.3948 15.3424 32.2991C15.6056 32.1795 15.9165 32.0599 16.2514 32.0599C16.6341 32.0599 16.945 32.2752 17.0885 32.4187C17.0885 32.0838 17.0885 28.807 17.0885 28.807C17.0646 28.7352 16.945 28.3047 16.1557 28.3047Z" fill="#777777"/><path id="Vector_62" d="M17.846 31.2467L17.7982 31.3184L17.87 31.3663C17.9417 31.3424 18.1809 31.3184 18.4201 31.3902L18.8267 31.5576L19.042 31.6533C19.329 31.7729 19.5443 31.7968 19.616 31.7968L19.6639 31.749L19.616 31.7011C19.5682 31.7011 19.3529 31.6772 19.0898 31.5576L18.8745 31.462L18.4679 31.2945C18.2048 31.1989 17.9417 31.2228 17.846 31.2467ZM17.846 30.4813L17.7982 30.553L17.87 30.6009C17.9417 30.577 18.1809 30.553 18.4201 30.6248L18.8267 30.7922L19.042 30.8879C19.329 31.0075 19.5443 31.0314 19.616 31.0314L19.6639 30.9836L19.616 30.9357C19.5682 30.9357 19.3529 30.9118 19.0898 30.7922L18.8745 30.6966L18.4679 30.5291C18.2048 30.4335 17.9417 30.4574 17.846 30.4813ZM17.846 28.9505L17.7982 29.0222L17.87 29.0701C17.9417 29.0462 18.1809 29.0222 18.4201 29.094L18.8028 29.2614L19.0181 29.3571C19.3051 29.4767 19.5204 29.5006 19.5921 29.5006L19.6399 29.4528L19.5921 29.381C19.5443 29.381 19.329 29.3571 19.0659 29.2375L18.8506 29.1418L18.444 28.9744C18.157 28.8787 17.846 28.9505 17.846 28.9505ZM17.846 29.7398L17.7982 29.8116L17.87 29.8594C17.9417 29.8355 18.1809 29.8116 18.4201 29.8833L18.8267 30.0508L19.042 30.1464C19.329 30.266 19.5443 30.2899 19.616 30.2899L19.6639 30.2421L19.616 30.1943C19.5682 30.1943 19.3529 30.1703 19.0898 30.0508L18.8745 29.9551L18.4679 29.7876C18.157 29.6681 17.846 29.7398 17.846 29.7398ZM18.1809 32.036C17.7982 32.036 17.4873 32.2513 17.3438 32.3948V28.7352C17.3438 28.7591 17.4873 28.3047 18.2527 28.3047C18.7071 28.3047 18.9463 28.4721 19.1377 28.6395C19.3051 28.7591 19.4486 28.8787 19.6639 28.8787H20.1662V32.4665H19.6399C19.4725 32.4665 19.2812 32.3948 19.0659 32.2991C18.8267 32.1556 18.5397 32.036 18.1809 32.036Z" fill="#777777"/><path id="Vector_63" d="M9.46006 39.7182L9.29263 39.5508L9.07736 39.7182L8.86209 39.766C8.62291 39.8139 8.31196 39.8617 8.19237 40.1009L8.14453 40.3879L8.21629 40.675L8.31196 40.6271C8.24021 40.364 8.38372 40.1009 8.43156 40.1248L8.45547 40.4119L8.47939 40.5314L8.57507 40.4358C8.59899 40.2205 8.76642 40.1009 8.88601 40.1009L9.02952 40.1487L9.62749 40.2205C9.60357 40.077 9.5079 39.8139 9.46006 39.7182Z" fill="#777777"/><path id="Vector_64" d="M13.1747 40.9792L13.103 40.9313C12.9355 40.9313 12.1941 40.8117 12.0745 40.7878C12.0745 40.7878 11.9788 40.7639 11.7157 40.8596C11.5004 40.9552 11.3569 41.0988 11.2852 41.2662L11.4047 41.3379C11.4765 41.2423 11.5722 41.1227 11.7396 41.0509L12.1941 41.0031C12.2419 41.027 12.0027 41.0988 11.8114 41.2423L11.62 41.4575H11.6439L11.931 41.4097L12.1941 41.3619C12.3137 41.3379 13.6531 41.3619 14.0119 41.3619L14.0597 41.2423C13.8684 41.1944 13.5096 41.1227 13.1747 40.9792Z" fill="#777777"/><path id="Vector_65" d="M16.1299 36.8019C14.2164 34.4818 11.5375 35.606 11.4179 35.6538C10.8917 35.7734 10.4373 35.9887 10.1502 36.1561L9.83931 36.2996L8.85864 36.4192C8.57162 36.491 8.165 36.7062 7.6627 36.9693L7.28 37.1607C6.68204 37.4955 6.58636 37.7586 6.58636 37.7586L6.51461 37.8304L6.37109 37.9739V37.9978V38.0217L6.49069 37.95L6.65812 37.9978L6.61028 38.1653L6.46677 38.237C6.56244 38.4045 6.70596 38.4284 6.70596 38.4523L6.75379 38.4284C6.87339 38.3805 7.20825 38.2849 7.35176 38.6915V38.9067L7.18433 39.0742H7.56703H7.63879L7.7823 39.0503C8.11716 38.9785 8.49986 38.9307 8.73905 38.9785C9.07391 39.0503 9.55228 39.3612 9.67188 39.5525L9.93498 40.4136C9.91106 40.4854 9.88714 40.7485 9.60012 40.892C9.43269 40.9877 9.24134 40.9877 9.09783 40.9637H8.9304L8.71513 41.2508H8.85864L9.12175 41.0833L9.09783 41.2508H9.38485H9.50445C9.67188 41.2508 9.98282 41.2747 10.0785 41.179L10.222 41.0594L10.6525 40.7006L11.107 40.3419L11.2983 40.1984C11.394 40.1266 11.394 39.5525 11.3223 38.9546L11.4419 38.8111L11.5854 38.9307C11.6093 39.1698 11.6571 39.6482 11.6093 40.007L11.6332 40.0309C11.992 40.2701 12.3747 40.4136 12.6856 40.4854C12.566 40.3419 12.4704 40.1744 12.3986 39.9592C12.3508 39.8157 12.3269 39.6721 12.3269 39.5286C12.3269 39.0742 12.59 38.7393 12.8291 38.4523C12.9966 38.2131 13.164 38.0218 13.164 37.8304V37.7826V37.8065L13.2836 37.6869L13.4271 37.7826C13.4749 38.1174 13.2597 38.3805 13.0444 38.6676C12.7574 39.0263 12.4704 39.3851 12.6617 39.9352C12.7813 40.294 12.9727 40.5332 13.2118 40.6767L13.2358 40.7006L13.3075 40.7485C13.7141 40.9638 14.2403 40.9877 14.2403 40.9877L14.336 41.0355L14.3599 41.1312C14.3599 41.1551 14.336 41.3464 14.2164 41.5139L14.1686 41.5856L14.0729 41.7052L13.6185 42.0401C13.2597 42.2793 12.7096 42.6381 12.1116 43.1404C11.394 43.7383 10.9635 44.5755 11.0831 44.9343C11.107 45.006 11.1548 45.0778 11.2983 45.1017C12.5182 45.2213 13.2358 44.4559 13.8576 43.7862L14.0251 43.6187C14.4556 43.1643 14.7666 42.6141 14.9818 42.2554C15.1253 41.9923 15.1971 41.8966 15.2689 41.8487C15.7711 41.49 16.5605 40.4375 16.7279 39.1698C16.8714 38.237 16.6561 37.4477 16.1299 36.8019ZM8.28459 36.9932L8.47594 36.9215H8.59553L8.66729 36.9932L8.76296 37.1128C8.83472 37.1368 9.00215 36.8258 8.73905 36.6823L8.45202 36.6584C8.23675 36.7541 8.18892 36.9454 8.28459 36.9932ZM7.49527 38.4044L7.42352 37.9978C7.49527 37.8304 8.0454 37.6151 8.0454 37.5195C8.0454 37.4238 7.32784 37.663 7.20825 37.8782C7.06474 38.1413 7.37568 38.4523 7.49527 38.4044ZM15.9386 38.4762V38.5958L15.9864 38.6436L16.0821 38.6676L16.106 38.5719L16.0343 38.4762H15.9386ZM16.2017 38.1174V38.2609L16.2974 38.3805L16.417 38.4044L16.4409 38.2849L16.3213 38.1174H16.2017ZM15.0057 38.2849L15.0297 38.4044L15.1253 38.4762H15.221V38.3566L15.1014 38.2609L15.0057 38.2849ZM15.1732 37.9022L15.1971 38.0217L15.3645 38.1413H15.4841V38.0217L15.2928 37.8543L15.1732 37.9022ZM15.3167 37.4477L15.3645 37.6151C15.3645 37.6151 15.4602 37.639 15.6276 37.7826H15.7711V37.663C15.532 37.4477 15.4841 37.4238 15.4841 37.4238L15.3167 37.4477ZM15.4124 36.8497L15.4602 37.0172C15.4602 37.0172 15.6037 37.0889 15.8429 37.2803H15.9864V37.1368C15.7233 36.8737 15.6037 36.8019 15.5798 36.8019L15.4124 36.8497ZM14.1925 37.5434L14.2643 37.6391L14.4795 37.6869L14.5752 37.663L14.5513 37.5673L14.2882 37.4716L14.1925 37.5434ZM14.2164 37.065L14.2882 37.1846L14.623 37.3042L14.7426 37.2803L14.7187 37.1607C14.4556 37.0172 14.3839 37.0172 14.336 37.0172L14.2164 37.065ZM14.1447 36.5149L14.2403 36.6584C14.2403 36.6584 14.5274 36.7301 14.7426 36.8258L14.8622 36.778L14.8144 36.6584C14.5274 36.5149 14.2882 36.4431 14.2882 36.4431L14.1447 36.5149ZM14.0012 35.9169L14.0968 36.0604C14.0968 36.0604 14.4795 36.18 14.7426 36.2996L14.8862 36.2518L14.8383 36.1083C14.5274 35.9408 14.1686 35.8212 14.1447 35.8212L14.0012 35.9169ZM11.2983 38.1174L11.2266 38.0457L10.9156 37.9739L10.82 38.0935L10.9156 38.2131L11.2505 38.1892L11.2983 38.1174ZM11.394 37.4955L11.2983 37.4238L10.8678 37.3999L10.7721 37.5434L10.8917 37.663L11.3223 37.5673L11.394 37.4955ZM11.394 36.8258L11.2983 36.778L10.7482 36.8737L10.6525 37.0411L10.82 37.1607L11.3462 36.9454L11.394 36.8258ZM11.2744 36.2039L11.1788 36.18L10.4851 36.4192L10.4373 36.6105L10.6047 36.7062L11.2744 36.3474V36.2039ZM7.32784 37.3042L7.25609 37.3281L7.18433 37.4955L7.35176 37.5673L7.42352 37.5434L7.49527 37.3759L7.32784 37.3042ZM12.4464 44.4559L12.0398 44.3841C11.8246 44.3841 11.6332 44.3602 11.6093 44.4559C11.5854 44.5516 11.8246 44.5755 12.0398 44.5755L12.4464 44.4559ZM13.0923 43.8579C13.0683 43.7622 12.7574 43.7622 12.566 43.7622C12.279 43.7622 12.0159 43.7144 11.992 43.834C11.9681 43.9536 12.279 43.9775 12.566 43.9775C12.7574 44.0014 13.0923 43.9536 13.0923 43.8579ZM13.6663 43.2839C13.6902 43.3795 13.3075 43.4274 13.0923 43.4274C12.7813 43.4274 12.4704 43.3795 12.4943 43.2599C12.5182 43.1404 12.8052 43.1643 13.1162 43.1882C13.2836 43.1882 13.6424 43.1643 13.6663 43.2839Z" fill="#777777"/><path id="Vector_66" d="M19.3125 41.6517C19.5278 41.6756 19.7909 41.6517 20.0061 41.556C20.2214 41.4604 20.3649 41.3168 20.5084 41.1494C20.6759 41.3886 21.0586 41.9627 21.2021 42.1779C20.9629 42.4889 20.6519 42.8237 20.3171 43.1107L19.3125 41.6517Z" fill="#777777"/><path id="Vector_67" d="M3.66335 41.167C3.78295 41.3344 3.95038 41.4779 4.14173 41.5736C4.38092 41.6693 4.6201 41.6932 4.83537 41.6693L3.80687 43.1283C3.47201 42.8413 3.16106 42.5064 2.92188 42.1955C3.08931 41.9802 3.49592 41.4062 3.66335 41.167Z" fill="#777777"/><path id="Vector_68" d="M7.04345 49.874L7.2348 49.6826L7.42615 49.5391C7.66534 49.3238 8.0002 49.0607 8.21547 48.8455C8.74168 49.0846 9.17221 49.3238 9.45924 49.6348C9.67451 49.874 9.69843 50.1849 9.55491 50.3763L9.4114 50.5198L9.07654 50.8785H8.88519C7.85669 50.8785 7.16304 50.5198 7.01953 50.1849L7.04345 49.874Z" fill="#777777"/><path id="Vector_69" d="M16.7832 49.5262L16.9746 49.6697L17.1659 49.861L17.2138 50.172C17.0703 50.5068 16.3766 50.8656 15.3481 50.8656H15.1568L14.8219 50.4829L14.6545 50.3394C14.5349 50.2198 14.511 49.8371 14.7502 49.5979C15.0372 49.287 15.4677 49.0239 15.9939 48.8086C16.2092 49.0717 16.5441 49.3348 16.7832 49.5262Z" fill="#777777"/><path id="Vector_70" d="M3.1544 43.6133L3.25007 43.6851L3.32183 43.5416L2.93913 43.1589L2.86737 43.3024L3.01088 43.4459L2.36508 44.1635L2.55643 42.9436L2.69994 43.0871L2.7717 42.9436C2.62818 42.7762 2.48467 42.5848 2.36508 42.4174L2.2694 42.537L2.34116 42.6566L2.07805 44.307L2.19765 44.4983C2.48467 44.307 3.05872 43.709 3.1544 43.6133ZM6.95747 45.8617C6.79004 45.7899 6.62261 45.6943 6.45518 45.6225L6.38342 45.766L6.55085 45.8617C6.3595 46.2444 6.0964 47.1055 5.7137 46.8424C5.42667 46.651 5.54627 46.4357 5.68978 46.1248C5.78545 45.9574 5.88113 45.7421 5.9768 45.5507L6.14423 45.6464L6.21599 45.5029C6.02464 45.4072 5.85721 45.3116 5.66586 45.2159L5.5941 45.3594L5.7137 45.4312L5.54627 45.8139C5.35492 46.1966 5.16357 46.5075 5.35492 46.7945L5.54627 46.962L5.88113 47.0815C6.33558 47.1294 6.55085 46.5075 6.79004 45.9813L6.90963 46.0291L6.95747 45.8617ZM8.34476 46.5314C7.96206 46.3161 7.55544 46.1487 7.14882 45.9574L6.95747 46.3401L7.1249 46.4357L7.29233 46.2205L7.57936 46.3162C7.41193 46.6989 7.22058 47.0815 7.05314 47.4642L6.88571 47.3925L6.81396 47.536C7.02923 47.6317 7.22058 47.7274 7.43584 47.7991L7.5076 47.6556L7.34017 47.5599C7.5076 47.1772 7.69895 46.7706 7.86638 46.4118L8.10557 46.5793L8.00989 46.8184L8.17732 46.8902L8.34476 46.5314ZM3.68061 45.1202L3.89588 44.7375L3.77628 44.6418L3.70453 44.7375L3.46534 44.5701C3.53709 44.4266 3.63277 44.2591 3.70453 44.0917L3.99155 44.3548L3.94371 44.594L4.06331 44.6897L4.25466 44.307C3.99155 44.0917 3.72844 43.9004 3.46534 43.6851L3.39358 43.8286L3.51318 43.9243C3.32183 44.307 3.1544 44.6179 2.96305 45.0245L2.84345 44.9289L2.7717 45.0724C3.0348 45.3116 3.27399 45.5268 3.56101 45.7421L3.8002 45.4072V45.3833L3.68061 45.2637L3.48926 45.479L3.17831 45.2159L3.4175 44.7375L3.63277 44.9289L3.58493 45.0724L3.68061 45.1202ZM5.06789 45.0245L5.13965 44.881C4.97222 44.7614 4.78087 44.6658 4.61344 44.5222L4.54168 44.6658L4.66127 44.7614C4.46992 45.1441 4.30249 45.5029 4.13506 45.8856L4.01547 45.8139L3.94371 45.9574C4.23074 46.1487 4.51776 46.3401 4.8287 46.5075L5.09181 46.1726V46.1487L4.97222 46.0291L4.75695 46.2444L4.42209 46.0291C4.42209 45.9334 4.8287 45.1681 4.9483 44.9049L5.06789 45.0245ZM7.38801 48.1818L7.26841 48.134C4.90046 47.2011 2.93913 45.9574 2.03022 44.7854C1.00171 43.5177 1.16914 42.4892 1.48009 41.8434L1.79103 41.1497L2.10197 40.5039C2.07805 40.8388 2.12589 41.2215 2.31724 41.6759C2.79561 42.824 4.42209 44.0678 5.68978 44.7854C6.21599 45.0963 6.76612 45.3355 7.26841 45.5747C8.70354 46.2205 9.82771 46.7467 9.82771 48.0144V49.5213V49.6887L9.66028 49.4017C9.15799 48.8755 8.34476 48.5406 7.38801 48.1818Z" fill="#777777"/><path id="Vector_71" d="M21.1337 43.9243C20.9184 43.7329 20.6793 43.6851 20.3444 43.9004L20.2009 44.0439C20.0574 44.1874 19.9856 44.3787 19.9856 44.594L20.0095 44.8571L20.1531 45.192C20.3683 45.5029 20.6075 45.5747 20.9663 45.4312C21.5164 45.192 21.5643 44.3309 21.1337 43.9243ZM21.0141 45.192C20.7032 45.4551 20.3444 45.0485 20.2487 44.6418C20.2009 44.4505 20.2009 44.2591 20.3205 44.1156L20.4162 44.02L20.6314 43.9482C21.0141 43.996 21.3968 44.881 21.0141 45.192ZM19.579 44.6658L19.6986 44.594L19.6268 44.4505C19.4594 44.5462 19.3159 44.6658 19.1485 44.7614L19.2202 44.9049L19.3637 44.8093C19.4116 45.0245 19.4833 45.6703 19.4833 45.8378L19.5072 46.0291L19.3159 45.8378L18.9332 45.4072L18.7658 45.2159L18.9332 45.0963L18.8854 44.9528C18.694 45.0724 18.5027 45.1681 18.3113 45.2876L18.3591 45.4312L18.4787 45.3594L18.7179 45.6225C18.9093 45.8139 19.0767 46.0052 19.2681 46.1966L19.5072 46.4357L19.6986 46.3162C19.6747 45.9335 19.6508 45.5747 19.6268 45.192C19.6268 45.0245 19.6029 44.8332 19.579 44.6658ZM18.4309 46.5075L18.4548 46.7467L18.0243 46.9859L17.8329 46.5314L18.1917 46.364L18.2635 46.4836L18.407 46.4118L18.2156 45.9813L18.0721 46.053L18.096 46.1966L17.7373 46.4118C17.6416 46.2205 17.5698 46.053 17.4981 45.8617L17.9286 45.6703L18.0721 45.8617L18.2156 45.766L18.0482 45.4072C17.7612 45.5508 17.4024 45.7421 17.1154 45.8856C17.0675 46.4118 17.0197 46.962 16.9719 47.4882L16.8523 47.5599L16.9001 47.7034C17.0675 47.6317 17.235 47.5599 17.4024 47.4882L17.3306 47.3447L17.1632 47.4164C17.1632 47.249 17.1871 47.0337 17.1871 46.8424L17.5938 46.651L17.809 47.1294L17.6655 47.2011L17.7373 47.3447C18.0482 47.2011 18.4309 47.0098 18.7418 46.8424L18.6223 46.4597L18.4309 46.5075ZM17.1871 46.6749C17.1871 46.4357 17.2111 46.2205 17.235 46.0052H17.2589C17.3546 46.1966 17.4263 46.364 17.522 46.5553L17.1871 46.6749ZM22.0665 44.7854C21.1576 45.9334 19.1963 47.1772 16.8284 48.1101L16.7088 48.1579C15.7759 48.5406 14.9627 48.8515 14.4604 49.4017L14.293 49.6887V49.5213V48.0144C14.293 46.7467 15.4171 46.2205 16.8523 45.5747C17.3785 45.3355 17.9047 45.0963 18.4309 44.7854C19.6747 44.0678 21.3011 42.8479 21.8034 41.6759C21.9948 41.2215 22.0426 40.8148 22.0187 40.5039L22.3297 41.1497L22.6406 41.8194C22.9276 42.4892 23.0951 43.5177 22.0665 44.7854Z" fill="#777777"/><path id="Vector_72" d="M13.7084 51.5563L13.5171 51.6042C13.3257 51.6759 13.1822 51.7955 13.0865 51.9629L12.9909 52.2021V52.537C13.0626 52.8958 13.254 53.111 13.6367 53.1589C14.2585 53.2546 14.6652 52.5609 14.426 51.9869C14.3303 51.6998 14.115 51.5563 13.7084 51.5563ZM13.7802 52.9914C13.3736 53.0632 13.2061 52.537 13.3018 52.1543C13.3496 51.9629 13.4214 51.7955 13.5649 51.7477L13.6845 51.7238L13.9237 51.7716C14.2825 51.9869 14.2825 52.9197 13.7802 52.9914ZM8.97251 51.5563H8.75725C8.58982 52.0108 8.39847 52.4892 8.23103 52.9436L8.08752 52.9675V53.111H8.63765V52.9675H8.47022L8.54198 52.6805C8.70941 52.6805 8.90076 52.6805 9.06819 52.6805L9.16386 52.9675H8.99643V53.111H9.5944V52.9675H9.45089L8.97251 51.5563ZM8.61373 52.537C8.68549 52.3217 8.75725 52.1065 8.829 51.8912H8.85292L9.06819 52.5131H8.61373V52.537ZM10.9817 52.8479L10.6947 52.4413V52.4174C10.9578 52.3456 11.1491 51.939 10.886 51.7238C10.6707 51.5563 10.2402 51.6042 9.88142 51.6042V51.7477H10.0249V52.9675H9.88142V53.111H10.4794V52.9675H10.312V52.4892H10.5033L10.8621 53.111H11.2448V52.9675H11.1013L10.9817 52.8479ZM10.288 52.3456C10.288 52.1304 10.288 51.939 10.288 51.7238L10.5272 51.7477C10.6947 51.8194 10.7903 52.0586 10.6468 52.2261C10.599 52.3456 10.4555 52.3456 10.288 52.3456ZM12.2972 52.2978C12.5603 52.1782 12.7038 51.8194 12.3929 51.652C12.1776 51.5324 11.7471 51.5802 11.4361 51.5802V51.7238H11.6036V52.9675L11.4361 52.9914V53.135C11.7949 53.135 12.2255 53.1828 12.4407 53.0393C12.6082 52.9436 12.7517 52.7044 12.6082 52.4892L12.2972 52.2978ZM11.8667 51.7238C12.0341 51.7238 12.1776 51.7238 12.2494 51.8194L12.2972 51.9869C12.2733 52.1782 12.1059 52.25 11.8667 52.2261C11.8667 52.0825 11.8667 51.9151 11.8667 51.7238ZM12.369 52.7762L12.0819 52.9914L11.8906 52.9675L11.8667 52.8479L11.8906 52.4413C12.1537 52.3935 12.4407 52.4892 12.369 52.7762ZM15.9329 52.8479L15.6458 52.4413V52.4174C15.9089 52.3456 16.1003 51.939 15.8133 51.7238C15.598 51.5563 15.1675 51.6042 14.8087 51.6042V51.7477H14.9522V52.9675H14.8087V53.111H15.4066V52.9675H15.2392V52.4892H15.4306L15.7893 53.111H16.172V52.9675H16.0285L15.9329 52.8479ZM15.2392 52.3456C15.2392 52.1304 15.2392 51.939 15.2392 51.7238L15.4784 51.7477C15.6458 51.8194 15.7415 52.0586 15.598 52.2261C15.5502 52.3456 15.4066 52.3456 15.2392 52.3456ZM17.368 50.5039V50.5517V52.6805C17.368 53.3263 16.2677 53.5655 15.3349 53.5655H8.87684C7.94401 53.5655 6.84375 53.3263 6.84375 52.6805V50.5517V50.5039C7.20253 50.9105 7.99185 51.1975 8.87684 51.1736H15.3349C16.2199 51.1736 17.0092 50.9105 17.368 50.5039Z" fill="#777777"/><path id="Vector_73" d="M11.3617 21.8434C11.1225 21.5563 10.7159 21.5085 10.5246 21.5085C10.094 21.5085 9.73525 21.6999 9.61566 21.8434L9.51998 21.8912C9.11337 21.8673 8.82634 21.9869 8.65891 22.2021C8.46756 22.4413 8.49148 22.7762 8.53932 22.9436V22.9675L8.65891 23.1589C8.61107 22.7044 8.8981 22.3935 9.20904 22.2261H9.32864C9.40039 22.3217 8.7785 22.7523 8.94594 23.2785C9.04161 23.6134 9.23296 23.7329 9.37647 23.7569L9.40039 23.7329L9.30472 23.5177V23.4459V23.422C9.20904 23.3263 9.11337 23.2067 9.11337 23.0393V22.9915C9.13729 22.8719 9.18512 22.7044 9.42431 22.6088L9.51998 22.5848L9.49607 22.537V22.4174C9.49607 22.1304 9.71133 21.8912 9.83093 21.7955L10.0462 21.7477C10.2136 21.7955 10.5724 21.963 10.6442 22.2978V22.3457H10.7398C10.9312 22.3457 11.0269 22.4174 11.0986 22.4892L11.2661 22.3935L10.9551 22.0826C10.7877 21.939 10.5724 21.8673 10.5724 21.8434L10.7398 21.7955L11.0029 21.8673C11.1465 21.939 11.29 22.0347 11.3856 22.1543V21.8434H11.3617ZM12.2946 24.4744L12.0554 24.7136L11.8401 24.4744L12.0554 24.2352L12.2946 24.4744ZM10.6202 21.2693L10.2375 21.1497C9.9266 21.0301 9.61566 20.9105 9.30472 20.9105C8.63499 20.9105 8.1327 21.3172 8.1327 21.8673C8.1327 22.0586 8.18054 22.25 8.25229 22.4413L8.41972 22.0586C8.63499 21.7716 8.96985 21.6281 9.44823 21.652C9.6635 21.4367 10.0701 21.2693 10.5007 21.2693H10.6202ZM15.5236 22.2261C15.3561 22.0108 15.0691 21.8912 14.6625 21.9151L14.5668 21.8673C14.4472 21.6999 14.0885 21.5324 13.6579 21.5324C13.4427 21.5324 13.06 21.5563 12.8208 21.8673V22.2021C12.9164 22.1065 13.036 22.0108 13.2035 21.9151L13.4666 21.8434L13.634 21.8912C13.634 21.9151 13.4427 21.9869 13.2513 22.1304L12.9404 22.4413L13.1078 22.537C13.1795 22.4653 13.2991 22.3935 13.4666 22.3935H13.5622V22.3457C13.634 21.9869 13.9928 21.8194 14.1602 21.7955L14.3755 21.8434C14.519 21.939 14.7103 22.1782 14.7103 22.4653V22.5848L14.6625 22.6088L14.7343 22.6327C14.9734 22.7523 15.0452 22.8958 15.0452 23.0154V23.0632C15.0452 23.2307 14.9495 23.3502 14.8778 23.4459V23.4698V23.5416L14.7821 23.7569H14.8299C14.9734 23.709 15.1409 23.5894 15.2366 23.2785C15.404 22.7284 14.7821 22.2978 14.8539 22.2261H14.9734C15.2844 22.3696 15.5714 22.7044 15.5236 23.1589L15.6432 22.9675V22.9436C15.691 22.8001 15.7149 22.4653 15.5236 22.2261ZM12.7968 21.365V21.5085L13.036 21.365H12.7968ZM15.9063 22.4413C15.978 22.25 16.0259 22.0586 16.0259 21.8673C16.0259 21.3172 15.5236 20.9105 14.8539 20.9105C14.5429 20.9105 14.232 21.0301 13.921 21.1497L13.5383 21.2693H13.6579C14.0885 21.2693 14.4951 21.4367 14.7103 21.652C15.1887 21.652 15.5236 21.7955 15.7388 22.0586L15.9063 22.4413ZM11.3617 21.365H11.1225L11.3617 21.5085V21.365ZM12.0554 26.6271C13.6579 26.6271 14.4712 26.3162 14.4712 26.1727C14.4712 26.0291 13.6579 25.7182 12.0554 25.7182C10.4528 25.7182 9.63958 26.0291 9.63958 26.1727C9.63958 26.2922 10.4528 26.6271 12.0554 26.6271ZM16.289 21.8673C16.289 22.5848 15.7149 23.3502 15.4757 23.6851V23.709C15.3561 23.9243 15.0691 24.1156 14.7103 23.9961C14.519 23.9243 14.3276 23.9004 14.2081 23.6851C14.1602 23.5655 14.1124 23.422 14.232 23.2546L14.3994 23.1828L14.4233 23.3263L14.4951 23.5655L14.6625 23.5416V23.3263C14.7582 23.2546 14.9974 23.0154 14.6625 22.848C14.3994 22.7284 14.1841 23.0871 14.1602 23.135L14.1124 23.1111C14.1602 22.848 14.3755 22.7762 14.4233 22.4892C14.4712 22.2739 14.3037 22.1065 14.232 22.0347L14.1124 22.0108C14.0167 22.0586 13.8254 22.1543 13.7775 22.3457C13.7297 22.6327 13.8971 22.7762 13.8493 23.0393H13.8014C13.8014 22.9915 13.7536 22.5848 13.4666 22.5848C13.1078 22.6088 13.2274 22.9197 13.2991 23.0154L13.2035 23.2067L13.347 23.3024L13.5144 23.1111L13.5862 22.9915L13.7058 23.1111C13.7536 23.3024 13.6579 23.422 13.5622 23.5177C13.3709 23.6851 13.0839 23.6612 12.9404 23.6373C12.4141 23.5894 12.3902 23.2546 12.3902 23.2546L12.749 23.3981H12.7729L12.8447 23.3263V22.824L12.7729 22.7523H12.749L12.3902 22.8958L12.4859 22.6088V22.5848L12.4141 22.5131H12.1271H11.8162L11.7444 22.5848V22.6088L11.8401 22.8958L11.4813 22.7523H11.4574L11.3856 22.824V23.3263L11.4574 23.3981H11.4813L11.8401 23.2546C11.8401 23.2546 11.8162 23.5655 11.29 23.6373C11.0747 23.6851 10.7877 23.709 10.5963 23.5655C10.5007 23.4938 10.405 23.3742 10.4528 23.1589L10.5724 23.0393L10.6442 23.1589L10.8116 23.3502L10.9551 23.2546L10.8594 23.0632C10.9073 22.9675 11.0508 22.6327 10.692 22.6327C10.405 22.6088 10.3571 23.0154 10.3571 23.0871H10.3093C10.2615 22.824 10.4289 22.6805 10.3571 22.3935C10.3093 22.2021 10.118 22.0826 10.0223 22.0586L9.90268 22.0826C9.83093 22.1543 9.6635 22.3217 9.71133 22.537C9.75917 22.824 9.97444 22.8958 10.0462 23.1589L9.99836 23.1828C9.97444 23.135 9.75917 22.7762 9.49607 22.8958C9.1612 23.0632 9.40039 23.3024 9.49607 23.3742L9.47215 23.5894L9.63958 23.6134L9.71133 23.3742L9.73525 23.2307L9.90268 23.3024C10.0223 23.4698 9.97444 23.6134 9.9266 23.7329C9.80701 23.9482 9.61566 23.9961 9.42431 24.0439C9.06553 24.1635 8.77851 23.9721 8.65891 23.7569V23.7329C8.41972 23.3981 7.84568 22.6327 7.84568 21.9151C7.84568 21.2215 8.46756 20.6953 9.2808 20.6953C9.63958 20.6953 9.97444 20.8149 10.3093 20.9345C10.6681 21.0541 11.0029 21.1736 11.3617 21.1497V20.4322L11.4813 20.3126L11.6009 20.4322V22.3217H12.5098V20.4322L12.6294 20.3126L12.749 20.4322V21.1497C13.1078 21.1976 13.4427 21.078 13.8014 20.9345C14.1363 20.8149 14.4712 20.6953 14.8299 20.6953C15.6671 20.6474 16.289 21.1736 16.289 21.8673ZM12.0554 25.4551C12.9882 25.4551 14.7343 25.5986 14.7343 26.1727C14.7343 26.7228 12.9882 26.8902 12.0554 26.8902C11.1225 26.8902 9.37647 26.7467 9.37647 26.1727C9.37647 25.5986 11.1225 25.4551 12.0554 25.4551ZM12.5816 19.7864L12.462 19.906H12.2228V20.1691L12.1032 20.2887L11.9836 20.1691V19.906H11.7444L11.6248 19.7864L11.7444 19.6668H11.9836V19.4276L12.1032 19.308L12.2228 19.4276V19.6668H12.462L12.5816 19.7864ZM12.0793 24.1156C11.0508 24.1156 10.094 24.2592 9.42431 24.5223C9.11337 24.6419 8.92202 24.7614 8.77851 24.8571H8.65891L8.56324 24.6897C8.53932 24.5223 8.46756 24.1396 8.20446 23.6612L8.27621 23.6134C8.41972 23.8047 8.75459 24.3548 8.77851 24.5223V24.5462H8.80242C8.94594 24.4744 9.11337 24.3787 9.32864 24.307C10.0223 24.0439 11.0269 23.9004 12.0793 23.9004H12.1032C13.1556 23.9004 14.1602 24.0439 14.8539 24.307C15.0691 24.4027 15.2605 24.4744 15.3801 24.5462H15.404V24.5223C15.4279 24.3548 15.7628 23.8047 15.9063 23.6134L15.978 23.6612C15.7149 24.1396 15.6432 24.5462 15.6193 24.6897L15.5236 24.8571H15.404C15.2605 24.7614 15.0691 24.6419 14.7582 24.5223C14.0645 24.2592 13.1078 24.1156 12.0793 24.1156ZM14.2798 26.7467L14.4712 26.651C14.9495 26.4358 15.1409 26.1487 15.1409 25.9335C15.1409 25.5268 13.8254 25.0724 12.0554 25.0724C10.2854 25.0724 8.96985 25.5268 8.96985 25.9335C8.96985 26.1487 9.1612 26.4118 9.6635 26.651L9.85485 26.7467L9.61566 26.7228C9.06553 26.5314 8.70675 26.2683 8.70675 25.9574C8.70675 25.2398 10.4289 24.8571 12.0554 24.8571C13.6818 24.8571 15.404 25.2398 15.404 25.9574C15.404 26.2922 15.0452 26.5554 14.4951 26.7228L14.2798 26.7467ZM16.5521 23.0632L16.3129 23.3024L16.0737 23.0632L16.3129 22.824L16.5521 23.0632ZM16.8391 22.3217L16.5999 22.5609L16.3607 22.3217L16.5999 22.0826L16.8391 22.3217ZM16.863 21.5085L16.6238 21.7477L16.3847 21.5085L16.6238 21.2693L16.863 21.5085ZM16.4564 20.8149L16.2172 21.0541L15.978 20.8149L16.2172 20.5757L16.4564 20.8149ZM15.7628 20.3843L15.5236 20.6235L15.2844 20.3843L15.5236 20.1451L15.7628 20.3843ZM14.9734 20.2647L14.7343 20.5039L14.4951 20.2647L14.7343 20.0255L14.9734 20.2647ZM14.1841 20.4322L13.9449 20.6714L13.7058 20.4322L13.9449 20.193L14.1841 20.4322ZM13.4187 20.6953L13.1795 20.9345L12.9404 20.6953L13.1795 20.4561L13.4187 20.6953ZM7.82176 22.848L8.06094 23.0871L7.82176 23.3263L7.58257 23.0871L7.82176 22.848ZM7.53473 22.0826L7.77392 22.3217L7.53473 22.5609L7.29555 22.3217L7.53473 22.0826ZM7.53473 21.2693L7.77392 21.5085L7.53473 21.7477L7.29555 21.5085L7.53473 21.2693ZM7.91743 20.5757L8.15662 20.8149L7.91743 21.0541L7.67824 20.8149L7.91743 20.5757ZM8.61107 20.1451L8.85026 20.3843L8.61107 20.6235L8.37189 20.3843L8.61107 20.1451ZM9.40039 20.0495L9.63958 20.2887L9.40039 20.5278L9.1612 20.2887L9.40039 20.0495ZM10.1897 20.2169L10.4289 20.4561L10.1897 20.6953L9.95052 20.4561L10.1897 20.2169ZM10.9551 20.4561L11.1943 20.6953L10.9551 20.9345L10.7159 20.6953L10.9551 20.4561ZM12.0793 20.4082L12.3185 20.6474L12.0793 20.8866L11.8401 20.6474L12.0793 20.4082ZM12.0793 21.0541L12.3185 21.2932L12.0793 21.5324L11.8401 21.2932L12.0793 21.0541ZM12.0793 21.6999L12.3185 21.939L12.0793 22.1782L11.8401 21.939L12.0793 21.6999ZM12.9882 24.5223L12.8686 24.6419L12.749 24.5223L12.8686 24.4027L12.9882 24.5223ZM14.5668 24.7854L14.4472 24.905L14.3276 24.7854L14.4472 24.6658L14.5668 24.7854ZM15.404 25.2159L15.093 25.3116L14.9974 25.0006L15.3083 24.905L15.404 25.2159ZM13.8971 24.594L13.6579 24.8093L13.4427 24.594L13.6579 24.3548L13.8971 24.594ZM11.2661 24.4027L11.3856 24.5223L11.2661 24.6419L11.1465 24.5223L11.2661 24.4027ZM9.68742 24.6658L9.80701 24.7854L9.68742 24.905L9.56782 24.7854L9.68742 24.6658ZM8.82634 24.905L9.13729 25.0006L9.04161 25.3116L8.73067 25.2159L8.82634 24.905ZM10.4767 24.3788L10.692 24.6179L10.4767 24.8332L10.2375 24.6179L10.4767 24.3788ZM23.0341 27.2729V18.9014H12.0793H1.14844V27.2729H23.0341ZM23.0341 27.2729V27.3925V27.5121H1.14844V27.3925V27.2729H23.0341Z" fill="#777777"/><path id="Vector_74" d="M18.9604 42.0838C17.7884 43.5428 16.5685 44.7388 15.4682 45.6716L14.2005 46.7001C13.0764 47.5373 12.311 47.9917 12.2871 48.0156L12.1196 48.1113L11.9522 48.0156C11.9283 47.9917 11.0672 47.5133 9.87126 46.5805L8.8906 45.7912C7.76642 44.8344 6.47481 43.5907 5.25495 42.0599L5.08752 41.8446L4.75266 41.4141L4.56131 41.151C4.20253 40.6487 3.84375 40.0985 3.50889 39.5245L3.36538 39.2853L3.24578 39.094L3.10227 38.8548C1.76282 36.3911 0.806075 33.4252 0.806075 30.0288V18.5717H23.4332V30.0048C23.4332 33.4252 22.4525 36.3911 21.0891 38.8787L20.9456 39.1179L20.8499 39.2853L20.7064 39.5245C20.5868 39.7158 20.4912 39.9072 20.3716 40.0746L20.2998 40.1703C20.0845 40.4812 19.8693 40.7922 19.654 41.1031L19.4387 41.3901C19.3192 41.5576 19.1996 41.7011 19.08 41.8446L18.9604 42.0838ZM16.3532 45.2411C17.2382 44.4278 18.195 43.4472 19.1039 42.323L19.7736 43.2797C19.2713 43.6863 18.6973 44.069 18.195 44.3561C17.6927 44.6431 17.1665 44.8823 16.6642 45.1215L16.3532 45.2411ZM14.1766 50.6467H9.99086C10.1822 50.4314 10.3736 50.1205 10.3736 49.5464V48.0396C10.3736 47.7286 10.3257 47.4416 10.2061 47.1785C11.139 47.8721 11.7608 48.2309 11.8087 48.2548L12.1196 48.4222L12.4306 48.2548C12.4545 48.2309 13.0285 47.896 13.9135 47.2502C13.8418 47.4894 13.7939 47.7525 13.7939 48.0396V49.5464C13.7939 50.1205 13.9853 50.4314 14.1766 50.6467ZM5.08752 42.2751C6.02035 43.4472 7.00102 44.4517 7.93385 45.2889L7.52723 45.0975C7.02494 44.8584 6.49873 44.6192 5.97251 44.3321C5.78117 44.2365 5.13536 43.8299 4.39388 43.2558C4.46564 43.1601 4.8005 42.7057 5.08752 42.2751ZM22.1416 40.1703L22.5721 41.0792L22.883 41.7489C23.0026 41.9881 23.1461 42.3708 23.1461 42.8731C23.1461 43.5667 22.8591 44.2843 22.309 45.0019C21.3522 46.1978 19.367 47.4655 16.9512 48.4222L16.1858 48.7332L17.1186 49.5225L17.2621 49.6421L17.31 49.6899C17.5252 49.9291 17.6209 50.1922 17.6209 50.5749V52.7037C17.6209 53.4213 16.7598 53.8518 15.3247 53.8518H8.86668C7.43156 53.8518 6.57048 53.4213 6.57048 52.7037V50.5749C6.57048 50.1683 6.66616 49.9291 6.88142 49.6899L6.92926 49.6421L7.07277 49.5225L7.24021 49.379L7.98169 48.7332L7.21629 48.4222C4.82442 47.4655 2.81525 46.1978 1.8585 45.0019C1.30837 44.2604 1.02134 43.5428 1.02134 42.8492C1.02134 42.3708 1.16486 41.9881 1.28445 41.7489L1.59539 41.0792L2.02593 40.1703C2.33687 39.5484 2.67173 39.2853 2.98268 39.1657L3.10227 39.4049C2.91092 39.5006 2.74349 39.668 2.59998 39.8833C2.45647 40.1225 2.38471 40.4095 2.38471 40.7204C2.38471 41.0074 2.45647 41.2945 2.57606 41.6293L2.76741 42.0838C2.76741 42.0838 3.48497 41.0314 3.72416 40.7204L3.77199 40.8879C3.84375 41.1031 4.01118 41.2706 4.27429 41.3901L4.4178 41.438C4.58523 41.6772 4.75266 41.8924 4.94401 42.1316C4.58523 42.6578 4.05902 43.3993 4.05902 43.3993L4.25037 43.5668C4.99185 44.1647 5.66157 44.5474 5.85292 44.667C6.37913 44.978 6.90534 45.2171 7.43156 45.4324C7.90993 45.6477 8.36439 45.8629 8.771 46.1021C9.08195 46.3652 9.36897 46.6044 9.65599 46.8197C9.94302 47.1785 10.1104 47.5851 10.1104 48.1113V49.6182C10.1104 50.1205 9.94302 50.3597 9.77559 50.551L9.36897 51.0055H14.7507L14.368 50.551C14.2005 50.3597 14.0331 50.1205 14.0331 49.6182V48.1113C14.0331 47.6569 14.1527 47.2742 14.3919 46.9632C14.7507 46.6762 15.1573 46.3652 15.5878 45.9825C15.9466 45.7912 16.3293 45.5998 16.7598 45.4085C17.2621 45.1693 17.7884 44.9301 18.3146 44.6431C18.8169 44.3561 19.4148 43.9494 19.9171 43.5428L20.1085 43.3993C20.1085 43.3993 19.6301 42.6818 19.2713 42.1795C19.4627 41.9403 19.654 41.6772 19.8214 41.438L19.8693 41.4141C20.1324 41.3184 20.2998 41.127 20.3716 40.9118L20.4194 40.7443C20.6347 41.0553 21.3762 42.1077 21.3762 42.1077L21.5675 41.6533C21.6871 41.3423 21.7589 41.0314 21.7589 40.7443C21.7589 40.4334 21.6871 40.1464 21.5436 39.9072C21.424 39.7158 21.2805 39.5723 21.0891 39.4767L21.1848 39.2853C21.5914 39.381 21.9263 39.7158 22.1416 40.1703ZM23.6963 18.3086H0.542969V30.0048C0.542969 33.4252 1.49972 36.4151 2.86308 38.9026C2.5043 39.0461 2.14552 39.3571 1.78674 40.0268L1.3562 40.9357L1.02134 41.6293C0.901749 41.8924 0.734318 42.323 0.734318 42.8492C0.734318 43.6146 1.04526 44.38 1.64323 45.1215C2.6239 46.3413 4.65699 47.6568 7.09669 48.6136C7.09669 48.6136 7.28804 48.6854 7.45547 48.7571C7.28804 48.9006 7.04886 49.1159 7.04886 49.1159L6.88142 49.2594L6.73791 49.4029L6.66616 49.4747C6.40305 49.7617 6.28346 50.0726 6.28346 50.551V52.6798C6.28346 53.5648 7.24021 54.091 8.84276 54.091H15.3008C16.9034 54.091 17.884 53.5648 17.884 52.6798V50.551C17.884 50.0966 17.7644 49.7617 17.5013 49.4747L17.4535 49.4268L17.2861 49.2833C17.2861 49.2833 16.8794 48.9485 16.6881 48.781C16.8555 48.7093 17.0469 48.6375 17.0469 48.6375C19.4866 47.6808 21.5197 46.3652 22.5003 45.1454C23.0983 44.4039 23.4092 43.6385 23.4092 42.8731C23.4092 42.3469 23.2657 41.9164 23.1222 41.6533L22.8113 40.9835L22.3807 40.0746C22.1176 39.5723 21.7589 39.2135 21.3283 38.9983C22.6917 36.4868 23.6724 33.497 23.6724 30.0288V18.3086H23.6963Z" fill="#777777"/><path id="Vector_75" d="M5.3463 8.04362L5.17901 8.18702L5.01172 7.97193L5.58529 7.75684L5.53749 7.97193L5.3463 8.04362Z" fill="#777777"/><path id="Vector_76" d="M7.52734 4.45744L7.57514 4.38574L7.86193 4.79202L7.79023 5.07881H7.71853L7.67074 4.74423L7.52734 4.45744Z" fill="#777777"/><path id="Vector_77" d="M11.6112 2.2599L11.6351 1.94922L11.8741 2.45109L11.7068 2.59449L11.6112 2.78568L11.5156 2.69008L11.6112 2.2599Z" fill="#777777"/><path id="Vector_78" d="M8.34904 3.64355L8.89871 3.83475L8.87482 4.00204L8.56413 3.78695L8.32514 3.69135L8.27734 3.64355" fill="#777777"/><path id="Vector_79" d="M16.1027 3.33203L15.8398 3.69051L15.9354 3.66662L16.3178 3.33203H16.1027Z" fill="#777777"/><path id="Vector_80" d="M45.848 18.1147H45.4653C45.0108 18.1147 44.1019 18.1386 43.9584 18.1386H43.9106L43.9345 18.4974H43.9823C44.4129 18.4974 44.5564 18.4974 44.676 18.5691C44.8195 18.6648 44.9152 19.4302 44.9152 20.4348L44.8195 22.6114C44.8195 24.1183 45.8002 24.9076 47.5941 24.9076C50.4882 24.9076 50.6317 23.3768 50.6796 20.1478L50.7035 19.191V19.1432C50.7274 18.6648 50.7274 18.4735 51.4928 18.4256H51.5406L51.5646 18.0429H51.4211L50.249 18.0668L49.3401 18.0429L48.9335 18.019V18.0668V18.4017H48.9813C49.3162 18.4017 49.6511 18.4256 49.7946 18.5691C50.0098 18.7844 50.0577 19.6694 50.0577 20.1239V20.8175C50.0577 23.0419 49.9142 24.3814 47.8332 24.3814C45.9437 24.3814 45.9437 22.8745 45.9437 22.1569V20.9132C45.9437 18.5931 46.0393 18.5931 47.0678 18.4974H47.1157V18.1147H47.0678C46.8526 18.0908 46.2785 18.0908 45.848 18.1147ZM58.0226 18.0429H57.9748V18.0908L57.903 18.4017H57.9748C59.2664 18.4735 59.0511 18.4974 59.099 21.1763V22.9702L54.4587 18.1386V18.1147L53.7172 18.1386L53.215 18.1147H53.1671L52.7127 18.0908V18.1625V18.4974H52.7605C53.6933 18.6648 53.8368 18.7605 53.8129 20.674L53.789 21.846C53.789 22.2765 53.7412 23.5921 53.6933 23.9748C53.6455 24.3575 53.502 24.3814 53.2628 24.4292L52.8323 24.5249V24.5727V24.8837L54.387 24.8119L55.1285 24.8358L55.6547 24.8598V24.8119V24.4771H55.6068C54.3391 24.2618 54.3391 24.1183 54.3391 23.018L54.3631 20.2434L54.387 19.8368C54.6501 20.0999 59.2425 24.8598 59.2185 24.8837L59.2425 24.9076H59.673V24.8358C59.6491 24.2857 59.6491 22.8984 59.6491 22.3005C59.6491 21.3915 59.6969 19.2867 59.7448 19.0236C59.7926 18.5691 60.1753 18.4735 60.558 18.4735H60.6058V18.1147H60.558C59.8404 18.1147 59.4817 18.1625 59.1468 18.1386L58.9315 18.1147L58.4292 18.0908L58.0226 18.0429ZM61.8735 18.1625V18.4974H61.9214C62.7824 18.5213 62.9499 18.7126 62.9977 18.8801C63.1173 19.1671 63.1412 21.0806 63.1412 21.7742V21.8938C63.1412 22.4679 63.1412 23.8073 62.9738 24.1422C62.9259 24.2379 62.6868 24.4292 61.8257 24.501H61.7778V24.8358L62.8303 24.8119H63.8109L65.4135 24.8598V24.8119L65.3896 24.501H65.3417C64.6242 24.501 64.4089 24.4771 64.3132 24.214C64.2654 24.0704 64.2415 23.4246 64.2415 22.3244C64.2415 19.7172 64.2654 19.0236 64.4089 18.7844C64.5763 18.4974 65.1982 18.5213 65.3896 18.5452H65.4374V18.1386H64.6481L63.5239 18.1625L62.7824 18.1386L62.4715 18.1147L61.8735 18.0908H61.8257V18.1625H61.8735ZM66.3942 18.1625L66.4181 18.4495H66.4659C67.3748 18.5452 67.3987 18.5691 68.1402 20.0521L69.6471 23.1137L69.671 23.1376C69.9341 23.6638 70.3168 24.4771 70.4364 24.9315V24.9794H70.7713L70.7952 24.9315C71.0105 24.2618 71.1779 23.8073 71.7041 22.7549L73.3306 19.5737C73.7133 18.8322 73.8568 18.6409 74.5983 18.4974H74.6461V18.1386H74.5983C74.1917 18.1625 73.785 18.1625 73.3545 18.1386L72.0868 18.1147V18.1625L72.0629 18.5213H72.1107C72.4456 18.5213 72.9 18.5691 72.9 18.9279C72.9 19.1193 72.7565 19.4541 72.6609 19.6694L72.6369 19.7172C72.3021 20.4587 72.0868 20.8653 71.8715 21.3198L71.1301 22.8506L70.9626 23.2333C70.2451 22.0613 68.9056 18.904 68.9056 18.7126C68.9056 18.6409 68.9295 18.617 69.4797 18.5452L69.6471 18.5213V18.1625H68.6186H68.0685C67.6858 18.1625 66.8964 18.1386 66.4898 18.1147H66.4181L66.3942 18.1625ZM80.8889 18.0668C80.0757 18.1147 78.784 18.1386 77.923 18.1386C77.3968 18.1386 76.1051 18.1147 75.6029 18.0908H75.555V18.4256H75.6029C76.1769 18.5213 76.2008 18.5452 76.2487 18.6648C76.3204 18.8322 76.3922 19.4302 76.3922 21.4633C76.3922 22.3244 76.3204 23.7117 76.2487 24.1661C76.2008 24.3814 75.9377 24.4531 75.4833 24.501H75.4354L75.4833 24.8837H75.5311C76.44 24.788 77.5164 24.788 78.1622 24.788L80.841 24.8119L80.865 24.7641C81.0085 24.5488 81.2238 24.214 81.3673 23.1376V23.0659L81.0563 23.0419L81.0324 23.0898C80.8171 23.7117 80.3627 24.3335 78.7123 24.3335C78.1382 24.3335 77.8991 24.2618 77.5642 24.1422C77.5403 23.9508 77.5163 23.6638 77.4924 22.8506C77.4924 22.8506 77.4685 21.846 77.4685 21.6307C77.8991 21.5829 78.2817 21.5829 78.4731 21.5829C79.7886 21.5829 79.8843 21.6786 80.0517 22.4918V22.5396H80.3627V22.4918C80.3388 21.6068 80.3388 21.3915 80.3866 20.4826V20.4348H80.0278V20.4826C79.8843 20.9849 79.7886 21.0806 79.5973 21.1045C78.6405 21.2241 77.7077 21.1763 77.4924 21.1763L77.4685 20.2913C77.4685 19.8607 77.4924 19.191 77.5881 18.7366C77.9469 18.6648 78.5927 18.617 78.8797 18.617C79.6212 18.617 80.0517 18.7126 80.2431 18.9279C80.4105 19.0953 80.4105 19.3585 80.3866 19.6216V19.6694L80.7693 19.7172V19.6455L80.841 19.1193L80.8889 18.8801C80.9367 18.5213 80.9367 18.3539 80.9367 18.2104V18.1625H80.8889V18.0668ZM84.8355 21.2002L85.5052 21.2241C86.1032 21.2241 87.1078 21.0567 87.1078 19.9564C87.1078 19.3824 86.6772 18.5213 85.5291 18.5213C84.8833 18.5213 84.8833 18.5452 84.8594 19.6694L84.8355 21.2002ZM85.9357 18.0429C87.3469 18.0429 88.3276 18.7844 88.3276 19.8847C88.3276 20.7457 87.5622 21.3437 86.8446 21.559C88.1841 23.4725 88.4472 23.7595 88.9734 24.2379C88.9973 24.2618 89.4039 24.6684 89.9302 24.6923H89.978L89.9541 25.0511H89.9062C88.7342 25.0511 88.1602 24.6206 87.8492 24.3575C86.8207 23.5681 85.8401 22.0134 85.6487 21.7025L84.8355 21.6786V22.5636V22.8745C84.8355 23.329 84.8594 23.9748 84.9551 24.1661C85.0268 24.3096 85.553 24.4531 85.8401 24.5488H85.864L85.8879 24.9076H85.8161C85.4095 24.8358 84.7876 24.788 84.3571 24.788C84.1179 24.788 83.0894 24.8598 82.8741 24.8598H82.8263L82.7545 24.5488H82.8024C82.9459 24.5249 83.496 24.4053 83.6156 24.1661C83.7113 23.9508 83.7113 22.7788 83.7113 22.2765V22.133V20.5544C83.7113 18.5452 83.6395 18.5452 82.8263 18.4974H82.7785L82.8024 18.1147H82.8981L83.496 18.1386L84.1179 18.1625C84.2614 18.1625 84.6441 18.1386 85.0268 18.0908L85.9357 18.0429ZM90.6477 19.9325C90.6477 21.0806 91.6284 21.4872 92.322 21.7503L92.3699 21.7742C93.5897 22.2765 94.1398 22.4918 94.1398 23.329C94.1398 23.8313 93.7811 24.3575 92.9678 24.3575C92.2503 24.3575 91.7241 24.0465 91.4131 23.8073C91.0304 23.4964 90.9347 23.018 90.8869 22.8506V22.8027H90.4803L90.5042 22.8745C90.7195 23.616 90.8152 23.9508 90.7912 24.788V24.8358L91.1261 24.8598L91.15 24.8119L91.2935 24.6445L91.7001 24.7402H91.748L91.8437 24.7641C92.0111 24.8119 92.2503 24.8837 92.6569 24.8837C94.2834 24.8837 95.1684 23.903 95.1684 22.9463C95.1684 21.6307 93.8768 21.1284 93.0157 20.7697C92.2024 20.4587 91.5806 20.1717 91.5806 19.502C91.5806 18.8562 92.0828 18.4017 92.8243 18.4017C93.494 18.4017 93.9724 18.7844 94.092 18.904C94.3551 19.1671 94.4269 19.4541 94.4986 19.7412V19.789L94.5465 19.8129H94.8335L94.7378 18.9279C94.7378 18.617 94.8096 18.2821 94.8335 18.1386L94.8574 18.0908L94.5465 18.0429L94.3312 18.1864C93.7093 18.019 93.4223 17.9712 92.9918 17.9712C91.6284 18.019 90.6477 18.8083 90.6477 19.9325ZM96.5556 18.1625V18.4974H96.6035C97.4885 18.5213 97.632 18.7126 97.7037 18.8801C97.8233 19.1671 97.8472 21.0806 97.8472 21.7742V21.8938C97.8472 22.4679 97.8473 23.8073 97.6798 24.1422C97.6081 24.2379 97.3928 24.4292 96.5317 24.501H96.4839V24.8358L97.5363 24.8119H98.517L100.12 24.8598V24.8119L100.096 24.501H100.048C99.3302 24.501 99.1149 24.4771 99.0193 24.214C98.9714 24.0704 98.9475 23.4246 98.9475 22.3244C98.9475 19.7172 98.9714 19.0236 99.115 18.7844C99.2824 18.4974 99.9043 18.5213 100.096 18.5452H100.167V18.1386H99.3781L98.2539 18.1625L97.5124 18.1386L97.2015 18.1147L96.6274 18.0908H96.5796V18.1625H96.5556ZM107.75 17.9473H107.534L107.51 17.9712C107.486 18.019 107.415 18.0908 107.056 18.1147L105.717 18.1386H103.851L102.392 18.1147C102.033 18.0908 101.985 18.019 101.937 17.9712L101.913 17.9473H101.674L101.65 17.9712L101.148 19.3106L101.124 19.3585L101.435 19.5498L101.459 19.478C101.674 18.9279 101.89 18.6648 103.062 18.6648C103.444 18.6648 103.755 18.6887 103.97 18.7126C104.042 19.6216 104.042 20.4826 104.042 21.1524C104.042 21.7982 104.018 23.6638 103.97 24.0704C103.947 24.214 103.899 24.3096 103.325 24.4053L102.918 24.4531L102.751 24.4771L102.822 24.8598L103.372 24.8119H103.516L104.592 24.788H104.76H105.358L105.812 24.8119L106.291 24.8358V24.788L106.314 24.4531L106.027 24.4292L106.004 24.4053C105.717 24.3814 105.525 24.3096 105.429 24.214C105.358 24.1183 105.238 23.6877 105.238 21.7503L105.262 20.363L105.31 18.7844C105.31 18.6409 105.31 18.6409 105.932 18.6409H105.956H106.314H106.386C107.463 18.6409 107.558 18.8562 107.726 19.3585L107.774 19.502L108.084 19.3106L108.013 18.9518C107.917 18.4256 107.821 17.9951 107.797 17.9233V17.8994H107.75V17.9473ZM113.658 18.1386V18.4735H113.729C114.064 18.4974 114.519 18.5213 114.519 18.7844C114.519 18.8562 114.375 19.2628 113.107 21.0806C112.557 20.4348 111.361 18.8801 111.361 18.6887C111.361 18.617 111.361 18.5213 112.127 18.5213H112.175V18.1386L111.529 18.1625L110.309 18.1864L108.969 18.1625V18.1864V18.4974H109.017C109.352 18.4974 109.544 18.5452 109.711 18.6648C110.118 18.9518 111.553 20.7936 111.601 20.8653L112.222 21.6786C112.27 22.1569 112.294 22.6832 112.294 23.329C112.294 24.3335 112.294 24.5488 111.361 24.5727H111.313L111.29 24.9076H111.337C111.481 24.9076 111.911 24.8837 112.318 24.8598L113.036 24.8119L113.586 24.8358H113.705L114.447 24.8837V24.8358V24.5488H114.399C113.49 24.4771 113.49 24.3575 113.466 24.1661V24.0944C113.442 23.6877 113.442 23.2333 113.442 22.731C113.442 22.3483 113.442 21.9656 113.466 21.5351L114.782 19.5259C115.212 18.8801 115.428 18.5452 116.336 18.5213H116.384V18.1386H116.336C116.217 18.1386 115.858 18.1386 115.547 18.1625L115.117 18.1864L114.614 18.1625L114.255 18.1386L113.753 18.1147H113.658V18.1386ZM126.526 24.4053C127.746 24.4053 128.511 23.2094 128.511 22.0852C128.511 20.3391 127.506 18.5452 125.856 18.5452C124.541 18.5452 123.823 19.7412 123.823 20.9132C123.847 22.6114 124.851 24.4053 126.526 24.4053ZM126.191 17.9951C128.391 17.9951 129.707 19.7412 129.707 21.4394C129.707 23.329 128.057 24.9315 126.095 24.9315C124.182 24.9315 122.675 23.4007 122.675 21.4394C122.651 19.5976 124.301 17.9951 126.191 17.9951ZM136.332 18.0429C135.376 18.1386 135.137 18.1386 134.06 18.1386L132.936 18.1147L131.764 18.0908L131.381 18.1147L131.07 18.1386V18.1864V18.4256H131.118C131.405 18.4495 131.692 18.4735 131.812 18.6409C131.979 18.904 132.003 19.1671 132.003 21.5351C132.003 22.6353 131.907 23.903 131.86 24.0944C131.788 24.3575 131.429 24.4531 131.166 24.501H131.118L131.094 24.8598H131.166C131.836 24.8119 132.553 24.788 132.745 24.788L133.319 24.8119L134.395 24.8598V24.8119V24.4771H134.323C133.558 24.4053 133.295 24.2618 133.223 24.1661C133.151 24.0704 133.103 23.6638 133.103 23.2333V22.8745C133.103 22.8745 133.127 21.8699 133.127 21.6547L133.677 21.6307C134.275 21.6307 135.041 21.7742 135.232 21.846C135.352 21.8699 135.424 22.0852 135.471 22.3961V22.444H135.806V22.3961C135.854 21.7025 135.854 21.0328 135.83 20.5066V20.4587H135.471V20.5066C135.376 20.9849 135.352 21.2002 134.06 21.2002C133.677 21.2002 133.534 21.1763 133.175 21.1524H133.151L133.127 20.7697V20.2913C133.127 20.2913 133.151 18.904 133.151 18.6887C133.534 18.6409 133.845 18.617 133.941 18.617C134.658 18.617 135.304 18.7605 135.567 18.9518C135.782 19.1193 135.854 19.3824 135.902 19.5976V19.6455L136.285 19.6216V19.5737C136.285 19.4541 136.309 19.0953 136.309 18.7844L136.332 18.0668V18.0429ZM39.6291 31.2461H36.424C35.0367 31.2461 33.9843 31.2461 33.1232 31.1982C32.3339 31.1504 32.1426 30.9829 32.0469 30.8155H31.6164L30.4922 33.8532L30.9706 34.1641C31.4489 32.8486 32.023 32.2267 34.678 32.2267C34.8932 32.2267 35.7543 32.2267 36.8067 32.3463C36.9502 34.2598 36.9981 36.1255 36.9981 38.039C36.9981 39.2349 36.9742 43.7316 36.8067 44.6884C36.735 45.1428 36.5197 45.3581 35.2759 45.5734C34.7497 45.6451 34.4149 45.693 34.1039 45.7169L34.2235 46.3148C34.6301 46.2909 35.1085 46.267 35.7065 46.2192C36.3044 46.1952 37.0459 46.1474 38.1223 46.1474C38.5289 46.1474 39.1986 46.1235 39.8444 46.1474C40.4663 46.1952 41.0403 46.1952 41.8297 46.2192L41.9014 45.5973C41.7579 45.5973 41.5187 45.5494 41.1838 45.5016C40.7772 45.4538 40.1075 45.3103 39.8444 45.0471C39.366 44.497 39.366 40.4548 39.366 39.3545C39.366 38.4217 39.5095 33.7097 39.5095 32.6094C39.5095 32.155 39.6531 32.155 41.0164 32.155H41.0643C41.6622 32.131 41.8297 32.155 42.0449 32.155C44.6999 32.155 44.7717 32.8008 45.2739 34.0924L45.7523 33.7814L45.1065 30.7438H44.6999C44.5803 30.8873 44.4129 31.0786 43.6236 31.1265C42.595 31.1743 41.3991 31.1743 40.1793 31.1743H39.6291V31.2461ZM55.5351 45.5255C58.3336 45.5255 60.1035 42.751 60.1035 40.096C60.1035 35.8624 57.6638 31.8919 54.0521 31.8919C51.1579 31.8919 49.4119 34.4512 49.4119 37.3932C49.4119 41.2919 51.6602 45.5255 55.5351 45.5255ZM54.7458 30.9112C59.5295 30.9112 62.4954 34.7382 62.4954 38.613C62.4954 42.9184 58.7402 46.4823 54.5305 46.4823C50.1534 46.4823 46.9961 42.9184 46.9961 38.613C47.02 34.499 50.6317 30.9112 54.7458 30.9112ZM69.5036 38.1825C69.958 38.2542 70.6756 38.2542 71.1061 38.2542C71.6563 38.2542 74.8135 38.2542 74.8135 35.2644C74.8135 33.8771 73.809 31.844 71.154 31.844C69.5753 31.844 69.5753 32.0354 69.5514 34.5708L69.5036 38.1825ZM65.1743 31.1504C65.6527 31.1982 66.1071 31.2221 66.5855 31.2221C67.04 31.27 67.5183 31.27 67.9728 31.27C68.3077 31.27 69.1687 31.1982 70.0298 31.1265C70.8909 31.0547 71.5367 31.0547 72.039 31.0547C75.2202 31.0547 77.2532 32.7768 77.2532 35.097C77.2532 37.2018 75.3398 38.4695 73.8329 38.8522C76.9423 43.3489 77.4924 44.0186 78.7123 45.1428C78.8558 45.2863 79.7886 46.1474 80.9606 46.2192L80.9128 46.7932C78.3296 46.7932 77.0619 45.7886 76.3922 45.2624C74.1199 43.4685 71.8715 39.9046 71.4649 39.1631C70.8191 39.1631 70.556 39.1631 69.4797 39.0914V41.268C69.4797 42.2487 69.4557 44.4253 69.7428 44.9993C69.9341 45.3342 71.0583 45.669 71.7998 45.9082L71.8476 46.4823C70.9387 46.3388 69.5275 46.2192 68.5468 46.2192C68.0206 46.2192 65.7005 46.3627 65.2221 46.4105L65.1025 45.9561C65.3178 45.9082 66.6573 45.6212 67.016 44.9754C67.2791 44.4013 67.2313 41.268 67.2313 40.2634V36.6756C67.2313 32.0354 67.016 31.9636 65.1265 31.844L65.1743 31.1504ZM89.7149 45.5255C92.5373 45.5255 94.2834 42.751 94.2834 40.096C94.2834 35.8624 91.8437 31.8919 88.208 31.8919C85.3378 31.8919 83.5678 34.4512 83.5678 37.3932C83.5917 41.2919 85.8161 45.5255 89.7149 45.5255ZM88.9256 30.9112C93.7093 30.9112 96.6752 34.7382 96.6752 38.613C96.6752 42.9184 92.9439 46.4823 88.6864 46.4823C84.3093 46.4823 81.1759 42.9184 81.1759 38.613C81.1759 34.499 84.8116 30.9112 88.9256 30.9112ZM102.487 31.2221C101.89 31.27 101.435 31.27 100.67 31.27C100.311 31.27 99.9282 31.27 99.5455 31.2221C99.1628 31.1743 99.115 31.1982 98.7562 31.1504V31.7962C100.933 32.2028 101.124 32.5377 101.052 36.8909V39.5458C101.052 40.5504 100.981 43.5642 100.861 44.4013C100.741 45.382 100.335 45.4538 99.7847 45.5734C99.4737 45.6451 99.1389 45.7169 98.9236 45.7647V46.3148C99.4737 46.3148 100.048 46.2909 100.598 46.2431C101.172 46.1952 101.913 46.1713 102.487 46.1713C103.062 46.1713 103.659 46.2192 104.186 46.2431C104.664 46.2431 104.999 46.2909 105.238 46.3148V45.669C102.272 45.1428 102.272 44.7362 102.32 42.2247V35.8863L102.368 34.6903C102.368 34.6903 102.368 34.7143 113.37 46.3627H114.136C114.064 45.1189 114.064 41.9377 114.064 40.5744C114.064 38.5891 114.064 33.4705 114.136 32.8247C114.255 31.844 115.571 31.7723 116.265 31.7723V31.1982C114.662 31.1982 113.777 31.2461 113.06 31.1743C112.39 31.1025 111.888 31.0547 111.481 31.0547C111.146 31.0547 110.763 31.0069 110.548 31.0547L110.428 31.6048C112.94 31.7483 112.868 31.9875 112.868 37.6323C112.868 38.3021 112.844 41.6029 112.844 42.2487L102.487 31.2221ZM127.148 31.2461H123.943C122.555 31.2461 121.503 31.2461 120.642 31.1982C119.852 31.1504 119.661 30.9829 119.565 30.8155H119.159L118.035 33.8532L118.537 34.1641C119.015 32.8486 119.589 32.2267 122.244 32.2267C122.46 32.2267 123.321 32.2267 124.373 32.3463C124.517 34.2598 124.564 36.1255 124.564 38.039C124.564 39.2349 124.517 43.7316 124.373 44.6884C124.301 45.1428 124.062 45.3581 122.842 45.5734C122.316 45.6451 121.981 45.693 121.67 45.7169L121.79 46.3148C122.196 46.2909 122.675 46.267 123.273 46.2192C123.871 46.1952 124.612 46.1474 125.689 46.1474C126.095 46.1474 126.765 46.1235 127.411 46.1474C128.033 46.1952 128.607 46.1952 129.396 46.2192L129.468 45.5973C129.324 45.5973 129.109 45.5494 128.75 45.5016C128.344 45.4538 127.674 45.3103 127.411 45.0471C126.932 44.497 126.932 40.4548 126.932 39.3545C126.932 38.4217 127.076 33.7097 127.076 32.6094C127.076 32.155 127.219 32.155 128.583 32.155H128.631C129.229 32.131 129.396 32.155 129.611 32.155C132.266 32.155 132.338 32.8008 132.84 34.0924L133.319 33.7814L132.673 30.7438H132.266C132.147 30.8873 131.955 31.0786 131.166 31.1265C130.138 31.1743 128.942 31.1743 127.722 31.1743H127.148V31.2461ZM142.719 45.5255C145.517 45.5255 147.287 42.751 147.287 40.096C147.287 35.8624 144.848 31.8919 141.212 31.8919C138.318 31.8919 136.572 34.4512 136.572 37.3932C136.572 41.2919 138.82 45.5255 142.719 45.5255ZM141.929 30.9112C146.713 30.9112 149.679 34.7382 149.679 38.613C149.679 42.9184 145.924 46.4823 141.69 46.4823C137.313 46.4823 134.156 42.9184 134.156 38.613C134.18 34.499 137.815 30.9112 141.929 30.9112Z" fill="#777777"/></g></g></svg></g></svg>