<svg width="20" height="20" viewBox="0 0 20 20" fill="none" xmlns="http://www.w3.org/2000/svg"><g id="ClockInverted"><path id="Icon" fill-rule="evenodd" clip-rule="evenodd" d="M10 18C14.4183 18 18 14.4183 18 10C18 5.58172 14.4183 2 10 2C5.58172 2 2 5.58172 2 10C2 14.4183 5.58172 18 10 18ZM12 10C12 9.77263 11.9621 9.55411 11.8922 9.35044L13.5355 7.70706C13.9261 7.31653 13.9261 6.68337 13.5355 6.29284C13.145 5.90232 12.5118 5.90232 12.1213 6.29284L10.3784 8.03576C10.2559 8.01229 10.1294 8.00001 10 8.00001C8.89543 8.00001 8 8.89544 8 10C8 11.1046 8.89543 12 10 12C11.1046 12 12 11.1046 12 10Z" fill="white"/></g></svg>