<svg width="20" height="20" viewBox="0 0 20 20" fill="none" xmlns="http://www.w3.org/2000/svg"><g id="Guidebook"><path id="Subtract" fill-rule="evenodd" clip-rule="evenodd" d="M5 1C3.34315 1 2 2.34315 2 4V16C2 17.6569 3.34315 19 5 19H15C16.6569 19 18 17.6569 18 16V4C18 2.34315 16.6569 1 15 1H5ZM6.35 4C5.88056 4 5.5 4.38056 5.5 4.85C5.5 5.31944 5.88056 5.7 6.35 5.7H13.65C14.1194 5.7 14.5 5.31944 14.5 4.85C14.5 4.38056 14.1194 4 13.65 4H6.35ZM5.5 8.85C5.5 8.38056 5.88056 8 6.35 8H12.65C13.1194 8 13.5 8.38056 13.5 8.85C13.5 9.31944 13.1194 9.7 12.65 9.7H6.35C5.88056 9.7 5.5 9.31944 5.5 8.85ZM6.35 12C5.88056 12 5.5 12.3806 5.5 12.85C5.5 13.3194 5.88056 13.7 6.35 13.7H10.65C11.1194 13.7 11.5 13.3194 11.5 12.85C11.5 12.3806 11.1194 12 10.65 12H6.35Z" fill="white"/></g></svg>