<svg width="449" height="376" viewBox="0 0 449 376" fill="none" xmlns="http://www.w3.org/2000/svg"><g clip-path="url(#clip0_3701_70491)"><path fill-rule="evenodd" clip-rule="evenodd" d="M338.613 353.177H37.4178L40.5748 335.595C41.3214 331.726 40.2439 328.273 37.6124 326.102L17.7104 309.341C8.96955 302.097 9.23722 288.283 18.3524 276.21L39.679 248.329C42.4263 244.703 43.6636 240.627 43.0843 237.111L38.1354 210.395C34.8457 193.253 44.6754 185.684 57.9987 177.639C66.2225 172.673 74.4191 167.022 80.706 162.689C84.6044 160.001 87.7685 157.82 89.7494 156.622C94.9248 153.493 100.243 144.51 101.826 140.607L109.939 114.194C115.252 101.216 133.451 91.4898 147.425 89.6485L179.587 85.4899C183.783 84.9254 188.09 82.7598 191.452 79.5244L215.585 53.3807C226.762 42.5774 242.53 38.313 253.403 43.1527L278.423 54.596C281.682 56.0652 285.958 55.9242 290.184 54.2079L322.544 40.9242C336.594 35.2074 350.107 38.4215 354.979 48.639L367.123 68.9276C368.598 71.9935 371.698 73.8884 375.657 74.1429L406.241 75.9251C419.397 76.801 427.045 86.6347 424.583 99.5108L419.973 126.555C419.226 130.424 420.304 133.877 422.935 136.047L443.088 152.649C451.871 159.869 451.602 173.708 442.446 185.78L419.973 216.278C417.235 219.914 416.014 223.995 416.614 227.508L419.973 251.243C422 262.917 413.047 272.98 399.682 280.993L369.053 299.412C365.042 301.831 361.837 305.437 360.226 309.341L348.167 339.426C346.285 344.057 342.867 348.847 338.613 353.177Z" fill="#D7FFB8"/><rect x="-0.5" y="337.707" width="100.052" height="38.4" rx="19.2" fill="#89E219"/><path d="M18.9062 329.449C18.9062 321.076 25.6942 314.288 34.0675 314.288H57.5246C65.8979 314.288 72.6859 321.076 72.6859 329.449V346.598H35.0619C26.1394 346.598 18.9062 339.365 18.9062 330.442V329.449Z" fill="#89E219"/><path d="M405.086 284.042C405.086 275.669 398.298 268.881 389.925 268.881H364.524C356.151 268.881 349.363 275.669 349.363 284.042V301.191H388.93C397.853 301.191 405.086 293.958 405.086 285.035V284.042Z" fill="#89E219"/><path d="M201.684 127.259L201.684 110.773L201.684 94.2881" stroke="#58CC02" stroke-width="3.60981" stroke-linecap="round"/><path d="M226.039 93.0859C228.154 93.0859 229.542 95.3261 228.722 97.2761C227.958 99.0944 227.258 101.041 227.258 102.072C227.258 103.104 227.958 105.051 228.722 106.869C229.542 108.819 228.154 111.059 226.039 111.059L207.689 111.059C206.892 111.059 206.245 110.413 206.245 109.615L206.245 94.5299C206.245 93.7324 206.892 93.0859 207.689 93.0859L226.039 93.0859Z" fill="#89E219"/><path d="M270.376 171.804C270.376 158.117 263.145 144.991 250.274 135.314C237.403 125.636 219.947 120.199 201.745 120.199C183.542 120.199 166.086 125.636 153.215 135.314C140.344 144.991 133.113 158.117 133.113 171.804L201.745 171.804H270.376Z" fill="#FDB02A"/><path fill-rule="evenodd" clip-rule="evenodd" d="M216.645 135.315C220.994 144.993 223.437 158.118 223.437 171.805H200.248L133.133 171.805C133.133 158.119 140.364 144.994 153.234 135.317C165.847 125.833 182.863 120.422 200.669 120.209C206.667 120.451 212.396 125.858 216.645 135.315Z" fill="#FFC600"/><rect x="136.16" y="174.619" width="131.057" height="43.2971" fill="#FDB02A"/><rect x="208.574" y="174.619" width="58.6465" height="43.297" fill="#F49000"/><rect x="136.16" y="174.478" width="11.6782" height="39.1317" fill="#FFC600"/><rect x="255.523" y="174.478" width="11.6782" height="39.1317" fill="#FDB02A"/><rect x="160.402" y="174.478" width="14.5759" height="39.1317" fill="#FFC600"/><rect x="191.852" y="174.478" width="19.845" height="39.1317" fill="#FFC600"/><rect x="228.395" y="174.478" width="14.5759" height="39.1317" fill="#FDB02A"/><path d="M132.035 170.286C132.035 168.691 133.328 167.398 134.923 167.398H268.537C270.132 167.398 271.425 168.691 271.425 170.286V176.426C271.425 178.021 270.132 179.314 268.537 179.314H134.923C133.328 179.314 132.035 178.021 132.035 176.426V170.286Z" fill="#FFC600"/><rect x="128.605" y="161.137" width="146.171" height="10.3609" rx="2.88785" fill="#FBE56D"/><path d="M221.855 164.025C221.855 162.43 223.148 161.137 224.743 161.137H271.881C273.476 161.137 274.769 162.43 274.769 164.025V168.61C274.769 170.205 273.476 171.498 271.881 171.498H224.743C223.148 171.498 221.855 170.205 221.855 168.61V164.025Z" fill="#FFC600"/><rect x="61.2461" y="214.664" width="321.312" height="161.445" fill="#F49000"/><path d="M337.875 332.066H383.711C386.103 332.066 388.043 334.006 388.043 336.398V376.107H337.875V332.066Z" fill="#FFA319"/><rect x="64.7656" y="210.595" width="324.533" height="13.6935" rx="3.60981" fill="#FDB02A"/><rect x="51.4766" y="214.663" width="282.972" height="161.445" fill="#FDB02A"/><path d="M99.5742 255.661H260.918V376.107H99.5743L99.5742 255.661Z" fill="#F49000"/><path d="M288.586 336.401C288.586 334.009 290.525 332.07 292.918 332.07L341.427 332.069C343.82 332.069 345.759 334.009 345.759 336.401V376.11L288.586 376.11V336.401Z" fill="#FFC600"/><path d="M46.5469 336.396C46.5469 334.004 48.4863 332.065 50.8786 332.065L78.8357 332.064C81.2281 332.064 83.1675 334.004 83.1675 336.396V376.105L46.5469 376.105V336.396Z" fill="#FFC600"/><path d="M46.5469 214.203C46.5469 212.209 48.163 210.593 50.1567 210.593H328.24C330.234 210.593 331.85 212.209 331.85 214.203V220.676C331.85 222.67 330.234 224.286 328.24 224.286H50.1567C48.163 224.286 46.5469 222.67 46.5469 220.676V214.203Z" fill="#FFC600"/><path d="M307.559 270.085C307.559 266.245 310.671 263.133 314.511 263.133C318.351 263.133 321.463 266.245 321.463 270.085V319.465C321.463 320.262 320.817 320.909 320.019 320.909H309.003C308.205 320.909 307.559 320.262 307.559 319.465V270.085Z" fill="#FBE56D"/><path d="M278.617 270.085C278.617 266.245 281.73 263.133 285.569 263.133C289.409 263.133 292.522 266.245 292.522 270.085V319.465C292.522 320.262 291.875 320.909 291.078 320.909H280.061C279.264 320.909 278.617 320.262 278.617 319.465V270.085Z" fill="#FBE56D"/><path d="M64.7695 270.085C64.7695 266.245 67.8822 263.133 71.7218 263.133C75.5614 263.133 78.6741 266.245 78.6741 270.085V319.465C78.6741 320.262 78.0276 320.909 77.2302 320.909H66.2135C65.416 320.909 64.7695 320.262 64.7695 319.465V270.085Z" fill="#FBE56D"/><path d="M162.051 297.797C162.051 296.202 163.344 294.909 164.939 294.909H207.651C209.246 294.909 210.539 296.202 210.539 297.797V354.223H162.051V297.797Z" fill="#EE7404"/><path d="M220.523 269.768C219.59 270.538 218.394 271.001 217.09 271.001C214.111 271.001 211.695 268.586 211.695 265.608C211.695 262.629 214.111 260.214 217.09 260.214C217.255 260.214 217.419 260.221 217.58 260.236V260.214H238.178V260.236C238.339 260.221 238.503 260.214 238.668 260.214C241.648 260.214 244.063 262.629 244.063 265.608C244.063 268.586 241.648 271.001 238.668 271.001C237.364 271.001 236.168 270.538 235.235 269.768V344.551H236.938C238.022 344.551 238.9 345.429 238.9 346.512V348.473C238.9 349.557 238.022 350.435 236.938 350.435H218.82C217.737 350.435 216.858 349.557 216.858 348.473V346.512C216.858 345.429 217.737 344.551 218.82 344.551H220.523V269.768Z" fill="#FBE56D"/><path d="M220.523 269.768C219.59 270.538 218.394 271.001 217.09 271.001C214.111 271.001 211.695 268.586 211.695 265.607C211.695 262.629 214.111 260.214 217.09 260.214C217.255 260.214 217.419 260.221 217.58 260.236V260.214H238.178V260.236C238.339 260.221 238.503 260.214 238.668 260.214C241.647 260.214 244.063 262.629 244.063 265.607C244.063 268.586 241.647 271.001 238.668 271.001C237.364 271.001 236.168 270.538 235.235 269.768V277.564H220.523V269.768Z" fill="#FFC600"/><path d="M180.902 269.768C179.969 270.538 178.773 271.001 177.469 271.001C174.489 271.001 172.074 268.586 172.074 265.608C172.074 262.629 174.489 260.214 177.469 260.214C177.634 260.214 177.798 260.221 177.959 260.236V260.214H198.557V260.236C198.718 260.221 198.882 260.214 199.047 260.214C202.026 260.214 204.442 262.629 204.442 265.608C204.442 268.586 202.026 271.001 199.047 271.001C197.743 271.001 196.547 270.538 195.614 269.768V344.551H197.317C198.4 344.551 199.279 345.429 199.279 346.512V348.473C199.279 349.557 198.4 350.435 197.317 350.435H179.199C178.116 350.435 177.237 349.557 177.237 348.473V346.512C177.237 345.429 178.116 344.551 179.199 344.551H180.902V269.768Z" fill="#FBE56D"/><path d="M180.902 269.768C179.969 270.538 178.773 271.001 177.469 271.001C174.489 271.001 172.074 268.586 172.074 265.607C172.074 262.629 174.489 260.214 177.469 260.214C177.634 260.214 177.798 260.221 177.959 260.236V260.214H198.557V260.236C198.718 260.221 198.882 260.214 199.047 260.214C202.026 260.214 204.442 262.629 204.442 265.607C204.442 268.586 202.026 271.001 199.047 271.001C197.743 271.001 196.547 270.538 195.614 269.768V277.564H180.902V269.768Z" fill="#FFC600"/><path d="M128.304 269.768C127.371 270.538 126.175 271.001 124.871 271.001C121.892 271.001 119.477 268.586 119.477 265.608C119.477 262.629 121.892 260.214 124.871 260.214C125.036 260.214 125.2 260.221 125.362 260.236V260.214H145.959V260.236C146.121 260.221 146.284 260.214 146.449 260.214C149.429 260.214 151.844 262.629 151.844 265.608C151.844 268.586 149.429 271.001 146.449 271.001C145.145 271.001 143.949 270.538 143.017 269.768V344.551H144.719C145.803 344.551 146.681 345.429 146.681 346.512V348.473C146.681 349.557 145.803 350.435 144.719 350.435H126.601C125.518 350.435 124.64 349.557 124.64 348.473V346.512C124.64 345.429 125.518 344.551 126.601 344.551H128.304V269.768Z" fill="#FBE56D"/><path d="M128.304 269.768C127.371 270.538 126.175 271.001 124.871 271.001C121.892 271.001 119.477 268.586 119.477 265.607C119.477 262.629 121.892 260.214 124.871 260.214C125.036 260.214 125.2 260.221 125.362 260.236V260.214H145.959V260.236C146.12 260.221 146.284 260.214 146.449 260.214C149.429 260.214 151.844 262.629 151.844 265.607C151.844 268.586 149.429 271.001 146.449 271.001C145.145 271.001 143.949 270.538 143.016 269.768V277.564H128.304V269.768Z" fill="#FFC600"/><path d="M90.1009 269.768C89.1682 270.538 87.9722 271.001 86.668 271.001C83.6887 271.001 81.2734 268.586 81.2734 265.608C81.2734 262.629 83.6887 260.214 86.668 260.214C86.8333 260.214 86.9969 260.221 87.1584 260.236V260.214H107.756V260.236C107.917 260.221 108.081 260.214 108.246 260.214C111.226 260.214 113.641 262.629 113.641 265.608C113.641 268.586 111.226 271.001 108.246 271.001C106.942 271.001 105.746 270.538 104.813 269.768V344.551H106.516C107.6 344.551 108.478 345.429 108.478 346.512V348.473C108.478 349.557 107.6 350.435 106.516 350.435H88.3981C87.3148 350.435 86.4365 349.557 86.4365 348.473V346.512C86.4365 345.429 87.3148 344.551 88.3981 344.551H90.1009V269.768Z" fill="#FBE56D"/><path d="M90.1009 269.768C89.1682 270.538 87.9721 271.001 86.668 271.001C83.6887 271.001 81.2734 268.586 81.2734 265.607C81.2734 262.629 83.6887 260.214 86.668 260.214C86.8333 260.214 86.9969 260.221 87.1584 260.236V260.214H107.756V260.236C107.917 260.221 108.081 260.214 108.246 260.214C111.225 260.214 113.641 262.629 113.641 265.607C113.641 268.586 111.225 271.001 108.246 271.001C106.942 271.001 105.746 270.538 104.813 269.768V277.564H90.1009V269.768Z" fill="#FFC600"/><path fill-rule="evenodd" clip-rule="evenodd" d="M101.423 260.052H126.162C123.971 260.052 122.931 263.957 122.931 266.687C122.931 290.329 122.931 325.98 122.931 325.98C122.931 329.03 120.059 330.142 117.915 328.45L112.35 324.062C111.267 323.207 109.855 323.207 108.772 324.062L103.207 328.45C101.063 330.142 98.1914 329.03 98.1914 325.98C98.1914 325.98 98.1914 289.792 98.1914 266.687C98.1915 263.957 98.9142 260.052 101.423 260.052Z" fill="#89E219"/><path fill-rule="evenodd" clip-rule="evenodd" d="M192.915 260.052H217.654C215.464 260.052 214.423 263.957 214.423 266.687C214.423 290.329 214.423 325.98 214.423 325.98C214.423 329.03 211.551 330.142 209.407 328.45L203.842 324.062C202.759 323.207 201.348 323.207 200.264 324.062L194.7 328.45C192.555 330.142 189.684 329.03 189.684 325.98C189.684 325.98 189.684 289.792 189.684 266.687C189.684 263.957 190.406 260.052 192.915 260.052Z" fill="#89E219"/><path fill-rule="evenodd" clip-rule="evenodd" d="M122.998 266.531H98.2588C98.2864 263.812 99.029 260.055 101.49 260.055H126.229C124.08 260.055 123.038 263.812 122.998 266.531Z" fill="#71D70E"/><path fill-rule="evenodd" clip-rule="evenodd" d="M214.49 266.531H189.751C189.779 263.812 190.521 260.055 192.982 260.055H217.721C215.572 260.055 214.53 263.812 214.49 266.531Z" fill="#71D70E"/><path fill-rule="evenodd" clip-rule="evenodd" d="M209.943 295.366L208.681 294.107V292.015C208.679 291.49 208.468 290.988 208.094 290.619C207.721 290.25 207.216 290.046 206.691 290.05H204.607L203.341 288.791C202.972 288.416 202.468 288.205 201.942 288.205C201.416 288.205 200.913 288.416 200.544 288.791L199.284 290.05H197.192C196.103 290.05 195.216 290.926 195.201 292.015V294.107L193.942 295.366C193.569 295.735 193.359 296.238 193.359 296.762C193.359 297.286 193.569 297.789 193.942 298.157L195.201 299.417V301.509C195.204 302.034 195.416 302.536 195.789 302.904C196.163 303.273 196.667 303.478 197.192 303.474H199.284L200.544 304.733C200.913 305.108 201.416 305.319 201.942 305.319C202.468 305.319 202.972 305.108 203.341 304.733L204.607 303.48H206.697C207.787 303.48 208.674 302.605 208.688 301.515V299.423L209.943 298.157C210.316 297.789 210.526 297.286 210.526 296.762C210.526 296.238 210.316 295.735 209.943 295.366Z" fill="#D7FFB8"/><path fill-rule="evenodd" clip-rule="evenodd" d="M221.863 101.219L221.086 100.444V99.1554C221.085 98.8322 220.955 98.5229 220.725 98.2959C220.495 98.0689 220.184 97.9429 219.861 97.9457H218.578L217.798 97.1704C217.571 96.9396 217.261 96.8096 216.937 96.8096C216.613 96.8096 216.303 96.9396 216.076 97.1704L215.3 97.9457H214.012C213.341 97.9457 212.795 98.4847 212.787 99.1554V100.444L212.011 101.219C211.782 101.446 211.652 101.755 211.652 102.078C211.652 102.401 211.782 102.71 212.011 102.937L212.787 103.713V105.001C212.788 105.324 212.918 105.633 213.148 105.86C213.378 106.087 213.689 106.213 214.012 106.211H215.3L216.076 106.986C216.303 107.217 216.613 107.347 216.937 107.347C217.261 107.347 217.571 107.217 217.798 106.986L218.578 106.215H219.865C220.535 106.215 221.082 105.676 221.09 105.005V103.717L221.863 102.937C222.093 102.71 222.222 102.401 222.222 102.078C222.222 101.755 222.093 101.446 221.863 101.219Z" fill="#D7FFB8"/><path fill-rule="evenodd" clip-rule="evenodd" d="M118.845 295.366L117.584 294.107V292.015C117.581 291.49 117.37 290.988 116.997 290.619C116.623 290.25 116.118 290.046 115.593 290.05H113.509L112.244 288.791C111.875 288.416 111.371 288.205 110.845 288.205C110.319 288.205 109.815 288.416 109.446 288.791L108.187 290.05H106.094C105.005 290.05 104.118 290.926 104.104 292.015V294.107L102.844 295.366C102.472 295.735 102.262 296.238 102.262 296.762C102.262 297.286 102.472 297.789 102.844 298.157L104.104 299.417V301.509C104.107 302.034 104.318 302.536 104.692 302.904C105.065 303.273 105.57 303.478 106.094 303.474H108.187L109.446 304.733C109.815 305.108 110.319 305.319 110.845 305.319C111.371 305.319 111.875 305.108 112.244 304.733L113.509 303.48H115.6C116.689 303.48 117.576 302.605 117.59 301.515V299.423L118.845 298.157C119.218 297.789 119.428 297.286 119.428 296.762C119.428 296.238 119.218 295.735 118.845 295.366Z" fill="#D7FFB8"/><path fill-rule="evenodd" clip-rule="evenodd" d="M155.5 188.45C155.5 188.45 179.855 188.45 180.358 188.45C180.859 188.45 181.361 188.576 181.836 188.827L266.955 234.536C272.134 237.272 270.672 246.864 265.106 246.864H95.6106C90.0446 246.864 88.5833 237.272 93.7616 234.536L155.5 188.45Z" fill="#FDB02A"/><path d="M103.234 252.631C103.234 251.517 104.137 250.614 105.251 250.614H265.6C266.714 250.614 267.617 251.517 267.617 252.631V258.351C267.617 259.464 266.714 260.367 265.6 260.367H105.251C104.137 260.367 103.234 259.464 103.234 258.351V252.631Z" fill="#FDB02A"/><path d="M73.8516 246.863H267.627V253.14H73.8516V246.863Z" fill="#F49000"/><path d="M73.8281 252.639C73.8281 251.525 74.7311 250.622 75.845 250.622H236.193C237.307 250.622 238.21 251.525 238.21 252.639V258.359C238.21 259.472 237.307 260.375 236.193 260.375H75.845C74.7311 260.375 73.8281 259.472 73.8281 258.359V252.639Z" fill="#FBE56D"/><path d="M73.8281 246.864H238.205V253.141H73.8281V246.864Z" fill="#FDB02A"/><path d="M83.1484 249.589C83.1484 249.052 83.5837 248.617 84.1207 248.617H90.9266C91.4635 248.617 91.8988 249.052 91.8988 249.589V255.422C91.8988 255.959 91.4635 256.394 90.9266 256.394H84.1207C83.5837 256.394 83.1484 255.959 83.1484 255.422V249.589Z" fill="#FDB02A"/><path d="M102.574 249.589C102.574 249.052 103.01 248.617 103.546 248.617H110.352C110.889 248.617 111.325 249.052 111.325 249.589V255.422C111.325 255.959 110.889 256.394 110.352 256.394H103.546C103.01 256.394 102.574 255.959 102.574 255.422V249.589Z" fill="#FDB02A"/><path d="M122.012 249.589C122.012 249.052 122.447 248.617 122.984 248.617H129.79C130.327 248.617 130.762 249.052 130.762 249.589V255.422C130.762 255.959 130.327 256.394 129.79 256.394H122.984C122.447 256.394 122.012 255.959 122.012 255.422V249.589Z" fill="#FDB02A"/><path d="M141.438 249.589C141.438 249.052 141.873 248.617 142.41 248.617H149.216C149.753 248.617 150.188 249.052 150.188 249.589V255.422C150.188 255.959 149.753 256.394 149.216 256.394H142.41C141.873 256.394 141.438 255.959 141.438 255.422V249.589Z" fill="#FDB02A"/><path d="M160.895 249.589C160.895 249.052 161.33 248.617 161.867 248.617H168.673C169.21 248.617 169.645 249.052 169.645 249.589V255.422C169.645 255.959 169.21 256.394 168.673 256.394H161.867C161.33 256.394 160.895 255.959 160.895 255.422V249.589Z" fill="#FDB02A"/><path d="M180.332 249.589C180.332 249.052 180.767 248.617 181.304 248.617H188.11C188.647 248.617 189.082 249.052 189.082 249.589V255.422C189.082 255.959 188.647 256.394 188.11 256.394H181.304C180.767 256.394 180.332 255.959 180.332 255.422V249.589Z" fill="#FDB02A"/><path d="M199.789 249.589C199.789 249.052 200.224 248.617 200.761 248.617H207.567C208.104 248.617 208.539 249.052 208.539 249.589V255.422C208.539 255.959 208.104 256.394 207.567 256.394H200.761C200.224 256.394 199.789 255.959 199.789 255.422V249.589Z" fill="#FDB02A"/><path d="M219.207 249.589C219.207 249.052 219.642 248.617 220.179 248.617H226.985C227.522 248.617 227.957 249.052 227.957 249.589V255.422C227.957 255.959 227.522 256.394 226.985 256.394H220.179C219.642 256.394 219.207 255.959 219.207 255.422V249.589Z" fill="#FDB02A"/><path fill-rule="evenodd" clip-rule="evenodd" d="M154.105 188.827C155.055 188.325 156.112 188.325 157.063 188.827L242.182 234.536C247.36 237.272 245.899 246.864 240.333 246.864H70.8372C65.2712 246.864 63.8099 237.272 68.9881 234.536L154.105 188.827Z" fill="#FBE56D"/><path d="M221.805 236.614L156.73 202.003C155.995 201.615 155.178 201.615 154.443 202.003L121.907 219.308L89.3711 236.614" stroke="#FFC600" stroke-width="5.7757" stroke-linecap="round"/><path d="M61.582 359.926C61.582 358.812 62.485 357.909 63.5989 357.909H252.178C253.292 357.909 254.195 358.812 254.195 359.926V365.975C254.195 367.089 253.292 367.991 252.178 367.991H63.5989C62.485 367.991 62.4244 367.991 61.582 367.991V359.926Z" fill="#FBE56D"/><path d="M53.6328 368.766C53.6328 367.653 54.5358 366.75 55.6497 366.75H244.229C245.343 366.75 246.246 367.653 246.246 368.766V374.094C246.246 375.208 245.343 376.11 244.229 376.11H55.6497C54.5358 376.11 54.4752 376.11 53.6328 376.11V368.766Z" fill="#FBE56D"/><path d="M69.5234 351.197C69.5234 350.083 70.4264 349.181 71.5403 349.181L252.507 349.181C253.621 349.181 254.524 350.083 254.524 351.197V357.246C254.524 358.36 253.621 359.263 252.507 359.263L71.5403 359.263C70.4264 359.263 70.3082 359.263 69.5234 359.263V351.197Z" fill="#FBE56D"/><path d="M72.5039 357.063L234.566 357.063" stroke="#FFC600" stroke-width="3.60981" stroke-linecap="round"/><path d="M64.7422 365.661H226.392" stroke="#FFC600" stroke-width="3.60981" stroke-linecap="round"/><path d="M244.973 351.197C244.973 350.083 245.876 349.181 246.989 349.181H258.848C259.962 349.181 260.865 350.083 260.865 351.197V357.246C260.865 358.36 260.865 357.246 260.865 359.263H246.989C245.876 359.263 245.757 359.263 244.973 359.263V351.197Z" fill="#FDB02A"/><path d="M237.02 359.925C237.02 358.811 237.922 357.908 239.036 357.908H258.827C259.941 357.908 260.844 357.908 260.844 357.908V365.974C260.844 367.088 260.844 365.974 260.844 367.99H239.036C237.922 367.99 237.804 367.99 237.02 367.99V359.925Z" fill="#FDB02A"/><path d="M229.172 368.728C229.172 367.615 230.075 366.712 231.189 366.712L258.844 366.712C259.958 366.712 259.618 366.712 260.861 366.712V374.778C260.861 375.891 260.861 374.089 260.861 376.105L231.189 376.105C230.075 376.105 229.957 376.105 229.172 376.105V368.728Z" fill="#FDB02A"/><path d="M140.509 225.43C140.509 217.132 147.238 210.404 155.538 210.404C163.838 210.404 170.566 217.132 170.566 225.43C170.566 233.729 163.838 240.456 155.538 240.456C147.238 240.456 140.509 233.729 140.509 225.43Z" fill="#FFC600"/><path d="M144.376 225.43C144.376 219.264 149.376 214.265 155.544 214.265C161.711 214.265 166.711 219.264 166.711 225.43C166.711 231.597 161.711 236.596 155.544 236.596C149.376 236.596 144.376 231.597 144.376 225.43Z" fill="white"/><path d="M151.043 224.703L154.995 227.978L160.348 222.528" stroke="#FFC600" stroke-width="3.60981" stroke-linecap="round" stroke-linejoin="round"/><rect x="340.406" y="337.711" width="80.4426" height="38.4" rx="14.4392" fill="#89E219"/><rect x="347.828" y="309.054" width="58.7666" height="38.3999" rx="15.1612" fill="#89E219"/><rect x="301.242" y="343.805" width="95.5173" height="32.31" rx="16.155" fill="#58CC02"/><path d="M326.777 336.026C326.777 327.653 333.565 320.865 341.939 320.865H367.339C375.712 320.865 382.5 327.653 382.5 336.026V353.175H326.777V336.026Z" fill="#58CC02"/><path fill-rule="evenodd" clip-rule="evenodd" d="M406.701 194.212C404.768 189.827 399.646 187.838 395.26 189.769L382.93 195.2C378.544 197.131 376.555 202.252 378.487 206.638C380.419 211.023 385.541 213.012 389.928 211.08L402.257 205.65C406.644 203.718 408.633 198.597 406.701 194.212Z" fill="#F49000"/><path d="M324.268 223.517L257.078 159.47C253.477 156.038 247.628 157.084 245.528 161.537C235.437 182.933 240.323 209.008 258.074 225.929C275.826 242.85 302.028 246.408 322.804 235.197C327.128 232.864 327.87 226.949 324.268 223.517Z" fill="#58CC02"/><path d="M398.159 182.788C400.509 167.171 384.66 152.003 367.249 153.174C354.604 155.301 353.256 155.522 346.357 155.739C329.808 156.26 330.999 132.727 303.289 139.065C283.047 143.695 273.812 161.379 267.002 183.956L261.87 210.707C256.356 247.352 277.284 281.159 313.459 286.6C349.634 292.042 385.01 266.591 390.524 229.946C396.039 193.301 398.159 182.788 398.159 182.788Z" fill="#58CC02"/><path d="M331.52 267.112L314.773 265.018C313.875 264.906 313.131 265.629 313.302 266.447C314.126 270.376 317.651 273.459 322.075 274.012C326.5 274.566 330.724 272.452 332.563 268.856C332.946 268.107 332.418 267.225 331.52 267.112Z" fill="#8EE000"/><path d="M301.744 263.595L285.772 258.142C284.916 257.85 284.04 258.407 284.041 259.243C284.05 263.257 286.874 266.992 291.094 268.432C295.314 269.873 299.88 268.661 302.411 265.514C302.938 264.859 302.6 263.887 301.744 263.595Z" fill="#8EE000"/><path d="M317.785 275.961L301.57 273.559C300.701 273.43 299.982 273.986 300.151 274.658C300.961 277.883 304.381 280.533 308.665 281.168C312.949 281.803 317.031 280.263 318.8 277.42C319.168 276.829 318.654 276.09 317.785 275.961Z" fill="#8EE000"/><path d="M326.636 220.947L424.204 198.749C429.434 197.559 434.269 201.754 433.754 207.034C431.277 232.403 412.353 253.838 386.576 259.703C360.799 265.567 334.58 254.403 321.54 232.565C318.826 228.019 321.407 222.137 326.636 220.947Z" fill="#58CC02"/><path fill-rule="evenodd" clip-rule="evenodd" d="M312.352 286.457C324.393 285.354 339.383 282.643 352.817 274.377C361.466 269.055 367.646 260.963 372.142 251.759C372.538 250.949 373.35 250.431 374.252 250.39C390.036 249.671 420.726 237.721 432.882 212.445C428.436 235.411 410.414 254.267 386.489 259.71C383.275 260.442 380.053 260.908 376.851 261.122C362.124 279.756 337.923 290.311 313.353 286.615C313.018 286.565 312.685 286.512 312.352 286.457ZM394.206 205.447C391.208 206.124 388.72 206.632 386.774 206.996C385.254 207.28 383.932 205.988 384.135 204.455C384.327 203.004 384.517 201.562 384.699 200.181C384.957 198.228 385.199 196.397 385.408 194.828C388.07 174.864 387.082 159.598 370.01 153.141C370.717 153.165 371.42 153.216 372.117 153.291L376.385 154.075C389.715 157.548 399.976 170.025 398.053 182.803C398.053 182.803 396.933 188.354 394.206 205.447Z" fill="#00BC35"/><path fill-rule="evenodd" clip-rule="evenodd" d="M326.402 193.508C317.895 199.675 305.08 197.524 298.226 188.778C291.371 180.033 292.218 232.001 292.24 231.872C292.251 231.81 296.58 232.518 305.229 233.997C307.547 234.393 311.723 235.112 317.757 236.154C329.192 203.612 332.074 189.397 326.402 193.508Z" fill="#89E219"/><path d="M350.06 177.883C350.06 177.883 341.111 184.131 336.403 187.412C331.742 190.66 323.963 195.437 323.963 195.437C322.752 196.411 322.845 198.275 324.147 199.119C330.401 203.171 338.705 202.763 344.675 197.962C350.644 193.161 356.295 185.779 353.635 178.837C353.081 177.392 351.271 176.909 350.06 177.883Z" fill="#89E219"/><path d="M360.108 183.627L337.389 196.451C336.173 197.264 336.237 200.751 337.389 201.652C342.922 205.977 350.718 205.171 356.708 201.164C362.698 197.157 365.531 191.43 363.603 184.693C363.202 183.29 361.577 182.777 360.108 183.627Z" fill="#89E219"/><path d="M369.592 219.011C372.054 204.35 366.02 192.81 351.356 190.349C336.692 187.888 317.925 196.386 315.463 211.047L313.267 224.127C310.805 238.788 320.31 253.015 334.974 255.476C349.637 257.937 363.266 250.745 365.728 236.085L369.592 219.011Z" fill="#89E219"/><path fill-rule="evenodd" clip-rule="evenodd" d="M261.893 214.992C261.15 228.023 269.169 239.19 279.511 240.873C290.88 242.723 303.003 237.479 305.242 222.795L303.404 205.077C305.644 190.393 298.067 176.437 286.698 174.587C277.837 173.145 270.997 176.975 266.993 186.716C263.868 195.764 263.111 205.536 261.893 214.992Z" fill="#89E219"/><path d="M298.018 166.12C297.821 168.092 298.594 194.648 311.54 196.069L304.049 203.152L288.282 181.004L281.969 178.7C280.026 179.519 276.542 179.869 276.768 176.536C277.208 170.059 280.763 165.872 283.03 166.121C284.21 166.25 284.959 167.02 285.5 172.815C287.2 167.638 290.637 164.914 292.763 163.698C295.429 162.174 298.416 162.118 298.018 166.12Z" fill="#89E219"/><path d="M311.342 196.452C327.933 197.506 335.628 185.313 347.582 179.842L339.804 190.374L326.309 201.039L314.519 207.15C310.56 203.187 304.345 196.008 311.342 196.452Z" fill="#89E219"/><path d="M360.281 219.95C361.994 209.751 355.113 200.095 344.913 198.383C334.712 196.671 325.055 203.551 323.342 213.75L321.598 224.137C319.885 234.336 326.766 243.991 336.967 245.703C347.167 247.415 356.825 240.536 358.537 230.337L360.281 219.95Z" fill="white"/><path d="M298.188 203.42C299.849 193.222 295.046 183.89 287.461 182.577C279.875 181.264 272.38 188.467 270.719 198.666L269.028 209.053C267.367 219.252 272.17 228.584 279.755 229.897C287.34 231.21 294.836 224.006 296.496 213.808L298.188 203.42Z" fill="white"/><path d="M283.21 203.221C286.129 203.727 288.999 201.041 289.621 197.224C289.824 195.976 289.762 194.761 289.484 193.673C290.163 193.517 290.864 193.491 291.568 193.612C295.217 194.244 297.545 198.624 296.768 203.396L295.267 212.613C294.49 217.385 290.902 220.741 287.253 220.11C283.604 219.478 281.276 215.098 282.053 210.326L283.21 203.221Z" fill="#4B4B4B"/><path fill-rule="evenodd" clip-rule="evenodd" d="M329.841 215.843C333.666 216.485 337.297 213.847 337.951 209.951C338.165 208.678 338.034 207.427 337.627 206.298C338.506 206.166 339.419 206.169 340.341 206.323C345.122 207.126 348.335 211.724 347.518 216.594L345.938 226C345.121 230.87 340.581 234.167 335.8 233.364C331.018 232.562 327.805 227.963 328.623 223.093L329.841 215.843Z" fill="#4B4B4B"/><path d="M315.162 235.74C316.001 230.747 311.506 235.227 306.512 234.389C301.518 233.551 296.774 227.426 295.936 232.419L295.119 245.253C295.119 250.92 297.895 254.969 302.889 255.807C307.883 256.646 312.747 253.427 313.586 248.433L315.162 235.74Z" fill="#F49000"/><path d="M312.016 234.237C309.854 234.057 301.902 234.085 298.914 234.48L298.054 243.993C297.429 247.719 299.744 251.095 303.038 251.648C306.333 252.201 309.228 249.73 309.854 246.005L312.016 234.237Z" fill="#DC6A01"/><path fill-rule="evenodd" clip-rule="evenodd" d="M303.708 251.727C306.711 251.855 309.256 249.476 309.838 246.011L310.836 240.581C310.572 240.378 310.284 240.201 309.975 240.054C307.171 238.716 303.618 240.312 302.038 243.62C300.566 246.703 301.328 250.185 303.708 251.727Z" fill="#FFB8D1"/><path d="M291.137 230.475C290.988 230.824 291.137 231.629 291.588 232.136C292.038 232.643 297.044 237.197 298.991 237.962C300.938 238.726 314.354 237.584 315.958 236.852C316.774 236.479 317.185 235.996 317.147 235.545C316.638 229.569 312.077 224.506 305.888 223.467C299.636 222.418 293.523 224.894 291.137 230.475Z" fill="#FFC200"/><path fill-rule="evenodd" clip-rule="evenodd" d="M304.559 228.077C305.057 228.158 305.513 228.276 305.871 228.397C306.021 228.447 306.144 228.495 306.238 228.536C306.285 228.557 306.321 228.574 306.348 228.587C306.361 228.594 306.371 228.599 306.378 228.603C306.385 228.607 306.388 228.609 306.388 228.609C307.342 229.188 308.602 228.953 309.203 228.084C309.803 227.216 309.516 226.042 308.561 225.463C308.153 225.215 307.659 225.01 307.178 224.848C306.588 224.649 305.897 224.473 305.167 224.354C304.601 224.261 303.991 224.199 303.372 224.19C302.875 224.183 302.358 224.211 301.842 224.291C300.735 224.462 300.011 225.435 300.225 226.465C300.44 227.495 301.511 228.192 302.617 228.02C302.854 227.984 303.123 227.967 303.419 227.971C303.788 227.976 304.176 228.014 304.559 228.077Z" fill="#FFDE00"/><path fill-rule="evenodd" clip-rule="evenodd" d="M333.609 76.3646C328.432 93.5561 315.826 113.566 288.396 139.172C287.593 139.922 286.325 139.88 285.577 139.074C284.86 138.301 284.854 137.119 285.579 136.352C304.885 115.924 343.835 69.3196 327.218 40.3818C326.659 39.4086 326.873 38.1436 327.785 37.4883C328.727 36.8105 330.047 37.0314 330.65 38.024C335.948 46.7543 338.547 59.9677 333.609 76.3646Z" fill="white"/><path fill-rule="evenodd" clip-rule="evenodd" d="M428.04 191.121C427.408 191.991 426.197 192.18 425.313 191.569C424.419 190.951 424.177 189.738 424.746 188.813C433.94 173.872 440.345 154.942 436.171 137.685C435.921 136.654 436.464 135.582 437.462 135.222C438.496 134.849 439.644 135.374 439.985 136.419C445.852 154.415 439.366 175.534 428.04 191.121Z" fill="white"/><path fill-rule="evenodd" clip-rule="evenodd" d="M304.286 11.6141C304.882 10.7281 304.651 9.52343 303.735 8.97409C285.69 -1.84924 240.799 -9.05237 185.938 49.5752C185.201 50.3632 185.207 51.6178 185.975 52.3769C186.741 53.1356 187.993 53.1301 188.783 52.3963C245.214 0.0281655 285.543 2.9872 301.569 12.2001C302.495 12.7323 303.69 12.5 304.286 11.6141Z" fill="#D7FFB8"/></g><defs><clipPath id="clip0_3701_70491"><rect width="449" height="376" fill="white"/></clipPath></defs></svg>