<svg width="77" height="80" viewBox="0 0 77 80" xmlns="http://www.w3.org/2000/svg"><g transform="translate(0, 23)"><svg width="77" height="34" viewBox="0 0 77 34" fill="none" xmlns="http://www.w3.org/2000/svg"><g id="accepting_institution_yale"><path id="Vector" d="M67.6198 14.2295C65.2761 14.2295 63.6366 16.1339 63.0737 19.1337L71.3224 19.0384C71.3224 16.515 69.7753 14.2295 67.6198 14.2295ZM67.1976 33.6102C62.2771 33.6102 58.4807 29.6577 58.4807 24.1341C58.4807 17.372 62.5586 12.7527 68.323 12.7527C72.9619 12.7527 75.5397 15.4201 75.5397 19.6579V20.5148L62.8865 20.4196C62.7927 20.9433 62.7453 21.8007 62.7453 22.8482C62.7453 27.7054 65.7448 30.8957 69.7289 30.8957C72.119 30.8957 73.3377 30.0388 75.2118 28.4197L75.915 29.5146C73.2434 31.991 71.041 33.6102 67.1976 33.6102ZM45.546 33.2291V32.1337C47.6551 31.991 48.264 31.5152 48.6393 30.7052V6.03841C48.6393 4.41933 48.4048 3.7529 45.1712 3.46711V2.51489L53.7479 0.324219L54.0284 1.13419L52.6699 2.84853V30.7052C53.1385 31.6578 54.0284 31.991 55.9498 32.1337V33.2291H45.546ZM31.2524 25.8958C31.0648 26.6575 30.9245 27.3244 30.9245 28.3723C30.9245 29.8004 31.7211 31.2289 33.2672 31.2289C34.6731 31.2289 35.4701 30.7531 36.7358 29.753L36.7822 23.3241C35.564 23.8957 32.5645 25.2294 31.2524 25.8958ZM40.6251 33.6576C38.0948 33.6576 36.8761 31.8954 36.7822 30.6578C35.1887 32.3721 33.127 33.6576 31.1586 33.6576C28.6278 33.6576 26.4718 32.0863 26.4718 29.3723C26.4718 28.0386 26.8002 26.6575 27.456 25.5626L36.7822 22.1339V18.61C36.7822 16.4672 35.798 14.4196 33.6889 14.4196C32.4238 14.4196 31.205 15.9908 31.1117 18.4199L26.8935 19.1337V18.6578C28.2994 14.3717 32.9393 12.7057 35.1887 12.7057C39.4538 12.7057 40.9999 14.9912 40.9535 18.5147L40.8128 28.515C40.7659 30.4672 41.797 30.9432 42.7342 30.9432C43.4839 30.9432 44.2335 30.4672 45.1248 29.5624V30.9432C44.0932 32.1816 42.2661 33.6576 40.6251 33.6576ZM25.2535 7.32426L17.5208 20.5622V29.4676C18.4112 31.61 20.6605 31.8954 22.8165 31.991V33.2291H7.67897V31.991C9.83498 31.8954 12.4596 31.5626 13.1623 30.134V20.9433L5.28889 7.41952C3.93013 5.1336 2.61752 4.37234 -0.00683594 4.18138V2.94336H13.1623V4.18138C10.6784 4.32406 9.8819 4.80082 9.1787 5.37241L16.4897 18.2289L23.66 5.41942C22.9103 4.84824 21.9262 4.32406 19.4422 4.18138V2.94336H30.6895V4.18138C28.1592 4.27708 26.5656 5.1336 25.2535 7.32426Z" fill="#777777"/></g></svg></g></svg>