<svg width="165" height="80" viewBox="0 0 165 80" xmlns="http://www.w3.org/2000/svg"><g transform="translate(0, 18)"><svg width="165" height="44" viewBox="0 0 165 44" fill="none" xmlns="http://www.w3.org/2000/svg"><g id="Imperial (1) 1" clip-path="url(#clip0_3701_73510)"><path id="Vector" d="M0.235352 18.739V1.4731H3.62106V18.739H0.235352ZM8.58903 7.86092H8.63681C9.45321 6.751 11.0132 6.10981 12.4307 6.10981C13.9415 6.10981 15.2375 6.72643 15.9593 7.86092C16.9691 6.87524 18.5286 6.13484 19.9466 6.10981C22.6565 6.08478 24.0759 7.78811 24.1241 10.6232V18.7139H20.9291V11.2162C20.9291 9.78586 20.449 8.30597 18.8663 8.30597C17.3295 8.30597 16.3698 9.24205 16.3698 11.3873V18.7384H13.1752V11.2162C13.1752 9.49007 12.4311 8.30597 11.0623 8.30597C9.54877 8.30597 8.61405 9.36538 8.61405 11.4624V18.739H5.41948V6.40606H8.58903V7.86092ZM32.1547 8.0839C33.9777 8.0839 34.8905 10.2054 34.8905 12.3261C34.8905 14.4967 34.1716 17.0615 32.036 17.0615C30.3063 17.0615 29.0817 15.3105 29.0817 12.7206C29.0811 9.88371 30.1379 8.0839 32.1547 8.0839ZM29.0811 6.40606H25.8893V24.9065H29.0811V17.2094C29.9708 18.2966 31.2168 19.0342 32.6808 19.0342C36.1151 19.0342 38.2758 15.558 38.2758 12.3015C38.2758 9.58791 36.7405 6.11027 32.9711 6.11027C31.5303 6.11027 29.9704 6.85067 29.129 8.10757H29.0811V6.40606ZM42.8515 11.0919C42.8275 9.44229 43.6425 7.93555 45.4682 7.93555C47.0518 7.93555 47.7007 9.21794 47.5801 11.0919H42.8515ZM50.5845 12.8676C50.8216 9.19336 49.2611 6.10981 45.5164 6.10981C42.0829 6.10981 39.3944 8.52714 39.3944 12.3261C39.3944 16.3966 42.1061 19.0338 45.7325 19.0338C47.1005 19.0338 48.8052 18.6393 50.438 17.6535L49.5251 15.9275C48.7342 16.4936 47.4837 16.915 46.3086 16.915C44.316 16.915 42.7323 15.1871 42.8052 12.8672L50.5845 12.8676ZM55.2935 8.57629H55.3413L55.9884 7.61473C56.3726 7.09549 57.0692 6.10981 58.053 6.10981C58.7739 6.10981 59.5411 6.50526 60.2146 7.21927L59.0146 9.49007C58.4867 9.21794 58.15 9.06959 57.502 9.06959C56.398 9.06959 55.3163 9.98246 55.3163 12.646V18.739H52.1227V6.40606H55.2931L55.2935 8.57629ZM64.4299 6.40606V18.7394H61.2381V6.40606H64.4299ZM60.9263 2.7077C60.9263 1.76844 61.6945 0.80824 62.7749 0.80824C63.8788 0.80824 64.7435 1.74523 64.7435 2.7077C64.7435 3.7671 63.9976 4.77782 62.8209 4.77782C61.6945 4.77782 60.9263 3.7671 60.9263 2.7077ZM73.1022 11.5861C73.342 15.2108 71.6873 16.8399 70.4146 16.8399C69.6464 16.8399 68.972 16.1004 68.972 15.0142C68.972 13.6089 69.7656 12.6724 71.3256 12.1772L73.1022 11.5861ZM73.0553 16.9383C73.0553 17.604 73.1263 18.3194 73.3657 18.739H76.7518C76.3668 17.8752 76.2471 16.7161 76.2471 15.7295V10.6987C76.2471 6.8502 73.5354 6.10981 71.326 6.10981C69.67 6.10981 68.2066 6.52938 66.7157 7.78811L67.7478 9.34172C68.5898 8.60132 69.5503 8.0839 70.9201 8.0839C71.9522 8.0839 72.9352 8.79927 73.103 9.93331L70.2694 10.7961C67.4839 11.6093 65.8279 12.9417 65.8279 15.2863C65.8279 17.5535 67.3879 19.0334 69.2604 19.0334C70.3654 19.0334 71.448 18.2697 72.3358 17.5535L73.0553 16.9383ZM78.2403 18.739V0.609375H81.4317V18.7394L78.2403 18.739ZM102.504 4.60535C101.685 4.16075 100.318 3.64378 99.0206 3.64378C95.5643 3.64378 93.0692 6.13529 93.0692 10.0575C93.0692 14.1522 95.83 16.5692 99.1175 16.5692C100.415 16.5692 101.614 16.1987 102.504 15.7055L103.441 17.852C102.408 18.4686 100.607 19.0352 98.9746 19.0352C93.1388 19.0352 89.466 15.0888 89.466 10.0093C89.466 5.29751 93.1165 1.17821 99.0206 1.17821C100.774 1.17821 102.408 1.81986 103.559 2.51066L102.504 4.60535Z" fill="#777777"/><path id="Vector_2" d="M109.774 17.2094C107.493 17.2094 106.87 14.5955 106.87 12.4248C106.87 10.3779 107.589 7.93555 109.774 7.93555C112.008 7.93555 112.703 10.3779 112.703 12.4248C112.703 14.5955 112.105 17.2094 109.774 17.2094ZM109.774 19.0342C113.546 19.0342 116.087 16.2487 116.087 12.4253C116.087 8.4293 113.016 6.11026 109.774 6.11026C106.557 6.11026 103.485 8.4293 103.485 12.4253C103.485 16.2487 106.03 19.0342 109.774 19.0342ZM117.465 18.739V0.609375H120.66V18.7394L117.465 18.739ZM122.671 18.739V0.609375H125.864V18.7394L122.671 18.739ZM130.65 11.0919C130.623 9.44229 131.44 7.93555 133.263 7.93555C134.85 7.93555 135.497 9.21794 135.378 11.0919H130.65ZM138.379 12.8676C138.619 9.19336 137.06 6.10981 133.313 6.10981C129.881 6.10981 127.189 8.52714 127.189 12.3261C127.189 16.3966 129.903 19.0338 133.531 19.0338C134.898 19.0338 136.602 18.6393 138.236 17.6535L137.324 15.9275C136.533 16.4936 135.282 16.915 134.106 16.915C132.114 16.915 130.528 15.1871 130.601 12.8672L138.379 12.8676ZM156.724 11.0919C156.702 9.44229 157.516 7.93555 159.342 7.93555C160.926 7.93555 161.576 9.21794 161.456 11.0919H156.724ZM164.457 12.8676C164.695 9.19336 163.137 6.10981 159.391 6.10981C155.956 6.10981 153.269 8.52714 153.269 12.3261C153.269 16.3966 155.98 19.0338 159.607 19.0338C160.976 19.0338 162.68 18.6393 164.312 17.6535L163.401 15.9275C162.608 16.4936 161.36 16.915 160.183 16.915C158.19 16.915 156.608 15.1871 156.678 12.8672L164.457 12.8676ZM145.842 8.0839C147.765 8.0839 148.748 10.0821 148.748 12.2273C148.748 14.6938 147.834 17.0615 145.697 17.0615C143.848 17.0615 142.939 14.7425 142.939 12.3497C142.938 9.95834 143.778 8.0839 145.842 8.0839ZM151.942 6.40606H148.748V7.91097H148.7C148.028 6.80106 146.586 6.11026 145.122 6.11026C141.857 6.11026 139.552 9.21839 139.552 12.4253C139.552 16.3716 141.642 19.0342 144.834 19.0342C146.661 19.0342 147.907 17.999 148.7 16.9623H148.748V18.5905C148.748 21.4516 147.116 22.7841 145.001 22.7841C143.37 22.7841 142 22.4633 140.826 21.7233L140.2 23.7452C141.617 24.4846 143.443 24.9065 145.242 24.9065C148.82 24.9065 151.942 23.1049 151.942 17.6294V6.40606ZM0.235352 26.1402H3.64563V41.0851H10.8225V43.4042H0.235352V26.1402ZM29.5577 32.5266C30.6967 31.3426 32.2858 30.7746 33.8785 30.7746C36.8346 30.7746 38.2503 32.3542 38.2503 35.4613V43.4038H35.0417V35.8318C35.0417 34.1066 34.2581 32.9722 32.5143 32.9722C30.8701 32.9722 29.5827 34.0311 29.5827 36.0534V43.4038H26.3735V31.0723H29.5581L29.5577 32.5266ZM46.5598 32.7505C48.5822 32.7505 49.6175 34.7488 49.6175 36.8926C49.6175 39.3609 48.6592 41.7267 46.4079 41.7267C44.4633 41.7267 43.5032 39.4086 43.5032 37.0159C43.5032 34.6236 44.3883 32.7505 46.5598 32.7505ZM49.6175 43.4042H52.8271V25.2769H49.6175V32.5039H49.5665C48.8088 31.4167 47.3444 30.7751 45.702 30.7751C42.3146 30.7751 39.9401 33.8836 39.9401 37.0901C39.9401 41.0356 42.1375 43.6986 45.4486 43.6986C47.4195 43.6986 48.7333 42.6638 49.5665 41.6267H49.617L49.6175 43.4042ZM61.1657 41.8733C58.767 41.8733 58.1072 39.2603 58.1072 37.0896C58.1072 35.0432 58.8644 32.6013 61.1657 32.6013C63.5171 32.6013 64.2479 35.0432 64.2479 37.0896C64.2479 39.2603 63.6181 41.8733 61.1657 41.8733ZM61.1657 43.6986C65.1326 43.6986 67.8102 40.9113 67.8102 37.0901C67.8102 33.0964 64.5774 30.7751 61.1657 30.7751C57.7795 30.7751 54.5449 33.0964 54.5449 37.0901C54.5449 40.9113 57.2239 43.6986 61.1657 43.6986ZM72.7386 32.5266C73.8763 31.3426 75.4676 30.7746 77.0585 30.7746C80.0151 30.7746 81.4308 32.3542 81.4308 35.4613V43.4038H78.2221V35.8318C78.2221 34.1066 77.4385 32.9722 75.6938 32.9722C74.0528 32.9722 72.7632 34.0311 72.7632 36.0534V43.4038H69.554V31.0723H72.7381L72.7386 32.5266ZM17.9297 41.8733C15.527 41.8733 14.8717 39.2603 14.8717 37.0896C14.8717 35.0432 15.6289 32.6013 17.9297 32.6013C20.2797 32.6013 21.0123 35.0432 21.0123 37.0896C21.0129 39.2603 20.3794 41.8733 17.9297 41.8733ZM17.9297 43.6986C21.8961 43.6986 24.5746 40.9113 24.5746 37.0901C24.5746 33.0964 21.34 30.7751 17.9297 30.7751C14.5431 30.7751 11.309 33.0964 11.309 37.0901C11.3094 40.9113 13.9865 43.6986 17.9297 43.6986Z" fill="#777777"/></g><defs><clipPath id="clip0_3701_73510"><rect width="164.816" height="43.0892" fill="white" transform="translate(0.106445 0.609375)"/></clipPath></defs></svg></g></svg>