<svg width="128" height="80" viewBox="0 0 128 80" xmlns="http://www.w3.org/2000/svg"><g transform="translate(0, 18)"><svg width="128" height="44" viewBox="0 0 128 44" fill="none" xmlns="http://www.w3.org/2000/svg"><g id="NYU 1" clip-path="url(#clip0_3701_73504)"><path id="Vector" d="M54.6899 9.70703H59.6357L71.12 24.6946V9.70703H76.3468V34.1274H71.7569L59.9542 18.4841V34.1274H54.6899V9.70703Z" fill="#777777"/><path id="Vector_2" d="M88.5375 24.5541L79.1704 9.70703H85.3902L91.2915 19.5988L97.1928 9.70703H103.244L93.8769 24.3949V34.1274H88.3502V24.5541H88.5375Z" fill="#777777"/><path id="Vector_3" d="M105.569 23.7433V9.69238H111.011V23.5839C111.011 27.5744 112.885 29.6539 116.266 29.6539C119.648 29.6539 121.53 27.7337 121.53 23.7433V9.69238H126.935V23.5839C126.935 30.9279 122.786 34.5998 116.247 34.5998C109.55 34.5998 105.569 30.9279 105.569 23.7433Z" fill="#777777"/><path id="Vector_4" d="M43.5719 43.6986H0.48291V0.609375H43.5719V43.6986ZM20.5755 38.5935C20.5755 38.912 21.2124 39.0712 21.3717 38.5935L22.8049 26.6221H19.1423L20.5755 38.5935ZM24.0881 25.8259V24.0274H17.8683V25.7884L24.0881 25.8259ZM22.3271 23.0907C30.1394 23.4092 30.7576 16.2339 30.7576 13.5174C30.5985 14.1544 29.4743 16.0747 26.608 17.3486C25.438 17.8235 24.4207 18.6098 23.666 19.622C22.9113 20.6343 22.4482 21.8339 22.3271 23.0907ZM21.5309 22.613C22.8049 16.7116 27.5915 16.5524 28.088 15.4284C28.7249 13.6767 27.451 10.4824 27.1513 10.1639H26.992C26.3927 11.5206 25.5114 12.734 24.4067 13.7235C23.4699 14.5197 19.3015 17.7139 21.5309 22.6598V22.613ZM20.5942 22.9315C17.8871 17.3111 23.3014 13.6767 24.1069 12.8805C24.2661 12.7212 24.2661 12.7212 24.2661 12.562C24.1438 10.8016 23.7026 9.07816 22.9641 7.47555H22.8049C22.3271 9.22722 19.9385 11.7845 19.4608 12.4214C15.3111 17.2081 16.2666 20.2431 20.5755 22.9502L20.5942 22.9315ZM19.4608 23.0907C14.9927 20.3836 15.4704 16.7116 17.3906 13.9952V13.7235C17.2129 12.7486 16.8296 11.8225 16.2666 11.007C16.2666 10.8477 16.1074 10.8477 16.1074 11.007C16.1074 11.8126 15.1706 13.7235 13.878 15.803C12.604 18.0324 12.604 22.9783 19.4983 23.1375L19.4608 23.0907Z" fill="#777777"/></g><defs><clipPath id="clip0_3701_73504"><rect width="126.874" height="43.0892" fill="white" transform="translate(0.467285 0.609375)"/></clipPath></defs></svg></g></svg>