<svg width="102" height="80" viewBox="0 0 102 80" xmlns="http://www.w3.org/2000/svg"><g transform="translate(0, 14.5)"><svg width="102" height="51" viewBox="0 0 102 51" fill="none" xmlns="http://www.w3.org/2000/svg"><g id="University_of_California_logo 1" clip-path="url(#clip0_3701_73522)"><g id="g4324"><g id="g4328"><g id="g4330"><path id="path4336" d="M3.98047 8.71611V2.67463H5.68901V8.51885C5.68901 10.6832 6.49913 11.5502 8.35053 11.5502C10.1002 11.5502 10.8874 10.5269 10.8874 8.6983V2.67463H12.4595V8.55797C12.4595 11.2548 11.1235 12.9658 8.28784 12.9658C5.3212 12.9658 3.98047 11.2926 3.98047 8.71611Z" fill="#777777"/><path id="path4338" d="M16.2501 2.6763H17.9605L22.4276 8.79652C23.0011 9.60422 23.4519 10.4686 23.468 10.4686H23.5105C23.5105 10.4686 23.4288 9.68378 23.4288 8.91401V2.67644H24.9659V12.791H23.4288L18.6884 6.29926C18.2148 5.60852 17.7817 4.8001 17.7817 4.8001H17.7633C17.7633 4.8001 17.8187 5.47309 17.8187 6.10184V12.791H16.25L16.2501 2.6763Z" fill="#777777"/><path id="path4340" d="M28.9844 2.67644H30.6749V12.791H28.9844V2.67644Z" fill="#777777"/><path id="path4342" d="M33.5196 2.67644H35.3089L37.8669 9.30935C38.1616 10.0558 38.4596 11.0191 38.4596 11.0392H38.4973C38.4973 11.019 38.793 10.0778 39.0857 9.30935L41.5445 2.67644H43.1798L39.2653 12.791H37.6123L33.5196 2.67644Z" fill="#777777"/><path id="path4344" d="M45.9416 2.6764H52.1196V4.05352H47.6308V6.82724H51.6466V8.16569H47.6308V11.411H52.2168V12.791H45.9414V2.67643" fill="#777777"/><path id="path4346" d="M58.8062 7.12602C60.223 7.12602 60.8315 6.58966 60.8315 5.54783C60.8315 4.48728 60.1651 3.99422 58.707 3.99422H57.3698V7.12598L58.8062 7.12602ZM55.6798 2.67639H58.8452C61.2067 2.67639 62.5637 3.63774 62.5637 5.47324C62.5637 7.20176 61.3067 7.9683 59.7885 8.12943V8.16566C60.0059 8.32346 60.3818 8.70007 60.991 9.54204L63.3927 12.791H61.443L59.3945 9.89777C58.3918 8.5012 58.1555 8.3845 57.547 8.3845H57.3698V12.791H55.6797L55.6798 2.67639Z" fill="#777777"/><path id="path4348" d="M65.3517 11.963L66.1001 10.7595C66.3753 10.9584 67.12 11.5901 68.46 11.5901C69.6616 11.5901 70.4464 11.0576 70.4464 10.1719C70.4464 9.11132 69.4828 8.81299 68.0092 8.12757C66.7094 7.53579 65.6087 6.80639 65.6087 5.2127C65.6087 3.44324 67.12 2.4796 68.8728 2.4796C70.5274 2.4796 71.372 3.00648 71.8045 3.30479L71.0778 4.50491C70.7034 4.24913 69.9363 3.85599 68.9321 3.85599C67.9681 3.85599 67.2604 4.27078 67.2604 5.13656C67.2604 6.10012 68.1065 6.3943 69.2076 6.88888C70.6243 7.51568 72.0797 8.24145 72.0797 10.0949C72.0797 11.8662 70.6627 12.9658 68.4815 12.9658C66.7908 12.9658 65.7637 12.3375 65.3516 11.9631" fill="#777777"/><path id="path4350" d="M75.4141 2.67644H77.1048V12.791H75.4141V2.67644Z" fill="#777777"/><path id="path4352" d="M83.0666 4.0757H79.9805V2.67645H87.8691V4.0757H84.7803V12.791H83.0665L83.0666 4.0757Z" fill="#777777"/><path id="path4354" d="M93.2605 8.95163L89.6992 2.67627H91.5481L94.144 7.48012H94.1844L96.7417 2.67627H98.3948L94.9511 8.95163V12.791H93.2605L93.2605 8.95163Z" fill="#777777"/><path id="path4356" d="M3.40244 42.5201C3.40244 39.7041 5.33071 37.2861 8.75412 37.2861C10.1103 37.2861 11.015 37.5815 11.8052 38.0909L10.9994 39.3513C10.4064 38.9572 9.69791 38.7021 8.71641 38.7021C6.41295 38.7021 5.21211 40.2978 5.21211 42.4588C5.21211 44.6853 6.35289 46.3584 8.75403 46.3584C9.89701 46.3584 10.6633 45.9806 11.2539 45.5517L11.9644 46.7494C11.411 47.2223 10.2315 47.7744 8.69542 47.7744C5.25387 47.7744 3.40244 45.3311 3.40244 42.5201Z" fill="#777777"/><path id="path4358" d="M20.202 44.0113L19.0031 40.9214C18.6685 40.0352 18.3714 39.0892 18.3714 39.0892H18.3345C18.3345 39.0892 18.0174 40.0761 17.7043 40.9214L16.5243 44.0113H20.202ZM17.5869 37.4794H19.24L23.3523 47.5918H21.5825L20.7163 45.3897H16.0136L15.1865 47.5918H13.5117L17.5869 37.4794Z" fill="#777777"/><path id="path4360" d="M25.8477 37.4793H27.5817V46.2127H31.8499V47.5918H25.8477V37.4793Z" fill="#777777"/><path id="path4362" d="M34.7305 37.4794H36.4237V47.5918H34.7305V37.4794Z" fill="#777777"/><path id="path4364" d="M40.1797 37.4795H46.26V38.8539H41.8731V41.7277H45.7486V43.0834H41.8731V47.5918H40.1797V37.4795Z" fill="#777777"/><path id="path4366" d="M57.3194 42.5561C57.3194 40.469 56.1563 38.6623 53.8171 38.6623C51.4752 38.6623 50.2547 40.4529 50.2547 42.4972C50.2547 44.5818 51.44 46.3742 53.778 46.3742C56.1191 46.3742 57.3194 44.6232 57.3194 42.556V42.5561ZM48.4453 42.5561C48.4453 39.7829 50.3951 37.2842 53.778 37.2842C57.1636 37.2842 59.1129 39.7235 59.1129 42.4972C59.1129 45.2727 57.2027 47.7725 53.8171 47.7725C50.433 47.7725 48.4453 45.329 48.4453 42.556" fill="#777777"/><path id="path4368" d="M64.7662 41.9265C66.1844 41.9265 66.7943 41.3928 66.7943 40.351C66.7943 39.2863 66.1215 38.7967 64.6665 38.7967H63.3302V41.9264L64.7662 41.9265ZM61.6329 37.4794H64.8068C67.1668 37.4794 68.5243 38.4424 68.5243 40.2727C68.5243 42.0036 67.2639 42.769 65.7473 42.9253V42.9671C65.9673 43.1241 66.3388 43.5013 66.9503 44.3452L69.35 47.5918H67.4042L65.3553 44.6994C64.3507 43.3041 64.1143 43.1803 63.5058 43.1803H63.3302V47.5918H61.6328L61.6329 37.4794Z" fill="#777777"/><path id="path4370" d="M71.8359 37.4791H73.5476L78.0177 43.5983C78.5869 44.4033 79.0418 45.2699 79.0579 45.2699H79.097C79.097 45.2699 79.0202 44.4841 79.0202 43.7158V37.4792H80.5532V47.5916H79.0202L74.2764 41.1022C73.8062 40.4069 73.3717 39.6021 73.3717 39.6021H73.3547C73.3547 39.6021 73.4114 40.2727 73.4114 40.9021V47.5918H71.8361V37.4794" fill="#777777"/><path id="path4372" d="M84.3086 37.4794H86.002V47.5918H84.3086V37.4794Z" fill="#777777"/><path id="path4374" d="M95.2943 44.0113L94.0932 40.9214C93.7601 40.0352 93.4645 39.0892 93.4645 39.0892H93.4226C93.4226 39.0892 93.1109 40.0761 92.7951 40.9214L91.6144 44.0113H95.2943ZM92.6765 37.4794H94.3296L98.444 47.5918H96.6722L95.8057 45.3897H91.1017L90.2772 47.5918H88.6055L92.6765 37.4794Z" fill="#777777"/><path id="path4376" d="M12.2773 25.166C12.2773 23.0811 11.1168 21.2688 8.77416 21.2688C6.4344 21.2688 5.21193 23.0609 5.21193 25.1064C5.21193 27.1944 6.39307 28.9864 8.73487 28.9864C11.077 28.9864 12.2773 27.2327 12.2773 25.166ZM3.40234 25.166C3.40234 22.3931 5.35075 19.8924 8.73504 19.8924C12.1195 19.8924 14.0687 22.333 14.0687 25.1064C14.0687 27.8798 12.1599 30.3828 8.77433 30.3828C5.39087 30.3828 3.40234 27.9415 3.40234 25.166Z" fill="#777777"/><path id="path4378" d="M17.043 20.0958H23.1241V21.4695H18.735V24.3451H22.612V25.6996H18.735V30.209H17.0431V20.0959" fill="#777777"/><path id="path4380" d="M0.121094 32.9023H27.5736V17.3643H0.121094V32.9023ZM1.18164 18.4249H26.5135V31.842H1.18164V18.4249Z" fill="#777777"/><path id="path4382" d="M0.121094 15.502H101.903V-0.0350447H0.121094V15.502ZM1.18164 1.0248H100.843V14.4414H1.18164V1.0248Z" fill="#777777"/><path id="path4384" d="M0.121094 50.2944H101.903V34.7576H0.121094V50.2949V50.2944ZM1.18164 35.8174H100.843V49.2346H1.18164V35.8174Z" fill="#777777"/></g></g></g></g><defs><clipPath id="clip0_3701_73522"><rect width="101.781" height="50.2708" fill="white" transform="translate(0.113281 0.015625)"/></clipPath></defs></svg></g></svg>