<svg width="80" height="80" viewBox="0 0 80 80" fill="none" xmlns="http://www.w3.org/2000/svg"><path d="M68 12H12V68H68V12Z" fill="#929292"/><path d="M64.4379 55.1312H21.1611V56.0608H64.4379V55.1312Z" fill="white"/><path d="M24.7222 34.344V34.176C25.3158 33.9184 25.6518 33.4144 25.6518 32.7312C25.6518 31.4544 24.8006 30.6928 23.1878 30.6928H21.1494V38.0736H23.6134C25.1366 38.0736 26.0774 37.312 26.0774 35.9568C26.0774 35.4528 25.9094 34.6016 24.7222 34.344ZM22.2582 31.6336H23.2774C24.207 31.6336 24.7222 31.9696 24.7222 32.7312C24.7222 33.4928 24.2182 33.8288 23.2774 33.8288H22.2582V31.6336ZM23.6134 37.144H22.2582V34.7696H23.703C24.6326 34.7696 25.1478 35.1952 25.1478 35.9568C25.1478 36.7184 24.5542 37.144 23.6134 37.144Z" fill="white"/><path d="M25.2267 26.6272H22.2587V20.2656H21.1611V27.6464H25.2267V26.6272Z" fill="white"/><path d="M30.4905 24.9248C30.4905 23.312 29.4713 22.1248 28.0265 22.1248C26.5817 22.1248 25.5625 23.2224 25.5625 24.9248C25.5625 26.6272 26.5817 27.7248 28.0265 27.7248C29.4713 27.7248 30.4905 26.6272 30.4905 24.9248ZM26.5817 24.9248C26.5817 23.8272 27.1753 23.0544 28.0265 23.0544C28.8777 23.0544 29.4713 23.816 29.4713 24.9248C29.4713 26.0224 28.8777 26.7952 28.0265 26.7952C27.1753 26.7952 26.5817 26.112 26.5817 24.9248Z" fill="white"/><path d="M34.5675 43.08C33.9739 43.08 33.4699 43.3376 32.9547 43.7632V40.7952L31.9355 41.2992V48.512H32.9547V44.8608C33.2123 44.4352 33.8059 44.0096 34.3995 44.0096C35.1611 44.0096 35.2507 44.4352 35.2507 45.1968V48.512H36.2699V45.04C36.3483 43.7632 35.7547 43.08 34.5675 43.08Z" fill="white"/><path d="M32.6081 23.9952C32.8657 23.5696 33.4593 23.144 34.0529 23.144C34.8145 23.144 34.9041 23.5696 34.9041 24.3312V27.6352H35.9233V24.152C35.9233 22.8752 35.3297 22.2032 34.1425 22.2032C33.5489 22.2032 32.9553 22.4608 32.4401 22.9648V22.2816H31.5889V27.624H32.6081C32.6081 27.6464 32.6081 23.9952 32.6081 23.9952Z" fill="white"/><path d="M30.4031 36.3823C30.1455 36.8079 29.5519 37.2335 28.9583 37.2335C28.1967 37.2335 28.1071 36.8079 28.1071 36.0463V32.7423H27.0879V36.2255C27.0879 37.5023 27.6815 38.1743 28.8687 38.1743C29.4623 38.1743 30.0559 37.9167 30.5711 37.4127V38.0959H31.4223V32.7535H30.4031V36.3823Z" fill="white"/><path d="M52.2078 24.2528V27.5568H53.227V24.0736C53.227 22.7968 52.6334 22.1248 51.4462 22.1248C50.8526 22.1248 50.259 22.3824 49.7438 22.8864V22.2928H48.8926V27.6352H49.9118V23.984C50.1694 23.5584 50.763 23.1328 51.3566 23.1328C52.0398 23.144 52.2078 23.5696 52.2078 24.2528Z" fill="white"/><path d="M43.2134 34.7696V38.0736H44.311V34.5904C44.311 33.3136 43.7174 32.6416 42.5302 32.6416C41.9366 32.6416 41.343 32.8992 40.8278 33.4032V32.72H39.9766V38.0624H40.9062V34.4112C41.1638 33.9856 41.7574 33.56 42.351 33.56C43.135 33.5824 43.2134 34.008 43.2134 34.7696Z" fill="white"/><path d="M39.3165 27.7248C39.9997 27.7248 40.5933 27.3888 40.8397 26.9632V27.5568H41.6909V19.9184L40.6717 20.4224V22.7968C40.4141 22.4608 39.9101 22.2032 39.2269 22.2032C38.0397 22.2032 36.8525 23.0544 36.8525 25.0032C36.9421 26.3696 37.7037 27.7248 39.3165 27.7248ZM39.4845 23.0656C39.9885 23.0656 40.5037 23.4016 40.7613 23.9168V26.0336C40.5037 26.5376 39.9997 26.8848 39.4845 26.8848C38.5549 26.8848 37.9613 26.1232 37.9613 25.0144C37.9613 23.9056 38.5549 23.0656 39.4845 23.0656Z" fill="white"/><path d="M45.2531 27.7248C46.6979 27.7248 47.7171 26.6272 47.7171 24.9248C47.7171 23.2224 46.6979 22.1248 45.2531 22.1248C43.8083 22.1248 42.7891 23.2224 42.7891 24.9248C42.7891 26.6272 43.8083 27.7248 45.2531 27.7248ZM45.2531 23.0656C46.1043 23.0656 46.6979 23.8272 46.6979 24.936C46.6979 26.0336 46.1043 26.8064 45.2531 26.8064C44.4019 26.8064 43.8083 26.0448 43.8083 24.936C43.8083 23.8272 44.4019 23.0656 45.2531 23.0656Z" fill="white"/><path d="M39.8214 43.0799C38.3766 43.0799 37.3574 44.1775 37.3574 45.8799C37.3574 47.5823 38.3766 48.6799 39.8214 48.6799C41.2662 48.6799 42.2854 47.5823 42.2854 45.8799C42.2854 44.1887 41.2662 43.0799 39.8214 43.0799ZM39.8214 47.7503C38.9702 47.7503 38.3766 46.9887 38.3766 45.8799C38.3766 44.7711 38.9702 44.0095 39.8214 44.0095C40.6726 44.0095 41.2662 44.7711 41.2662 45.8799C41.2662 46.9887 40.6726 47.7503 39.8214 47.7503Z" fill="white"/><path d="M45.4201 43.0799C43.9753 43.0799 42.9561 44.1775 42.9561 45.8799C42.9561 47.5823 43.9753 48.6799 45.4201 48.6799C46.8649 48.6799 47.8841 47.5823 47.8841 45.8799C47.8841 44.1887 46.8649 43.0799 45.4201 43.0799ZM45.4201 47.7503C44.5689 47.7503 43.9753 46.9887 43.9753 45.8799C43.9753 44.7711 44.5689 44.0095 45.4201 44.0095C46.2713 44.0095 46.8649 44.7711 46.8649 45.8799C46.8649 46.9887 46.2713 47.7503 45.4201 47.7503Z" fill="white"/><path d="M48.9814 48.512H50.0006V40.7952L48.9814 41.2992V48.512Z" fill="white"/><path d="M38.5544 32.7311H37.5352V38.0735H38.5544V32.7311Z" fill="white"/><path d="M38.5544 30.6928H37.5352V31.88H38.5544V30.6928Z" fill="white"/><path d="M24.4649 44.6144L23.3673 44.1888C22.8633 43.9312 22.2697 43.6848 22.2697 43.0016C22.2697 42.408 22.6953 41.9824 23.5465 41.9824C24.1401 41.9824 24.6441 42.24 25.1593 42.744L25.7529 41.9824C25.1593 41.3888 24.3977 41.0528 23.5465 41.0528C22.1913 41.0528 21.2505 41.904 21.2505 43.0912C21.2505 44.2784 22.1801 44.872 22.6953 45.04L23.7929 45.4656C24.4761 45.7232 24.8905 45.9696 24.8905 46.6528C24.8905 47.336 24.3865 47.7504 23.4457 47.7504C22.7625 47.7504 22.0009 47.3248 21.4969 46.8208L20.9033 47.5824C21.4969 48.176 22.6057 48.68 23.4457 48.68C24.8905 48.68 25.9097 47.8288 25.9097 46.6416C25.9097 45.4544 25.1481 44.9504 24.4649 44.6144Z" fill="white"/><path d="M29.3041 47.672C28.3745 47.672 27.7809 46.9888 27.7809 45.8016C27.7809 44.704 28.3745 43.9312 29.3937 43.9312C29.8193 43.9312 30.1553 44.0992 30.4129 44.3568L30.9169 43.5952C30.4129 43.1696 29.8977 42.912 29.3041 42.912C28.6209 42.912 27.9489 43.1696 27.5233 43.6736C27.0193 44.1776 26.7617 44.9504 26.7617 45.7904C26.7617 47.4928 27.7809 48.5904 29.3041 48.5904C29.8977 48.5904 30.5809 48.3328 31.0849 47.9072L30.6593 47.1456C30.2337 47.4928 29.8081 47.672 29.3041 47.672Z" fill="white"/><path d="M52.9813 35.0272L52.7237 34.9376C52.1301 34.7696 51.7045 34.512 51.7045 34.0864C51.7045 33.6608 52.0405 33.4032 52.6341 33.4032C53.0597 33.4032 53.4853 33.6608 53.8213 33.9072L54.3253 33.1456C54.0677 32.888 53.3957 32.4624 52.6229 32.4624C51.5253 32.4624 50.7525 33.056 50.7525 33.9856C50.7525 35.0048 51.6821 35.3408 52.3653 35.5984L52.4549 35.688C52.9589 35.856 53.4741 36.024 53.4741 36.5392C53.4741 36.9648 53.1381 37.3008 52.5445 37.3008C51.9509 37.3008 51.3573 36.9648 51.0213 36.6176L50.4277 37.4688C51.0213 37.8944 51.7829 38.2304 52.4661 38.2304C53.8213 38.2304 54.4149 37.3792 54.4149 36.6176C54.4149 35.5312 53.6533 35.2848 52.9813 35.0272Z" fill="white"/><path d="M34.9032 35.0272L34.7352 34.9376C34.1416 34.7696 33.716 34.512 33.716 34.0864C33.716 33.6608 34.052 33.4032 34.6456 33.4032C35.0712 33.4032 35.4968 33.6608 35.8328 33.9072L36.3368 33.1456C36.0792 32.888 35.4072 32.4624 34.6344 32.4624C33.5368 32.4624 32.764 33.056 32.764 33.9856C32.764 35.0048 33.6936 35.3408 34.3768 35.5984L34.4664 35.688C34.9704 35.856 35.4856 36.024 35.4856 36.5392C35.4856 36.9648 35.1496 37.3008 34.556 37.3008C33.9624 37.3008 33.3688 36.9648 33.0328 36.6176L32.3496 37.4688C32.9432 37.8944 33.7048 38.2304 34.388 38.2304C35.7432 38.2304 36.3368 37.3792 36.3368 36.6176C36.4264 35.6208 35.5752 35.2848 34.9032 35.0272Z" fill="white"/><path d="M57.5614 35.0272L57.3038 34.9376C56.7102 34.7696 56.2846 34.512 56.2846 34.0864C56.2846 33.6608 56.6206 33.4032 57.2142 33.4032C57.6398 33.4032 58.0654 33.6608 58.4014 33.9072L58.9054 33.1456C58.6478 32.888 57.9758 32.4624 57.203 32.4624C56.1054 32.4624 55.3326 33.056 55.3326 33.9856C55.3326 35.0048 56.2622 35.3408 56.9454 35.5984L57.035 35.688C57.539 35.856 58.0542 36.024 58.0542 36.5392C58.0542 36.9648 57.7182 37.3008 57.1246 37.3008C56.531 37.3008 55.9374 36.9648 55.6014 36.6176L55.0078 37.4688C55.6014 37.8944 56.363 38.2304 57.0462 38.2304C58.4014 38.2304 58.995 37.3792 58.995 36.6176C58.995 35.5312 58.2334 35.2848 57.5614 35.0272Z" fill="white"/><path d="M49.161 33.1568C48.825 32.7312 48.3098 32.5632 47.6378 32.5632C46.4506 32.5632 45.1738 33.5824 45.1738 35.3632C45.1738 37.0656 46.193 38.1632 47.7162 38.1632C48.3098 38.1632 48.9034 37.9952 49.497 37.5696H49.5866L49.2506 36.808H49.161C48.7354 37.0656 48.3098 37.2336 47.8842 37.2336C46.9546 37.2336 46.2714 36.64 46.1818 35.6208H49.7434C49.9226 34.6016 49.665 33.7504 49.161 33.1568ZM46.2714 34.8592C46.361 34.008 46.9546 33.4144 47.7162 33.4144C48.4778 33.4144 48.9034 34.0976 48.9034 34.8592H46.2714Z" fill="white"/></svg>