<svg width="359" height="210" viewBox="0 0 359 210" fill="none" xmlns="http://www.w3.org/2000/svg"><path d="M163.832 90.2432C172.988 87.7327 186.065 87.7327 195.222 90.2432L216.207 96.0577C218.965 96.8102 222.534 97.1309 226.028 96.9405L252.933 95.419C264.56 94.7945 275.89 97.0153 280.107 100.746L289.748 109.347C291.009 110.468 293.619 111.354 296.923 111.782L322.214 115.055C333.228 116.477 339.784 120.329 337.908 124.278L333.425 133.411C332.876 134.599 333.838 135.811 336.07 136.745L353.155 143.884C360.602 146.986 360.602 151.437 353.155 154.539L336.115 161.662C333.888 162.597 332.927 163.808 333.47 164.996L337.953 174.129C339.829 178.078 333.273 181.932 322.259 183.354L296.968 186.626C293.617 187.026 290.937 187.897 289.614 189.016L279.973 197.601C275.783 201.339 264.433 203.564 252.799 202.928L225.893 201.406C222.394 201.222 218.827 201.548 216.073 202.304L195.087 208.104C185.949 210.632 172.835 210.632 163.697 208.104L142.801 202.365C140.05 201.607 136.481 201.281 132.98 201.467L106.075 202.989C94.4412 203.626 83.0903 201.4 78.9013 197.661L69.2597 189.076C67.9984 187.955 65.3892 187.069 62.0859 186.641L36.9286 183.308C25.938 181.876 19.3945 178.03 21.2343 174.083L25.7187 164.95C26.2794 163.764 25.3345 162.553 23.1181 161.617L5.80851 154.539C-1.58722 151.431 -1.5872 146.992 5.80851 143.884L22.9384 136.745C25.1603 135.81 26.1057 134.597 25.539 133.411L21.0546 124.278C19.2154 120.332 25.7594 116.486 36.7499 115.055L62.0859 111.782C65.3798 111.349 67.9839 110.465 69.2597 109.347L78.9013 100.746C83.1183 97.0154 94.4479 94.7945 106.075 95.419L132.98 96.9405C136.475 97.1329 140.045 96.8119 142.801 96.0577L163.832 90.2432ZM193.917 94.0802C185.521 91.9025 173.53 91.9025 165.134 94.0802L145.85 99.1231C143.323 99.7773 140.049 100.057 136.845 99.8897L112.174 98.5694C101.512 98.0277 91.1225 99.9543 87.2558 103.191L78.415 110.65C77.2451 111.62 74.8565 112.387 71.8359 112.763L48.6044 115.602C38.5262 116.843 26.0853 120.804 27.7724 124.228L32.789 135.149C33.3086 136.178 33.0989 138.194 29.829 139.25L20.5966 143.247C13.8149 145.943 13.4509 147.155 20.2323 149.851L36.1044 155.99C38.1371 156.802 39.0035 157.853 38.4892 158.882L34.3778 166.804C32.6908 170.227 38.6905 173.563 48.7685 174.805L71.8359 177.696C74.8651 178.068 77.2584 178.836 78.415 179.809L87.2558 187.256C91.0972 190.499 101.506 192.429 112.174 191.877L136.845 190.557C140.054 190.395 143.327 190.679 145.85 191.336L165.011 196.314C173.39 198.506 185.414 198.506 193.793 196.314L213.037 191.282C215.562 190.627 218.833 190.344 222.042 190.504L246.713 191.824C257.38 192.377 267.788 190.446 271.63 187.203L280.471 179.756C281.684 178.785 284.141 178.031 287.214 177.684L310.405 174.845C320.505 173.611 325.003 171.514 323.283 168.089L319.185 161.025C317.733 157.825 321.907 156.355 323.949 155.544L338.735 149.851C342.339 148.291 343.897 147.002 338.792 144.555L327.042 138.951C324.995 138.141 324.561 136.459 325.063 135.429L329.685 124.765C332.873 118.988 319.68 118.789 309.58 117.556L286.46 114.406C283.43 114.035 281.75 111.623 280.594 110.65L271.754 103.191C267.887 99.9543 257.498 98.0277 246.836 98.5694L222.165 99.8897C218.961 100.055 215.689 99.7758 213.16 99.1231L193.917 94.0802Z" fill="url(#paint0_radial_45006_59361)"/><path d="M248.15 117.864L258.79 105.754L272.712 104.169L281.88 109.489L284.936 117.525L279.956 128.051L252.451 130.089L248.15 117.864Z" fill="#1CB0F6"/><path d="M277.841 99.657C288.937 95.4319 296.82 84.6942 296.82 72.1152C296.82 55.8444 283.63 42.6543 267.359 42.6543C251.089 42.6543 237.898 55.8444 237.898 72.1152C237.898 84.6942 245.782 95.4318 256.878 99.657C256.405 100.317 256.126 101.126 256.126 102C256.126 104.224 257.929 106.027 260.153 106.027C265.782 105.129 268.936 105.268 274.566 106.027C276.79 106.027 278.593 104.224 278.593 102C278.593 101.126 278.314 100.317 277.841 99.657Z" fill="#FFB7E3"/><path d="M276.077 89.9418C276.578 89.4652 277.368 89.4379 277.901 89.8998C278.433 90.3604 278.52 91.1433 278.124 91.7064L278.038 91.8158C277.8 92.0902 277.461 92.2842 277.276 92.3871C277.032 92.5237 276.73 92.6725 276.396 92.8265C275.722 93.1363 274.832 93.5071 273.812 93.9154C271.771 94.7334 269.134 95.7304 266.515 96.724C263.209 97.9777 259.931 98.9914 256.859 99.6498C255.372 99.0822 253.943 98.3963 252.582 97.6058C256.391 97.1809 260.881 95.9553 265.551 94.184C268.183 93.1856 270.79 92.2001 272.803 91.3939C273.81 90.9903 274.649 90.6386 275.26 90.3578C275.566 90.2167 275.796 90.1031 275.952 90.016C276.017 89.9796 276.057 89.9548 276.077 89.9418Z" fill="#FF9BD8"/><path d="M275.931 123.207C285.05 126.209 291.624 134.691 291.624 144.686C291.624 157.19 281.336 167.326 268.645 167.326C255.953 167.326 245.664 157.19 245.664 144.686C245.664 136.451 250.126 129.244 256.798 125.281L266.646 125.382L275.931 123.207Z" fill="#FFB7E3"/><path d="M294.557 70.7814C294.557 83.539 284.215 93.8811 271.457 93.8811C258.7 93.8811 248.357 83.539 248.357 70.7814C248.357 58.0237 258.7 47.6816 271.457 47.6816C284.215 47.6816 294.557 58.0237 294.557 70.7814Z" fill="#E18E70"/><path opacity="0.9" d="M280.318 71.9345C281.082 72.7955 280.949 74.1617 280.02 74.986C279.092 75.8103 277.719 75.7805 276.955 74.9195C276.191 74.0585 275.828 70.4046 275.898 70.3425C275.968 70.2803 279.553 71.0735 280.318 71.9345Z" fill="#9E4D31"/><path d="M269.289 110.984L285.835 118.798" stroke="#FFB7E3" stroke-width="4.52745" stroke-linecap="round"/><path d="M269.993 111.413C270.542 110.421 271.524 109.695 272.25 109.878L282.852 114.885L279.89 118.492L269.98 113.813C269.567 113.241 269.531 112.251 269.993 111.413Z" fill="#D9D9D9"/><path d="M285.659 116.211L282.698 119.819L273.017 115.248C272.455 114.731 272.349 113.599 272.867 112.66C273.344 111.797 274.15 111.135 274.83 111.098L285.659 116.211Z" fill="#FFC800"/><path d="M271.7 59.0752C274.746 61.3905 275.88 63.6536 275.953 65.6223C275.968 65.9809 275.947 66.3466 275.887 66.715C275.415 69.6028 272.703 71.563 269.829 71.0933C268.795 70.9244 267.881 70.4641 267.157 69.8097C266.745 69.4644 266.445 69.2065 266.207 69.0016C265.337 68.2539 265.291 68.2142 263.659 67.2193C263.628 67.2009 263.597 67.1821 263.566 67.1631C263.545 67.1503 263.524 67.1374 263.503 67.1243L263.504 67.1234C261.788 66.0187 260.797 63.9598 261.148 61.8088C261.504 59.631 263.134 57.9808 265.147 57.5024C267.724 56.8809 270.496 58.2239 271.7 59.0752Z" fill="white"/><path d="M313.634 100.387C315.182 100.925 315.787 102.436 314.986 103.76C314.959 103.805 314.975 103.856 315.025 103.873L316.635 104.433C317.542 104.748 317.874 105.669 317.377 106.491L316.548 107.862C315.592 109.441 313.405 110.23 311.662 109.624L305.65 107.534C303.907 106.928 303.268 105.157 304.223 103.578L305.043 102.223C305.545 101.392 306.696 100.978 307.612 101.296L309.242 101.863C309.291 101.88 309.352 101.856 309.379 101.811C310.181 100.486 312.086 99.8488 313.634 100.387Z" fill="#D9D9D9"/><path d="M257.488 130.507L280.126 126.546" stroke="#1CB0F6" stroke-width="10.8659"/><path d="M265.572 63.6284C266.709 63.6536 267.652 62.7521 267.677 61.6147C267.686 61.2333 267.59 60.8738 267.416 60.5634C267.765 60.4476 268.139 60.3887 268.527 60.3973C270.347 60.4376 271.79 61.9456 271.749 63.7653L271.704 65.8246C271.663 67.6444 270.155 69.0869 268.336 69.0465C266.516 69.0061 265.073 67.4982 265.114 65.6785L265.159 63.6192C265.16 63.6054 265.16 63.5916 265.161 63.5779C265.293 63.608 265.431 63.6253 265.572 63.6284Z" fill="#3D3D3D"/><path d="M283.852 60.8323C280.71 61.7208 279.079 63.2581 278.374 64.9264C278.244 65.2296 278.14 65.5519 278.066 65.8909C277.484 68.5481 278.958 71.2194 281.358 71.8573C282.222 72.0867 283.087 72.0219 283.869 71.7212C284.304 71.5732 284.623 71.46 284.877 71.3701C285.803 71.042 285.852 71.0246 287.455 70.7599C287.485 70.7553 287.515 70.7503 287.546 70.745C287.566 70.7416 287.587 70.7381 287.608 70.7347L287.608 70.7335C289.312 70.4049 290.764 68.9917 291.197 67.0124C291.636 65.0085 290.906 62.9966 289.49 61.8548C287.682 60.3854 285.073 60.5359 283.852 60.8323Z" fill="white"/><path d="M279.067 65.903C280.078 65.8557 280.815 64.9273 280.715 63.8293C280.682 63.4611 280.558 63.1205 280.37 62.8323C280.667 62.6987 280.992 62.6183 281.337 62.6022C282.954 62.5265 284.394 63.8892 284.555 65.6459L284.736 67.634C284.896 69.3907 283.716 70.8762 282.099 70.9519C280.483 71.0276 279.042 69.6649 278.882 67.9081L278.7 65.9201C278.699 65.9068 278.698 65.8935 278.697 65.8803C278.818 65.9009 278.942 65.9089 279.067 65.903Z" fill="#3D3D3D"/><path d="M274.923 105.948C274.134 105.255 274.056 104.053 274.75 103.263L276.465 101.311C277.014 100.687 277.787 100.533 278.547 100.869L287.782 104.86C288.957 105.38 289.29 106.891 288.442 107.856L284.753 112.054C284.06 112.843 282.858 112.92 282.068 112.227L274.923 105.948Z" fill="#FFB7E3"/><path d="M285.734 113.713C289.34 113.713 292.264 116.66 292.264 120.295C292.264 123.539 289.935 126.233 286.87 126.775L283.831 130.888C282.94 131.196 280.767 131.917 279.203 132.328C277.25 132.842 276.613 131.006 276.838 129.551C277.058 128.132 278.486 122.594 279.333 118.981C279.361 118.845 279.393 118.711 279.428 118.578C279.439 118.533 279.45 118.489 279.46 118.444L279.465 118.445C280.258 115.711 282.764 113.713 285.734 113.713Z" fill="#EA8A6B"/><path d="M258.875 126.389L277.194 123.262" stroke="#1899D6" stroke-width="1.81098" stroke-linecap="round"/><rect width="21.5552" height="39.0237" rx="2.71647" transform="matrix(0.942112 0.335298 -0.523847 0.851813 300.42 101.316)" fill="#FFCB80"/><path d="M309.215 124.543C310.63 124.316 312.554 124.543 313.855 124.826" stroke="#EA8B6B" stroke-width="5.43294" stroke-linecap="round"/><path d="M310.743 135.409C306.272 137.503 302.157 137.961 299.707 135.352C297.257 132.744 300.613 129.133 304.155 126.309C307.697 123.485 312.765 122.871 314.555 126.197C316.345 129.523 315.214 133.315 310.743 135.409Z" fill="#EA8B6B"/><path d="M266.77 59.5737C274.376 60.0265 283.484 55.7631 287.087 53.5749C285.276 50.5187 281.541 45.2555 273.561 44.4635C266.359 43.7486 260.432 48.5944 257.998 48.8774C255.565 49.1604 251.603 48.1418 249.056 46.7835C246.51 45.4253 245.095 48.3683 247.528 51.6507C249.962 54.9331 257.262 59.0078 266.77 59.5737Z" fill="#3D3D3D"/><path d="M263.713 74.2314C264.052 75.4765 264.348 76.6361 266.146 78.0232C268.127 79.5512 269.599 79.6078 271.862 79.438" stroke="#A55437" stroke-width="1.81098" stroke-linecap="round"/><path d="M255.547 154.688H278.757L278.444 191.043L255.996 194.496L255.547 154.688Z" fill="#FFB7E3"/><path d="M289.577 182.972C286.257 171.729 282.333 157.028 282.333 156.122L274.637 160.65L276.164 184.232L289.577 182.972Z" fill="#FFB7E3"/><path d="M275.654 159.178L273.504 161.894L275.623 183.962" stroke="#FFA1DA" stroke-width="1.81098" stroke-linecap="round" stroke-linejoin="round"/><path d="M263.659 133.937C262.934 135.477 261.018 139.332 260.15 141.068L245.096 133.484L229.477 103.037L238.192 97.4912C244.153 104.169 257.026 118.521 260.829 122.505C265.583 127.486 264.564 132.013 263.659 133.937Z" fill="#CC348D"/><path d="M203.557 42.4828L209.895 33.6543" stroke="#0084C2" stroke-width="54.3294" stroke-linecap="round"/><path d="M226.396 12.5322C227.398 13.2661 228.336 14.0559 229.207 14.8945C229.313 17.2579 228.583 20.0012 226.319 22.3916L226.089 22.6279C224.164 24.5527 221.336 26.3968 218.406 28.0049C215.459 29.6222 212.334 31.0405 209.76 32.0986C209.182 32.3363 208.52 32.0604 208.283 31.4824C208.045 30.9043 208.321 30.2426 208.899 30.0049C211.418 28.9691 214.463 27.5865 217.317 26.0205C220.187 24.4453 222.792 22.7229 224.489 21.0264L224.848 20.6475C226.563 18.7372 227.055 16.626 226.942 14.8516C226.885 13.9637 226.674 13.1679 226.396 12.5322Z" fill="#005AAD"/><path d="M192.183 44.5191C191.73 46.1585 191.277 51.4049 191.221 56.6512L226.535 57.1977C226.422 54.9388 226.546 49.9621 226.365 47.2515C226.139 43.8633 224.045 39.8739 221.328 36.7042C219.155 34.1685 214.386 30.0917 212.16 28.5615C209.331 29.5452 205.697 31.294 201.804 33.0428C196.937 35.2287 193.243 40.6807 192.183 44.5191Z" fill="#C6775C"/><circle cx="249.963" cy="138.918" r="11.7714" fill="#C6775C"/><path d="M192.578 71.7983C202.991 70.5532 217.479 70.7797 225.289 71.7984" stroke="#3D3D3D" stroke-width="33.5032" stroke-linecap="round"/><path d="M194.955 198.454V169.252L236.155 164.498L237.277 201.786L194.955 198.454Z" fill="#0086C5"/><path d="M200.389 61.2715C202.03 63.422 205.256 64.95 208.538 65.0632" stroke="white" stroke-width="8.60216" stroke-linecap="round"/><path d="M225.742 90.7002C225.742 96.2012 218.85 100.661 210.348 100.661C201.846 100.661 194.954 97.1067 194.954 91.6057C194.523 86.0596 201.738 81.4189 210.24 81.4189C218.742 81.4189 225.742 83.5695 225.742 90.7002Z" fill="#CC348D"/><path d="M176.135 126.055C174.453 105.708 189.857 87.968 210.239 86.7801C229.306 85.6689 245.979 99.5056 248.402 118.45L250.614 135.749C253.32 156.906 237.497 175.911 216.201 177.085C196.336 178.18 179.211 163.262 177.572 143.435L176.135 126.055Z" fill="#CC348D"/><path d="M170.605 127.916L179.345 107.85L185.498 130.945L177.673 131.955L170.605 127.916Z" fill="#CC348D"/><path d="M199.507 115.674L185.498 120.596" stroke="#AC016A" stroke-width="2.71647" stroke-linecap="round"/><path d="M200.389 96.3594L205.595 100.434L210.575 94.0957L216.914 99.3023L220.762 94.0957L226.874 99.755L229.817 95.9067M208.312 106.207L212.839 109.942" stroke="#AC016A" stroke-width="4.07471" stroke-linecap="round" stroke-linejoin="round"/><path d="M218.534 127.373C240.594 127.147 250.527 133.372 250.7 136.711L250.743 136.915C252.734 157.6 237.106 175.933 216.201 177.085C196.337 178.18 179.212 163.261 177.573 143.435L177.252 139.555C186.018 133.906 196.765 127.596 218.534 127.373Z" fill="#00448E"/><path d="M218.872 137.674C238.255 137.475 248.275 142.257 250.539 145.686C248.108 162.537 234.086 176.099 216.2 177.085C198.334 178.07 182.685 166.1 178.525 149.257C187.128 143.771 197.87 137.889 218.872 137.674Z" fill="#0084C2"/><path d="M223.252 167.667L218.725 170.383V197.825" stroke="#0063AB" stroke-width="1.81098" stroke-linecap="round" stroke-linejoin="round"/><rect x="197.277" y="36.3711" width="12.2057" height="16.0725" rx="6.10286" fill="white"/><rect x="212.445" y="37.2764" width="10.4671" height="15.0538" rx="5.23354" fill="white"/><path d="M202.369 40.0479C204.15 40.048 205.595 41.4921 205.595 43.2734V46.5918C205.595 48.3731 204.15 49.8172 202.369 49.8174C200.588 49.8174 199.143 48.3732 199.143 46.5918V43.2734C199.143 43.0778 199.161 42.8863 199.194 42.7002C199.333 42.8353 199.502 42.9397 199.697 43.0029C200.465 43.2511 201.345 42.7642 201.664 41.915C201.905 41.2738 201.756 40.6095 201.339 40.2158C201.662 40.1069 202.009 40.0479 202.369 40.0479Z" fill="#3D3D3D"/><path d="M216.603 39.8906C218.399 39.8906 219.855 41.3463 219.855 43.1426V47.3008C219.855 49.0972 218.399 50.5537 216.603 50.5537C214.806 50.5536 213.35 49.0971 213.35 47.3008V43.1426C213.35 42.9456 213.368 42.7528 213.401 42.5654C213.474 42.6199 213.554 42.6676 213.641 42.7061C214.374 43.0299 215.318 42.6165 215.75 41.7832C216.075 41.1558 216.016 40.4695 215.654 40.0303C215.954 39.939 216.273 39.8906 216.603 39.8906Z" fill="#3D3D3D"/><circle cx="4.47086" cy="4.47086" r="4.47086" transform="matrix(1 0 0 -1 210.121 56.6309)" fill="#C6775C"/><path d="M197.672 28.7882C199.605 27.4146 200.643 27.0463 202.539 27.0904" stroke="#3D3D3D" stroke-width="5.43294" stroke-linecap="round"/><path d="M217.57 30.9354C218.951 31.2204 220.332 31.854 221.667 33.2013" stroke="#3D3D3D" stroke-width="4.9802" stroke-linecap="round"/><path d="M224.412 105.27L227.751 108.577L212.277 126.333C210.814 128.012 208.237 128.106 206.654 126.539C205.072 124.972 205.142 122.394 206.807 120.914L224.412 105.27Z" fill="#FFEACE"/><path d="M213.549 124.872L208.253 119.628L220.821 108.46C220.959 109.943 222.827 112.047 224.807 111.954L213.549 124.872Z" fill="#FDB029"/><path d="M216.045 115.779C219.041 115.642 220.727 115.972 223.779 117.46" stroke="#C6775C" stroke-width="8.60216" stroke-linecap="round"/><path d="M238.346 97.6632C239.1 98.4349 239.822 99.2408 240.507 100.079C242.422 102.22 244.684 104.739 247.005 107.322C241.469 112.253 232.649 111.775 226.909 106.09C221.978 101.206 220.867 94.0127 223.742 88.5424C229.229 90.355 234.172 93.4477 238.184 97.4976L238.194 97.492C238.244 97.5483 238.294 97.6058 238.346 97.6632Z" fill="#D868AA"/><path d="M231.052 94.2894C231.946 94.973 232.116 96.2521 231.433 97.1458L228.49 100.993C228.141 101.449 227.617 101.738 227.045 101.787C226.474 101.835 225.908 101.641 225.488 101.251L222.619 98.5941C222.144 96.6691 222.052 94.6931 222.348 92.7894L226.612 96.7394L228.196 94.6699L228.331 94.5111C229.038 93.7587 230.215 93.6488 231.052 94.2894Z" fill="#C64E98"/><path d="M239.527 80.6281C236.263 85.8847 230.214 89.0966 223.704 88.4742C224.376 87.3267 225.202 86.2404 226.184 85.2485C229.853 81.5444 234.847 79.9912 239.527 80.6281Z" fill="#606060"/><path d="M247.33 85.4689C250.629 88.7358 252.203 93.0648 252.029 97.2767C246.068 93.637 241.502 87.9399 239.318 81.1716C242.23 81.7606 245.033 83.1944 247.33 85.4689Z" fill="#FFCBEB"/><circle cx="236.829" cy="96.0732" r="14.6156" transform="rotate(44.7243 236.829 96.0732)" stroke="#FDB029" stroke-width="3.7132"/><path d="M221.135 118.028C223.257 123.642 219.868 131.097 214.08 133.284C208.291 135.472 201.879 132.694 199.758 127.08C197.636 121.465 200.608 115.141 206.397 112.953C212.185 110.766 219.014 112.413 221.135 118.028Z" fill="#C6775C"/><path d="M204.574 118.545L216.346 107.792" stroke="#C6775C" stroke-width="7.69667" stroke-linecap="round"/><rect x="83.1094" y="87.502" width="20.4317" height="22.6616" transform="rotate(13.1549 83.1094 87.502)" fill="#FFCBA3"/><rect x="48.1641" y="45.1797" width="51.5866" height="34.025" rx="17.0125" transform="rotate(-5.13796 48.1641 45.1797)" fill="#3D3D3D"/><rect x="55.1074" y="60.332" width="66.1933" height="39.5107" rx="19.7553" transform="rotate(-3.26189 55.1074 60.332)" fill="#FFCBA3"/><circle cx="57.3564" cy="85.4198" r="4.46379" fill="#FFCBA3"/><path d="M101.472 57.6908C111.512 57.1185 120.228 64.149 122.017 73.7836C120.617 74.1701 119.143 74.3782 117.62 74.3783C108.518 74.3783 101.139 66.9992 101.139 57.8968C101.139 57.8342 101.14 57.7718 101.141 57.7093L101.472 57.6908Z" fill="#D6C5B9"/><rect x="69.543" y="81.8574" width="18.4268" height="12.4794" rx="6.23969" transform="rotate(-93.3043 69.543 81.8574)" fill="white"/><rect x="73.7461" y="77.7344" width="7.77847" height="6.48799" rx="3.24399" transform="rotate(-93.3043 73.7461 77.7344)" fill="#3D3D3D"/><path d="M74.7107 63.1023C78.1509 62.9039 81.101 65.5322 81.2996 68.9725L81.5887 73.9822L69.1219 74.575L68.8406 69.6912C68.6422 66.251 71.2705 63.301 74.7107 63.1023Z" fill="#E99B5F"/><path d="M47.7814 50.4064C53.1721 44.5425 62.8731 43.7285 67.1364 43.5022C71.3998 43.2758 73.2485 52.4439 73.2485 52.4439C73.5646 55.2094 74.5593 60.7186 74.3237 65.9129C74.2219 68.1591 74.3804 72.4211 69.5699 77.2316C64.7595 82.042 52.8749 82.5516 47.442 75.7603C42.0092 68.969 41.3301 57.4239 47.7814 50.4064Z" fill="#3D3D3D"/><circle cx="55.4688" cy="150.39" r="15.7422" fill="#C86902"/><circle cx="92.6071" cy="141.049" r="39.9782" fill="#C86902"/><path d="M49.0273 180.117L51.2911 162.007L122.372 161.102L116.354 198.724L49.0273 180.117Z" fill="#C86902"/><path d="M88.9821 129.976C91.7282 118.763 94.2292 112.587 100.753 101.963L99.5084 99.1895H84.6244L79.4744 103.208C74.4713 112.306 72.2157 117.475 69.9668 127.146L88.9821 129.976Z" fill="#FFCBA3"/><path d="M88.9821 129.976C91.7282 118.763 94.2292 112.587 100.753 101.963L99.5084 99.1895H84.6244L79.4744 103.208C74.4713 112.306 72.2157 117.475 69.9668 127.146L88.9821 129.976Z" fill="#FFCBA3"/><path d="M100.272 102.755C94.1059 112.901 91.6587 119.044 88.9814 129.976L69.9668 127.146C72.1938 117.569 74.4264 112.407 79.3281 103.472C78.9881 104.78 78.7776 106.192 78.7959 107.876C78.8242 110.479 83.8326 114.525 90.3408 111.017C95.0145 108.497 98.638 104.784 100.272 102.755Z" fill="white"/><path d="M61.7031 184.192L66.457 150.236L86.1514 146.388L80.8852 186.842L61.7031 184.192Z" fill="#744007"/><path d="M49.5918 127.712L63.2484 113.917L64.6456 117.129L53.8929 136.087L49.5918 127.712Z" fill="#C86902"/><path d="M40.8773 128.957C41.066 126.655 41.7262 123.977 40.5378 119.676C39.754 116.839 38.7568 115.299 37.8873 114.113C37.4995 113.585 37.9972 112.956 38.6038 113.204C41.9446 114.572 46.3086 116.68 50.7246 122.505C52.8862 125.357 54.0635 127.816 54.7351 129.928C56.7886 127.818 60.7008 125.052 67.1366 124.26C74.9464 123.298 80.0398 126.297 82.8695 128.051L80.436 139.257L58.8174 141.917L55.7295 135.469C55.7862 136.066 55.8421 136.61 55.9311 137.106L50.0454 139.257L40.8773 128.957Z" fill="#DFDFE0"/><path d="M80.526 127.921C84.68 124.724 90.4129 125.206 93.3307 128.997L104.457 143.453C104.762 143.849 104.688 144.417 104.292 144.722L90.684 155.196C90.2878 155.501 89.7188 155.428 89.4137 155.031L78.2872 140.575L78.288 140.575C75.3702 136.784 76.372 131.119 80.526 127.921Z" fill="#FFCBA3"/><path d="M42.8123 136.728C41.5905 135.305 39.4467 135.143 38.024 136.364C36.6013 137.586 36.4385 139.73 37.6603 141.153L42.8123 136.728ZM40.2363 138.94L37.6603 141.153L45.0792 149.791L47.6552 147.579L50.2312 145.367L42.8123 136.728L40.2363 138.94Z" fill="#FFCBA3"/><path d="M31.5957 119.11L49.9319 140.276" stroke="#1CB0F6" stroke-width="6.33843" stroke-linecap="round"/><rect width="33.3503" height="26.6423" rx="3.16922" transform="matrix(0.978148 -0.207912 0.529919 0.848048 46.9727 135.697)" fill="#1CB0F6"/><path d="M60.4573 154.084C60.1177 149.048 53.4397 143.445 53.4397 142.879L42.1211 145.369C42.687 147.557 44.9281 152.726 49.365 155.895C54.9111 159.857 60.7968 157.537 60.4573 154.084Z" fill="#FFCBA3"/><path d="M56.3609 144.302C58.1574 143.764 59.1776 141.871 58.6396 140.075C58.1015 138.278 56.209 137.258 54.4125 137.796L56.3609 144.302ZM55.3867 141.049L54.4125 137.796L43.5043 141.063L44.4785 144.316L45.4527 147.569L56.3609 144.302L55.3867 141.049Z" fill="#FFCBA3"/><rect x="84.9102" y="81.0566" width="18.4268" height="12.4794" rx="6.23969" transform="rotate(-93.3043 84.9102 81.0566)" fill="white"/><rect x="89.1113" y="76.9326" width="7.77847" height="6.48799" rx="3.24399" transform="rotate(-93.3043 89.1113 76.9326)" fill="#3D3D3D"/><circle cx="59.3596" cy="90.7425" r="2.68972" fill="#C86902"/><path d="M82.8633 81.6211C82.8574 81.7035 82.8477 81.7843 82.834 81.8643L82.8232 81.96L82.8184 81.9561C82.5829 83.0697 81.5958 83.9062 80.4121 83.9062C79.0533 83.906 77.9514 82.8041 77.9512 81.4453C77.9512 80.5248 78.4576 79.7229 79.2061 79.3008L79.2031 79.2988L79.2266 79.2881C79.3702 79.209 79.5224 79.1432 79.6816 79.0938L83.3594 77.5244L82.8633 81.6211Z" fill="#E89665"/><path d="M84.3965 88.4936C85.6553 88.4556 86.7734 88.4371 89.1503 87.6447C91.5272 86.8524 92.4656 84.7383 92.4944 83.6797" stroke="#E99B5F" stroke-width="1.58461" stroke-linecap="round"/><path d="M90.077 62.3006C93.5172 62.102 96.4681 64.7295 96.6668 68.1697L96.9559 73.1805L84.4891 73.7733L84.2078 68.8895C84.0092 65.4492 86.6368 62.4994 90.077 62.3006Z" fill="#E99B5F"/><path d="M134.731 0.0185448L147.842 0.801748C153.798 1.15772 158.398 6.05877 158.48 11.9307C163.03 8.0676 169.86 8.39467 174.015 12.7793L181.647 20.833C185.946 25.3703 185.754 32.5341 181.217 36.834L166.949 50.3545C162.412 54.6542 155.248 54.4619 150.948 49.9248L144.351 42.9619L142.219 42.834C142.04 43.0907 141.852 43.3444 141.649 43.5898L134.597 52.1191C130.613 56.9366 123.479 57.6131 118.661 53.6299L103.513 41.1045C98.6952 37.1211 98.0188 29.9865 102.002 25.1689L109.055 16.6396C112.415 12.5754 118.018 11.4588 122.581 13.6006L122.758 10.6426C123.131 4.40259 128.491 -0.354249 134.731 0.0185448Z" fill="#3D3D3D"/><path d="M115.953 70.4642C115.677 65.1329 115.455 56.1399 115.379 52.3098L127.527 39.5135L134.223 37.832L166.51 50.8161C166.701 57.0207 167.015 70.4412 166.74 74.4857C166.395 79.5414 163.178 83.1033 158.811 84.7119C155.318 85.9988 145.789 88.925 141.461 90.2272C137.823 89.4229 129.19 87.3547 123.767 85.5162C116.987 83.2182 116.298 77.1284 115.953 70.4642Z" fill="#A46648"/><path d="M139.974 22.084C139.991 22.1452 141.821 28.6775 138.828 33.3984C138.121 34.5142 137.205 35.4266 136.221 36.1738L147.565 32.583C151.74 31.2613 156.297 32.0343 159.803 34.6582L173.062 44.5811L166.973 57.1055L154.08 48.2363C154.019 48.194 153.952 48.1598 153.882 48.1338L131.999 40.0195C131.02 39.6565 129.919 40.0104 129.335 40.876L115.623 61.1963L108.486 44.9551L126.754 39.1709C124.624 38.6907 121.764 37.6509 119.808 35.4033C116.328 31.4043 117.027 25.0977 117.027 25.0977C117.027 25.0977 123.371 25.2754 126.851 29.2744C127.668 30.2139 128.252 31.2818 128.672 32.3643C128.887 30.8751 129.349 29.3318 130.229 27.9453C133.236 23.2025 139.974 22.084 139.974 22.084Z" fill="#FDB02A"/><ellipse cx="5.86005" cy="7.12389" rx="5.86005" ry="7.12389" transform="matrix(0.978148 -0.207912 0 1 159.875 55.8633)" fill="#A46648"/><ellipse cx="5.05536" cy="6.08973" rx="5.05536" ry="6.08973" transform="matrix(0.978148 -0.207912 0 1 112.031 64.8438)" fill="#A46648"/><rect width="10.2938" height="15.7937" rx="5.14688" transform="matrix(0.965002 -0.262244 0.0209993 0.999779 120.688 51.8496)" fill="white"/><rect width="12.1789" height="16.7871" rx="6.08946" transform="matrix(0.973205 -0.229937 -0.0123323 0.999924 133.779 46.9092)" fill="white"/><path d="M141.366 49.4727C143.13 49.0329 144.56 50.1497 144.561 51.9679V56.2442C144.56 58.0624 143.13 59.8932 141.366 60.3331C139.602 60.7727 138.172 59.6552 138.172 57.837V54.043C138.285 54.0332 138.401 54.0177 138.519 53.9884C139.763 53.6781 140.771 52.3655 140.771 51.0831C140.771 50.6024 140.63 50.1886 140.387 49.8751C140.695 49.6956 141.024 49.558 141.366 49.4727Z" fill="#3D3D3D"/><path d="M127.995 54.3685C129.657 53.9542 131.004 55.0066 131.004 56.7191V60.7474C131.004 62.4599 129.657 64.1837 127.995 64.598C126.333 65.0123 124.986 63.96 124.986 62.2474V58.6712C125.169 58.68 125.362 58.6634 125.562 58.6136C126.706 58.3281 127.635 57.1403 127.635 55.9603V55.5482C127.635 55.1765 127.542 54.8503 127.38 54.5863C127.578 54.4943 127.784 54.421 127.995 54.3685Z" fill="#3D3D3D"/><path d="M129.834 65.0706C129.834 66.3727 130.89 67.4283 132.192 67.4283C133.494 67.4283 134.549 66.3727 134.549 65.0706C134.549 63.7684 132.29 60.748 132.192 60.748C132.093 60.748 129.834 63.7684 129.834 65.0706Z" fill="#86401F"/><path d="M127.162 65.8717C126.975 64.544 127.9 63.3168 129.228 63.1305L131.365 62.8306C132.693 62.6444 133.92 63.5696 134.106 64.8973C134.292 66.2249 133.367 67.4522 132.04 67.6385L129.903 67.9383C128.575 68.1246 127.348 67.1993 127.162 65.8717Z" fill="#86401F"/><path d="M141.143 59.0117C143.348 57.4732 146.465 56.8824 147.81 57.3308L144.295 64.6871L137.501 64.1662C137.987 63.0617 138.937 60.5502 141.143 59.0117Z" fill="#AA6343"/><path d="M140.603 64.1054C140.897 63.5907 141.306 63.1324 141.822 62.7712C143.721 61.4425 146.356 61.9307 147.707 63.8616C148.595 65.1314 148.708 66.7089 148.141 68.0182C147.53 69.6116 146.119 71.3427 144.148 72.7218C142.178 74.1009 140.068 74.833 138.362 74.861C136.938 74.9454 135.494 74.2996 134.605 73.0298C133.254 71.0988 133.698 68.4563 135.597 67.1275C136.113 66.7663 136.684 66.5394 137.268 66.4392C137.974 66.3182 138.695 66.1741 139.28 65.7648C139.865 65.3555 140.248 64.727 140.603 64.1054Z" fill="#A41414"/><path d="M148.409 67.1608C148.351 67.4558 148.261 67.7444 148.141 68.0209C147.531 69.6143 146.12 71.3454 144.149 72.7245C143.222 73.3736 142.263 73.8794 141.331 74.2359C140.926 70.7773 143.376 67.6253 146.839 67.1726C147.372 67.103 147.898 67.1013 148.409 67.1608Z" fill="#E64340"/><ellipse cx="16.3603" cy="17.929" rx="16.3603" ry="17.929" transform="matrix(1 0 0 -1 115.426 160.423)" fill="#069FE7"/><path d="M116.533 198.545L115.426 142.382L124.278 134.763L131.45 122.66L142.431 121.428C142.431 121.428 159.141 124.081 162.317 133.464C165.494 142.847 161.481 162.329 161.481 162.329L150.92 201.065L116.533 198.545Z" fill="#069FE7"/><path d="M127.013 152.047L130.069 152.5L122.295 198.365" stroke="#007BB6" stroke-width="1.81098" stroke-linecap="round" stroke-linejoin="round"/><path d="M130.778 103.61L111.729 119.971" stroke="#A46648" stroke-width="18.1098" stroke-linecap="round"/><path d="M141.165 83.4404C146.407 83.4405 150.657 85.3475 150.657 87.6992C150.657 87.7201 150.654 87.7409 150.653 87.7617L150.665 91.9834C153.158 93.2767 155.989 94.9548 158.386 98.6826C164.463 108.135 160.696 118.403 157.222 122.549C153.748 126.695 124.837 122.773 120.915 118.739C116.993 114.705 119.123 105.74 122.036 101.706C123.816 99.2421 128.277 95.4025 131.701 92.6602V88.0137C131.684 87.9097 131.673 87.8051 131.673 87.6992C131.673 85.3475 135.923 83.4404 141.165 83.4404Z" fill="#FDB02A"/><path d="M133.578 121.539C142.43 121.376 146.612 121.531 154.869 124.004" stroke="#FF4B4B" stroke-width="6.33843" stroke-linecap="round" stroke-linejoin="round"/><path fill-rule="evenodd" clip-rule="evenodd" d="M156.904 97.466C159.74 100.632 159.473 105.498 156.307 108.334L136.921 125.703C135.097 127.338 130.35 129.013 127.124 127.259L114.447 120.241C110.287 119.369 107.356 119.189 108.229 115.029C109.101 110.869 113.181 108.204 117.342 109.076L129.552 111.638L146.035 96.8696C149.201 94.0331 154.067 94.3001 156.904 97.466Z" fill="#A46648"/><ellipse cx="131.263" cy="109.493" rx="9.38334" ry="7.3958" transform="rotate(-18.8925 131.263 109.493)" fill="#A46648"/><path d="M121.521 111.413C123.276 113.79 126.998 115.331 131.538 114.695C137.198 113.903 139.518 110.96 139.971 108.64C140.41 106.392 140.084 105.131 139.518 104.226" stroke="#995332" stroke-width="1.81098" stroke-linecap="round"/><path d="M119.486 124.09L107.967 115.294C107.383 114.848 107.067 114.134 107.39 113.474C108.02 112.188 109.452 110.38 111.393 109.376C114.019 108.018 116.656 108.244 118.241 108.527" stroke="#995332" stroke-width="1.81098" stroke-linecap="round"/><path d="M161.797 120.727C165.525 121.187 170.129 122.944 176.846 122.961C183.562 122.944 188.167 121.187 191.895 120.727C197.428 120.043 206.215 121.75 209.111 132.699C211.032 139.962 212.677 158.156 213.393 166.22C214.1 174.189 212.734 184.497 204.733 192.945C194.973 203.25 182.731 204.004 177.908 204.004C173.084 204.004 158.842 203.603 149.082 193.298C141.081 184.85 139.759 174.071 140.299 166.22C140.855 158.143 142.66 139.962 144.581 132.699C147.477 121.75 156.263 120.043 161.797 120.727Z" fill="#58CC02"/><path d="M172.2 181.207L184.05 181.203C184.685 181.202 185.135 181.791 184.939 182.364C183.995 185.12 181.254 187.023 178.123 187.024C174.992 187.025 172.251 185.124 171.31 182.369C171.114 181.796 171.565 181.207 172.2 181.207Z" fill="#8EE000"/><path fill-rule="evenodd" clip-rule="evenodd" d="M169.82 132.404C173.541 136.201 180.115 136.212 184.274 132.43C188.433 128.647 183.611 154.5 183.611 154.433C183.611 154.402 181.392 154.389 176.953 154.394C175.763 154.396 173.62 154.401 170.522 154.411C167.573 137.209 167.339 129.874 169.82 132.404Z" fill="#89E219"/><path d="M193.12 122.683L183.041 133.864C182.501 134.464 182.7 135.416 183.435 135.745C186.963 137.326 191.178 136.445 193.841 133.491C196.504 130.536 196.952 126.244 195.027 122.885C194.625 122.186 193.661 122.083 193.12 122.683Z" fill="#8EE000"/><path d="M198.973 125.363L188.895 136.545C188.354 137.144 188.554 138.096 189.288 138.426C192.817 140.006 197.032 139.125 199.694 136.171C202.357 133.217 202.805 128.925 200.88 125.565C200.479 124.866 199.513 124.764 198.973 125.363Z" fill="#8EE000"/><path d="M161.151 122.597L170.882 133.575C171.403 134.163 171.199 135.085 170.478 135.396C167.016 136.889 162.909 135.982 160.338 133.082C157.767 130.182 157.373 126.008 159.287 122.77C159.686 122.096 160.63 122.008 161.151 122.597Z" fill="#89E219"/><path d="M155.179 125.297L164.333 135.624C164.823 136.178 164.631 137.045 163.953 137.338C160.697 138.742 156.832 137.889 154.414 135.161C151.996 132.432 151.625 128.506 153.426 125.46C153.801 124.826 154.688 124.743 155.179 125.297Z" fill="#89E219"/><path d="M146.944 140.698C147.704 133.215 154.387 127.764 161.87 128.524C169.354 129.284 174.804 135.967 174.044 143.45L173.366 150.127C172.606 157.61 165.924 163.061 158.441 162.301C150.957 161.541 145.507 154.858 146.267 147.375L146.944 140.698Z" fill="#89E219"/><path d="M180.081 143.115C179.534 135.613 185.172 129.087 192.673 128.54C200.175 127.992 206.701 133.63 207.248 141.132L207.737 147.825C208.284 155.327 202.646 161.853 195.144 162.4C187.643 162.947 181.117 157.31 180.57 149.808L180.081 143.115Z" fill="#89E219"/><path d="M170.281 143.836C170.929 138.644 167.244 133.91 162.052 133.262C156.86 132.615 152.125 136.299 151.478 141.491L150.818 146.78C150.171 151.972 153.855 156.706 159.048 157.354C164.24 158.002 168.974 154.317 169.622 149.125L170.281 143.836Z" fill="white"/><path d="M202.825 142.177C202.533 136.952 198.061 132.954 192.837 133.246C187.612 133.538 183.614 138.01 183.906 143.234L184.203 148.555C184.495 153.78 188.967 157.778 194.191 157.486C199.416 157.194 203.414 152.723 203.122 147.498L202.825 142.177Z" fill="white"/><path fill-rule="evenodd" clip-rule="evenodd" d="M185.801 144.003C187.759 143.893 189.258 142.216 189.149 140.257C189.113 139.616 188.91 139.025 188.583 138.523C189.003 138.362 189.454 138.263 189.926 138.237C192.375 138.1 194.472 139.974 194.608 142.423L194.873 147.153C195.01 149.602 193.135 151.698 190.686 151.835C188.237 151.972 186.141 150.097 186.004 147.648L185.801 144.003Z" fill="#4B4B4B"/><path fill-rule="evenodd" clip-rule="evenodd" d="M163.487 140.437C163.245 142.385 161.469 143.766 159.522 143.523C159.522 143.523 159.521 143.523 159.521 143.523L159.069 147.147C158.766 149.581 160.493 151.8 162.927 152.104C165.361 152.407 167.58 150.68 167.883 148.246L168.47 143.545C168.773 141.111 167.046 138.892 164.612 138.589C164.143 138.53 163.682 138.547 163.241 138.63C163.472 139.182 163.567 139.801 163.487 140.437Z" fill="#4B4B4B"/><path d="M167.401 156.64C165.359 153.951 155.262 150.506 150.656 151.623L153.712 159.174L165.35 159.194L167.401 156.64Z" fill="#89E219"/><path d="M186.214 156.673C188.265 153.991 198.374 150.581 202.976 151.714L199.894 159.254L188.256 159.234L186.214 156.673Z" fill="#89E219"/><rect x="172.727" y="149.136" width="10.536" height="12.3294" rx="5.268" fill="#F49000"/><path d="M185.314 154.783C185.409 155.126 185.175 155.463 184.825 155.525L177.864 156.758L170.904 155.525C170.554 155.463 170.319 155.126 170.415 154.783C171.326 151.525 174.316 149.136 177.864 149.136C181.413 149.136 184.403 151.525 185.314 154.783Z" fill="#FFC200"/><path fill-rule="evenodd" clip-rule="evenodd" d="M176.755 152.273C176.751 152.275 176.749 152.275 176.749 152.275C176.181 152.521 175.521 152.259 175.276 151.691C175.03 151.123 175.292 150.463 175.86 150.217C176.291 150.031 176.918 149.928 177.522 149.906C178.146 149.883 178.903 149.942 179.598 150.191C180.18 150.401 180.483 151.043 180.274 151.625C180.065 152.208 179.423 152.51 178.84 152.301C178.501 152.18 178.052 152.13 177.602 152.146C177.385 152.154 177.187 152.177 177.026 152.206C176.946 152.22 176.881 152.235 176.83 152.249C176.805 152.256 176.785 152.262 176.771 152.267C176.764 152.27 176.758 152.272 176.755 152.273Z" fill="#FFDE00"/><path d="M195.944 187.527C186.297 182.155 166.222 171.219 163.099 170.451C159.195 169.491 160.092 164.456 166.034 164.34C171.976 164.223 188.199 163.439 200.816 168.454" stroke="#3DBE01" stroke-width="2.5325" stroke-linecap="round"/><path d="M179.544 178.771C178.974 179.071 178.395 179.375 177.81 179.685C172.856 182.306 167.442 185.253 163.013 187.694L158.963 189.937L158.848 189.994C158.258 190.248 157.56 190.019 157.241 189.446C156.922 188.874 157.095 188.16 157.621 187.793L157.731 187.725L161.789 185.478C166.229 183.031 171.656 180.077 176.625 177.447C176.646 177.436 176.666 177.424 176.687 177.413L179.544 178.771ZM160.848 166.706L160.847 167.943C158.424 168.225 156.008 168.575 153.665 169.011L153.537 169.027C152.898 169.08 152.309 168.641 152.189 167.996C152.07 167.352 152.461 166.731 153.077 166.551L153.203 166.521C156.141 165.974 159.188 165.559 162.217 165.245L160.848 166.706Z" fill="#3DBE01"/><path d="M337.953 174.129C339.829 178.078 333.273 181.932 322.258 183.354L296.967 186.626C293.617 187.026 290.936 187.897 289.613 189.016L279.972 197.601C275.783 201.339 264.432 203.564 252.798 202.928L225.893 201.406C222.393 201.222 218.827 201.548 216.073 202.304L195.087 208.104C185.949 210.632 172.835 210.632 163.697 208.104L142.8 202.365C140.049 201.607 136.48 201.281 132.98 201.467L106.075 202.989C94.4409 203.626 83.09 201.4 78.901 197.661L69.2594 189.076C67.9981 187.955 65.3888 187.069 62.0856 186.641L36.9283 183.308C25.9379 181.876 19.3942 178.03 21.234 174.083L22.9 170.688L34.9586 169.952C36.8764 172.122 41.8657 173.954 48.7672 174.805L71.8346 177.696C74.8634 178.068 77.2561 178.836 78.4127 179.809L87.2535 187.256C91.0948 190.499 101.504 192.429 112.172 191.877L136.842 190.557C140.052 190.395 143.325 190.679 145.847 191.336L165.008 196.313C173.387 198.506 185.413 198.506 193.792 196.313L213.035 191.283C215.56 190.627 218.83 190.344 222.04 190.504L246.711 191.824C257.378 192.377 267.787 190.446 271.629 187.203L280.468 179.756C281.682 178.785 284.14 178.03 287.213 177.684L310.403 174.845C319.632 173.718 324.182 171.87 323.587 168.946L335.338 168.804L337.953 174.129Z" fill="url(#paint1_radial_45006_59361)"/><defs><radialGradient id="paint0_radial_45006_59361" cx="0" cy="0" r="1" gradientUnits="userSpaceOnUse" gradientTransform="translate(184.604 121.8) rotate(88.757) scale(113.672 287.62)"><stop offset="0.144231" stop-color="#FCFFF9" stop-opacity="0"/><stop offset="0.509312" stop-color="#D3F3B3"/><stop offset="0.909806" stop-color="#9CE355"/></radialGradient><radialGradient id="paint1_radial_45006_59361" cx="0" cy="0" r="1" gradientUnits="userSpaceOnUse" gradientTransform="translate(185.542 121.129) rotate(89.59) scale(105.765 598.734)"><stop stop-color="#FCFFF9"/><stop offset="0.439634" stop-color="#C1EE93"/><stop offset="1" stop-color="#9CE355"/></radialGradient></defs></svg>