<svg width="160" height="160" viewBox="0 0 160 160" fill="none" xmlns="http://www.w3.org/2000/svg"><rect width="160" height="160" fill="white"/><path fill-rule="evenodd" clip-rule="evenodd" d="M116.639 149.998C124.003 149.998 129.973 144.029 129.973 136.665V40.1283C129.973 32.7645 124.003 26.7949 116.639 26.7949C92.1949 26.7949 67.7504 26.7949 43.306 26.7949C35.9422 26.7949 29.9727 32.7645 29.9727 40.1283V136.665C29.9727 144.029 35.9422 149.998 43.306 149.998C67.7504 149.998 92.1949 149.998 116.639 149.998Z" fill="#FFD100"/><path d="M39.9922 133.335C39.9922 137.017 42.977 140.002 46.6589 140.002L99.408 140.002C101.261 140.002 103.031 139.23 104.292 137.873L118.183 122.92C119.329 121.686 119.966 120.065 119.966 118.382L119.965 43.3027C119.965 39.6208 116.981 36.6361 113.299 36.6361L46.6588 36.6361C42.9769 36.6361 39.9922 39.6208 39.9922 43.3027L39.9922 133.335Z" fill="white"/><path d="M114.98 120.008H103.321C102.4 120.008 101.654 120.754 101.654 121.674V133.334" stroke="#4CD6FF" stroke-width="6.66667" stroke-linecap="round"/><path fill-rule="evenodd" clip-rule="evenodd" d="M48.3125 80.0016C48.3125 81.8426 49.8049 83.335 51.6458 83.335L108.312 83.335C110.153 83.335 111.646 81.8426 111.646 80.0016L111.646 53.3317C111.646 51.4908 110.153 49.9984 108.313 49.9984L51.6458 49.9984C49.8049 49.9984 48.3125 51.4908 48.3125 53.3317L48.3125 80.0016Z" fill="#E5E5E5"/><rect width="6.66667" height="6.66667" rx="1.66667" transform="matrix(1 0 0 -1 48.3125 123.335)" fill="#58CC02"/><path d="M61.6445 121.668C61.6445 122.589 62.3907 123.335 63.3112 123.335H89.9779C90.8983 123.335 91.6445 122.589 91.6445 121.668V118.335C91.6445 117.414 90.8983 116.668 89.9779 116.668H63.3112C62.3907 116.668 61.6445 117.414 61.6445 118.335V121.668Z" fill="#E5E5E5"/><rect width="6.66667" height="6.66667" rx="1.66667" transform="matrix(1 0 0 -1 48.3125 110.002)" fill="#58CC02"/><path d="M61.6445 108.335C61.6445 109.256 62.3907 110.002 63.3112 110.002H109.978C110.898 110.002 111.645 109.256 111.645 108.335V105.002C111.645 104.081 110.898 103.335 109.978 103.335H63.3112C62.3907 103.335 61.6445 104.081 61.6445 105.002V108.335Z" fill="#E5E5E5"/><rect width="6.66667" height="6.66667" rx="1.66667" transform="matrix(1 0 0 -1 48.3125 96.668)" fill="#58CC02"/><path d="M61.6445 95.0013C61.6445 95.9218 62.3907 96.668 63.3112 96.668H109.978C110.898 96.668 111.645 95.9218 111.645 95.0013V91.668C111.645 90.7475 110.898 90.0013 109.978 90.0013H63.3112C62.3907 90.0013 61.6445 90.7475 61.6445 91.668V95.0013Z" fill="#E5E5E5"/><path d="M79.9805 10C85.5033 10 89.9805 14.4772 89.9805 20C89.9805 21.2392 89.7539 22.4253 89.3418 23.5205H97.1963C103.333 23.5206 108.308 28.4954 108.308 34.6318C108.307 37.6999 105.82 40.1874 102.752 40.1875H57.1963C54.1281 40.1875 51.6407 37.7 51.6406 34.6318C51.6406 28.4953 56.6155 23.5205 62.752 23.5205H70.6191C70.2071 22.4253 69.9805 21.2392 69.9805 20C69.9805 14.4772 74.4576 10 79.9805 10ZM79.9805 16.667C78.1395 16.667 76.6475 18.1591 76.6475 20C76.6475 21.8409 78.1395 23.333 79.9805 23.333C81.8214 23.333 83.3135 21.8409 83.3135 20C83.3135 18.1591 81.8214 16.667 79.9805 16.667Z" fill="#AFAFAF"/></svg>