<svg width="152" height="26" viewBox="0 0 152 26" fill="none" xmlns="http://www.w3.org/2000/svg"><g opacity="0.3"><path d="M108.274 5.61903H107.049L106.743 4.63918H105.151L104.844 5.61903H103.865L105.396 0.781006H106.682L108.274 5.61903ZM106.498 3.78181L106.008 2.06706L105.518 3.78181H106.498Z" fill="black"/><path d="M112.01 5.61903H111.275L110.111 1.69962H110.05V5.61903H109.131V0.781006H110.907L111.703 3.72057L112.622 0.781006H114.398V5.61903H113.234V1.69962" fill="black"/><path d="M116.725 1.76086V2.74071H118.562V3.65933H116.725V4.70042H119.052V5.61903H115.623V0.781006H119.052V1.76086" fill="black"/><path d="M121.134 5.61903H120.032V0.781006H122.053C122.482 0.781006 122.91 0.781002 123.278 1.02597C123.645 1.27093 123.89 1.76086 123.89 2.25078C123.89 2.80195 123.584 3.29188 123.033 3.4756L123.951 5.61903H122.727L121.992 3.72057H121.196L121.134 5.61903ZM121.134 2.92444H121.747C121.992 2.92444 122.237 2.92443 122.42 2.80195C122.604 2.67947 122.727 2.43451 122.727 2.25078C122.727 2.06706 122.604 1.88334 122.42 1.76086C122.237 1.63838 121.93 1.69962 121.685 1.69962H121.073V2.92444H121.134Z" fill="black"/><path d="M126.033 0.781006H124.931V5.61903H126.033V0.781006Z" fill="black"/><path d="M130.014 2.68041C130.014 2.12925 129.831 1.63932 129.218 1.63932C128.422 1.63932 128.361 2.68041 128.361 3.29282C128.361 3.96647 128.422 4.82385 129.279 4.82385C129.831 4.82385 130.076 4.39516 130.137 3.90523L131.239 3.96647C131.117 5.06881 130.382 5.74246 129.218 5.74246C127.81 5.74246 127.075 4.57888 127.075 3.23158C127.075 1.88428 127.81 0.720703 129.218 0.720703C130.443 0.720703 131.055 1.45559 131.178 2.55793" fill="black"/><path d="M136.2 5.61903H134.975L134.669 4.63918H133.076L132.77 5.61903H131.79L133.321 0.781006H134.607L136.2 5.61903ZM134.424 3.78181L133.934 2.06706L133.444 3.78181H134.424Z" fill="black"/><path d="M140.732 5.61903H139.752L137.914 2.37327V5.61903H136.996V0.781006H138.221L139.874 3.65933V0.781006H140.732" fill="black"/><path d="M105.457 8.25382V9.23367H107.294V10.1523H105.457V11.1934H107.784V12.1732H104.293V7.33521H107.784V8.25382" fill="black"/><path d="M110.05 7.33521C110.723 7.33521 111.336 7.39645 111.887 7.88637C112.438 8.3763 112.622 9.04995 112.622 9.7236C112.622 10.3973 112.438 11.0097 112.009 11.4996C111.519 12.0508 110.968 12.1732 110.233 12.1732H108.641V7.33521H110.05ZM109.805 11.2546H110.172C110.662 11.2546 110.968 11.1321 111.213 10.7647C111.397 10.4585 111.458 10.091 111.458 9.7236C111.458 9.35616 111.336 8.92747 111.091 8.62126C110.846 8.25382 110.54 8.25382 110.111 8.25382H109.743V11.2546H109.805Z" fill="black"/><path d="M117.399 10.2135C117.399 10.7647 117.399 11.3159 117.031 11.6833C116.664 12.0508 116.051 12.1732 115.562 12.1732C115.072 12.1732 114.459 12.112 114.092 11.7445C113.602 11.3159 113.602 10.7647 113.602 10.1523V7.33521H114.827V10.2748C114.827 10.5197 114.827 10.8259 114.949 11.0097C115.072 11.2546 115.378 11.3159 115.684 11.3159C115.929 11.3159 116.235 11.2546 116.358 11.0709C116.541 10.8259 116.48 10.5197 116.48 10.2748V7.33521H117.46" fill="black"/><path d="M121.257 9.1726C121.257 8.62143 121.073 8.1315 120.461 8.1315C119.665 8.1315 119.604 9.1726 119.604 9.78501C119.604 10.4587 119.665 11.316 120.522 11.316C121.073 11.316 121.318 10.8873 121.38 10.3974L122.482 10.4587C122.36 11.561 121.625 12.2346 120.461 12.2346C119.053 12.2346 118.318 11.0711 118.318 9.72377C118.318 8.37647 119.053 7.21289 120.461 7.21289C121.686 7.21289 122.298 7.94778 122.421 9.05012" fill="black"/><path d="M127.442 12.1732H126.217L125.911 11.1934H124.319L124.013 12.1732H123.033L124.564 7.33521H125.85L127.442 12.1732ZM125.666 10.2748L125.176 8.56002L124.686 10.2748H125.666Z" fill="black"/><path d="M131.056 8.25382H129.831V12.1732H128.728V8.25382H127.504V7.33521H131.056" fill="black"/><path d="M133.015 7.33521H131.913V12.1732H133.015V7.33521Z" fill="black"/><path d="M134.608 11.4385C134.24 10.9486 134.118 10.3362 134.118 9.72377C134.118 8.43771 134.73 7.21289 136.2 7.21289C136.812 7.21289 137.363 7.39661 137.731 7.94778C138.098 8.43771 138.221 9.11136 138.221 9.66253C138.221 10.2137 138.098 10.8873 137.792 11.316C137.425 11.8672 136.874 12.1122 136.2 12.1122C135.526 12.2346 134.975 11.9897 134.608 11.4385ZM135.465 8.74391C135.343 9.05012 135.281 9.4788 135.281 9.72377C135.281 10.3362 135.404 11.316 136.2 11.316C136.567 11.316 136.812 11.1323 136.935 10.7649C137.057 10.4587 137.057 10.0912 137.057 9.72377C137.057 9.35632 136.996 8.92763 136.874 8.62143C136.751 8.31522 136.506 8.1315 136.2 8.1315C135.771 8.19274 135.587 8.37647 135.465 8.74391Z" fill="black"/><path d="M142.936 12.1732H142.018L140.119 8.92747V12.1732H139.262V7.33521H140.487L142.079 10.1523V7.33521H142.936" fill="black"/><path d="M148.142 12.1732H146.917L146.611 11.1934H145.019L144.713 12.1732H143.733L145.264 7.33521H146.55L148.142 12.1732ZM146.366 10.2748L145.876 8.56002L145.386 10.2748H146.366Z" fill="black"/><path d="M152 11.1934V12.1732H148.938V7.33521H150.041V11.1934" fill="black"/><path d="M105.457 18.6652H104.354V13.8271H106.375C106.804 13.8271 107.233 13.8271 107.6 14.0721C107.967 14.3171 108.212 14.807 108.212 15.2969C108.212 15.8481 107.906 16.338 107.355 16.5217L108.274 18.6652H106.988L106.253 16.7667H105.457V18.6652ZM105.457 15.9093H106.069C106.314 15.9093 106.559 15.9093 106.743 15.7869C106.926 15.6644 107.049 15.4194 107.049 15.2357C107.049 15.052 106.926 14.8682 106.804 14.7458C106.62 14.6233 106.314 14.6845 106.069 14.6845H105.457V15.9093Z" fill="black"/><path d="M110.356 14.7458V15.7256H112.193V16.6442H110.356V17.7466H112.683V18.6652H109.254V13.8271H112.683V14.7458" fill="black"/><path d="M116.052 15.2349C115.929 14.8062 115.623 14.6838 115.194 14.6838C114.888 14.6838 114.521 14.745 114.521 15.1124C114.521 15.4799 114.949 15.5411 115.194 15.6024C115.562 15.6636 116.113 15.7861 116.48 16.031C116.848 16.276 117.093 16.7047 117.093 17.1946C117.093 17.6846 116.848 18.1132 116.48 18.4194C116.113 18.7257 115.562 18.7869 115.072 18.7869C114.153 18.7869 113.357 18.4194 113.112 17.4396L114.153 17.1946C114.276 17.6846 114.643 17.8683 115.133 17.8683C115.439 17.8683 115.868 17.7458 115.868 17.3171C115.868 16.8884 115.317 16.8272 115.011 16.7659C114.153 16.5822 113.296 16.3373 113.296 15.2962C113.296 14.8675 113.48 14.4388 113.847 14.1326C114.214 13.8264 114.643 13.7651 115.072 13.7651C115.929 13.7651 116.603 14.0713 116.909 14.9287" fill="black"/><path d="M119.236 14.7458V15.7256H121.073V16.6442H119.236V17.7466H121.563V18.6652H118.134V13.8271H121.563V14.7458" fill="black"/><path d="M126.462 18.6652H125.238L124.931 17.6853H123.339L123.033 18.6652H122.053L123.584 13.8271H124.87L126.462 18.6652ZM124.686 16.7667L124.196 15.052L123.706 16.7667H124.686Z" fill="black"/><path d="M128.422 18.6652H127.32V13.8271H129.341C129.769 13.8271 130.198 13.8271 130.566 14.0721C130.933 14.3171 131.178 14.807 131.178 15.2969C131.178 15.8481 130.872 16.338 130.321 16.5217L131.239 18.6652H130.014L129.28 16.7667H128.483L128.422 18.6652ZM128.422 15.9093H129.035C129.28 15.9093 129.524 15.9093 129.708 15.7869C129.892 15.6644 130.014 15.4194 130.014 15.2357C130.014 15.052 129.892 14.8682 129.769 14.7458C129.586 14.6233 129.28 14.6845 129.035 14.6845H128.422V15.9093Z" fill="black"/><path d="M134.975 15.7248C134.975 15.1737 134.791 14.6838 134.179 14.6838C133.383 14.6838 133.321 15.7248 133.321 16.3373C133.321 17.0109 133.383 17.8683 134.24 17.8683C134.791 17.8683 135.036 17.4396 135.097 16.9497L136.2 17.0109C136.077 18.1132 135.342 18.7869 134.179 18.7869C132.77 18.7869 132.035 17.6233 132.035 16.276C132.035 14.9287 132.77 13.7651 134.179 13.7651C135.404 13.7651 136.016 14.4388 136.139 15.6024" fill="black"/><path d="M140.915 18.6652H139.752V16.6442H138.282V18.6652H137.118V13.8271H138.282V15.7256H139.752V13.8271H140.915" fill="black"/><path d="M108.274 25.1557H107.049L106.743 24.1758H105.151L104.844 25.1557H103.865L105.396 20.3176H106.682L108.274 25.1557ZM106.498 23.2572L106.008 21.5424L105.518 23.2572H106.498Z" fill="black"/><path d="M111.581 21.7271C111.458 21.2984 111.152 21.1759 110.723 21.1759C110.417 21.1759 110.05 21.2372 110.05 21.6046C110.05 21.9721 110.478 22.0333 110.723 22.0946C111.091 22.1558 111.642 22.2783 112.009 22.5232C112.377 22.7682 112.622 23.1969 112.622 23.6868C112.622 24.1767 112.377 24.6054 112.009 24.9116C111.642 25.2178 111.091 25.2791 110.601 25.2791C109.682 25.2791 108.886 24.9116 108.641 23.9318L109.682 23.6868C109.805 24.1767 110.172 24.3605 110.662 24.3605C110.968 24.3605 111.397 24.238 111.397 23.8093C111.397 23.3806 110.846 23.3194 110.54 23.2581C109.682 23.0744 108.825 22.8294 108.825 21.7883C108.825 21.3597 109.009 20.931 109.376 20.6248C109.743 20.3186 110.172 20.2573 110.601 20.2573C111.458 20.2573 112.132 20.5635 112.438 21.4209" fill="black"/><path d="M116.052 21.7271C115.929 21.2984 115.623 21.1759 115.194 21.1759C114.888 21.1759 114.521 21.2372 114.521 21.6046C114.521 21.9721 114.949 22.0333 115.194 22.0946C115.562 22.1558 116.113 22.2783 116.48 22.5232C116.848 22.7682 117.093 23.1969 117.093 23.6868C117.093 24.1767 116.848 24.6054 116.48 24.9116C116.113 25.2178 115.562 25.2791 115.072 25.2791C114.153 25.2791 113.357 24.9116 113.112 23.9318L114.153 23.6868C114.276 24.1767 114.643 24.3605 115.133 24.3605C115.439 24.3605 115.868 24.238 115.868 23.8093C115.868 23.3806 115.317 23.3194 115.011 23.2581C114.153 23.0744 113.296 22.8294 113.296 21.7883C113.296 21.3597 113.48 20.931 113.847 20.6248C114.214 20.3186 114.643 20.2573 115.072 20.2573C115.929 20.2573 116.603 20.5635 116.909 21.4209" fill="black"/><path d="M118.44 24.4829C118.072 23.993 117.95 23.3806 117.95 22.7682C117.95 21.4821 118.562 20.2573 120.032 20.2573C120.644 20.2573 121.195 20.441 121.563 20.9922C121.93 21.4821 122.114 22.1558 122.114 22.707C122.114 23.2581 121.992 23.9318 121.685 24.3605C121.318 24.9116 120.767 25.1566 120.093 25.1566C119.358 25.2178 118.807 25.0341 118.44 24.4829ZM119.236 21.7271C119.113 22.0333 119.052 22.462 119.052 22.707C119.052 23.3194 119.113 24.2992 119.971 24.2992C120.338 24.2992 120.583 24.1155 120.706 23.7481C120.828 23.4418 120.828 23.0744 120.828 22.707C120.828 22.3395 120.767 21.9108 120.644 21.6046C120.522 21.2984 120.277 21.1147 119.971 21.1147C119.603 21.1759 119.419 21.3597 119.236 21.7271Z" fill="black"/><path d="M125.789 22.217C125.789 21.6659 125.605 21.1759 124.993 21.1759C124.196 21.1759 124.135 22.217 124.135 22.8294C124.135 23.5031 124.196 24.3605 125.054 24.3605C125.605 24.3605 125.85 23.9318 125.911 23.4418L127.014 23.5031C126.891 24.6054 126.156 25.2791 124.993 25.2791C123.584 25.2791 122.849 24.1155 122.849 22.7682C122.849 21.4209 123.584 20.2573 124.993 20.2573C126.217 20.2573 126.83 20.9922 126.952 22.0946" fill="black"/><path d="M129.096 20.3176H127.993V25.1557H129.096V20.3176Z" fill="black"/><path d="M134.363 25.1557H133.138L132.832 24.1758H131.239L130.933 25.1557H129.953L131.484 20.3176H132.77L134.363 25.1557ZM132.587 23.2572L132.097 21.5424L131.607 23.2572H132.587Z" fill="black"/><path d="M137.976 21.2975H136.751V25.1557H135.587V21.2975H134.362V20.3176H137.976" fill="black"/><path d="M139.935 20.3176H138.833V25.1557H139.935V20.3176Z" fill="black"/><path d="M141.528 24.4829C141.16 23.993 141.038 23.3806 141.038 22.7682C141.038 21.4821 141.65 20.2573 143.12 20.2573C143.732 20.2573 144.283 20.441 144.651 20.9922C145.018 21.4821 145.141 22.1558 145.141 22.707C145.141 23.2581 145.018 23.9318 144.712 24.3605C144.345 24.9116 143.793 25.1566 143.12 25.1566C142.446 25.1566 141.895 25.0341 141.528 24.4829ZM142.324 21.7271C142.201 22.0333 142.14 22.462 142.14 22.707C142.14 23.3194 142.262 24.2992 142.997 24.2992C143.365 24.2992 143.61 24.1155 143.732 23.7481C143.855 23.4418 143.855 23.0744 143.855 22.707C143.855 22.3395 143.793 21.9108 143.671 21.6046C143.548 21.2984 143.304 21.1147 142.997 21.1147C142.691 21.1759 142.507 21.3597 142.324 21.7271Z" fill="black"/><path d="M149.856 25.1557H148.876L147.039 21.9099V25.1557H146.121V20.3176H147.345L148.999 23.1959V20.3176H149.856" fill="black"/><path d="M28.3544 15.1729V17.9899L28.4156 15.1729" fill="black"/><path d="M100.496 9.29503L90.5754 13.2757L84.5738 0.905029H79.7358L71.2233 17.9912L71.4683 18.4199L76.4288 16.5215L77.5924 14.0106L82.1854 4.33452L86.7173 14.0106L87.0235 14.6842L84.9413 15.5416L71.0396 21.0533L70.7946 22.0944L69.9373 25.2177L88.3095 17.5625L88.3708 17.685L91.9227 25.1564H96.3933L91.9227 16.0315L97.9243 13.5207" fill="black"/><path d="M23.5777 15.2966L19.6583 15.9703L17.8211 16.2765L7.77759 17.9912L7.90007 17.685L9.67606 14.0106L14.2079 4.33452L18.6172 13.6431L22.5366 13.1532L16.6575 0.905029H11.7583L0 24.9727H4.53183L5.94037 21.9719L21.1893 19.2773L23.8839 25.1564H28.3545L25.17 18.5424L28.3545 17.9912V15.1742V14.5005" fill="black"/><path d="M28.4156 14.4993H28.3544V15.1729H28.4156V14.4993Z" fill="black"/><path d="M32.58 9.60123V4.57948H47.829V0.905029H28.3544V12.1121L32.58 11.4385" fill="black"/><path d="M54.0146 4.457H62.2208C65.7116 4.457 67.4876 4.94693 67.4876 7.51905C67.4876 9.05007 66.8751 9.8462 65.6503 10.2136L67.855 13.3369C70.0597 12.4796 71.7132 10.4586 71.7132 7.39656C71.7132 2.06861 67.9775 0.905029 62.8333 0.905029H49.7889V8.43766L54.0146 7.70277" fill="black"/><path d="M63.2617 10.5809L61.9144 8.80493L54.0143 10.1522L49.7887 10.8871L32.58 13.7654L28.4156 14.4391V14.5003V15.174L28.3544 17.9911V25.1563H48.1964V21.543H32.58V17.2562L49.7887 14.1941V25.1563H54.0143V14.1329V13.4592L60.3834 12.2957L69.9369 25.2175L70.7943 22.0942L71.0393 21.0531L65.6501 13.8267" fill="black"/></g></svg>