<svg width="96" height="28" viewBox="0 0 96 28" fill="none" xmlns="http://www.w3.org/2000/svg"><g opacity="0.3"><path d="M0.452881 10.9177V0.942383H3.4993C5.87001 0.942383 7.06109 1.92731 7.06109 4.10905C7.06109 6.29079 5.77266 7.34444 3.55084 7.34444H2.82932V10.9177H0.452881ZM3.62528 5.39748C4.1521 5.39748 4.62166 5.07681 4.62166 4.12051C4.62166 3.28446 4.19219 2.97524 3.6081 2.97524H2.82932V5.39748H3.62528Z" fill="black"/><path d="M12.6498 3.75755C12.478 3.15056 12.1688 2.66382 11.5561 2.66382C11.4599 2.65066 11.3621 2.65835 11.2693 2.68637C11.1764 2.71438 11.0906 2.76206 11.0178 2.82617C10.945 2.89028 10.8869 2.96931 10.8474 3.05789C10.8078 3.14647 10.7878 3.24253 10.7887 3.33953C10.7887 5.10897 14.8544 4.86846 14.8544 8.20693C14.8544 10.0107 13.5603 11.0357 11.5561 11.0357C9.55183 11.0357 8.64134 10.1882 8.31494 8.32718L10.5024 7.92634C10.6055 8.70512 10.9319 9.17468 11.6477 9.17468C12.1745 9.17468 12.5753 8.91127 12.5753 8.37299C12.5753 6.52338 8.49246 6.77534 8.49246 3.42542C8.49246 1.86786 9.63773 0.814209 11.5102 0.814209C13.3828 0.814209 14.3162 1.77051 14.6826 3.33953L12.6498 3.75755Z" fill="black"/><path d="M17.9126 10.9157V7.05044L15.3816 0.94043H17.884L19.0923 4.47931L20.3692 0.94043H22.843L20.312 7.05044V10.9157H17.9126Z" fill="black"/><path d="M30.5905 7.63429C30.2183 9.92483 29.1703 11.0357 27.1948 11.0357C24.6064 11.0357 23.7131 9.06588 23.7131 5.88203C23.7131 3.13338 24.6236 0.814209 27.252 0.814209C29.4796 0.814209 30.2927 2.09119 30.4931 4.11831L28.2999 4.33019C28.1625 3.32808 27.8361 2.80125 27.2807 2.80125C26.5248 2.80125 26.1354 3.58004 26.1354 5.85912C26.1354 8.44171 26.4904 9.07733 27.2807 9.07733C27.8533 9.07733 28.2083 8.5047 28.3744 7.35943L30.5905 7.63429Z" fill="black"/><path d="M36.7176 10.9157V6.81566H34.6733V10.9157H32.2854V0.94043H34.6733V4.7599H36.7176V0.94043H39.0883V10.9157H36.7176Z" fill="black"/><path d="M40.9153 5.96908C40.9153 2.89975 41.7399 0.843994 44.5229 0.843994C47.3059 0.843994 48.1305 2.89975 48.1305 5.99771C48.1305 9.18156 47.1226 11.0942 44.5229 11.0942C41.9231 11.0942 40.9153 9.1243 40.9153 5.96908ZM45.7025 5.96908C45.7025 3.62127 45.3876 2.76232 44.5229 2.76232C43.6582 2.76232 43.3433 3.62127 43.3433 5.96908C43.3433 8.43141 43.6983 9.16438 44.5229 9.16438C45.3475 9.16438 45.7025 8.40278 45.7025 5.96908Z" fill="black"/><path d="M56.5195 10.9157V4.71982L55.128 10.9157H53.4788L52.1102 4.71982V10.9157H49.9514V0.94043H52.9807L54.2748 6.70686L55.6835 0.94043H58.6211V10.9157H56.5195Z" fill="black"/><path d="M60.7568 10.9157V0.94043H66.4832V2.9561H63.1333V4.82289H65.6471V6.78131H63.1333V8.90578H66.6149V10.9215L60.7568 10.9157Z" fill="black"/><path d="M69.713 10.9157V2.9561H67.7947V0.94043H74.0078V2.9561H72.0837V10.9157H69.713Z" fill="black"/><path d="M79.8886 10.9157L78.7834 7.17642H77.9417V10.9157H75.5881V0.94043H78.7147C80.948 0.94043 82.1104 1.7593 82.1104 3.8036C82.1487 4.27957 82.0551 4.75686 81.8399 5.18313C81.6248 5.6094 81.2964 5.96818 80.8907 6.22012L82.4941 10.8928L79.8886 10.9157ZM78.5429 5.30391C79.1499 5.30391 79.6882 5.0634 79.6882 4.06702C79.6882 2.84158 79.0297 2.88166 78.6174 2.88166H77.9646V5.30391H78.5429Z" fill="black"/><path d="M83.9717 10.9157V0.94043H86.3596V10.9157H83.9717Z" fill="black"/><path d="M95.058 7.63429C94.6858 9.92483 93.6379 11.0357 91.6623 11.0357C89.074 11.0357 88.1807 9.06588 88.1807 5.88203C88.1864 3.13338 89.0625 0.814209 91.7195 0.814209C93.9471 0.814209 94.7602 2.09119 94.9607 4.11831L92.7675 4.33019C92.63 3.32808 92.3036 2.80125 91.7482 2.80125C90.9923 2.80125 90.6029 3.58004 90.6029 5.85912C90.6029 8.44171 90.9579 9.07733 91.7482 9.07733C92.3208 9.07733 92.6701 8.5047 92.8419 7.35943L95.058 7.63429Z" fill="black"/><path d="M4.33509 19.8789C4.1633 19.2662 3.85408 18.7794 3.24136 18.7794C3.14477 18.7662 3.04645 18.774 2.95317 18.8024C2.85989 18.8307 2.77385 18.8789 2.70095 18.9436C2.62805 19.0084 2.57002 19.0881 2.53085 19.1774C2.49168 19.2667 2.4723 19.3634 2.47403 19.4609C2.47403 21.2246 6.53974 20.9898 6.53974 24.3225C6.53974 26.1263 5.24558 27.1857 3.24136 27.1857C1.23714 27.1857 0.326646 26.3096 0.000244141 24.4485L2.18771 24.0477C2.29078 24.8265 2.61719 25.296 3.33298 25.296C3.8598 25.296 4.26065 25.0326 4.26065 24.4886C4.26065 22.6447 0.177761 22.891 0.177761 19.5468C0.177761 17.9892 1.32303 16.9355 3.18982 16.9355C5.05661 16.9355 5.97855 17.8918 6.36222 19.4609L4.33509 19.8789Z" fill="black"/><path d="M8.01709 22.0595C8.01709 18.9902 8.84168 16.9058 11.6304 16.9058C14.4191 16.9058 15.238 18.9615 15.238 22.0595C15.238 25.2376 14.2302 27.1559 11.6304 27.1559C9.03065 27.1559 8.01709 25.2376 8.01709 22.0595ZM12.81 22.0595C12.81 19.7117 12.4951 18.847 11.6304 18.847C10.7657 18.847 10.4222 19.7117 10.4222 22.0595C10.4222 24.5161 10.7772 25.2548 11.6018 25.2548C12.4264 25.2548 12.7814 24.5161 12.7814 22.0595H12.81Z" fill="black"/><path d="M23.5986 23.7529C23.2264 26.0091 22.1728 27.1543 20.1972 27.1543C17.6146 27.1543 16.7156 25.1845 16.7156 22.0006C16.7156 19.2806 17.5974 16.9614 20.2545 16.9614C22.4877 16.9614 23.2952 18.2384 23.4956 20.2655L21.3081 20.4717C21.1649 19.4753 20.8385 18.9485 20.2831 18.9485C19.5329 18.9485 19.1378 19.7215 19.1378 22.0006C19.1378 24.5832 19.4929 25.2245 20.2831 25.2245C20.8557 25.2245 21.205 24.6519 21.3768 23.5066L23.5986 23.7529Z" fill="black"/><path d="M25.2881 27.0294V17.0598H27.676V27.0294H25.2881Z" fill="black"/><path d="M29.8115 27.0294V17.0598H35.5379V19.0698H32.1822V20.9308H34.7018V22.8892H32.1822V25.0137H35.6639V27.0294H29.8115Z" fill="black"/><path d="M38.7677 27.0294V19.0698H36.8494V17.0598H43.0567V19.0698H41.1384V27.0294H38.7677Z" fill="black"/><path d="M46.4809 27.0294V23.1469L43.9556 17.0598H46.458L47.6662 20.5987H47.6949L48.9718 17.0598H51.4456L48.886 23.1469V27.0065L46.4809 27.0294Z" fill="black"/></g></svg>