<svg width="515" height="320" viewBox="0 0 515 320" fill="none" xmlns="http://www.w3.org/2000/svg"><path opacity="0.4" d="M199.665 216.964C176.046 215.265 159.01 225.873 151.348 232.155C143.687 238.436 151.292 241.195 158.055 236.464C166.732 232.182 175.897 225.631 201.502 227.647C236.719 230.42 262.815 255.839 272.314 260.241C281.813 264.642 282.061 262.876 274.284 255.691C266.22 248.24 231.481 219.253 199.665 216.964Z" fill="#89E219"/><path opacity="0.4" d="M395.331 242.096C404.73 218.214 394.869 187.243 393.328 180.464C391.431 171.419 394.262 169.792 399.799 179.231C406.579 190.787 413.667 219.292 404.576 242.096C394.88 266.417 365.625 280.761 358.814 282.928C348.644 286.163 351.41 282.344 357.273 279.692C363.744 276.765 385.712 266.538 395.331 242.096Z" fill="#89E219"/><path d="M179.17 42.6961C202.753 63.107 214.022 100.896 207.136 131.953L328.252 236.777C331.653 239.721 333.051 245.49 331.376 249.664L331.263 249.944C337.115 249.241 341.82 250.238 342.248 252.444C342.736 254.959 337.483 258.094 330.516 259.446C328.331 259.871 326.236 260.068 324.374 260.063C324.189 260.091 324.001 260.109 323.811 260.115C325.262 260.579 326.192 261.289 326.372 262.213C326.86 264.728 321.608 267.863 314.641 269.216C307.674 270.569 301.63 269.627 301.141 267.113C300.999 266.378 301.348 265.592 302.086 264.811L300.054 263.053C297.72 261.033 294.895 261.717 293.745 264.582C292.595 267.447 293.555 271.407 295.889 273.427L298.974 276.097C302.068 278.774 303.503 283.791 302.476 287.817C304.687 287.739 307.277 287.649 309.011 287.586L309.059 291.16C311.724 291.984 313.449 293.307 313.522 294.871C313.655 297.719 308.26 300.285 301.472 300.602C298.039 300.763 294.908 300.316 292.633 299.468C292.232 299.34 291.831 299.166 291.434 298.942C290.621 298.523 289.98 298.042 289.551 297.51L278.367 287.83C277.092 286.727 276.615 284.562 276.821 282.734C277.214 279.251 276.253 275.422 274.257 272.553C272.751 272.97 271.041 273.247 269.221 273.332C265.327 273.514 261.853 272.783 259.761 271.524C259.491 271.42 259.225 271.263 258.968 271.041L247.171 260.831C243.771 257.888 242.372 252.118 244.047 247.944L246.789 241.116C247.474 239.41 248.566 238.235 249.85 237.642C252.425 236.168 256.841 235.072 261.896 234.836C263.13 234.779 264.332 234.776 265.482 234.823C265.056 233.401 264.285 232.095 263.232 231.184L260.146 228.513C256.745 225.57 255.346 219.8 257.022 215.626L259.764 208.797C259.98 208.257 260.239 207.772 260.531 207.34L198.443 153.604C183.27 177.49 155.293 181.312 131.71 160.901C105.114 137.883 94.1772 92.7611 107.283 60.1197C120.388 27.4783 152.573 19.6774 179.17 42.6961ZM171.19 62.5691C169.226 60.8688 166.955 60.2079 164.887 60.734L160.557 61.7834C158.833 62.2011 156.947 61.6412 155.314 60.2278L150.049 55.6711C145.98 52.1492 141.055 53.2953 138.997 58.2428L136.403 64.7043C135.598 66.7086 134.178 68.0699 132.454 68.4878L128.124 69.5363C126.053 70.0208 124.344 71.6466 123.379 74.0504C122.413 76.4542 122.272 79.4369 122.987 82.3325L124.458 88.4025C125.044 90.8193 124.92 93.3029 124.115 95.3073L121.521 101.769C120.566 104.183 120.432 107.169 121.149 110.066C121.865 112.963 123.373 115.534 125.34 117.212L130.605 121.768C132.238 123.182 133.485 125.333 134.071 127.75L135.542 133.82C136.229 136.725 137.718 139.316 139.677 141.016C142.777 140.174 146.496 139.548 150.516 139.262C161.65 138.471 170.872 140.584 171.113 143.982C171.257 146.008 168.173 148.033 163.297 149.506C166.724 150.894 170.232 149.377 171.886 145.399L174.488 138.919C175.289 136.926 176.698 135.568 178.41 135.142L182.755 134.061C184.826 133.576 186.535 131.951 187.501 129.547C188.466 127.143 188.607 124.16 187.893 121.265L186.417 115.193C185.829 112.774 185.951 110.287 186.757 108.28L189.35 101.822C190.307 99.4088 190.443 96.4224 189.726 93.5244C189.009 90.6266 187.499 88.0553 185.53 86.3797L180.288 81.8428C178.661 80.4341 177.417 78.2922 176.829 75.8849L175.337 69.7789C174.649 66.8675 173.155 64.2695 171.19 62.5691Z" fill="#FDB02A"/><ellipse cx="169.643" cy="55.9076" rx="15.1804" ry="5.82572" transform="rotate(-12.2258 169.643 55.9076)" fill="#FDB02A"/><ellipse cx="174.509" cy="168.796" rx="22.3636" ry="5.09902" transform="rotate(-4.9219 174.509 168.796)" fill="#FFAE00"/><ellipse cx="150.844" cy="33.8311" rx="22.578" ry="5.14082" transform="rotate(-5.08201 150.844 33.8311)" fill="#FFAE00"/><path d="M118.958 133.508C132.514 158.298 150.099 172.098 180.385 166.602" stroke="#EF920F" stroke-width="13.2342" stroke-linecap="round"/><path d="M265.815 226.702L280.28 239.753" stroke="#EF920F" stroke-width="10.1801" stroke-linecap="round"/><path d="M193.746 41.6795C217.329 62.0904 228.598 99.8792 221.712 130.937L342.608 235.57C346.094 238.587 347.456 244.546 345.528 248.63C345.04 249.665 344.581 250.631 344.154 251.54C341.786 256.579 335.72 258.783 331.426 255.067L330.146 253.959C330.03 254.542 329.866 255.109 329.649 255.649L326.908 262.477C325.232 266.651 321.116 267.648 317.715 264.705L314.63 262.035C312.296 260.015 309.471 260.7 308.321 263.565C307.171 266.429 308.131 270.388 310.465 272.408L313.55 275.078C316.951 278.022 318.349 283.793 316.674 287.967L313.932 294.795C312.256 298.969 308.14 299.965 304.739 297.022L292.943 286.812C291.667 285.709 291.191 283.546 291.397 281.717C291.902 277.244 290.173 272.195 286.885 269.349C283.596 266.503 279.75 266.727 277.328 269.541C276.339 270.691 274.819 271.126 273.544 270.023L261.747 259.813C258.346 256.87 256.947 251.1 258.623 246.926L261.365 240.097C263.041 235.924 267.157 234.926 270.558 237.869L273.643 240.539C275.977 242.559 278.801 241.875 279.952 239.011C281.102 236.146 280.142 232.186 277.808 230.166L274.723 227.495C271.322 224.552 269.923 218.782 271.599 214.608L274.34 207.78C274.557 207.24 274.815 206.755 275.106 206.323L213.019 152.588C197.846 176.473 169.869 180.296 146.286 159.885C119.69 136.866 108.753 91.7445 121.859 59.1031C134.965 26.4617 167.149 18.6608 193.746 41.6795ZM185.767 61.5525C183.802 59.8522 181.531 59.1913 179.463 59.7174L175.133 60.7668C173.409 61.1845 171.523 60.6246 169.89 59.2112L164.625 54.6545C160.556 51.1326 155.631 52.2787 153.573 57.2262L150.979 63.6877C150.174 65.692 148.754 67.0533 147.03 67.4712L142.701 68.5197C140.629 69.0042 138.92 70.63 137.955 73.0338C136.99 75.4376 136.849 78.4203 137.563 81.3159L139.034 87.3859C139.62 89.8027 139.496 92.2863 138.692 94.2907L136.097 100.752C135.142 103.167 135.009 106.152 135.725 109.049C136.442 111.946 137.949 114.517 139.917 116.195L145.181 120.752C146.815 122.165 148.061 124.317 148.647 126.733L150.119 132.803C150.806 135.715 152.3 138.311 154.265 140.012C156.23 141.712 158.501 142.374 160.569 141.848L164.925 140.825C166.64 140.423 168.513 140.984 170.135 142.388L175.411 146.954C179.479 150.476 184.404 149.33 186.462 144.383L189.064 137.902C189.865 135.909 191.274 134.551 192.986 134.125L197.331 133.044C199.403 132.56 201.112 130.934 202.077 128.53C203.042 126.126 203.183 123.144 202.469 120.248L200.993 114.177C200.405 111.758 200.528 109.27 201.333 107.264L203.926 100.806C204.884 98.3922 205.019 95.4058 204.302 92.5078C203.586 89.61 202.076 87.0386 200.107 85.3631L194.865 80.8262C193.237 79.4175 191.993 77.2756 191.405 74.8683L189.914 68.7623C189.226 65.8509 187.731 63.2529 185.767 61.5525Z" fill="#FFC800"/><path d="M277.105 212.642L324.489 253.186" stroke="#FDB02A" stroke-width="6.10808" stroke-linecap="round"/><path d="M133.734 129.112C145.702 151.093 156.937 161.84 175.988 165.015" stroke="#FDB02A" stroke-width="9.16212" stroke-linecap="round"/><path opacity="0.7" d="M171.823 40.1047C177.454 41.3561 185.744 45.7353 189.654 51.3663" stroke="#FFF5D3" stroke-width="10.1801" stroke-linecap="round"/><path d="M213.48 159.52C218.243 151.093 221.052 143.766 222.884 137.171" stroke="#FDB02A" stroke-width="7.12609" stroke-linecap="round"/><path opacity="0.7" d="M309.589 217.039L338.532 242.072" stroke="#FFF5D3" stroke-width="8.14411" stroke-linecap="round"/><path d="M251.405 257.721L260.673 265.751" stroke="#EF920F" stroke-width="10.1801" stroke-linecap="round"/><path d="M214.213 160.496L261.596 201.406" stroke="#EF920F" stroke-width="10.1801" stroke-linecap="round"/><path d="M194.061 116.41L195.771 124.104" stroke="#EF920F" stroke-width="14.2522" stroke-linecap="round"/><path d="M284.501 286.419L293.769 294.449" stroke="#EF920F" stroke-width="10.1801" stroke-linecap="round"/><path d="M188.078 81.606L192.658 85.8803L197.237 90.1547" stroke="#EF920F" stroke-width="10.1801" stroke-linecap="round"/><path d="M306.668 100.628C277.895 89.1876 251.092 79.919 214.793 71.9066C210.161 70.8843 204.266 74.877 204.477 79.7996C205.49 103.451 222.522 124.685 246.978 132.026C271.434 139.366 297.232 130.987 310.94 111.754C313.792 107.751 311.63 102.118 306.668 100.628Z" fill="#58CC02"/><path d="M204.476 79.7991C204.265 74.8766 210.161 70.8842 214.793 71.9065C251.092 79.9189 277.895 89.1874 306.668 100.628C311.629 102.117 313.793 107.751 310.94 111.754C305.545 119.324 298.274 125.21 289.952 129.12C293.239 126.332 296.197 123.14 298.739 119.575C301.592 115.572 299.429 109.938 294.467 108.449C266.2 97.2086 239.833 88.067 204.495 80.1516C204.489 80.0342 204.481 79.9167 204.476 79.7991Z" fill="#C0EC66"/><path d="M363.079 33.8578C358.235 19.7107 330.856 14.6236 319.86 24.5121C312.399 31.0492 306.986 34.3281 301.286 37.5217C295.335 40.8557 285.165 36.6667 275.396 36.6659C268.435 36.6653 261.946 39.2984 255.124 45.0932C240.142 57.8186 237.863 82.868 244.231 101.465L254.147 132.531C268.801 171.61 312.205 188.23 343.295 176.984C376.058 165.766 388.969 129.113 378.955 92.4759C368.941 55.8391 367.923 48.0049 363.079 33.8578Z" fill="#58CC02"/><path d="M319.86 24.5114C330.856 14.623 358.236 19.71 363.08 33.8571C367.924 48.0042 368.941 55.8386 378.955 92.4753C387.706 124.492 378.95 156.52 354.737 171.576C369.962 154.67 374.554 128.418 367.381 102.174C357.367 65.5369 356.349 57.7023 351.505 43.5553C346.661 29.4082 319.281 24.3212 308.285 34.2096C300.824 40.7466 295.411 44.0259 289.711 47.2194C283.76 50.5528 274.978 43.0756 268.409 42.4499C263.091 41.9433 257.464 42.6158 250.617 49.738C251.968 48.056 253.468 46.4987 255.124 45.0924C261.946 39.2977 268.436 36.6651 275.396 36.6657C285.166 36.6666 295.336 40.8551 301.286 37.5212C306.986 34.3276 312.399 31.0485 319.86 24.5114Z" fill="#C0EC66"/><path d="M355.427 81.6847C378.71 89.6656 398.953 99.2734 425.238 112.746C430.299 115.34 429.602 120.776 426.622 124.172C412.305 140.491 390.126 146.093 371.72 137.607C353.314 129.121 343.259 108.658 346.497 87.2311C347.171 82.7715 351.693 79.9631 355.427 81.6847Z" fill="#58CC02"/><path d="M353.186 90.0008C345.726 87.5137 347.474 79.5724 357.606 82.4383C379.984 90.2702 399.777 99.6947 425.239 112.746C428.502 114.418 429.368 117.272 428.776 119.999C404.781 108.715 380.899 98.3613 353.186 90.0008Z" fill="#C0EC66"/><path d="M313.474 126.218L297.53 130.584C296.675 130.818 296.286 131.775 296.762 132.474C299.048 135.833 303.439 137.382 307.651 136.229C311.864 135.076 314.849 131.507 315.099 127.453C315.151 126.61 314.328 125.984 313.474 126.218Z" fill="#89E219"/><path d="M286.283 133.28L269.824 134.811C268.941 134.893 268.392 135.768 268.74 136.539C270.407 140.244 274.463 142.532 278.811 142.128C283.16 141.723 286.72 138.727 287.67 134.778C287.868 133.956 287.166 133.198 286.283 133.28Z" fill="#89E219"/><path d="M302.738 143.541L286.455 146.392C285.582 146.545 285.106 147.461 285.514 148.202C287.474 151.76 291.701 153.715 296.003 152.962C300.305 152.209 303.612 148.935 304.241 144.923C304.372 144.088 303.611 143.388 302.738 143.541Z" fill="#89E219"/><path d="M316.186 34.7348C316.186 34.7348 310.291 39.38 306.938 42.8063C303.62 46.198 299.143 52.1262 299.143 52.1262C298.301 53.1143 298.668 54.63 299.867 55.1195C305.63 57.4717 312.381 55.8437 316.531 50.9734C320.681 46.1032 322.532 40.2447 319.268 34.9609C318.588 33.8612 317.028 33.7467 316.186 34.7348Z" fill="#89E219"/><path d="M322.567 43.8077L307.79 61.1491C306.997 62.0786 307.342 63.5044 308.471 63.965C313.892 66.1777 320.243 64.6462 324.147 60.0646C328.051 55.483 328.537 48.991 325.466 44.0204C324.827 42.9859 323.359 42.8782 322.567 43.8077Z" fill="#89E219"/><path d="M277.726 90.465C278.9 107.273 274.273 121.284 263.167 122.064C254.095 122.688 247.76 115.967 245.571 93.4432C243.381 70.919 246.978 63.5669 258.916 61.196C268.131 60.5525 276.552 73.6566 277.726 90.465Z" fill="#89E219"/><path d="M289.316 59.258C291.466 57.597 304.134 45.8653 310.199 40.207L314.84 45.7027L294.323 98.4592L261.961 98.7034C260.577 95.1212 264.403 61.5785 277.593 63.166C284.091 63.9483 286.63 61.3343 289.316 59.258Z" fill="#89E219"/><path d="M332.718 72.6153C330.87 57.8823 319.089 47.2292 306.405 48.8207C293.721 50.4122 284.937 63.6458 286.786 78.3788L288.435 91.5236C290.284 106.257 302.065 116.91 314.749 115.318C327.433 113.727 336.216 100.493 334.368 85.7601L332.718 72.6153Z" fill="#89E219"/><path d="M264.345 45.8517C265.028 47.5949 269.151 67.172 285.016 62.5114L284.634 77.6841L261.718 66.5841L255.196 67.0056C253.888 68.5598 251.272 70.8252 250.026 67.9261C247.605 62.293 250.335 55.7095 252.381 54.9073C253.446 54.4894 253.566 54.8139 255.394 60.6905C254.74 52.2538 257.712 48.5233 259.005 46.5546C260.626 44.0861 262.957 42.3135 264.345 45.8517Z" fill="#89E219"/><path d="M322.805 74.9631C321.55 64.9595 313.713 57.7057 305.302 58.7612C296.89 59.8166 291.089 68.7817 292.344 78.7852L293.464 87.7104C294.719 97.714 302.556 104.968 310.967 103.912C319.379 102.857 325.18 93.8918 323.925 83.8883L322.805 74.9631Z" fill="white"/><path d="M274.318 90.7224C275.379 108.337 272.085 110.882 264.655 112.212C260.432 112.681 253.51 111.259 252.073 92.5327C250.635 73.8059 253.706 69.1976 261.293 68.2423C268.565 67.6332 272.945 72.6387 274.318 90.7224Z" fill="white"/><path d="M292.086 98.4467C292.453 98.344 292.673 97.9681 292.56 97.6049C290.71 91.6502 284.175 87.7328 277.765 88.2207C271.856 88.6704 268.677 92.4254 267.662 97.812C267.423 99.0817 268.056 100.332 269.137 101.041L273.236 103.731L292.086 98.4467Z" fill="#FDCC31"/><path d="M276.001 101.959C277.975 101.775 276.085 95.8773 279.626 95.5672C284.117 96.4364 285.49 96.4123 290.546 97.5839C290.816 97.6463 291.024 97.8618 291.077 98.1332L293.489 110.407C294.421 115.621 290.95 120.604 285.735 121.536C280.521 122.467 275.538 118.996 274.607 113.781L273.173 103.145C273.122 102.77 273.376 102.422 273.748 102.357L276.001 101.959Z" fill="#F9A229"/><path d="M274.896 99.9979C274.305 96.6915 276.775 96.4636 280.082 95.8728C283.851 96.8403 286.547 97.4833 287.138 100.79L288.513 108.729C289.104 112.036 286.903 115.195 283.596 115.786C280.29 116.377 277.131 114.175 276.54 110.869L274.896 99.9979Z" fill="#CA6B18"/><path fill-rule="evenodd" clip-rule="evenodd" d="M287.72 104.153L288.512 108.728C289.103 112.034 286.901 115.194 283.595 115.785C282.408 115.997 281.24 115.849 280.203 115.42C280.201 115.411 280.198 115.402 280.196 115.392C278.855 110.682 281.587 105.777 286.297 104.436C286.77 104.301 287.246 104.208 287.72 104.153Z" fill="#F4BEC0"/><path d="M271.916 100.736L275.401 102.193C275.512 102.24 275.629 102.272 275.748 102.288L285.74 103.697C286.684 103.83 287.485 103.006 287.325 102.065L286.419 96.7449L275.913 94.939C274.723 94.7344 273.534 95.3112 272.959 96.373L271.395 99.2579C271.097 99.8078 271.339 100.495 271.916 100.736Z" fill="#CA6B18"/><path fill-rule="evenodd" clip-rule="evenodd" d="M356.844 181.321C360.765 177.505 360.822 171.203 356.969 167.243L346.14 156.113C342.288 152.154 335.986 152.038 332.064 155.853C328.142 159.669 328.086 165.972 331.939 169.931L342.768 181.061C346.62 185.02 352.922 185.137 356.844 181.321Z" fill="#F9A229"/><path d="M335.836 153.564C339.341 152.409 343.372 153.27 346.14 156.114L356.97 167.244C360.822 171.203 360.765 177.507 356.844 181.322C354.441 183.66 351.145 184.519 348.066 183.925C349.44 183.472 350.734 182.71 351.838 181.636C355.759 177.82 355.816 171.517 351.964 167.558L341.135 156.428C339.643 154.894 337.782 153.94 335.836 153.564Z" fill="#FDCC31"/><path fill-rule="evenodd" clip-rule="evenodd" d="M364.812 212.877C367.26 208.003 365.104 201.974 359.998 199.41L345.644 192.202C340.538 189.638 334.415 191.51 331.967 196.384C329.52 201.258 331.675 207.288 336.781 209.852L351.135 217.059C356.241 219.624 362.365 217.751 364.812 212.877Z" fill="#F9A229"/><path d="M332.859 194.947C335.695 191.167 341.076 189.908 345.645 192.202L359.998 199.41C365.104 201.974 367.26 208.004 364.812 212.878C363.737 215.02 361.95 216.582 359.852 217.442C360.185 216.997 360.486 216.519 360.744 216.006C363.191 211.132 361.037 205.103 355.931 202.539L341.576 195.331C338.715 193.894 335.534 193.85 332.859 194.947Z" fill="#FDCC31"/><path d="M258.555 73.5762C261.996 73.2637 265.615 75.1594 266.934 87.2725C268.252 99.3857 265.906 103.609 261.37 104.234C256.834 104.86 252.956 101.476 251.958 88.4912C251.847 87.051 251.802 85.7505 251.81 84.5762C252.223 84.8453 252.679 84.9951 253.158 84.9951C255.015 84.9951 256.521 82.7545 256.521 79.9902C256.521 77.8584 255.625 76.0388 254.363 75.3174C255.61 74.0538 257.142 73.7045 258.555 73.5762Z" fill="#4B4B4B"/><path d="M301.521 65.3674C307.379 64.6323 312.838 69.6843 313.712 76.6516L314.492 82.8684C315.366 89.8358 311.325 96.0796 305.467 96.8147C299.608 97.5498 294.151 92.4979 293.276 85.5305L292.518 79.4846C293.062 79.8092 293.663 79.9905 294.295 79.9905C296.757 79.9903 298.753 77.2592 298.753 73.8899C298.753 71.305 297.578 69.0961 295.919 68.2073C297.432 66.6677 299.351 65.6397 301.521 65.3674Z" fill="#4B4B4B"/><path d="M249.745 119.878C251.751 126.108 253.03 129.72 254.626 133.806C252.073 133.378 249.518 132.788 246.978 132.026C246.736 131.953 246.495 131.876 246.254 131.8C245.273 129.09 244.264 126.107 242.961 122.063L246.353 120.971L249.745 119.878ZM245.261 117.58C247.134 116.977 249.141 118.006 249.745 119.878L242.961 122.063C242.358 120.19 243.388 118.183 245.261 117.58Z" fill="#3DBE01"/></svg>