<svg width="201" height="120" viewBox="0 0 201 120" fill="none" xmlns="http://www.w3.org/2000/svg"><path fill-rule="evenodd" clip-rule="evenodd" d="M66.2831 69.6682C66.2831 68.3214 65.1912 67.2295 63.8443 67.2295H42.3589C41.012 67.2295 39.9201 68.3214 39.9201 69.6683V76.3851C39.9201 77.732 41.012 78.8239 42.3589 78.8239H44.5123C45.5225 78.8239 46.3414 79.6428 46.3414 80.6529V81.6717C46.3414 82.6818 45.5225 83.5007 44.5123 83.5007H42.36C41.0131 83.5007 39.9213 84.5926 39.9213 85.9395V93.4606C39.9213 94.8075 41.0131 95.8993 42.36 95.8993H48.6655C49.1706 95.8993 49.5729 95.4876 49.6437 94.9875C49.9569 92.7771 51.3864 91.1075 53.1026 91.1075C54.8187 91.1075 56.2483 92.7771 56.5614 94.9875C56.6323 95.4876 57.0346 95.8993 57.5396 95.8993H63.8454C65.1923 95.8993 66.2842 94.8074 66.2842 93.4606V85.9395C66.2842 84.5926 65.1923 83.5007 63.8454 83.5007H61.6927C60.6825 83.5007 59.8636 82.6818 59.8636 81.6717V80.6529C59.8636 79.6428 60.6825 78.8239 61.6927 78.8239H63.8443C65.1912 78.8239 66.2831 77.732 66.2831 76.3851V69.6682Z" fill="#FFE280"/><path fill-rule="evenodd" clip-rule="evenodd" d="M60.9951 69.6682C60.9951 68.3214 59.9032 67.2295 58.5564 67.2295H37.071C35.7241 67.2295 34.6322 68.3214 34.6322 69.6683V76.3851C34.6322 77.732 35.7241 78.8239 37.071 78.8239H39.2235C40.2337 78.8239 41.0526 79.6428 41.0526 80.6529V82.4756C41.0526 83.4858 40.2337 84.3047 39.2235 84.3047H37.0705C35.7236 84.3047 34.6318 85.3966 34.6318 86.7434V93.4603C34.6318 94.8072 35.7236 95.8991 37.0705 95.8991H43.3761C43.8811 95.8991 44.2834 95.4874 44.3543 94.9873C44.6675 92.7771 46.097 91.1076 47.8131 91.1076C49.5292 91.1076 50.9586 92.7771 51.2719 94.9873C51.3427 95.4874 51.745 95.8991 52.2501 95.8991H58.5559C59.9028 95.8991 60.9947 94.8072 60.9947 93.4603V86.7434C60.9947 85.3966 59.9028 84.3047 58.5559 84.3047H56.4039C55.3938 84.3047 54.5749 83.4858 54.5749 82.4756V80.6529C54.5749 79.6428 55.3938 78.8239 56.4039 78.8239H58.5564C59.9032 78.8239 60.9951 77.732 60.9951 76.3851V69.6682Z" fill="#FFC500"/><path d="M132.445 61.3885C132.445 60.0416 131.353 58.9497 130.007 58.9497H31.8417C30.9836 58.9497 30.1249 59.149 29.477 59.7116C28.4496 60.6036 27.0439 62.2963 27.0439 64.8805C27.0439 67.605 28.6063 69.1497 29.6406 69.8738C30.2005 70.2658 30.8864 70.3894 31.5699 70.3894H130.007C131.353 70.3894 132.445 69.2976 132.445 67.9507V61.3885Z" fill="#FFC500"/><path d="M103.1 61.457C102.692 64.0351 102.775 65.5396 103.351 68.29" stroke="#FFAC00" stroke-width="3.65814" stroke-linecap="round"/><path d="M59.233 72.2572L36.4179 72.2573" stroke="#FFAC00" stroke-width="3.65814" stroke-linecap="round"/><path opacity="0.5" d="M49.5702 62.4382L38.5652 62.4383" stroke="white" stroke-width="3.65814" stroke-linecap="round"/><path fill-rule="evenodd" clip-rule="evenodd" d="M132.473 64.6709C132.473 81.9174 142.236 95.8985 154.28 95.8985C166.324 95.8985 176.088 81.9174 176.088 64.6709C176.088 47.4244 166.324 33.4434 154.28 33.4434C142.236 33.4434 132.473 47.4244 132.473 64.6709ZM140.748 61.29L142.566 58.6903C142.771 58.3971 142.882 58.0478 142.882 57.6899V53.1717C142.883 52.8212 142.911 52.4748 142.964 52.1382C143.154 50.9307 144.349 50.2893 145.552 50.075C146.312 49.9397 147.108 49.7311 147.914 49.4467C151.587 48.1507 154.114 45.7572 153.697 44.017C153.889 43.9681 154.084 43.943 154.281 43.943C155.17 43.943 156.023 44.4544 156.647 45.3626L158.256 47.6668C158.583 48.1343 159.117 48.4128 159.687 48.4128H162.316C164.159 48.4126 165.66 50.5333 165.684 53.1717V57.6907C165.684 58.0481 165.793 58.3969 165.998 58.6899L167.814 61.29C168.445 62.183 168.8 63.4003 168.8 64.6705C168.8 65.9406 168.445 67.158 167.814 68.0509L165.998 70.651C165.793 70.9441 165.684 71.2929 165.684 71.6503V76.1693C165.679 77.4402 165.321 78.6562 164.689 79.5489C164.058 80.4417 163.204 80.9379 162.316 80.9281H159.687C159.117 80.9281 158.583 81.2067 158.256 81.6742L156.647 83.9784C156.023 84.8865 155.17 85.3979 154.281 85.3979C153.391 85.3979 152.539 84.8865 151.915 83.9784L151.797 83.8114C151.644 82.0978 149.121 80.1388 145.698 79.2036C145.563 79.1668 145.428 79.132 145.294 79.0993C144.149 78.8196 143.059 78.1141 142.919 76.943C142.889 76.6963 142.873 76.4431 142.871 76.185V71.6622C142.871 71.3072 142.762 70.9606 142.56 70.6687L140.748 68.0509C140.117 67.158 139.762 65.9406 139.762 64.6705C139.762 63.4003 140.117 62.183 140.748 61.29Z" fill="#FFE280"/><path fill-rule="evenodd" clip-rule="evenodd" d="M149.003 95.8965C136.959 95.8965 127.195 81.9155 127.195 64.669C127.195 47.4225 136.959 33.4414 149.003 33.4414C161.047 33.4414 170.811 47.4225 170.811 64.669C170.811 81.9155 161.047 95.8965 149.003 95.8965ZM137.183 58.838L135.47 61.2875C134.839 62.1805 134.484 63.3978 134.484 64.668C134.484 65.9381 134.839 67.1554 135.47 68.0484L137.179 70.5167C137.448 70.9059 137.593 71.368 137.593 71.8414V76.1825C137.617 78.8209 139.117 80.9416 140.96 80.9413H143.289C144.046 80.9413 144.755 81.3089 145.191 81.9268L146.637 83.9759C147.261 84.884 148.113 85.3954 149.003 85.3954C149.893 85.3954 150.745 84.884 151.369 83.9759L152.805 81.9203C153.24 81.297 153.952 80.9256 154.713 80.9256H157.039C157.926 80.9354 158.78 80.4391 159.412 79.5464C160.043 78.6536 160.401 77.4377 160.406 76.1668V71.8308C160.406 71.3543 160.552 70.8892 160.825 70.4984L162.536 68.0484C163.167 67.1554 163.522 65.9381 163.522 64.668C163.522 63.3978 163.167 62.1805 162.536 61.2875L160.825 58.8375C160.552 58.4468 160.406 57.9817 160.406 57.5051V53.1692C160.382 50.5308 158.881 48.4101 157.039 48.4103H154.713C153.952 48.4103 153.24 48.0389 152.805 47.4156L151.369 45.36C150.745 44.4519 149.893 43.9405 149.003 43.9405C148.113 43.9405 147.261 44.4519 146.637 45.36L145.191 47.4202C144.755 48.0409 144.044 48.4103 143.286 48.4103H140.971C140.083 48.3992 139.229 48.8949 138.597 49.788C137.965 50.6811 137.608 51.8978 137.604 53.1692V57.5041C137.604 57.9813 137.457 58.447 137.183 58.838Z" fill="#FFC500"/><path d="M165.996 45.6179C164.691 42.8982 162.667 40.6011 160.307 39.249" stroke="#FFF4D0" stroke-width="4.57268" stroke-linecap="round"/><path d="M140.499 87.8163C145.134 91.9828 154.084 92.337 159.107 86.6255" stroke="#FFAC00" stroke-width="4.57268" stroke-linecap="round"/><path d="M70.1387 45.0666C70.1387 41.3364 73.058 37.4473 76.6298 36.4193L103.256 28.7555C105.127 28.2171 106.97 28.1142 108.656 28.454L116.22 29.9789C118.758 30.4903 120.202 32.9099 119.78 35.9437L111.972 92.1448C111.498 95.5608 108.803 98.791 105.633 99.7446L76.5501 108.493C73.0092 109.558 70.1387 107.424 70.1387 103.726V45.0666Z" fill="#B1E6FF"/><path fill-rule="evenodd" clip-rule="evenodd" d="M72.1625 39.5767C70.9174 41.1719 70.1387 43.1408 70.1387 45.0673V103.727C70.1387 107.425 73.0092 109.559 76.5501 108.494L105.633 99.7453C108.803 98.7917 111.498 95.5616 111.972 92.1455L117.206 54.4741L72.1625 39.5767Z" fill="#1CB0F6"/><path d="M70.2003 59.6324C70.2003 57.2157 72.5776 54.8802 74.6962 55.2155L81.9916 56.3703C83.4466 56.6006 84.386 57.8209 84.386 59.4807V110.401C84.386 111.018 83.7692 111.608 83.2371 111.501L72.4703 109.331C71.0827 109.051 70.2004 107.851 70.2004 106.243L70.2003 59.6324Z" fill="#1CB0F6"/><rect width="42.8233" height="72.1341" rx="6.69521" transform="matrix(0.957613 -0.288059 0 1 80.1816 41.0996)" fill="#84D8FF"/><path fill-rule="evenodd" clip-rule="evenodd" d="M72.552 39.105C71.0819 40.7733 70.1387 42.9449 70.1387 45.0652V45.4498L82.4562 47.9171C84.2691 48.2802 86.033 47.105 86.3961 45.2922C86.7593 43.4794 85.5841 41.7155 83.7712 41.3523L72.552 39.105Z" fill="#84D8FF"/><path fill-rule="evenodd" clip-rule="evenodd" d="M105.521 77.2526C105.056 75.9828 105.884 74.2294 107.15 73.1603C110.945 69.9572 113.567 64.7561 113.567 59.6457C113.567 52.5622 108.529 48.3354 102.314 50.2048C96.0996 52.0743 91.0615 59.3321 91.0615 66.4156C91.0615 71.4531 93.6095 75.0459 97.3167 76.0286C98.552 76.3561 99.3468 77.6 98.8892 79.1249L95.3497 90.9204C94.812 92.7123 95.9718 94.0616 97.623 93.5649L106.747 90.8203C108.398 90.3236 109.558 88.2766 109.02 86.8082L105.521 77.2526Z" fill="#1CB0F6"/><path fill-rule="evenodd" clip-rule="evenodd" d="M99.4734 17.7816C97.7929 16.8197 95.6216 16.6709 94.1468 17.127C90.1265 18.3705 88.4404 20.4624 87.5049 22.851C86.4039 25.6622 86.2423 29.1622 86.2423 33.3395V33.3779V33.4164V33.455V33.4935V33.5321V33.5707V33.6093V33.648V33.6866V33.7254V33.7641V33.8028V33.8416V33.8804V33.9193V33.9581V33.997V34.0359V34.0748V34.1138V34.1527V34.1917V34.2307V34.2698V34.3088V34.3479V34.387V34.4261V34.4652V34.5044V34.5436V34.5828V34.622V34.6612V34.7005V34.7398V34.7791V34.8184V34.8577V34.897V34.9364V34.9758V35.0152V35.0546V35.094V35.1335V35.1729V35.2124V35.2519V35.2914V35.3309V35.3705V35.41V35.4496V35.4891V35.5287V35.5683V35.6079V35.6476V35.6872V35.7269V35.7665V35.8062V35.8459V35.8856V35.9253V35.965V36.0047V36.0445V36.0842V36.124V36.1637V36.2035V36.2433V36.2831V36.3229V36.3627V36.4025V36.4423V36.4821V36.522V36.5618V36.6017V36.6415V36.6814V36.7212V36.7611V36.801V36.8408V36.8807V36.9206V36.9605V37.0004V37.0403V37.0802V37.1201V37.16V37.1999V37.2398V37.2797V37.3196V37.3595V37.3994V37.4176H86.1846C86.0634 38.4563 83.6955 39.2849 80.7921 39.2849C77.8887 39.2849 75.5207 38.4563 75.3996 37.4176H75.3626V37.3994V37.3595V37.3196V37.2797V37.2398V37.1999V37.16V37.1201V37.0802V37.0403V37.0004V36.9605V36.9206V36.8807V36.8408V36.801V36.7611V36.7212V36.6814V36.6415V36.6017V36.5618V36.522V36.4821V36.4423V36.4025V36.3627V36.3229V36.2831V36.2433V36.2035V36.1637V36.124V36.0842V36.0445V36.0047V35.965V35.9253V35.8856V35.8459V35.8062V35.7665V35.7269V35.6872V35.6476V35.6079V35.5683V35.5287V35.4891V35.4496V35.41V35.3705V35.3309V35.2914V35.2519V35.2124V35.1729V35.1335V35.094V35.0546V35.0152V34.9758V34.9364V34.897V34.8577V34.8184V34.7791V34.7398V34.7005V34.6612V34.622V34.5828V34.5436V34.5044V34.4652V34.4261V34.387V34.3479V34.3088V34.2698V34.2307V34.1917V34.1527V34.1138V34.0748V34.0359V33.997V33.9581V33.9193V33.8804V33.8416V33.8028V33.7641V33.7254V33.6866V33.648V33.6093V33.5707V33.5321V33.4935V33.455V33.4164V33.3779V33.3395C75.3626 29.3132 75.4279 23.8534 77.3745 18.8832C79.4867 13.4905 83.6692 8.97947 90.932 6.73311C95.2365 5.40176 100.534 5.85299 104.878 8.33921C109.287 10.8628 112.578 15.4255 112.893 21.7351H112.826C112.764 22.8056 110.359 23.6666 107.401 23.6666C104.569 23.6666 102.243 22.8773 101.996 21.8705C101.777 19.6623 100.707 18.4877 99.4734 17.7816Z" fill="#AFAFAF"/><path opacity="0.49" d="M80.793 20.706C81.8378 16.9917 84.7396 13.7417 87.1769 12.4648" stroke="white" stroke-width="4.1845" stroke-linecap="round"/><path fill-rule="evenodd" clip-rule="evenodd" d="M91.6662 70.388H130.007C131.353 70.388 132.445 69.2961 132.445 67.9492V61.387C132.445 60.0401 131.353 58.9482 130.007 58.9482H92.8448C91.7168 61.286 91.0625 63.8614 91.0625 66.4142C91.0625 67.8686 91.2749 69.2025 91.6662 70.388Z" fill="#FFC500"/><path fill-rule="evenodd" clip-rule="evenodd" d="M91.6652 70.388H100.759C100.641 69.5637 100.579 68.6935 100.579 67.7827C100.579 64.758 101.262 61.706 102.434 58.9482H92.8438C91.7159 61.286 91.0615 63.8614 91.0615 66.4142C91.0615 67.8686 91.2739 69.2025 91.6652 70.388Z" fill="#FFAC00"/></svg>