<svg width="200" height="120" viewBox="0 0 200 120" fill="none" xmlns="http://www.w3.org/2000/svg"><g clip-path="url(#clip0_34417_33016)"><path fill-rule="evenodd" clip-rule="evenodd" d="M87.2468 8.21162C116.453 2.4691 144.785 21.4916 150.527 50.6982C156.269 79.9041 137.247 108.235 108.041 113.978C78.834 119.72 50.5028 100.698 44.7609 71.492C39.0184 42.2847 58.0409 13.9541 87.2468 8.21162Z" fill="#C6ECFD"/><path fill-rule="evenodd" clip-rule="evenodd" d="M94.4317 25.4414C93.3061 24.6573 93.6485 22.9082 94.9877 22.6079L100.935 21.271L100.991 18.928L88.4983 18.63C87.8496 18.6139 87.2117 18.8034 86.6765 19.1708L80.6322 23.3173C79.529 24.0737 78.034 23.2523 78.0827 21.9153L78.1395 20.3282C78.178 19.2584 77.3352 18.3628 76.2642 18.3376L75.9556 18.3298C73.9846 18.2827 72.0758 19.0209 70.6489 20.3811L69.4256 21.547C68.6819 22.2555 67.5062 22.2273 66.7978 21.485L64.2247 18.8434C57.9517 23.8096 52.7899 30.1318 49.2197 37.443L52.3601 47.3774C52.9525 49.3063 54.7119 50.6401 56.7289 50.6884L57.3677 50.7029L58.7496 54.9171C59.908 58.4489 62.8039 61.1343 66.4116 62.0234L75.2374 64.199L74.0444 67.5107L73.9329 72.1968C73.897 73.6714 74.5591 75.0766 75.7181 75.9903L81.2399 80.341C82.399 81.2547 83.0596 82.6593 83.0238 84.1346L82.8751 90.3804C82.8153 92.8687 83.2565 95.344 84.1715 97.6591L86.6651 103.966C86.9939 104.797 87.7794 105.358 88.6719 105.398L88.6866 105.398C89.9565 105.456 91.0257 104.458 91.0555 103.187L91.2221 96.2118L95.1286 93.7409C96.2618 93.024 97.0983 91.9225 97.4857 90.6391L98.8507 86.1151C99.1923 85.1659 100.103 84.5425 101.112 84.5663L102.279 84.5941C103.354 84.6195 104.309 83.9106 104.595 82.8736L105.837 78.3662C106.357 76.4782 105.849 74.4553 104.498 73.0377L103.697 72.1969C102.676 71.1263 101.272 70.5059 99.7934 70.4698L98.9563 70.4499C97.9705 70.4268 97.0346 70.0125 96.3548 69.2987L90.9254 63.6042C89.5307 62.2978 83.5949 60.7068 83.5949 60.7068L70.0313 57.3638C68.8438 57.0711 68.0183 55.9945 68.0448 54.771C68.1103 51.6972 70.6788 49.2424 73.7523 49.317L74.9057 49.3445L74.6599 51.239C74.4689 52.7154 75.5095 54.0683 76.9853 54.2599C77.3983 54.3127 77.8003 54.27 78.1701 54.1478C79.1256 53.835 79.8674 52.9979 80.0055 51.9346L80.7662 46.0783L93.07 33.3482C93.4269 33.0083 93.9046 32.8233 94.3969 32.8357L97.2 32.9025C97.8849 32.9189 98.5231 32.5568 98.8615 31.9596L99.4212 30.9723C99.8932 30.1379 99.6527 29.0803 98.8658 28.5314L94.4317 25.4414ZM139.067 95.4587C145.973 87.1537 150.493 76.73 151.372 65.139C151.841 58.977 151.199 53 149.709 47.3428L146.135 47.3286C145.035 47.3022 143.95 47.6024 143.021 48.1912L141.667 49.0475C139.906 50.1613 137.662 50.1612 135.903 49.0474L132.237 46.7272C130.53 45.6467 128.56 45.0496 126.539 45.001L122.253 44.8986C119.973 44.8437 117.891 46.1832 116.994 48.2792L115.354 52.109C114.817 53.365 114.524 54.7112 114.492 56.0761C114.41 59.4546 115.926 62.673 118.579 64.7639L118.852 64.9794C120.676 66.4172 122.917 67.2238 125.239 67.2797L125.378 67.2834C128.457 67.3567 130.893 69.9122 130.819 72.9905L130.67 79.2293C130.622 81.2428 130.983 83.2448 131.732 85.1141L134.48 91.9734C135.118 93.5661 137.224 94.9058 139.067 95.4587Z" fill="#78D700"/><path d="M106.778 33.5605C71.6134 43.3432 35.7452 65.8313 29.9508 80.2588C24.1547 94.6906 39.3153 99.824 46.1954 100.378M52.4066 101.024L56.8977 101.393" stroke="#FFC97E" stroke-width="3.41831" stroke-linecap="round"/><path d="M116.619 28.8431C116.924 27.3199 118.67 26.585 119.972 27.432L127.058 32.0403C128.536 33.0015 128.337 35.2241 126.712 35.9079L117.969 39.5879C116.344 40.2717 114.616 38.8601 114.962 37.1314L116.619 28.8431Z" fill="#FDB02A"/><path d="M155.958 14.8504C159.675 14.878 162.357 18.3983 160.101 20.2873L133.73 42.3653C131.999 43.8141 128.463 43.1731 126.905 41.1282L109.835 18.7278C108.277 16.6829 109.666 14.507 112.517 14.5281L155.958 14.8504Z" fill="#FFC700"/><path d="M120.391 28.0315L157.501 18.0571" stroke="#FDB02A" stroke-width="2.92998" stroke-linecap="round"/></g><defs><clipPath id="clip0_34417_33016"><rect width="200" height="120" fill="white"/></clipPath></defs></svg>