<svg width="201" height="120" viewBox="0 0 201 120" fill="none" xmlns="http://www.w3.org/2000/svg"><rect width="200" height="120" transform="translate(0.333984)" fill="white"/><path fill-rule="evenodd" clip-rule="evenodd" d="M55.9946 22.9732C54.1029 13.3603 44.751 5.35407 34.9242 5.01091C24.9733 4.66341 18.3036 12.3055 20.0271 22.0801C21.1783 28.6089 25.7828 34.4376 31.6792 37.6923C33.7306 38.9352 36.2516 40.3286 38.9995 41.8475L38.9997 41.8475C47.2032 46.3818 57.4285 52.0336 63.2141 58.1319C70.1015 65.3916 88.8866 83.184 97.4183 91.1728L102.886 84.4249C94.82 77.6771 76.6166 61.3196 67.8677 53.1292C59.2244 45.0375 58.7587 40.7397 58.109 34.7442L58.1089 34.7441C57.9366 33.1537 57.7513 31.4439 57.397 29.5122C56.9119 26.8669 56.4566 24.7217 55.9946 22.9732ZM49.3795 20.9152L48.0069 19.7268C47.4925 19.2814 47.1429 18.6882 47.0354 18.0786L46.6703 16.0081C46.5333 15.2497 46.0945 14.5131 45.4511 13.9613C44.8078 13.4094 44.0128 13.0878 43.242 13.0675L41.1348 12.9939C40.5214 12.9725 39.8908 12.7131 39.3802 12.2723L37.9947 11.0761C37.3566 10.5155 36.5616 10.1846 35.788 10.1575C35.0144 10.1305 34.3269 10.4097 33.8798 10.9324L32.9112 12.0422C32.5508 12.4552 32.0028 12.675 31.3874 12.6535L29.271 12.5796C27.6688 12.5235 26.5871 13.7428 26.8436 15.3158L27.2089 17.3874C27.3163 17.9964 27.1732 18.5717 26.8114 18.9864L25.8453 20.0933C25.3907 20.6068 25.2101 21.3221 25.3437 22.0797C25.4772 22.8373 25.9139 23.5741 26.5563 24.1259L27.9272 25.3145C28.4407 25.7597 28.7897 26.3522 28.897 26.9612L29.2623 29.0328C29.4002 29.791 29.8391 30.5271 30.4823 31.0788C31.1254 31.6305 31.92 31.9524 32.6907 31.9735L34.8071 32.0474C35.4225 32.0689 36.0553 32.3299 36.5666 32.7733L37.9411 33.965C38.5792 34.5256 39.3742 34.8565 40.1478 34.8835C40.9215 34.9105 41.6089 34.6314 42.056 34.1087L43.0359 33.0003C43.3964 32.5924 43.9413 32.3757 44.5526 32.397L46.6728 32.4711C48.2751 32.5272 49.3568 31.3078 49.1002 29.7349L48.7339 27.6575C48.6271 27.052 48.768 26.4795 49.1256 26.0652L50.0906 24.9477C50.5451 24.4343 50.7257 23.719 50.5922 22.9614C50.4586 22.2038 50.0219 21.4669 49.3795 20.9152Z" fill="#FFE99F"/><path fill-rule="evenodd" clip-rule="evenodd" d="M53.4407 25.7902C51.5599 16.1666 42.2006 8.14732 32.3656 7.80388C22.4147 7.45638 15.745 15.0985 17.4685 24.8731C18.619 31.3977 23.2184 37.2232 29.1094 40.4791C31.1625 41.7234 33.6871 43.1189 36.4393 44.6401C44.6428 49.1744 54.8681 54.8261 60.6537 60.9245C67.5411 68.1841 86.3263 85.9765 94.8579 93.9653L101.838 85.356C93.7721 78.6083 75.4523 63.0651 66.7035 54.8747C57.089 45.874 56.5139 42.3766 55.367 35.4015C55.2094 34.4427 55.0409 33.4182 54.8367 32.3047C54.3538 29.6718 53.9004 27.5343 53.4407 25.7902ZM46.82 23.7077L45.4474 22.5193C44.933 22.0739 44.5834 21.4808 44.4759 20.8711L44.1108 18.8006C43.9737 18.0422 43.535 17.3056 42.8916 16.7538C42.2482 16.2019 41.4532 15.8803 40.6825 15.86L38.5753 15.7864C37.9619 15.765 37.3313 15.5056 36.8207 15.0648L35.4352 13.8686C34.7971 13.308 34.0021 12.9771 33.2285 12.95C32.4548 12.923 31.7674 13.2022 31.3203 13.7249L30.3517 14.8347C29.9913 15.2477 29.4433 15.4675 28.8279 15.446L26.7115 15.3721C25.1092 15.316 24.0275 16.5353 24.2841 18.1083L24.6494 20.1799C24.7568 20.7889 24.6137 21.3642 24.2518 21.7789L23.2857 22.8858C22.8312 23.3993 22.6506 24.1146 22.7841 24.8722C22.9177 25.6298 23.3544 26.3666 23.9968 26.9184L25.3676 28.107C25.8812 28.5522 26.2301 29.1447 26.3375 29.7537L26.7028 31.8253C26.8407 32.5835 27.2796 33.3196 27.9227 33.8713C28.5659 34.423 29.3605 34.7449 30.1311 34.766L32.2475 34.8399C32.863 34.8614 33.4957 35.1224 34.0071 35.5658L35.3816 36.7575C36.0197 37.3181 36.8147 37.649 37.5883 37.676C38.3619 37.703 39.0494 37.4239 39.4965 36.9012L40.4764 35.7928C40.8369 35.3849 41.3818 35.1682 41.9931 35.1895L44.1133 35.2636C45.7156 35.3197 46.7973 34.1003 46.5407 32.5274L46.1744 30.4501C46.0676 29.8445 46.2085 29.272 46.5661 28.8577L47.531 27.7402C47.9856 27.2268 48.1662 26.5115 48.0326 25.7539C47.8991 24.9963 47.4624 24.2594 46.82 23.7077Z" fill="#FFC800"/><path d="M128.828 20.3216C123.36 22.5322 118.241 28.2329 113.82 35.2133C109.399 42.1937 105.423 50.3599 100.267 58.8887C94.0423 69.1848 86.5965 79.3647 78.3363 85.589C72.984 89.6221 63.5029 90.3298 62.2231 90.3589C61.1699 90.3829 60.4489 90.6497 60.4198 91.6969C60.4004 92.3971 60.7107 92.9184 61.176 93.0348C61.6414 93.1511 62.0569 93.0354 65.3061 93.2675C70.1925 93.6164 83.9207 98.3865 91.3665 101.179C98.8123 103.971 113.793 112.653 115.565 113.743C118.59 115.605 120.568 115.256 122.197 113.627C123.826 111.998 130.224 107.345 138.019 93.7329C145.011 81.5239 148.839 71.1626 153.725 55.8056C158.949 39.3887 168.384 32.1884 174.957 28.8728C180.881 25.8847 187.203 25.737 188.453 25.9642C189.733 26.1969 190.838 26.3132 191.245 25.0917C191.55 24.1782 191.362 23.6956 190.547 23.3466C189.733 22.9976 188.22 22.4158 185.137 21.7178C182.054 21.0198 174.318 19.9728 166.057 20.089C155.987 20.2308 150.7 17.7623 143.022 17.4131C135.898 17.0892 132.213 18.9531 128.828 20.3216Z" fill="#9FF038"/><path fill-rule="evenodd" clip-rule="evenodd" d="M144.752 20.7627C144.644 20.7486 144.535 20.7734 144.443 20.8307C141.957 22.3706 138.256 23.3472 134.123 23.3472C132.904 23.3472 131.723 23.2623 130.599 23.103C130.509 23.0902 130.417 23.1037 130.334 23.1424C130.214 23.1984 130.095 23.2537 129.976 23.3082C125.602 25.3185 118.165 33.1108 114.752 39.1693C111.987 44.0771 108.979 49.6927 105.825 55.5808C105.085 56.9613 104.338 58.3568 103.583 59.7616C98.7887 68.6913 95.4394 73.8392 89.7387 80.587C87.8348 82.8406 85.6101 84.9689 83.7534 86.6157C83.4453 86.889 83.6131 87.4066 84.0219 87.4565C88.513 88.0043 91.7166 89.4359 91.7166 91.1155C91.7166 92.0753 90.6707 92.954 88.9363 93.6332C88.4985 93.8046 88.4988 94.4814 88.9488 94.6178C91.4148 95.3652 93.9134 96.1821 96.1375 96.9907C99.4121 98.1812 104.402 100.831 108.557 103.144C108.751 103.253 108.994 103.208 109.143 103.042C111.635 100.279 115.514 98.5034 119.871 98.5034C122.118 98.5034 124.238 98.9759 126.106 99.8125C126.292 99.8957 126.511 99.8546 126.648 99.7044C128.943 97.1973 131.695 93.7162 134.646 88.8468C140.775 78.737 145.577 67.1961 150.639 53.4548C156.061 38.7392 162.793 31.9099 168.036 28.9313C169.505 28.0968 170.87 27.4101 172.085 26.865C172.515 26.6716 172.443 25.994 171.983 25.8915C169.096 25.2494 167.098 24.3289 166.556 23.283C166.452 23.0836 166.264 22.9195 166.04 22.9202C163.985 22.9267 161.803 22.9294 159.66 22.8815C155.32 22.7847 152.19 22.1534 149.274 21.565C147.756 21.2588 146.295 20.9642 144.752 20.7627Z" fill="#58CC02"/><path d="M113.587 81.2844C116.477 82.3628 116.263 85.8219 114.053 89.1958C111.842 92.5697 107.654 93.5004 105.327 92.4532C103 91.4061 102.598 87.4431 105.211 84.3092C107.824 81.1754 110.698 80.2059 113.587 81.2844Z" fill="#9FF038"/><path d="M143.487 30.6762C145.93 31.258 146.395 34.2828 143.254 38.1221C140.113 41.9613 138.019 44.405 134.529 43.7066C131.038 43.0082 132.551 38.1219 135.11 34.8645C137.67 31.6071 141.044 30.0945 143.487 30.6762Z" fill="#9FF038"/><path d="M130.923 50.4542C136.507 51.3849 136.74 61.3902 131.737 68.6036C126.734 75.8169 117.494 78.0726 112.89 74.8861C108.286 71.6996 107.656 64.3972 113.821 57.2512C119.986 50.1052 125.338 49.5235 130.923 50.4542Z" fill="#9FF038"/><path fill-rule="evenodd" clip-rule="evenodd" d="M52.6274 73.0141C53.2697 71.254 54.0607 69.2164 55.6496 67.0911C59.3883 62.09 111.172 60.2604 130.336 59.5833L130.336 59.5833L130.337 59.5833C133.643 59.4665 135.978 59.3839 136.928 59.3254C143.53 58.9182 141.079 55.1655 136.855 52.0832C132.551 48.9421 118.939 42.6595 100.906 46.0334C89.4028 48.1857 80.0858 50.1192 72.8756 51.6155C65.2123 53.2058 59.9287 54.3023 56.9293 54.6426C48.9682 55.5458 47.2399 55.4975 44.3674 53.9424C39.9501 50.9174 34.4105 49.513 29.0905 50.5146C19.4779 52.3243 14.2227 61.304 17.3526 70.5712C20.4826 79.8384 30.8124 85.8839 40.4251 84.0741C46.8026 82.8735 51.2621 78.5168 52.6274 73.0141ZM45.4207 63.2048L43.7572 62.233C43.3017 61.9669 42.9569 61.5542 42.7988 61.0859L42.0778 58.9514C41.8318 58.233 41.2992 57.6015 40.5978 57.1964C39.8965 56.7913 39.0842 56.646 38.3406 56.7927L36.1351 57.2079C35.6515 57.299 35.1253 57.2017 34.6715 56.9375L32.9991 55.9638C32.3015 55.5489 31.4878 55.3945 30.7405 55.5352C29.9932 55.6759 29.3748 56.0999 29.0241 56.7121L28.1788 58.1565C27.9474 58.5518 27.5449 58.8252 27.0597 58.9165L24.8447 59.3336C23.2969 59.6248 22.4415 61.0614 22.9253 62.5572L23.6465 64.6926C23.6568 64.7232 23.6663 64.7538 23.6749 64.7845C23.8931 65.4745 23.758 66.6396 23.2633 67.8447C23.0291 68.4152 22.7438 68.9228 22.4404 69.3349C22.4585 69.4076 22.4798 69.4801 22.5043 69.5524C22.7468 70.2707 23.2775 70.9029 23.9779 71.3082L25.6394 72.2806C26.0942 72.5467 26.4384 72.959 26.5964 73.4267L27.3176 75.5622C27.5644 76.2801 28.0971 76.9112 28.7982 77.3162C29.4994 77.7211 30.3113 77.8667 31.0549 77.7209L33.2699 77.3038C33.7551 77.2125 34.2831 77.3107 34.7379 77.5768L36.3995 78.5492C37.097 78.9641 37.9108 79.1185 38.6581 78.9778C39.4054 78.8371 40.0238 78.4131 40.3745 77.8009L41.231 76.3571C41.4631 75.9658 41.8636 75.6954 42.3455 75.6047L44.563 75.1872C45.899 74.9358 46.7191 73.8311 46.6075 72.5716C46.1474 73.1697 45.645 73.4824 45.2322 73.3548C44.4756 73.1208 44.3058 71.4966 44.8529 69.727C45.2939 68.3007 46.066 67.2153 46.7452 66.9702C47.0751 66.3762 47.1292 65.6561 46.8943 64.9606C46.6517 64.2423 46.121 63.6101 45.4207 63.2048Z" fill="#FFE99F"/><path fill-rule="evenodd" clip-rule="evenodd" d="M51.4641 76.036C52.1063 74.2762 52.8973 72.2392 54.4857 70.1145C58.4017 64.8761 114.607 60.9692 131.152 59.8192L131.152 59.8192C133.128 59.6818 134.539 59.5838 135.226 59.5275C141.625 59.0039 142.126 58.0724 137.902 54.9902C133.598 51.8491 121.789 43.8795 99.6259 48.4751C89.7651 50.5198 81.5118 52.343 74.8181 53.8217C65.4659 55.8877 59.1584 57.2811 55.7654 57.666C47.7952 58.5703 46.0721 58.5208 43.1937 56.9604C38.778 53.9401 33.2425 52.5385 27.9265 53.5393C18.3138 55.3491 13.0586 64.3287 16.1885 73.5959C19.3185 82.8631 29.6484 88.9086 39.261 87.0988C45.6396 85.898 50.0995 81.5401 51.4641 76.036ZM44.2557 66.2296L42.7701 65.3616C42.2008 65.029 41.7697 64.5132 41.572 63.9278L40.9129 61.9761C40.6668 61.2578 40.1342 60.6262 39.4329 60.2211C38.7315 59.816 37.9192 59.6708 37.1756 59.8175L35.1589 60.1972C34.5544 60.311 33.8967 60.1894 33.3294 59.8591L31.8341 58.9885C31.1365 58.5736 30.3228 58.4192 29.5755 58.5599C28.8282 58.7006 28.2098 59.1246 27.8591 59.7369L27.1042 61.0269C26.815 61.521 26.3118 61.8628 25.7053 61.977L23.6797 62.3583C22.1319 62.6496 21.2766 64.0861 21.7603 65.5819L22.4198 67.5348C22.6173 68.1194 22.5658 68.7255 22.2766 69.2196L21.5216 70.5096C21.1624 71.1144 21.0967 71.8589 21.3393 72.5772C21.5819 73.2954 22.1125 73.9277 22.8129 74.3329L24.2969 75.2014C24.8653 75.5341 25.2956 76.0495 25.4931 76.6341L26.1527 78.587C26.3995 79.3049 26.9322 79.9359 27.6333 80.3409C28.3344 80.7459 29.1463 80.8915 29.8899 80.7456L31.9155 80.3642C32.522 80.2501 33.182 80.3728 33.7505 80.7055L35.2345 81.574C35.9321 81.9889 36.7458 82.1432 37.4931 82.0026C38.2404 81.8619 38.8588 81.4379 39.2095 80.8256L39.9754 79.5345C40.2656 79.0454 40.7662 78.7074 41.3686 78.594L43.3981 78.2119C44.9458 77.9207 45.8012 76.4841 45.3175 74.9883L44.656 73.0299C44.4597 72.4486 44.5095 71.8459 44.7946 71.3531L45.547 70.0528C45.9062 69.4481 45.9719 68.7036 45.7293 67.9853C45.4867 67.2671 44.9561 66.6348 44.2557 66.2296Z" fill="#FFC800"/><ellipse cx="67.1097" cy="60.9829" rx="3.31572" ry="2.38499" transform="rotate(4.0059 67.1097 60.9829)" fill="#FFE99F"/></svg>