<svg width="411" height="260" viewBox="0 0 411 260" fill="none" xmlns="http://www.w3.org/2000/svg"><path fill-rule="evenodd" clip-rule="evenodd" d="M273.021 235.817L283.438 219.072C284.84 216.889 287.054 215.191 289.511 214.411L308.17 208.027C316.294 205.254 322.484 197.738 322.988 190.036L324.054 172.222C324.22 169.905 325.418 167.543 327.352 165.72L342.139 151.826C348.596 145.775 350.601 137.093 346.937 131.043L338.542 117.119C337.446 115.297 337.338 112.934 338.246 110.617L345.405 92.8032C348.458 85.1004 345.739 77.585 338.895 74.8115L323.183 68.4283C321.131 67.5933 319.756 65.8655 319.404 63.678L316.726 46.9036C315.541 39.6267 308.842 35.2942 300.66 36.5123L281.692 39.4813C279.233 39.8526 276.953 39.227 275.417 37.7593L262.944 28.7019C257.853 23.8051 249.798 21.5212 242.446 26.418L225.537 37.7593C223.325 39.2304 220.754 39.8565 218.467 39.4813L200.87 36.5123C193.25 35.2942 184.551 39.6267 180.006 46.9036L169.582 63.678C168.212 65.8592 166.044 67.5837 163.61 68.4283L144.921 74.8115C136.808 77.6035 130.63 85.1049 130.103 92.8032L129.037 110.617C128.888 112.93 127.7 115.294 125.769 117.119L110.914 131.043C104.489 137.105 102.49 145.763 106.116 151.826L114.691 165.631C115.775 167.457 115.872 169.82 114.957 172.133L107.797 189.947C104.77 197.645 107.484 205.146 114.308 207.938L129.901 214.44C131.953 215.275 133.327 217.003 133.679 219.191L136.365 235.935C137.528 243.228 144.239 247.568 152.431 246.327L171.398 243.358C173.861 242.994 176.139 243.631 177.667 245.109L189.282 256.302C194.353 261.233 203.263 261.233 210.611 256.302L227.483 244.99C229.694 243.516 232.265 242.879 234.56 243.239L252.157 246.208C259.775 247.45 268.49 243.109 273.021 235.817ZM241.08 143.698C238.977 144.588 237.486 146.746 237.872 148.635L247.552 196.037C248.032 198.385 245.662 200.988 243.044 200.988H181.411C178.793 200.988 177.625 198.385 179.189 196.037L210.757 148.634C212.015 146.746 211.52 144.587 209.829 143.697C199.049 138.024 193.487 125.973 196.708 112.022C201.188 92.6174 220.964 76.8865 240.88 76.8865C260.795 76.8865 273.308 92.6174 268.828 112.022C265.607 125.973 254.481 138.025 241.08 143.698Z" fill="url(#paint0_linear_31042_35355)"/><path fill-rule="evenodd" clip-rule="evenodd" d="M261.228 245.279L241.978 227.266L212.941 225.122L232.184 243.206C232.991 243.109 233.791 243.118 234.56 243.238L252.157 246.207C255.118 246.69 258.245 246.329 261.228 245.279ZM289.511 214.41C288.51 214.727 287.55 215.197 286.669 215.79L267.885 198.355L297.743 182.105L318.334 201.003C315.718 204.134 312.18 206.658 308.17 208.026L289.511 214.41ZM348.176 142.063C347.239 145.534 345.184 148.972 342.139 151.825L327.353 165.719C326.234 166.774 325.361 168.008 324.792 169.31L305.868 151.748L329.097 124.481L348.176 142.063Z" fill="url(#paint1_linear_31042_35355)"/><path d="M210.53 144.196L196.27 131.694L195.995 147.026L208.854 148.455L210.53 144.196Z" fill="#33BF33"/><path d="M110.762 205.773L96.2812 193.106L96.0889 189.452L109.223 194.837L110.762 205.773Z" fill="#29B629"/><path d="M140.98 243.779L126.5 231.113L126.308 227.458L139.442 232.844L140.98 243.779Z" fill="#21B021"/><path d="M189.909 256.894L175.429 244.227L175.236 240.573L188.37 245.958L189.909 256.894Z" fill="#1EAD1E"/><path d="M298.198 26.8642L312.646 39.5468L312.646 39.5469L308.413 49.3829L294.649 44.9873L298.198 26.8643V26.8642Z" fill="#44CD43"/><path d="M342.461 76.9807L327.815 64.1904L324.266 82.3136L338.029 86.7092L342.461 76.9807Z" fill="#3CC63C"/><path fill-rule="evenodd" clip-rule="evenodd" d="M258.952 223.506L269.369 206.761C270.772 204.579 272.985 202.88 275.442 202.1L294.101 195.717C302.226 192.943 308.416 185.428 308.919 177.725L309.985 159.912C310.151 157.594 311.349 155.233 313.284 153.41L328.07 139.515C334.528 133.465 336.532 124.783 332.868 118.733L324.474 104.808C323.377 102.987 323.269 100.624 324.177 98.3064L331.337 80.4929C334.39 72.7901 331.67 65.2747 324.826 62.5012L309.114 56.118C307.062 55.2829 305.688 53.5551 305.336 51.3677L302.657 34.5932C301.472 27.3163 294.773 22.9838 286.591 24.202L267.624 27.1709C265.164 27.5423 262.884 26.9166 261.348 25.4489L249.707 14.1076C244.616 9.21087 235.73 9.21087 228.377 14.1076L211.469 25.4489C209.256 26.92 206.686 27.5461 204.398 27.1709L186.801 24.202C179.182 22.9838 170.483 27.3163 165.937 34.5932L155.514 51.3677C154.143 53.5489 151.975 55.2733 149.542 56.118L130.852 62.5012C122.739 65.2931 116.561 72.7945 116.034 80.4929L114.968 98.3064C114.819 100.62 113.631 102.984 111.7 104.808L96.8458 118.733C90.4207 124.795 88.4218 133.453 92.0478 139.515L100.622 153.321C101.707 155.147 101.803 157.509 100.888 159.823L93.7286 177.636C90.7011 185.335 93.4157 192.836 100.239 195.628L115.832 202.13C117.884 202.965 119.259 204.693 119.611 206.88L122.296 223.625C123.459 230.918 130.17 235.258 138.362 234.016L157.33 231.047C159.792 230.684 162.07 231.321 163.598 232.799L175.213 243.992C180.284 248.923 189.195 248.923 196.542 243.992L213.414 232.68C215.626 231.205 218.196 230.569 220.491 230.928L238.088 233.897C245.707 235.139 254.422 230.799 258.952 223.506ZM227.01 131.386C224.907 132.276 223.416 134.435 223.802 136.324L233.482 183.725C233.961 186.073 231.592 188.676 228.974 188.676H167.341C164.723 188.676 163.555 186.073 165.119 183.725L196.686 136.323C197.944 134.434 197.45 132.276 195.759 131.386C184.978 125.712 179.417 113.661 182.637 99.7109C187.117 80.3059 206.894 64.575 226.809 64.575C246.725 64.575 259.238 80.3059 254.758 99.7109C251.537 113.662 240.41 125.713 227.01 131.386Z" fill="#14A514"/><path fill-rule="evenodd" clip-rule="evenodd" d="M258.952 223.506L269.369 206.761C270.772 204.579 272.985 202.88 275.442 202.1L294.101 195.717C302.226 192.943 308.416 185.428 308.919 177.725L309.985 159.912C310.151 157.594 311.349 155.233 313.284 153.41L328.07 139.515C334.528 133.465 336.532 124.783 332.868 118.733L324.474 104.808C323.377 102.987 323.269 100.624 324.177 98.3064L331.337 80.4929C334.39 72.7901 331.67 65.2747 324.826 62.5012L309.114 56.118C307.062 55.2829 305.688 53.5551 305.336 51.3677L302.657 34.5932C301.472 27.3163 294.773 22.9838 286.591 24.202L267.624 27.1709C265.164 27.5423 262.884 26.9166 261.348 25.4489L249.707 14.1076C244.616 9.21087 235.73 9.21087 228.377 14.1076L211.469 25.4489C209.256 26.92 206.686 27.5461 204.398 27.1709L186.801 24.202C179.182 22.9838 170.483 27.3163 165.937 34.5932L155.514 51.3677C154.143 53.5489 151.975 55.2733 149.542 56.118L130.852 62.5012C122.739 65.2931 116.561 72.7945 116.034 80.4929L114.968 98.3064C114.819 100.62 113.631 102.984 111.7 104.808L96.8458 118.733C90.4207 124.795 88.4218 133.453 92.0478 139.515L100.622 153.321C101.707 155.147 101.803 157.509 100.888 159.823L93.7286 177.636C90.7011 185.335 93.4157 192.836 100.239 195.628L115.832 202.13C117.884 202.965 119.259 204.693 119.611 206.88L122.296 223.625C123.459 230.918 130.17 235.258 138.362 234.016L157.33 231.047C159.792 230.684 162.07 231.321 163.598 232.799L175.213 243.992C180.284 248.923 189.195 248.923 196.542 243.992L213.414 232.68C215.626 231.205 218.196 230.569 220.491 230.928L238.088 233.897C245.707 235.139 254.422 230.799 258.952 223.506ZM227.01 131.386C224.907 132.276 223.416 134.435 223.802 136.324L233.482 183.725C233.961 186.073 231.592 188.676 228.974 188.676H167.341C164.723 188.676 163.555 186.073 165.119 183.725L196.686 136.323C197.944 134.434 197.45 132.276 195.759 131.386C184.978 125.712 179.417 113.661 182.637 99.7109C187.117 80.3059 206.894 64.575 226.809 64.575C246.725 64.575 259.238 80.3059 254.758 99.7109C251.537 113.662 240.41 125.713 227.01 131.386Z" fill="#58CC02"/><path fill-rule="evenodd" clip-rule="evenodd" d="M258.952 223.506L269.369 206.761C270.772 204.579 272.985 202.88 275.442 202.1L294.101 195.717C302.226 192.943 308.416 185.428 308.919 177.725L309.985 159.912C310.151 157.594 311.349 155.233 313.284 153.41L328.07 139.515C334.528 133.465 336.532 124.783 332.868 118.733L324.474 104.808C323.377 102.987 323.269 100.624 324.177 98.3064L331.337 80.4929C334.39 72.7901 331.67 65.2747 324.826 62.5012L309.114 56.118C307.062 55.2829 305.688 53.5551 305.336 51.3677L302.657 34.5932C301.472 27.3163 294.773 22.9838 286.591 24.202L267.624 27.1709C265.164 27.5423 262.884 26.9166 261.348 25.4489L249.707 14.1076C244.616 9.21087 235.73 9.21087 228.377 14.1076L211.469 25.4489C209.256 26.92 206.686 27.5461 204.398 27.1709L186.801 24.202C179.182 22.9838 170.483 27.3163 165.937 34.5932L155.514 51.3677C154.143 53.5489 151.975 55.2733 149.542 56.118L130.852 62.5012C122.739 65.2931 116.561 72.7945 116.034 80.4929L114.968 98.3064C114.819 100.62 113.631 102.984 111.7 104.808L96.8458 118.733C90.4207 124.795 88.4218 133.453 92.0478 139.515L100.622 153.321C101.707 155.147 101.803 157.509 100.888 159.823L93.7286 177.636C90.7011 185.335 93.4157 192.836 100.239 195.628L115.832 202.13C117.884 202.965 119.259 204.693 119.611 206.88L122.296 223.625C123.459 230.918 130.17 235.258 138.362 234.016L157.33 231.047C159.792 230.684 162.07 231.321 163.598 232.799L175.213 243.992C180.284 248.923 189.195 248.923 196.542 243.992L213.414 232.68C215.626 231.205 218.196 230.569 220.491 230.928L238.088 233.897C245.707 235.139 254.422 230.799 258.952 223.506ZM227.01 131.386C224.907 132.276 223.416 134.435 223.802 136.324L233.482 183.725C233.961 186.073 231.592 188.676 228.974 188.676H167.341C164.723 188.676 163.555 186.073 165.119 183.725L196.686 136.323C197.944 134.434 197.45 132.276 195.759 131.386C184.978 125.712 179.417 113.661 182.637 99.7109C187.117 80.3059 206.894 64.575 226.809 64.575C246.725 64.575 259.238 80.3059 254.758 99.7109C251.537 113.662 240.41 125.713 227.01 131.386Z" fill="#58CC02"/><path opacity="0.6" fill-rule="evenodd" clip-rule="evenodd" d="M258.952 223.506L269.369 206.761C270.772 204.579 272.985 202.88 275.442 202.1L294.101 195.717C302.226 192.943 308.416 185.428 308.919 177.725L309.985 159.912C310.151 157.594 311.349 155.233 313.284 153.41L328.07 139.515C334.528 133.465 336.532 124.783 332.868 118.733L324.474 104.808C323.377 102.987 323.269 100.624 324.177 98.3064L331.337 80.4929C334.39 72.7901 331.67 65.2747 324.826 62.5012L309.114 56.118C307.062 55.2829 305.688 53.5551 305.336 51.3677L302.657 34.5932C301.472 27.3163 294.773 22.9838 286.591 24.202L267.624 27.1709C265.164 27.5423 262.884 26.9166 261.348 25.4489L249.707 14.1076C244.616 9.21087 235.73 9.21087 228.377 14.1076L211.469 25.4489C209.256 26.92 206.686 27.5461 204.398 27.1709L186.801 24.202C179.182 22.9838 170.483 27.3163 165.937 34.5932L155.514 51.3677C154.143 53.5489 151.975 55.2733 149.542 56.118L130.852 62.5012C122.739 65.2931 116.561 72.7945 116.034 80.4929L114.968 98.3064C114.819 100.62 113.631 102.984 111.7 104.808L96.8458 118.733C90.4207 124.795 88.4218 133.453 92.0478 139.515L100.622 153.321C101.707 155.147 101.803 157.509 100.888 159.823L93.7286 177.636C90.7011 185.335 93.4157 192.836 100.239 195.628L115.832 202.13C117.884 202.965 119.259 204.693 119.611 206.88L122.296 223.625C123.459 230.918 130.17 235.258 138.362 234.016L157.33 231.047C159.792 230.684 162.07 231.321 163.598 232.799L175.213 243.992C180.284 248.923 189.195 248.923 196.542 243.992L213.414 232.68C215.626 231.205 218.196 230.569 220.491 230.928L238.088 233.897C245.707 235.139 254.422 230.799 258.952 223.506ZM227.01 131.386C224.907 132.276 223.416 134.435 223.802 136.324L233.482 183.725C233.961 186.073 231.592 188.676 228.974 188.676H167.341C164.723 188.676 163.555 186.073 165.119 183.725L196.686 136.323C197.944 134.434 197.45 132.276 195.759 131.386C184.978 125.712 179.417 113.661 182.637 99.7109C187.117 80.3059 206.894 64.575 226.809 64.575C246.725 64.575 259.238 80.3059 254.758 99.7109C251.537 113.662 240.41 125.713 227.01 131.386Z" fill="url(#paint2_linear_31042_35355)"/><path opacity="0.75" d="M85.6033 66.2975C86.9028 67.0156 86.7811 69.2012 85.4207 69.7957C83.5779 70.601 81.521 71.6915 80.1487 72.9902C78.6021 74.4539 77.2539 76.8449 76.2572 78.9747C75.6092 80.3594 73.2891 80.3569 72.6455 78.9701C71.6619 76.851 70.3354 74.4764 68.8197 73.023C67.4098 71.6712 65.3514 70.5812 63.5272 69.7949C62.1796 69.214 62.0084 67.0691 63.2694 66.3185C65.148 65.2004 67.3244 63.7263 68.7882 62.1731C70.2937 60.5757 71.7809 58.2775 72.8395 56.4834C73.4987 55.3663 75.2128 55.3689 75.8682 56.4882C76.9664 58.3635 78.5331 60.7919 80.1181 62.4138C81.5484 63.8774 83.7084 65.2503 85.6033 66.2975Z" fill="#A5ED6E"/><path opacity="0.44" d="M408.75 32.7336C410.049 33.4516 409.928 35.6372 408.567 36.2317C406.724 37.0371 404.667 38.1275 403.295 39.4263C401.749 40.8899 400.4 43.281 399.404 45.4108C398.756 46.7954 396.436 46.7929 395.792 45.4062C394.808 43.287 393.482 40.9125 391.966 39.4591C390.556 38.1072 388.498 37.0173 386.674 36.2309C385.326 35.65 385.155 33.5051 386.416 32.7545C388.294 31.6364 390.471 30.1623 391.935 28.6092C393.44 27.0117 394.927 24.7135 395.986 22.9195C396.645 21.8023 398.359 21.8049 399.015 22.9242C400.113 24.7996 401.68 27.228 403.265 28.8498C404.695 30.3135 406.855 31.6864 408.75 32.7336Z" fill="#A5ED6E"/><path opacity="0.44" d="M24.617 206.69C25.9164 207.408 25.7948 209.594 24.4344 210.188C22.5916 210.994 20.5347 212.084 19.1624 213.383C17.6158 214.846 16.2676 217.238 15.2709 219.367C14.6229 220.752 12.3028 220.749 11.6591 219.363C10.6755 217.244 9.34911 214.869 7.83332 213.416C6.42344 212.064 4.36508 210.974 2.5409 210.187C1.19327 209.607 1.0221 207.462 2.28312 206.711C4.16164 205.593 6.33811 204.119 7.8019 202.566C9.30741 200.968 10.7946 198.67 11.8532 196.876C12.5124 195.759 14.2264 195.761 14.8819 196.881C15.9801 198.756 17.5467 201.185 19.1317 202.806C20.5621 204.27 22.722 205.643 24.617 206.69Z" fill="#A5ED6E"/><path d="M365.29 15.035C367.003 15.9819 366.843 18.8638 365.049 19.6478C362.619 20.7097 359.907 22.1476 358.097 23.8601C356.058 25.7901 354.28 28.943 352.966 31.7513C352.112 33.5772 349.052 33.5738 348.204 31.7453C346.907 28.9509 345.158 25.8198 343.159 23.9034C341.3 22.1208 338.586 20.6836 336.18 19.6467C334.403 18.8807 334.177 16.0525 335.84 15.0627C338.317 13.5883 341.187 11.6446 343.117 9.59657C345.103 7.49017 347.064 4.45975 348.459 2.09405C349.329 0.620981 351.589 0.62439 352.453 2.10035C353.901 4.57318 355.967 7.77533 358.057 9.91391C359.943 11.8439 362.791 13.6542 365.29 15.035Z" fill="#A5ED6E"/><path d="M71.5582 174.881C73.5738 175.995 73.3852 179.385 71.275 180.307C68.4165 181.557 65.226 183.248 63.0973 185.263C60.6983 187.533 58.6071 191.242 57.0611 194.545C56.056 196.693 52.4571 196.689 51.4588 194.538C49.933 191.251 47.8756 187.568 45.5244 185.313C43.3375 183.217 40.1447 181.526 37.3151 180.306C35.2247 179.405 34.9592 176.078 36.9152 174.914C39.8291 173.179 43.2051 170.893 45.4756 168.484C47.8109 166.006 50.1177 162.441 51.7598 159.658C52.7823 157.925 55.441 157.929 56.4577 159.666C58.1611 162.574 60.5913 166.341 63.0498 168.857C65.2685 171.127 68.6188 173.257 71.5582 174.881Z" fill="#A5ED6E"/><defs><linearGradient id="paint0_linear_31042_35355" x1="235.683" y1="-2.52769" x2="265.926" y2="292.563" gradientUnits="userSpaceOnUse"><stop stop-color="#4ED54E"/><stop offset="1" stop-color="#14A514"/></linearGradient><linearGradient id="paint1_linear_31042_35355" x1="243.925" y1="302.183" x2="326.791" y2="85.6605" gradientUnits="userSpaceOnUse"><stop offset="0.0676948" stop-color="#5ED109"/><stop offset="0.699982" stop-color="#85DF40"/></linearGradient><linearGradient id="paint2_linear_31042_35355" x1="157.921" y1="-28.4481" x2="257.855" y2="278.686" gradientUnits="userSpaceOnUse"><stop offset="0.272457" stop-color="#A5ED6E"/><stop offset="0.901384" stop-color="#58CC02"/></linearGradient></defs></svg>