<svg width="330" height="221" viewBox="0 0 330 221" fill="none" xmlns="http://www.w3.org/2000/svg"><rect y="0.857422" width="330" height="220" rx="24" fill="#D7FFB8"/><path d="M210.026 158.449L206.08 168.811C205.247 170.996 203.686 172.827 201.661 173.996C199.635 175.164 197.269 175.599 194.96 175.227L184.014 173.474C183.306 173.363 182.583 173.401 181.891 173.586C181.199 173.771 180.553 174.1 179.996 174.55L171.397 181.54C169.585 183.017 167.319 183.823 164.981 183.823C162.643 183.823 160.377 183.017 158.565 181.54L149.966 174.55C149.408 174.098 148.76 173.769 148.066 173.584C147.373 173.398 146.647 173.361 145.938 173.474L134.992 175.227C132.683 175.599 130.317 175.164 128.291 173.996C126.265 172.827 124.705 170.996 123.872 168.811L119.926 158.449C119.669 157.781 119.276 157.174 118.771 156.668C118.267 156.161 117.661 155.766 116.994 155.507L106.633 151.561C104.446 150.73 102.614 149.169 101.445 147.143C100.276 145.117 99.842 142.75 100.217 140.441L101.969 129.495C102.088 128.791 102.058 128.07 101.881 127.378C101.705 126.686 101.386 126.038 100.944 125.477L93.9031 116.878C92.4265 115.066 91.6201 112.8 91.6201 110.462C91.6201 108.124 92.4265 105.858 93.9031 104.046L100.893 95.447C101.334 94.8857 101.654 94.2384 101.83 93.5465C102.007 92.8546 102.036 92.1335 101.918 91.4294L100.217 80.4833C99.842 78.1744 100.276 75.8069 101.445 73.7808C102.614 71.7548 104.446 70.1943 106.633 69.3629L116.994 65.4067C117.663 65.1538 118.27 64.7616 118.775 64.2563C119.281 63.7509 119.673 63.1439 119.926 62.4755L123.882 52.1136C124.713 49.9272 126.274 48.0948 128.3 46.9258C130.326 45.7568 132.693 45.323 135.002 45.6976L145.938 47.4502C146.642 47.5687 147.363 47.5387 148.055 47.3622C148.747 47.1857 149.394 46.8666 149.956 46.4253L158.555 39.4354C160.367 37.9587 162.633 37.1523 164.971 37.1523C167.308 37.1523 169.575 37.9587 171.387 39.4354L179.986 46.4253C180.547 46.8666 181.195 47.1857 181.886 47.3622C182.578 47.5387 183.299 47.5687 184.004 47.4502L194.95 45.6976C197.259 45.323 199.626 45.7568 201.652 46.9258C203.678 48.0948 205.239 49.9272 206.07 52.1136L210.016 62.4755C210.274 63.1423 210.67 63.7476 211.176 64.2524C211.683 64.7573 212.29 65.1505 212.957 65.4067L223.319 69.3629C225.505 70.1959 227.336 71.7567 228.504 73.7823C229.673 75.8079 230.108 78.1745 229.735 80.4833L227.993 91.4191C227.881 92.1268 227.92 92.85 228.105 93.542C228.29 94.2341 228.619 94.8795 229.069 95.4368L236.059 104.036C237.536 105.848 238.342 108.114 238.342 110.452C238.342 112.789 237.536 115.056 236.059 116.868L229.069 125.467C228.619 126.024 228.29 126.67 228.105 127.362C227.92 128.054 227.881 128.777 227.993 129.485L229.746 140.431C230.118 142.739 229.683 145.106 228.515 147.132C227.346 149.157 225.515 150.718 223.33 151.551L212.968 155.497C212.298 155.755 211.69 156.152 211.183 156.66C210.677 157.169 210.282 157.778 210.026 158.449Z" fill="#58CC02"/><path d="M193.373 100.639C196.06 106.608 196.582 113.326 194.85 119.638C193.118 125.949 189.24 131.46 183.884 135.222C178.528 138.983 172.028 140.761 165.503 140.248C158.978 139.735 152.836 136.964 148.134 132.412C143.167 134.227 137.758 134.452 132.658 133.054C127.558 131.657 123.019 128.706 119.672 124.612C119.341 124.204 119.111 123.723 119.002 123.208C118.892 122.694 118.906 122.161 119.042 121.654C119.178 121.146 119.432 120.677 119.784 120.287C120.136 119.896 120.575 119.594 121.066 119.405L134.687 114.137L127.768 104.267C126.872 102.983 126.306 101.497 126.123 99.9415C125.939 98.3859 126.143 96.809 126.716 95.3512C127.289 93.8934 128.214 92.6 129.408 91.586C130.602 90.572 132.028 89.8689 133.559 89.5394C141.349 87.879 146.357 86.2699 148.585 84.712C150.812 83.1542 153.982 79.0545 158.096 72.413C158.926 71.0807 160.073 69.9749 161.435 69.1947C162.797 68.4146 164.331 67.9844 165.9 67.9428C167.469 67.9012 169.024 68.2493 170.426 68.9561C171.827 69.663 173.031 70.7063 173.931 71.9928L180.808 81.791L190.258 70.9167C190.602 70.5193 191.035 70.209 191.522 70.0112C192.01 69.8134 192.537 69.7338 193.06 69.7788C193.584 69.8237 194.09 69.9921 194.536 70.27C194.983 70.548 195.357 70.9276 195.628 71.3779C198.318 75.8917 199.545 81.1272 199.141 86.3662C198.738 91.6051 196.723 96.5908 193.373 100.639ZM168.96 147.293L161.652 146.269C160.422 146.09 159.172 146.408 158.176 147.152C157.181 147.896 156.521 149.005 156.343 150.235C156.165 151.465 156.483 152.715 157.227 153.711C157.971 154.707 159.08 155.366 160.31 155.544L167.617 156.569C168.849 156.74 170.098 156.415 171.089 155.666C172.081 154.916 172.735 153.803 172.906 152.572C173.077 151.34 172.752 150.091 172.002 149.1C171.253 148.108 170.14 147.454 168.909 147.283L168.96 147.293ZM207.363 114.496C206.15 114.238 204.883 114.471 203.842 115.146C202.8 115.82 202.069 116.88 201.808 118.094L200.281 125.36C200.133 125.97 200.109 126.603 200.21 127.222C200.311 127.842 200.536 128.434 200.87 128.965C201.205 129.496 201.643 129.954 202.158 130.312C202.673 130.67 203.255 130.921 203.869 131.051C204.483 131.18 205.116 131.184 205.732 131.064C206.348 130.943 206.933 130.7 207.453 130.349C207.973 129.998 208.417 129.546 208.759 129.02C209.101 128.494 209.334 127.905 209.444 127.287L210.971 120.113C211.233 118.894 211 117.62 210.323 116.573C209.647 115.526 208.582 114.79 207.363 114.527V114.496Z" fill="white"/></svg>